<?xml version="1.0" encoding="utf-8"?>
<!DOCTYPE svg PUBLIC "-//W3C//DTD SVG 1.1//EN" "http://www.w3.org/Graphics/SVG/1.1/DTD/svg11.dtd">
<svg xmlns="http://www.w3.org/2000/svg" xmlns:xlink="http://www.w3.org/1999/xlink" version="1.1" baseProfile="full" width="623.621" height="982.677" viewBox="0 0 623.62 982.68" enable-background="new 0 0 623.62 982.68" xml:space="preserve">
	<g>
		<linearGradient id="SVGID_Fill1_" gradientUnits="objectBoundingBox" x1="0.0603324" y1="0.0393782" x2="1.34935" y2="0.0393782" gradientTransform="rotate(69.365891 0.060332 0.039378)">
			<stop offset="0" stop-color="#E3D187" stop-opacity="1"/>
			<stop offset="0.359223" stop-color="#C1B06D" stop-opacity="1"/>
			<stop offset="0.655342" stop-color="#EDE1BE" stop-opacity="1"/>
			<stop offset="1" stop-color="#CCBC79" stop-opacity="1"/>
		</linearGradient>
		<path fill="url(#SVGID_Fill1_)" stroke-width="0.2" stroke-linejoin="round" d="M 623.621,30.2361L 623.621,952.441C 623.621,969.14 610.083,982.677 593.384,982.677L 30.2361,982.677C 13.5371,982.677 0,969.14 0,952.441L 0,30.2361C 0,13.5369 13.5371,-0.000244141 30.2361,-0.000244141L 593.384,-0.000244141C 610.083,-0.000244141 623.621,13.5369 623.621,30.2361 Z "/>
		<g>
			<g>
				<path fill="#000000" fill-opacity="1" stroke-width="0.2" stroke-linejoin="round" d="M 403.011,918.972L 384.633,850.802C 391.002,850.802 397.372,850.802 402.134,858.545C 406.896,866.289 410.052,881.777 413.208,897.264L 430.385,850.802L 448.628,850.802L 421.126,918.972L 403.011,918.972 Z "/>
				<path fill="#000000" fill-opacity="1" stroke-width="0.2" stroke-linejoin="round" d="M 445.221,918.972L 456.094,850.802L 473.618,850.802L 462.565,918.955L 445.221,918.972 Z "/>
				<path fill="#000000" fill-opacity="1" stroke-width="0.2" stroke-linejoin="round" d="M 585.825,918.957L 570.094,918.955L 567.625,908.804L 545.116,908.802L 540.184,918.952L 523.298,918.952C 532.168,895.436 541.039,871.921 549.146,860.562C 557.252,849.204 564.594,850.003 571.936,850.802L 585.825,918.957 Z M 564.845,894.949L 559.432,869.203L 549.939,894.948L 564.845,894.949 Z "/>
				<path fill="#000000" fill-opacity="1" stroke-width="0.2" stroke-linejoin="round" d="M 491.747,922.026C 487.589,921.431 483.985,920.745 480.936,919.969C 477.887,919.192 475.19,918.289 472.846,917.26L 476.601,901.734C 480.523,903.034 483.903,904.071 486.739,904.847C 489.574,905.622 491.988,906.152 493.979,906.437C 498.995,907.156 502.706,907.133 505.111,906.369C 507.516,905.606 508.887,904.044 509.225,901.685C 509.438,900.194 509.279,898.997 508.746,898.094C 508.213,897.19 507.279,896.384 505.943,895.676L 491.025,887.668C 486.93,885.457 484.022,882.811 482.302,879.729C 480.583,876.646 480.086,872.572 480.811,867.506C 481.926,859.719 485.145,854.327 490.469,851.33C 495.792,848.333 503.525,847.56 513.668,849.012C 516.143,849.367 518.578,849.83 520.971,850.401C 523.365,850.973 525.849,851.672 528.425,852.499L 524.913,867.506C 521.972,866.715 519.386,866.094 517.156,865.642C 514.925,865.189 512.913,864.835 511.12,864.578C 505.454,863.767 501.266,863.695 498.555,864.363C 495.844,865.031 494.322,866.523 493.99,868.839C 493.771,870.373 493.989,871.557 494.644,872.389C 495.3,873.221 496.375,874.025 497.869,874.801L 510.401,881.358C 515.281,883.815 518.726,886.779 520.738,890.25C 522.75,893.721 523.371,898.149 522.6,903.533C 521.5,911.219 518.445,916.561 513.435,919.559C 508.426,922.557 501.197,923.379 491.747,922.026 Z "/>
				<path fill="#000000" fill-opacity="1" stroke-width="0.2" stroke-linejoin="round" d="M 368.404,852.137L 368.724,850.805L 397.112,850.805C 397.112,850.805 403.797,850.433 404.995,856.864C 406.193,863.295 411.067,887.716 411.067,887.716C 411.067,887.716 402.988,860.859 368.404,852.137 Z "/>
			</g>
			<g>
				<path fill="#FFFFFF" fill-opacity="1" stroke-width="0.2" stroke-linejoin="round" d="M 218.651,755.905L 310.99,755.905C 312.973,755.905 314.581,757.512 314.581,759.495L 314.581,880.467C 314.581,882.449 312.973,884.057 310.99,884.057L 218.651,884.057C 216.668,884.057 215.061,882.449 215.061,880.467L 215.061,759.495C 215.061,757.512 216.668,755.905 218.651,755.905 Z "/>
				<path fill="#EAEAEA" fill-opacity="1" stroke-width="0.2" stroke-linejoin="round" d="M 226.228,755.904L 238.46,755.904C 240.443,755.904 242.051,757.511 242.051,759.494L 242.051,801.669C 242.051,803.652 240.443,805.26 238.46,805.26L 226.228,805.26C 224.245,805.26 222.637,803.652 222.637,801.669L 222.637,759.494C 222.637,757.511 224.245,755.904 226.228,755.904 Z "/>
				<path fill="#EAEAEA" fill-opacity="1" stroke-width="0.2" stroke-linejoin="round" d="M 257.801,755.904L 270.033,755.904C 272.016,755.904 273.624,757.512 273.624,759.495L 273.624,793.778C 273.624,795.761 272.016,797.368 270.033,797.368L 257.801,797.368C 255.818,797.368 254.211,795.761 254.211,793.778L 254.211,759.495C 254.211,757.512 255.818,755.904 257.801,755.904 Z "/>
				<path fill="#EAEAEA" fill-opacity="1" stroke-width="0.2" stroke-linejoin="round" d="M 290.442,755.906L 302.674,755.906C 304.657,755.906 306.264,757.513 306.264,759.496L 306.264,790.11C 306.264,792.094 304.657,793.701 302.674,793.701L 290.442,793.701C 288.459,793.701 286.851,792.094 286.851,790.11L 286.851,759.496C 286.851,757.513 288.459,755.906 290.442,755.906 Z "/>
				<path fill="#EAEAEA" fill-opacity="1" stroke-width="0.2" stroke-linejoin="round" d="M 296.024,809.066L 296.024,830.471C 296.024,832.454 294.417,834.062 292.434,834.062L 233.89,834.062C 231.907,834.062 230.3,832.454 230.3,830.471L 230.3,809.066C 230.3,807.083 231.907,805.475 233.89,805.475L 292.434,805.475C 294.417,805.475 296.024,807.083 296.024,809.066 Z "/>
				<path fill="#EAEAEA" fill-opacity="1" stroke-width="0.2" stroke-linejoin="round" d="M 226.656,844.926L 238.887,844.926C 240.871,844.926 242.478,846.533 242.478,848.516L 242.478,879.13C 242.478,881.113 240.871,882.721 238.887,882.721L 226.656,882.721C 224.673,882.721 223.065,881.113 223.065,879.13L 223.065,848.516C 223.065,846.533 224.673,844.926 226.656,844.926 Z "/>
				<path fill="#EAEAEA" fill-opacity="1" stroke-width="0.2" stroke-linejoin="round" d="M 287.053,850.392L 299.286,850.392C 301.269,850.392 302.876,852 302.876,853.983L 302.876,880.196C 302.876,882.179 301.269,883.786 299.286,883.786L 287.053,883.786C 285.071,883.786 283.463,882.179 283.463,880.196L 283.463,853.983C 283.463,852 285.071,850.392 287.053,850.392 Z "/>
				<path fill="#EAEAEA" fill-opacity="1" stroke-width="0.2" stroke-linejoin="round" d="M 258.655,841.81L 270.887,841.81C 272.87,841.81 274.478,843.417 274.478,845.4L 274.478,879.683C 274.478,881.666 272.87,883.274 270.887,883.274L 258.655,883.274C 256.672,883.274 255.064,881.666 255.064,879.683L 255.064,845.4C 255.064,843.417 256.672,841.81 258.655,841.81 Z "/>
			</g>
			<g>
				<g>
					<g>
						<path fill="#000000" fill-opacity="1" stroke-width="0.2" stroke-linejoin="miter" d="M 89.6086,70.9236L 72.3206,70.9236C 72.3206,70.9236 73.7493,75.2097 77.3213,77.9246L 89.6086,77.9246L 101.896,77.9246C 105.468,75.2097 106.897,70.9236 106.897,70.9236L 89.6086,70.9236 Z "/>
						<rect x="69.606" y="66.4944" fill="#000000" fill-opacity="1" stroke-width="0.2" stroke-linejoin="miter" width="40.2913" height="2.7146"/>
						<rect x="77.8928" y="80.0676" fill="#000000" fill-opacity="1" stroke-width="0.2" stroke-linejoin="miter" width="2.7146" height="28.2778"/>
						<rect x="83.0364" y="80.0676" fill="#000000" fill-opacity="1" stroke-width="0.2" stroke-linejoin="miter" width="2.7146" height="28.2778"/>
						<rect x="88.1799" y="80.0676" fill="#000000" fill-opacity="1" stroke-width="0.2" stroke-linejoin="miter" width="2.7146" height="28.2778"/>
						<rect x="93.3235" y="80.0676" fill="#000000" fill-opacity="1" stroke-width="0.2" stroke-linejoin="miter" width="2.7146" height="28.2778"/>
						<rect x="98.467" y="80.0676" fill="#000000" fill-opacity="1" stroke-width="0.2" stroke-linejoin="miter" width="2.7146" height="28.2778"/>
					</g>
					<path fill="#000000" fill-opacity="1" stroke-width="0.2" stroke-linejoin="miter" d="M 119.519,116.973L 59.2368,116.973L 59.2368,56.6917L 119.519,56.6917L 119.519,116.973 Z M 60.6218,115.589L 118.134,115.589L 118.134,58.0769L 60.6218,58.0769L 60.6218,115.589 Z "/>
				</g>
				<g>
					<path fill="#000000" fill-opacity="1" stroke-width="0.2" stroke-linejoin="round" d="M 157.751,110.781C 155.359,110.781 154.164,109.694 154.164,107.519C 154.164,106.432 154.425,105.594 154.948,105.007C 155.472,104.419 156.124,104.036 156.905,103.86C 158.557,103.513 160.101,102.851 161.538,101.872C 162.975,100.894 164.258,99.6433 165.386,98.1208C 166.562,96.5105 167.464,94.8032 168.092,92.999C 168.721,91.1948 169.035,89.3142 169.035,87.3572C 169.035,85.0945 168.634,82.8977 167.833,80.7673C 167.031,78.637 165.933,76.8752 164.54,75.4822C 163.018,73.9192 161.354,72.6267 159.551,71.6038C 157.746,70.5813 155.689,70.0696 153.379,70.0696C 150.769,70.0696 148.389,70.5266 146.238,71.4407C 144.088,72.3547 142.251,73.6814 140.729,75.4211C 139.336,76.9841 138.227,78.7986 137.401,80.864C 136.575,82.9299 136.163,85.1384 136.163,87.4895C 136.163,89.4468 136.445,91.3274 137.009,93.1316C 137.573,94.9358 138.487,96.5989 139.75,98.1208C 140.79,99.4258 141.996,100.579 143.369,101.582C 144.742,102.584 146.189,103.323 147.711,103.799C 148.364,104.016 148.928,104.223 149.403,104.42C 149.879,104.617 150.27,104.845 150.576,105.103C 150.881,105.362 151.099,105.698 151.228,106.113C 151.357,106.527 151.422,107.04 151.422,107.652C 151.422,108.78 151.041,109.605 150.28,110.128C 149.519,110.652 148.618,110.913 147.579,110.913C 146.797,110.913 145.938,110.771 145,110.485C 144.062,110.2 143.104,109.819 142.125,109.344C 141.147,108.868 140.18,108.314 139.226,107.682C 138.271,107.05 137.379,106.364 136.55,105.623C 134.987,104.189 133.662,102.679 132.575,101.092C 131.487,99.5056 130.594,97.71 129.894,95.7053C 128.942,93.0144 128.467,89.9495 128.467,86.511C 128.467,84.554 128.749,82.5969 129.313,80.6399C 129.877,78.6829 130.614,76.8787 131.525,75.2273C 132.483,73.5762 133.614,72.0437 134.919,70.6304C 136.224,69.217 137.702,67.9871 139.353,66.9407C 141.31,65.7241 143.452,64.7678 145.78,64.071C 148.107,63.3748 150.382,63.0264 152.604,63.0264C 154.819,63.0264 156.992,63.3203 159.123,63.908C 161.253,64.4958 163.252,65.3333 165.121,66.4207C 166.949,67.5081 168.668,68.9214 170.279,70.6609C 171.889,72.4006 173.194,74.2488 174.193,76.2058C 174.974,77.8572 175.594,79.6174 176.053,81.4861C 176.512,83.3547 176.741,85.2268 176.741,87.1023C 176.741,88.9236 176.512,90.8347 176.053,92.8359C 175.594,94.8372 174.974,96.6633 174.193,98.3147C 173.5,99.7078 172.718,100.992 171.848,102.168C 170.979,103.343 169.956,104.451 168.78,105.49C 167.258,106.884 165.529,108.114 163.592,109.18C 161.655,110.247 159.708,110.781 157.751,110.781 Z "/>
					<path fill="#000000" fill-opacity="1" stroke-width="0.2" stroke-linejoin="round" d="M 181.96,110.974C 180.519,110.974 179.388,110.737 178.565,110.261C 178.002,109.955 177.556,109.563 177.23,109.084C 176.904,108.605 176.741,107.95 176.741,107.121C 176.741,106.823 176.773,106.53 176.838,106.245C 176.902,105.959 177.032,105.643 177.225,105.297C 177.419,104.95 177.679,104.55 178.005,104.094C 178.331,103.639 178.756,103.105 179.279,102.494C 180.061,101.583 180.703,100.79 181.206,100.114C 181.708,99.4377 182.101,98.7957 182.383,98.1873C 182.665,97.5791 182.871,96.9592 183,96.3269C 183.129,95.6951 183.193,94.9238 183.193,94.0134L 183.193,70.4673L 181.756,70.4673C 180.757,70.4673 179.91,70.1189 179.213,69.4226C 178.516,68.7258 178.168,67.8782 178.168,66.8794C 178.168,65.8738 178.516,65.0242 179.213,64.3311C 179.91,63.6379 180.757,63.2913 181.756,63.2913L 186.068,63.2913C 186.978,63.2913 187.717,63.3337 188.285,63.4187C 188.852,63.5037 189.394,63.8079 189.911,64.3311C 190.393,64.8069 190.677,65.2842 190.761,65.7632C 190.846,66.2424 190.889,66.8523 190.889,67.593L 190.889,93.3611C 190.889,94.6658 190.802,95.8174 190.629,96.8162C 190.456,97.8152 190.196,98.7395 189.849,99.5889C 189.503,100.438 189.09,101.254 188.611,102.035C 188.132,102.817 187.586,103.622 186.975,104.451L 194.028,104.451C 194.375,104.451 194.677,104.342 194.936,104.125C 195.153,103.907 195.393,103.668 195.654,103.406C 195.916,103.145 196.155,102.861 196.373,102.555C 197.154,101.556 197.849,100.807 198.458,100.307C 199.065,99.8079 199.784,99.5583 200.613,99.5583C 201.395,99.5583 202.112,99.8625 202.764,100.47C 203.417,101.079 203.743,101.95 203.743,103.085C 203.743,103.69 203.612,104.232 203.35,104.711C 203.088,105.19 202.655,105.8 202.051,106.541L 200.287,108.691C 199.981,109.038 199.687,109.342 199.405,109.604C 199.124,109.865 198.83,110.084 198.523,110.261C 198.089,110.478 197.599,110.652 197.056,110.781C 196.512,110.91 195.829,110.974 195.007,110.974L 181.96,110.974 Z "/>
					<path fill="#000000" fill-opacity="1" stroke-width="0.2" stroke-linejoin="round" d="M 210.918,111.301C 209.831,111.301 208.919,110.93 208.181,110.19C 207.444,109.449 207.076,108.535 207.076,107.448L 207.076,66.7468C 207.076,65.6594 207.444,64.7456 208.181,64.0049C 208.919,63.2644 209.831,62.8938 210.918,62.8938C 212.006,62.8938 212.92,63.2644 213.66,64.0049C 214.401,64.7456 214.771,65.6594 214.771,66.7468L 214.771,107.448C 214.771,108.535 214.401,109.449 213.66,110.19C 212.92,110.93 212.006,111.301 210.918,111.301 Z "/>
					<path fill="#000000" fill-opacity="1" stroke-width="0.2" stroke-linejoin="round" d="M 224.23,111.168C 223.184,111.168 222.292,110.8 221.555,110.062C 220.817,109.325 220.449,108.433 220.449,107.386L 220.449,70.5286C 220.449,69.6995 220.459,69.0029 220.479,68.4387C 220.5,67.8748 220.52,67.4299 220.541,67.1038C 220.561,66.7776 220.583,66.5276 220.607,66.3542C 220.631,66.1812 220.642,66.0503 220.642,65.9622C 220.73,65.4387 221.013,64.8289 221.488,64.1323C 221.964,63.4358 222.725,63.0876 223.771,63.0876C 224.771,63.0876 225.51,63.3169 225.989,63.7756C 226.468,64.2341 226.989,64.8748 227.553,65.697L 238.45,82.1384C 238.538,82.3152 238.614,82.468 238.679,82.5969C 238.744,82.7263 238.82,82.8347 238.908,82.9231C 238.997,82.8347 239.073,82.7263 239.138,82.5969C 239.202,82.468 239.279,82.3152 239.367,82.1384L 250.651,65.116C 251.086,64.5044 251.521,64.0134 251.956,63.6431C 252.39,63.2727 253.087,63.0876 254.045,63.0876C 255.085,63.0876 255.844,63.4358 256.323,64.1323C 256.802,64.8289 257.086,65.4387 257.174,65.9622C 257.174,66.0503 257.184,66.1812 257.205,66.3542C 257.225,66.5276 257.247,66.7776 257.271,67.1038C 257.295,67.4299 257.317,67.8748 257.337,68.4387C 257.358,69.0029 257.368,69.6995 257.368,70.5286L 257.368,107.386C 257.368,108.433 256.998,109.325 256.257,110.062C 255.516,110.8 254.626,111.168 253.586,111.168C 252.54,111.168 251.648,110.8 250.911,110.062C 250.173,109.325 249.805,108.433 249.805,107.386L 249.805,78.8767L 241.905,90.9451C 241.558,91.509 241.254,91.9543 240.993,92.2805C 240.731,92.6067 240.492,92.8582 240.274,93.0349C 240.057,93.2114 239.839,93.332 239.622,93.3967C 239.404,93.4612 239.167,93.4934 238.908,93.4934C 238.385,93.4934 237.928,93.3523 237.537,93.0706C 237.146,92.7883 236.601,92.0798 235.901,90.9451L 228.012,78.8154L 228.012,107.386C 228.012,108.433 227.642,109.325 226.901,110.062C 226.16,110.8 225.27,111.168 224.23,111.168 Z "/>
					<path fill="#000000" fill-opacity="1" stroke-width="0.2" stroke-linejoin="round" d="M 284.573,77.2458C 284.573,76.2468 284.398,75.28 284.048,74.3459C 283.698,73.4114 283.197,72.6179 282.545,71.9656C 282.11,71.5715 281.675,71.2437 281.24,70.9822C 280.805,70.7205 280.316,70.5149 279.772,70.3655C 279.229,70.2161 278.588,70.1072 277.851,70.0393C 277.114,69.9714 276.222,69.9373 275.175,69.9373L 272.963,69.9373L 272.963,88.927C 273.351,88.8792 273.794,88.801 274.293,88.6926C 274.793,88.5837 275.175,88.4885 275.44,88.407C 278.355,87.4014 280.594,85.9202 282.157,83.9629C 282.939,83.0115 283.537,81.948 283.951,80.7725C 284.366,79.5969 284.573,78.4211 284.573,77.2458 Z M 269.243,111.24C 268.244,111.24 267.374,110.869 266.634,110.128C 265.893,109.388 265.522,108.518 265.522,107.519L 265.522,69.9373L 264.024,69.9373C 263.066,69.9373 262.25,69.6008 261.578,68.928C 260.905,68.2556 260.568,67.4399 260.568,66.4817C 260.568,65.5237 260.905,64.7083 261.578,64.0354C 262.25,63.3628 263.066,63.0264 264.024,63.0264L 276.021,63.0264C 276.938,63.0264 277.669,63.0486 278.213,63.0925C 278.756,63.137 279.157,63.1794 279.416,63.22C 281.59,63.5259 283.46,64.1458 285.027,65.0803C 286.593,66.0146 288.049,67.3958 289.395,69.2239C 290.264,70.3992 290.884,71.6716 291.255,73.041C 291.625,74.4104 291.81,75.9207 291.81,77.572C 291.81,79.488 291.353,81.5879 290.439,83.8713C 289.525,86.1545 288.199,88.1658 286.459,89.9055C 284.678,91.6858 282.636,93.0771 280.333,94.0793C 278.029,95.0818 275.573,95.7122 272.963,95.9705L 272.963,107.519C 272.963,108.518 272.593,109.388 271.852,110.128C 271.111,110.869 270.242,111.24 269.243,111.24 Z "/>
					<path fill="#000000" fill-opacity="1" stroke-width="0.2" stroke-linejoin="round" d="M 322.797,110.781C 320.405,110.781 319.209,109.694 319.209,107.519C 319.209,106.432 319.471,105.594 319.994,105.007C 320.518,104.419 321.17,104.036 321.951,103.86C 323.603,103.513 325.147,102.851 326.584,101.872C 328.021,100.894 329.304,99.6433 330.432,98.1208C 331.607,96.5105 332.51,94.8032 333.138,92.999C 333.767,91.1948 334.081,89.3142 334.081,87.3572C 334.081,85.0945 333.68,82.8977 332.878,80.7673C 332.077,78.637 330.979,76.8752 329.586,75.4822C 328.064,73.9192 326.4,72.6267 324.596,71.6038C 322.792,70.5813 320.735,70.0696 318.425,70.0696C 315.815,70.0696 313.435,70.5266 311.284,71.4407C 309.134,72.3547 307.297,73.6814 305.775,75.4211C 304.382,76.9841 303.272,78.7986 302.447,80.864C 301.621,82.9299 301.208,85.1384 301.208,87.4895C 301.208,89.4468 301.491,91.3274 302.054,93.1316C 302.619,94.9358 303.533,96.5989 304.796,98.1208C 305.836,99.4258 307.042,100.579 308.415,101.582C 309.788,102.584 311.235,103.323 312.757,103.799C 313.41,104.016 313.974,104.223 314.449,104.42C 314.925,104.617 315.315,104.845 315.622,105.103C 315.927,105.362 316.145,105.698 316.274,106.113C 316.403,106.527 316.468,107.04 316.468,107.652C 316.468,108.78 316.087,109.605 315.326,110.128C 314.565,110.652 313.665,110.913 312.625,110.913C 311.843,110.913 310.983,110.771 310.046,110.485C 309.108,110.2 308.15,109.819 307.171,109.344C 306.193,108.868 305.226,108.314 304.271,107.682C 303.317,107.05 302.425,106.364 301.596,105.623C 300.033,104.189 298.708,102.679 297.621,101.092C 296.533,99.5056 295.64,97.71 294.94,95.7053C 293.988,93.0144 293.513,89.9495 293.513,86.511C 293.513,84.554 293.795,82.5969 294.359,80.6399C 294.923,78.6829 295.66,76.8787 296.571,75.2273C 297.529,73.5762 298.66,72.0437 299.965,70.6304C 301.27,69.217 302.748,67.9871 304.399,66.9407C 306.356,65.7241 308.498,64.7678 310.826,64.071C 313.153,63.3748 315.428,63.0264 317.65,63.0264C 319.865,63.0264 322.038,63.3203 324.168,63.908C 326.299,64.4958 328.298,65.3333 330.167,66.4207C 331.995,67.5081 333.714,68.9214 335.325,70.6609C 336.935,72.4006 338.24,74.2488 339.239,76.2058C 340.02,77.8572 340.64,79.6174 341.099,81.4861C 341.558,83.3547 341.787,85.2268 341.787,87.1023C 341.787,88.9236 341.558,90.8347 341.099,92.8359C 340.64,94.8372 340.02,96.6633 339.239,98.3147C 338.546,99.7078 337.764,100.992 336.894,102.168C 336.024,103.343 335.002,104.451 333.826,105.49C 332.304,106.884 330.575,108.114 328.638,109.18C 326.701,110.247 324.754,110.781 322.797,110.781 Z "/>
				</g>
			</g>
		</g>
	</g>
	<g>
		<path fill="#000000" fill-opacity="1" stroke-width="0.2" stroke-linejoin="miter" d="M 312.929,210.874C 247.843,210.874 203.46,232.562 173.926,260.251C 169.263,264.624 164.969,269.146 161.023,273.755C 158.393,276.827 155.917,279.94 153.588,283.073C 144.272,295.604 137.316,308.467 132.283,320.492L 132.283,320.492C 132.283,320.492 135.108,319.845 139.838,319.281C 143.517,318.841 148.347,318.45 153.895,318.45C 155.629,318.45 157.433,318.489 159.293,318.576C 161.154,318.662 163.072,318.797 165.034,318.991C 166.014,319.09 167.006,319.2 168.007,319.329C 170.008,319.585 172.047,319.905 174.109,320.3C 179.265,321.287 184.57,322.741 189.817,324.825C 191.916,325.658 194.006,326.592 196.072,327.638C 198.139,328.683 200.184,329.84 202.192,331.119C 202.192,331.119 215.742,298.047 275.125,287.733C 277.16,289.789 279.142,291.975 280.97,294.26C 282.342,295.976 283.627,297.746 284.783,299.561C 286.324,301.981 287.636,304.481 288.619,307.029C 289.355,308.941 289.906,310.88 290.229,312.835C 290.444,314.139 290.558,315.45 290.558,316.763C 290.558,318.36 290.526,319.841 290.467,321.222C 290.348,323.984 290.117,326.347 289.804,328.428C 289.726,328.949 289.643,329.452 289.555,329.939C 289.379,330.914 289.185,331.827 288.975,332.691C 288.87,333.123 288.762,333.544 288.65,333.954C 288.426,334.775 288.19,335.555 287.944,336.312C 287.453,337.823 286.923,339.235 286.387,340.667C 284.223,346.449 281.983,352.429 281.983,364.862C 281.983,370.475 282.435,376.604 283.133,382.724C 283.481,385.784 283.893,388.842 284.338,391.832C 284.785,394.822 285.267,397.743 285.759,400.532C 280.787,401.625 275.948,403.006 271.263,404.631C 265.018,406.799 259.048,409.405 253.404,412.35C 249.17,414.56 245.12,416.962 241.275,419.514C 238.711,421.217 236.239,422.987 233.863,424.811C 231.488,426.635 229.21,428.515 227.036,430.438C 208.552,446.785 197.551,466.254 197.909,481.471C 197.93,482.367 197.991,483.247 198.091,484.111C 198.44,487.117 198.587,490.799 198.565,495.01C 198.543,499.219 198.353,503.959 198.03,509.084C 197.922,510.792 197.8,512.543 197.664,514.331C 197.392,517.906 197.066,521.631 196.697,525.462C 192.447,569.514 182.431,627.566 182.431,633.998C 182.431,635.675 182.856,637.109 183.547,638.33C 184.007,639.143 184.585,639.864 185.234,640.498C 185.559,640.816 185.901,641.114 186.255,641.389C 186.963,641.943 187.719,642.417 188.474,642.821C 189.607,643.426 190.74,643.875 191.713,644.199C 192.363,644.414 192.941,644.575 193.401,644.69C 194.092,644.863 194.516,644.932 194.516,644.932C 194.516,644.932 191.007,666.435 191.007,684.332C 191.007,687.866 194.352,689.365 200.038,689.365C 202.203,689.365 204.709,689.148 207.5,688.742C 209.361,688.473 211.348,688.118 213.445,687.689C 215.543,687.261 217.75,686.759 220.05,686.189C 225.802,684.767 232.139,682.932 238.805,680.824C 240.138,680.401 241.484,679.969 242.842,679.527C 245.556,678.641 248.315,677.717 251.103,676.761C 253.89,675.805 256.705,674.82 259.531,673.812C 277.904,667.261 296.765,659.783 311.603,653.797C 313.886,652.876 316.073,651.99 318.149,651.149C 318.149,651.149 383.024,651.149 423.292,651.149L 423.293,651.149C 438.393,651.149 444.58,647.374 445.983,641.396C 446.1,640.898 446.183,640.384 446.236,639.857C 446.342,638.801 446.324,637.689 446.202,636.525C 445.166,626.636 436.599,613.117 432.241,600.441C 424.038,576.579 427.021,530.344 427.021,530.344C 427.021,530.344 427.385,529.562 427.946,528.104C 428.17,527.522 428.426,526.83 428.702,526.038C 428.84,525.643 428.983,525.221 429.13,524.775C 429.425,523.884 429.734,522.896 430.048,521.816C 430.519,520.197 431,518.373 431.456,516.369C 432.822,510.357 433.953,502.719 433.873,494.086C 433.782,484.493 432.195,473.672 427.767,462.486C 419.505,441.614 404.138,423.028 379.603,411.158C 372.911,407.921 365.538,405.183 357.441,403.035C 352.043,401.603 346.323,400.433 340.269,399.551C 342.17,388.605 343.875,375.762 343.875,364.862C 343.875,352.429 341.635,346.449 339.47,340.667C 338.935,339.235 338.406,337.823 337.914,336.312C 337.668,335.555 337.432,334.775 337.208,333.954C 337.096,333.544 336.988,333.123 336.883,332.691C 335.94,328.8 335.3,323.947 335.3,316.763C 335.3,311.621 337.052,306.525 339.799,301.697C 341.515,298.679 343.62,295.765 345.927,293.01C 346.85,291.907 347.806,290.831 348.781,289.782C 349.27,289.259 349.762,288.742 350.259,288.233C 399.787,298.053 434.242,328.079 449.706,372.618C 451.051,376.491 452.252,380.474 453.307,384.563C 453.834,386.607 454.325,388.677 454.779,390.775C 457.503,403.355 458.9,416.874 458.9,431.228C 458.9,453.6 458.201,475.376 457.834,496.148C 457.742,501.341 457.671,506.47 457.637,511.531C 457.62,514.062 457.612,516.576 457.615,519.071C 457.619,521.566 457.634,524.043 457.661,526.501C 458.218,575.662 464.073,617.257 491.338,644.871C 491.338,644.871 487.004,632.987 483.509,614.322C 482.416,608.489 481.405,601.993 480.635,594.991C 480.48,593.59 480.336,592.17 480.203,590.731C 479.668,584.972 479.306,578.909 479.2,572.622C 479.121,567.906 479.183,563.065 479.425,558.13C 479.584,554.841 479.824,551.51 480.151,548.148C 480.315,546.466 480.502,544.779 480.712,543.083C 487.423,488.834 535.322,210.874 312.929,210.874 Z M 476.701,503.089C 476.193,507.782 475.671,512.222 475.16,516.37C 474.648,520.519 474.148,524.378 473.682,527.909C 473.448,529.675 473.224,531.359 473.011,532.959C 472.737,535.007 472.487,536.884 472.261,538.617C 472.152,537.265 472.013,535.9 471.923,534.56C 471.659,531.35 471.505,528.189 471.354,525.125C 471.169,522.061 471.098,519.097 471.028,516.283C 470.936,513.469 470.886,510.805 470.91,508.347C 470.913,507.116 470.915,505.937 470.917,504.815C 470.918,503.694 470.92,502.629 470.922,501.629C 470.98,499.629 471.031,497.886 471.072,496.45C 471.156,493.573 471.204,491.929 471.204,491.929C 471.204,491.929 470.948,493.553 470.498,496.396C 470.273,497.819 470,499.548 469.687,501.531C 469.428,503.523 469.136,505.771 468.817,508.221C 468.477,510.675 468.187,513.34 467.917,516.164C 467.626,518.987 467.316,521.968 467.108,525.059C 466.958,526.969 466.813,528.93 466.683,530.909C 466.603,526.662 466.568,522.35 466.567,517.979C 466.563,504.868 466.865,491.228 467.176,477.194C 467.507,462.309 467.849,446.918 467.849,431.228C 467.849,429.225 467.813,427.245 467.752,425.279C 467.69,423.314 467.604,421.365 467.501,419.426C 467.972,421.092 468.389,422.566 468.726,423.754C 468.925,424.426 469.101,425.019 469.252,425.531C 469.707,427.066 469.946,427.873 469.946,427.873C 469.946,427.873 469.95,427.5 469.96,426.776C 469.965,426.414 469.971,425.965 469.977,425.432C 469.985,424.898 469.993,424.28 470.002,423.58C 469.995,421.482 470.045,418.636 469.928,415.141C 469.889,413.976 469.832,412.739 469.747,411.434C 469.651,408.812 469.449,405.917 469.183,402.76C 469.089,401.176 468.935,399.533 468.745,397.833C 468.556,396.132 468.33,394.372 468.094,392.551C 467.865,390.729 467.601,388.85 467.297,386.917C 466.69,383.054 465.927,378.98 464.991,374.721C 464.523,372.592 464.012,370.417 463.456,368.2C 461.234,359.333 458.133,349.814 453.79,340.06C 449.42,330.338 443.885,320.3 436.57,310.881C 434.746,308.529 432.84,306.194 430.833,303.913C 428.824,301.633 426.713,299.406 424.477,297.269C 423.398,296.16 422.267,295.099 421.11,294.057C 419.953,293.015 418.771,291.993 417.592,290.958C 415.211,288.92 412.65,287.073 410.135,285.152C 399.843,277.762 388.252,271.895 376.249,267.653C 373.233,266.63 370.195,265.698 367.146,264.858C 361.044,263.178 354.891,261.862 348.753,260.893C 345.684,260.408 342.619,260.011 339.566,259.697C 336.515,259.3 333.478,259.172 330.454,258.936C 327.433,258.738 324.322,258.734 321.295,258.633C 318.279,258.572 315.566,258.669 312.716,258.679L 311.662,258.689L 311.22,258.692L 310.948,258.706L 310.404,258.732L 308.233,258.84C 306.79,258.912 305.353,258.985 303.921,259.058C 292.464,259.773 281.389,261.246 271.034,263.532C 265.859,264.689 260.86,266.023 256.094,267.533C 251.341,269.111 246.792,270.768 242.533,272.632C 240.403,273.567 238.343,274.539 236.356,275.541C 230.396,278.546 225.094,281.817 220.556,285.181C 217.518,287.413 214.832,289.685 212.467,291.903C 210.102,294.12 208.059,296.282 206.311,298.293C 202.764,302.283 200.548,305.842 199.054,308.216C 197.594,310.633 196.95,311.977 196.95,311.977C 196.95,311.977 197.549,311.374 198.703,310.279C 199.088,309.913 199.536,309.493 200.043,309.023C 202.058,307.121 205.179,304.522 209.287,301.555C 211.345,300.075 213.698,298.56 216.32,297.044C 218.942,295.529 221.834,294.015 224.969,292.538C 231.255,289.6 238.594,286.929 246.793,284.785C 250.511,283.819 254.426,282.977 258.473,282.235C 243.232,286.306 231.382,291.881 222.243,297.736C 210.494,305.265 203.228,313.256 198.999,319.106C 186.938,313.245 174.409,310.773 163.79,309.904C 160.25,309.614 156.923,309.502 153.895,309.502C 152.738,309.502 151.608,309.518 150.511,309.547C 149.413,309.576 148.347,309.619 147.316,309.672C 153.675,297.745 162.633,284.356 175.102,271.616C 180.77,265.825 187.163,260.168 194.368,254.842C 225.807,231.604 265.697,219.822 312.929,219.822C 365.033,219.822 405.51,235.88 433.235,267.549C 441.877,277.421 449.355,288.84 455.655,301.764C 458.175,306.935 460.506,312.345 462.648,317.995C 465.861,326.469 468.648,335.479 471.006,345.018C 474.151,357.736 476.533,371.392 478.145,385.966C 478.952,393.253 479.566,400.77 479.987,408.514C 480.684,421.33 480.809,433.918 480.552,445.99C 480.424,452.026 480.2,457.933 479.903,463.675C 479.607,469.417 479.239,474.994 478.823,480.37C 478.198,488.436 477.464,496.048 476.701,503.089 Z M 436.787,635.448C 436.192,635.392 434.741,635.259 432.642,635.081C 431.932,635.058 431.156,635.008 430.312,634.962C 429.469,634.916 428.558,634.876 427.577,634.872C 425.629,634.81 423.426,634.837 421.028,634.834C 419.826,634.859 418.572,634.885 417.276,634.912C 414.683,634.967 411.913,635.025 409.02,635.085C 407.572,635.115 406.094,635.146 404.59,635.177C 401.573,635.213 398.455,635.345 395.276,635.34C 392.1,635.378 388.869,635.344 385.634,635.318C 382.397,635.222 379.161,635.126 375.976,635.032C 373.208,634.94 370.496,634.749 367.841,634.562C 366.954,634.532 366.073,634.501 365.2,634.468L 360.747,607.419L 359.604,634.227C 340.773,633.326 325.91,631.755 319.217,630.964L 311.386,593.113L 311.646,629.854L 301.235,579.217L 301.727,638.141C 291.225,643.833 275.624,651.847 258.379,659.25L 251.129,635.476L 251.843,661.993C 249.883,662.794 247.909,663.584 245.926,664.356C 236.007,668.218 225.846,671.66 216.038,674.182C 212.115,675.192 208.248,676.052 204.475,676.734C 204.615,675.518 204.781,674.098 204.967,672.527C 205.339,669.382 205.794,665.627 206.294,661.668C 206.544,659.688 206.806,657.657 207.075,655.626C 207.497,652.423 207.934,649.223 208.363,646.224C 208.792,643.226 209.21,640.43 209.592,638.037C 209.876,636.242 210.139,634.672 210.356,633.412C 210.719,631.312 210.954,630.07 210.954,630.07C 210.954,630.07 209.944,633.144 208.569,637.805C 207.188,642.466 205.453,648.71 203.784,654.973C 202.785,658.708 201.812,662.444 200.934,665.857C 201.618,658.517 202.492,652.123 202.979,648.801C 203.201,647.29 203.342,646.415 203.349,646.372L 204.387,640.341C 204.567,639.436 204.752,638.529 204.937,637.62C 205.309,635.803 205.688,633.986 206.067,632.2C 207.582,625.055 209.083,618.414 210.014,614.362C 210.246,613.349 210.443,612.498 210.596,611.841C 210.825,610.856 210.954,610.309 210.954,610.309L 198.895,636.584L 196.047,636.116C 195.317,635.982 194.549,635.743 193.848,635.461C 193.614,635.367 193.388,635.269 193.173,635.168C 192.743,634.967 192.358,634.755 192.05,634.553C 191.74,634.35 191.507,634.156 191.381,633.99C 191.449,631.651 193.245,619.467 194.982,607.681C 195.76,602.401 196.613,596.62 197.494,590.518C 199.258,578.313 201.141,564.821 202.792,551.46C 203.067,549.234 203.336,547.011 203.596,544.798C 204.639,535.948 205.552,527.262 206.233,519.162C 206.573,515.113 206.855,511.209 207.066,507.505C 208.737,509.057 210.589,510.572 212.443,512.248C 213.441,513.075 214.482,513.917 215.529,514.759L 212.445,548.042L 222.58,520.175C 224.784,521.791 227.02,523.427 229.374,524.971C 232.414,527.089 235.596,529.08 238.768,531.074C 241.951,533.049 245.181,534.938 248.369,536.769C 249.978,537.661 251.567,538.553 253.145,539.419C 254.722,540.286 256.288,541.126 257.848,541.918C 260.929,543.565 263.97,545.036 266.844,546.437C 269.716,547.844 272.494,549.049 275.019,550.22C 277.579,551.331 279.937,552.312 282.038,553.155C 283.087,553.576 284.072,553.963 284.986,554.315C 285.899,554.666 286.739,554.982 287.501,555.263C 289.033,555.792 290.237,556.209 291.058,556.492C 291.878,556.777 292.316,556.928 292.316,556.928C 292.316,556.928 291.899,556.729 291.117,556.354C 290.335,555.98 289.188,555.431 287.728,554.732C 284.837,553.281 280.761,551.113 275.972,548.352C 274.789,547.631 273.55,546.897 272.273,546.131C 270.997,545.365 269.682,544.564 268.348,543.712C 265.677,542.01 262.861,540.23 260.022,538.27C 257.146,536.374 254.265,534.277 251.327,532.18C 248.418,530.038 245.483,527.841 242.615,525.573C 239.757,523.289 236.901,521.016 234.21,518.645C 231.451,516.352 228.904,513.925 226.404,511.632C 223.952,509.291 221.652,506.969 219.517,504.75C 219.012,504.174 218.502,503.613 217.998,503.063C 216.484,501.415 215.014,499.866 213.818,498.286C 212.58,496.743 211.368,495.301 210.394,493.978C 210.07,493.537 209.771,493.109 209.507,492.696C 208.747,491.556 208.051,490.649 207.427,489.721C 207.349,487.282 207.208,485.04 206.979,483.078C 206.909,482.465 206.866,481.836 206.854,481.191C 206.815,479.256 207.038,477.182 207.504,475.006C 207.659,474.281 207.841,473.543 208.05,472.797C 210.348,464.58 215.85,455.146 223.743,446.283C 225.54,444.265 227.541,442.232 229.664,440.21C 229.971,440.648 230.299,441.114 230.648,441.603C 231.697,443.073 232.939,444.764 234.382,446.613C 234.973,447.382 235.596,448.179 236.248,448.997C 237.55,450.632 238.967,452.353 240.477,454.123C 241.232,455.008 242.011,455.906 242.811,456.811C 246.006,460.432 249.521,464.187 253.192,467.774C 254.984,469.609 256.905,471.315 258.739,473.043C 260.556,474.785 262.495,476.347 264.284,477.937C 265.174,478.737 266.087,479.484 266.988,480.203C 267.889,480.924 268.779,481.618 269.625,482.315C 271.312,483.711 272.984,484.939 274.528,486.068C 275.301,486.631 276.032,487.181 276.731,487.698C 277.43,488.216 278.096,488.702 278.738,489.137C 280.025,490.003 281.146,490.757 282.069,491.378C 282.53,491.689 282.941,491.965 283.3,492.206C 284.373,492.929 284.965,493.327 284.965,493.327C 284.965,493.327 283.997,492.507 282.301,491.071C 281.877,490.713 281.409,490.316 280.899,489.885C 280.389,489.453 279.838,488.987 279.249,488.487C 278.662,487.988 278.055,487.433 277.42,486.844C 276.785,486.255 276.122,485.631 275.421,484.993C 274.722,484.352 273.995,483.685 273.254,482.982C 272.512,482.28 271.757,481.542 271,480.761C 270.244,479.982 269.446,479.204 268.641,478.402C 267.835,477.598 267.023,476.768 266.235,475.884C 264.649,474.128 262.93,472.401 261.339,470.497C 259.733,468.608 258.05,466.745 256.501,464.762C 253.316,460.879 250.311,456.859 247.614,453.022C 244.914,449.186 242.533,445.521 240.6,442.331C 238.639,439.154 237.159,436.437 236.115,434.512C 241.633,429.984 247.927,425.645 254.883,421.792C 257.665,420.252 260.554,418.789 263.541,417.423C 265.035,416.74 266.552,416.082 268.095,415.451C 272.721,413.556 277.561,411.901 282.59,410.552C 290.972,408.305 299.881,406.905 309.203,406.656L 314.368,457.813L 319.53,406.696C 321.411,406.76 323.267,406.844 325.083,406.957C 346.776,411.216 366.722,423.215 381.327,439.563C 381.182,439.879 381.038,440.194 380.898,440.52C 380.468,441.49 379.954,442.447 379.474,443.431C 377.458,447.314 375.012,451.084 373.053,453.842C 372.073,455.22 371.215,456.347 370.601,457.128C 369.988,457.908 369.619,458.345 369.619,458.345C 369.619,458.345 371.622,457.255 374.506,455.354C 377.386,453.454 381.157,450.745 384.722,447.614C 385.333,447.051 385.95,446.487 386.562,445.92C 388.291,448.196 389.921,450.539 391.444,452.941C 395.25,458.946 398.385,465.32 400.718,471.947C 401.184,473.273 401.619,474.609 402.02,475.954C 401.153,477.095 400.063,478.294 398.999,479.589C 397.851,481.029 396.427,482.378 395.052,483.874C 393.691,485.384 392.092,486.767 390.56,488.28C 389.007,489.772 387.315,491.174 385.676,492.647C 383.988,494.062 382.276,495.46 380.563,496.81C 378.85,498.159 377.135,499.459 375.444,500.68C 374.604,501.3 373.771,501.899 372.949,502.479C 370.484,504.217 368.125,505.777 366.012,507.148C 362.483,509.421 359.607,511.102 357.946,512.042C 356.949,512.607 356.39,512.906 356.39,512.906C 356.39,512.906 360.688,511.562 366.975,509.011C 367.76,508.69 368.577,508.353 369.421,507.998C 371.109,507.288 372.906,506.513 374.77,505.662C 375.702,505.238 376.651,504.794 377.612,504.332C 381.474,502.521 385.515,500.396 389.52,498.147C 390.502,497.553 391.498,496.977 392.485,496.394C 393.474,495.809 394.455,495.219 395.408,494.598C 396.353,493.964 397.311,493.362 398.252,492.754C 399.193,492.146 400.115,491.531 400.988,490.871C 402.248,489.935 403.49,489.06 404.678,488.162C 404.936,489.984 405.138,491.815 405.277,493.656C 405.415,495.496 405.489,497.344 405.489,499.199C 405.489,509.705 404.355,518.354 402.57,525.46C 401.857,528.304 401.039,530.9 400.148,533.271C 399.703,534.455 399.24,535.584 398.762,536.658C 399.716,536.098 400.657,535.549 401.582,535.012C 404.354,533.403 406.972,531.906 409.335,530.566C 416.619,526.416 421.615,523.807 421.615,523.807C 421.615,523.807 421.033,524.348 419.952,525.291C 418.147,526.862 414.954,529.549 410.747,532.712C 409.076,533.992 407.239,535.344 405.277,536.743C 403.313,538.143 401.223,539.589 399.043,541.059C 397.941,541.776 396.834,542.524 395.706,543.273C 394.579,544.022 393.432,544.77 392.253,545.487C 389.9,546.932 387.511,548.4 385.121,549.868C 380.272,552.692 375.398,555.474 370.698,557.848C 368.38,559.09 366.083,560.188 363.9,561.218C 362.672,561.814 361.485,562.368 360.325,562.895C 359.935,563.101 359.532,563.308 359.146,563.513C 356.397,564.995 353.675,566.287 351.116,567.572C 349.839,568.219 348.589,568.832 347.373,569.411C 346.157,569.993 344.977,570.541 343.841,571.061C 341.583,572.135 339.496,573.086 337.639,573.911C 335.781,574.737 334.151,575.436 332.807,576.007C 330.123,577.165 328.589,577.826 328.589,577.826C 328.589,577.826 330.183,577.328 332.973,576.457C 334.373,576.029 336.07,575.503 338.009,574.874C 338.979,574.561 340.009,574.221 341.092,573.856C 342.176,573.49 343.313,573.098 344.497,572.68C 345.688,572.28 346.926,571.856 348.203,571.403C 349.479,570.95 350.794,570.469 352.139,569.956C 353.485,569.448 354.876,568.942 356.294,568.413C 357.712,567.884 359.157,567.332 360.61,566.736C 363.524,565.557 366.572,564.406 369.6,563.088C 372.641,561.794 375.748,560.509 378.803,559.111C 383.732,556.944 388.593,554.65 393.246,552.385C 393.137,553.669 393.016,555.196 392.895,556.922C 391.132,557.816 389.261,558.752 387.334,559.705C 385.406,560.658 383.422,561.626 381.428,562.585C 372.929,566.701 364.27,570.528 359.689,572.519C 357.606,573.423 356.367,573.948 356.367,573.948C 356.367,573.948 357.204,573.745 358.667,573.379C 359.399,573.196 360.287,572.972 361.305,572.712C 364.869,571.804 370.027,570.457 375.645,568.887C 378.052,568.214 380.544,567.501 383.033,566.761C 384.642,566.289 386.249,565.81 387.831,565.331C 389.413,564.852 390.971,564.373 392.48,563.903C 392.404,565.475 392.335,567.12 392.281,568.814C 391.897,580.674 392.171,594.994 394.863,604.343C 396.66,610.586 399.96,616.067 402.511,620.598C 402.795,621.102 403.069,621.594 403.331,622.073C 404.117,623.512 404.793,624.844 405.274,626.06C 405.434,626.465 405.573,626.857 405.687,627.238C 405.916,627.996 406.045,628.704 406.052,629.357C 408.606,629.509 411.101,629.726 413.473,629.969C 416.261,630.217 418.901,630.595 421.328,630.992C 422.54,631.204 423.702,631.408 424.806,631.602C 425.904,631.857 426.945,632.099 427.922,632.327C 429.878,632.727 431.543,633.365 432.91,633.773C 434.278,634.209 435.303,634.733 436.014,635.006C 436.715,635.313 437.088,635.476 436.787,635.448 Z M 292.078,352.34C 292.429,350.728 292.844,349.281 293.301,347.894C 293.756,346.508 294.253,345.18 294.768,343.806C 296.99,337.875 299.507,331.155 299.507,316.763C 299.507,307.736 295.522,299.137 290.038,291.544C 291.423,291.455 292.823,291.401 294.233,291.38C 294.431,291.681 294.635,291.997 294.847,292.335C 295.747,293.749 296.734,295.416 297.62,297.284C 298.068,298.216 298.495,299.198 298.89,300.219C 299.285,301.238 299.65,302.294 299.975,303.373C 301.245,307.696 301.933,312.298 302.346,315.75C 302.608,317.913 302.781,319.632 302.873,320.617C 302.929,321.209 302.955,321.536 302.955,321.536C 302.955,321.536 303.045,320.631 303.164,319.097C 303.235,318.177 303.316,317.031 303.395,315.718C 303.447,314.843 303.497,313.893 303.534,312.886C 303.646,309.862 303.645,306.318 303.266,302.717C 303.132,301.52 302.949,300.32 302.723,299.141C 302.497,297.962 302.229,296.807 301.924,295.697C 301.511,294.16 301.029,292.777 300.544,291.48C 306.656,291.755 312.701,292.503 318.069,293.383C 317.429,296.588 316.996,300.284 316.734,304.238C 316.385,309.509 316.342,315.236 316.521,320.864C 316.611,323.678 316.757,326.467 316.948,329.161C 317.139,331.854 317.377,334.454 317.649,336.889C 318.331,342.978 319.234,348.041 320.199,350.99C 320.598,352.211 320.89,353.575 321.087,355.064C 321.583,358.788 321.496,363.291 321.063,368.253C 320.283,377.187 318.381,387.613 316.728,397.673C 315.224,397.642 313.721,397.61 312.184,397.61C 308.993,397.61 305.849,397.773 302.733,398.016C 302.45,397.029 302.045,395.611 301.556,393.901C 300.62,390.501 299.437,385.941 298.396,381.348C 298.135,380.199 297.883,379.049 297.646,377.914C 296.933,374.508 296.346,371.246 295.989,368.616C 295.747,366.864 295.601,365.394 295.515,364.362C 295.43,363.33 295.405,362.736 295.405,362.736C 295.405,362.736 295.084,365.088 294.942,368.666C 294.866,370.454 294.842,372.543 294.865,374.782C 294.888,377.021 294.958,379.409 295.071,381.795C 295.18,384.182 295.326,386.566 295.486,388.801C 295.646,391.037 295.82,393.122 295.984,394.909C 296.06,395.66 296.131,396.353 296.195,396.983C 296.259,397.613 296.317,398.18 296.368,398.677C 295.772,398.754 295.17,398.817 294.578,398.903C 292.675,388.124 290.931,375.377 290.931,364.862C 290.931,359.456 291.376,355.566 292.078,352.34 Z "/>
		<path fill="#3F3F3F" fill-opacity="1" stroke-width="0.2" stroke-linejoin="miter" d="M 291.713,550.337C 293.6,551.124 295.446,551.894 297.244,552.644C 299.039,553.386 300.785,554.109 302.474,554.808C 304.197,555.426 305.894,555.942 307.501,556.48C 309.113,557.008 310.656,557.514 312.127,557.977C 313.599,558.442 314.998,558.865 316.322,559.23C 319.001,559.88 321.351,560.376 323.275,560.799C 324.239,561.004 325.1,561.183 325.849,561.337C 326.223,561.414 326.57,561.484 326.887,561.548C 328.474,561.867 329.334,562.024 329.334,562.024C 329.334,562.024 328.178,561.486 326.083,560.557C 325.385,560.248 324.582,559.895 323.683,559.505C 321.882,558.734 319.707,557.783 317.196,556.772C 314.749,555.606 311.987,554.29 308.975,552.854C 307.474,552.135 305.895,551.434 304.297,550.626C 302.714,549.788 301.077,548.923 299.394,548.031C 297.708,547.156 295.979,546.253 294.228,545.303C 292.476,544.354 290.701,543.359 288.92,542.298C 287.128,541.265 285.306,540.216 283.462,539.152C 281.617,538.092 279.843,536.857 277.979,535.746C 276.135,534.601 274.277,533.445 272.411,532.286C 270.599,531.043 268.779,529.795 266.959,528.547C 263.236,526.174 259.688,523.546 256.173,520.985C 254.405,519.721 252.681,518.423 250.984,517.132C 249.287,515.839 247.616,514.553 245.955,513.31C 244.362,511.985 242.758,510.723 241.188,509.484C 239.619,508.246 238.085,507.031 236.633,505.798C 233.726,503.336 230.919,501.061 228.419,498.856C 223.363,494.502 219.236,490.748 216.353,488.095C 215.635,487.426 214.994,486.83 214.437,486.311C 213.879,485.792 213.404,485.35 213.019,484.992C 212.639,484.626 212.348,484.347 211.853,483.871C 211.853,483.871 212.16,484.343 212.735,485.225C 213.32,486.106 214.171,487.408 215.345,488.99C 215.926,489.787 216.577,490.663 217.3,491.607C 218.022,492.551 218.817,493.562 219.682,494.629C 221.436,496.739 223.377,499.17 225.689,501.636C 227.928,504.179 230.463,506.828 233.227,509.552C 235.959,512.311 238.977,515.08 242.128,517.914C 243.746,519.284 245.39,520.677 247.054,522.086C 247.881,522.8 248.718,523.511 249.575,524.206C 250.431,524.901 251.307,525.582 252.211,526.233C 255.764,528.919 259.356,531.677 263.133,534.183C 265.021,535.432 266.91,536.681 268.792,537.925C 270.729,539.082 272.659,540.235 274.573,541.379C 276.456,542.577 278.39,543.649 280.328,544.663C 282.265,545.677 284.205,546.631 286.096,547.595C 287.052,548.057 287.981,548.552 288.909,549.027C 289.836,549.502 290.761,549.957 291.713,550.337 Z "/>
		<path fill="#3F3F3F" fill-opacity="1" stroke-width="0.2" stroke-linejoin="miter" d="M 215.042,551.449C 215.72,551.367 216.698,551.324 217.938,551.263C 219.331,551.227 221.085,551.255 223.039,551.428C 221.868,551.735 220.777,552.156 219.783,552.681C 217.795,553.731 216.196,555.197 215.125,556.993C 214.855,557.441 214.621,557.911 214.421,558.399C 214.22,558.887 214.056,559.396 213.927,559.921C 213.431,561.963 212.821,564.556 212.214,567.174C 210.877,572.932 209.554,578.804 209.474,579.16L 207.817,586.511L 215.312,587.308C 215.467,587.325 216.878,587.468 218.958,587.468C 219.222,587.468 219.474,587.45 219.736,587.447C 217.822,587.905 216.029,588.272 214.418,588.567C 212.807,588.862 211.377,589.086 210.188,589.258C 208.326,589.52 207.041,589.671 206.506,589.84C 207.015,589.992 208.271,590.336 210.164,590.66C 212.682,591.086 216.346,591.555 220.806,591.31C 223.04,591.222 225.469,590.93 228.022,590.34C 229.943,589.922 231.938,589.324 233.933,588.46C 234.598,588.171 235.262,587.854 235.924,587.503C 236.583,587.153 237.238,586.77 237.885,586.352C 239.824,585.097 241.682,583.532 243.261,581.625C 245.385,579.079 246.909,576.051 247.704,572.675C 248.25,570.449 248.539,567.948 248.382,565.438C 248.33,564.602 248.228,563.764 248.068,562.935C 247.424,559.609 245.749,556.396 243.397,554.181C 242.821,553.611 242.216,553.1 241.592,552.641C 239.723,551.263 237.689,550.348 235.762,549.701C 234.469,549.251 233.19,548.969 231.951,548.785C 230.712,548.601 229.512,548.515 228.377,548.459C 223.808,548.308 220.148,549.209 217.71,549.999C 217.097,550.206 216.56,550.408 216.097,550.591C 214.709,551.145 214.003,551.553 214.003,551.553C 214.003,551.553 214.365,551.517 215.042,551.449 Z M 238.336,569.3C 236.586,579.529 224.607,580.757 218.958,580.757C 217.174,580.757 216.021,580.635 216.021,580.635C 216.021,580.635 218.854,568.06 220.449,561.507C 221.068,558.962 224.252,557.54 227.779,557.539C 233.335,557.539 239.744,561.068 238.336,569.3 Z "/>
		<path fill="#3F3F3F" fill-opacity="1" stroke-width="0.2" stroke-linejoin="miter" d="M 467.856,370.18C 469.143,376.52 470.187,382.692 471.049,388.638C 472.299,397.567 473.156,405.989 473.736,413.766C 473.93,416.359 474.093,418.879 474.229,421.322C 474.779,431.102 474.833,439.654 474.756,446.695C 474.715,449.335 474.662,451.763 474.602,453.967C 474.5,457.64 474.379,460.688 474.254,463.045C 474.146,464.931 474.063,466.378 474.009,467.353C 473.953,468.328 473.924,468.831 473.924,468.831C 473.924,468.831 474.062,467.705 474.324,465.559C 474.411,464.844 474.512,464.015 474.627,463.077C 474.841,461.198 475.102,458.878 475.361,456.148C 475.62,453.416 475.877,450.272 476.081,446.744C 476.394,441.454 476.674,435.302 476.761,428.397C 476.79,426.095 476.797,423.71 476.777,421.245C 476.765,416.314 476.626,411.065 476.325,405.537C 476.026,400.008 475.564,394.201 474.911,388.153C 473.633,376.058 471.481,363.006 468.065,349.438C 464.668,335.875 459.943,321.778 453.23,307.963C 448.228,297.609 442.123,287.372 434.7,277.894C 432.226,274.735 429.605,271.659 426.83,268.691C 425.457,267.2 424.045,265.736 422.598,264.302C 419.705,261.432 416.67,258.681 413.507,256.067C 407.181,250.839 400.345,246.159 393.111,242.182C 391.302,241.188 389.469,240.238 387.612,239.334C 380.207,235.68 372.491,232.71 364.628,230.391C 356.763,228.072 348.752,226.403 340.754,225.35C 334.752,224.552 328.758,224.068 322.812,223.837C 320.829,223.76 318.853,223.711 316.884,223.688C 312.929,223.604 309.001,223.738 305.198,223.811C 301.311,224.013 297.423,224.133 293.629,224.512C 286.012,225.131 278.554,226.14 271.32,227.487C 264.086,228.835 257.076,230.522 250.354,232.499C 246.998,233.511 243.717,234.599 240.516,235.758C 230.912,239.232 222.034,243.327 214.066,247.847C 208.732,250.832 203.82,254.018 199.313,257.272C 194.806,260.526 190.704,263.849 186.991,267.11C 183.277,270.38 179.968,273.614 177.025,276.712C 174.083,279.811 171.507,282.775 169.26,285.508C 164.8,291.01 161.697,295.631 159.666,298.82C 158.647,300.414 157.886,301.647 157.379,302.482C 156.872,303.317 156.62,303.754 156.62,303.754C 156.62,303.754 157.723,302.063 159.923,298.995C 160.468,298.225 161.088,297.373 161.785,296.446C 163.178,294.591 164.875,292.435 166.885,290.033C 167.89,288.832 168.973,287.569 170.134,286.251C 174.809,281.009 180.814,274.916 188.393,268.764C 192.175,265.683 196.349,262.59 200.905,259.576C 205.46,256.561 210.397,253.624 215.703,250.856C 218.345,249.451 221.085,248.098 223.913,246.804C 229.57,244.215 235.587,241.857 241.905,239.772C 257.7,234.561 275.377,231.06 294.034,229.929C 297.769,229.65 301.501,229.554 305.28,229.41C 309.151,229.386 312.952,229.3 316.773,229.444C 320.608,229.547 324.46,229.751 328.318,230.073C 332.177,230.395 336.041,230.833 339.897,231.405C 355.314,233.667 370.68,238.032 384.756,245.101C 390.034,247.736 395.134,250.72 400.002,254.022C 408.116,259.524 415.589,265.906 422.187,273.015C 423.514,274.43 424.808,275.87 426.068,277.334C 428.59,280.26 430.979,283.28 433.242,286.371C 434.375,287.916 435.474,289.479 436.544,291.057C 438.684,294.213 440.701,297.43 442.602,300.687C 443.553,302.316 444.475,303.954 445.368,305.6C 446.261,307.245 447.127,308.898 447.966,310.556C 448.801,312.218 449.608,313.886 450.387,315.558C 455.844,327.265 459.958,339.176 463.208,350.724C 465.04,357.336 466.569,363.842 467.856,370.18 Z "/>
		<path fill="#3F3F3F" fill-opacity="1" stroke-width="0.2" stroke-linejoin="miter" d="M 341.95,236.869C 341.586,236.798 341.2,236.722 340.791,236.643C 339.149,236.351 337.154,235.996 334.866,235.59C 332.579,235.135 329.966,234.941 327.121,234.621C 326.409,234.556 325.682,234.478 324.941,234.395C 322.719,234.149 320.369,233.87 317.908,233.832C 314.63,233.711 311.165,233.485 307.581,233.488C 304,233.58 300.288,233.544 296.526,233.748C 292.773,234.06 288.947,234.258 285.142,234.676C 283.248,234.951 281.345,235.176 279.455,235.421C 277.564,235.667 275.685,235.933 273.833,236.293C 270.113,236.901 266.48,237.648 262.99,238.483C 259.476,239.208 256.151,240.221 252.986,241.101C 249.833,242.027 246.882,243.01 244.186,243.982C 242.837,244.468 241.551,244.948 240.335,245.425C 239.119,245.901 237.973,246.372 236.905,246.839C 234.748,247.705 232.933,248.631 231.421,249.33C 229.925,250.076 228.769,250.697 227.988,251.131C 227.208,251.565 226.801,251.813 226.801,251.813C 226.801,251.813 228.593,251.159 231.751,250.152C 233.344,249.679 235.254,249.059 237.477,248.444C 239.685,247.788 242.205,247.153 244.937,246.426C 247.68,245.732 250.668,245.05 253.818,244.323C 256.99,243.667 260.318,242.937 263.794,242.329C 265.529,242.022 267.283,241.656 269.076,241.381C 270.87,241.109 272.684,240.833 274.514,240.555C 276.334,240.226 278.184,239.99 280.043,239.774C 281.903,239.559 283.773,239.365 285.634,239.12C 287.5,238.894 289.37,238.719 291.235,238.554C 293.1,238.391 294.959,238.239 296.801,238.06C 300.498,237.844 304.136,237.632 307.656,237.427C 311.186,237.338 314.598,237.253 317.834,237.171C 321.075,237.028 324.135,237.212 326.97,237.185C 329.801,237.259 332.415,237.13 334.713,237.295C 337.021,237.385 339.034,237.463 340.691,237.527C 341.107,237.537 341.501,237.545 341.873,237.553C 343.356,237.587 344.468,237.612 345.148,237.627C 345.658,237.638 345.926,237.644 345.926,237.644C 345.926,237.644 345.197,237.503 343.852,237.24C 343.313,237.135 342.677,237.01 341.95,236.869 Z "/>
	</g>
</svg>
