<?xml version="1.0" encoding="utf-8"?>
<!DOCTYPE svg PUBLIC "-//W3C//DTD SVG 1.1//EN" "http://www.w3.org/Graphics/SVG/1.1/DTD/svg11.dtd">
<svg xmlns="http://www.w3.org/2000/svg" xmlns:xlink="http://www.w3.org/1999/xlink" version="1.1" baseProfile="full" width="623.621" height="982.677" viewBox="0 0 623.62 982.68" enable-background="new 0 0 623.62 982.68" xml:space="preserve">
	<g>
		<g>
			<path fill="#575757" fill-opacity="1" stroke-width="0.2" stroke-linejoin="round" d="M 623.621,30.2362L 623.621,952.441C 623.621,969.14 610.083,982.677 593.384,982.677L 30.2363,982.677C 13.5376,982.677 0.000488281,969.14 0.000488281,952.441L 0.000488281,30.2362C 0.000488281,13.5371 13.5376,-0.00012207 30.2363,-0.00012207L 593.384,-0.00012207C 610.083,-0.00012207 623.621,13.5371 623.621,30.2362 Z "/>
			<g>
				<g>
					<linearGradient id="SVGID_Fill1_" gradientUnits="objectBoundingBox" x1="1.57029" y1="1.03052" x2="2.60812" y2="1.03052" gradientTransform="rotate(268.539795 1.570292 1.030524)">
						<stop offset="0" stop-color="#979795" stop-opacity="1"/>
						<stop offset="0.502242" stop-color="#F8F8F6" stop-opacity="1"/>
						<stop offset="1" stop-color="#959593" stop-opacity="1"/>
					</linearGradient>
					<path fill="url(#SVGID_Fill1_)" stroke-width="0.2" stroke-linejoin="round" d="M 403.012,918.972L 384.633,850.802C 391.002,850.802 397.372,850.802 402.134,858.546C 406.897,866.289 410.053,881.777 413.208,897.265L 430.385,850.802L 448.628,850.802L 421.126,918.972L 403.012,918.972 Z "/>
					<linearGradient id="SVGID_Fill2_" gradientUnits="objectBoundingBox" x1="1.40519" y1="1.03052" x2="2.44478" y2="1.03052" gradientTransform="rotate(269.351929 1.405186 1.030524)">
						<stop offset="0" stop-color="#979795" stop-opacity="1"/>
						<stop offset="0.502242" stop-color="#F8F8F6" stop-opacity="1"/>
						<stop offset="1" stop-color="#959593" stop-opacity="1"/>
					</linearGradient>
					<path fill="url(#SVGID_Fill2_)" stroke-width="0.2" stroke-linejoin="round" d="M 445.221,918.972L 456.094,850.802L 473.618,850.802L 462.566,918.955L 445.221,918.972 Z "/>
					<linearGradient id="SVGID_Fill3_" gradientUnits="objectBoundingBox" x1="-0.610522" y1="1.03057" x2="0.42136" y2="1.03057" gradientTransform="rotate(268.581665 -0.610522 1.030569)">
						<stop offset="0" stop-color="#979795" stop-opacity="1"/>
						<stop offset="0.502242" stop-color="#F8F8F6" stop-opacity="1"/>
						<stop offset="1" stop-color="#959593" stop-opacity="1"/>
					</linearGradient>
					<path fill="url(#SVGID_Fill3_)" stroke-width="0.2" stroke-linejoin="round" d="M 585.825,918.957L 570.094,918.955L 567.625,908.804L 545.116,908.802L 540.184,918.952L 523.297,918.952C 532.168,895.436 541.039,871.921 549.146,860.562C 557.252,849.204 564.594,850.003 571.936,850.802L 585.825,918.957 Z M 564.845,894.949L 559.432,869.203L 549.939,894.948L 564.845,894.949 Z "/>
					<linearGradient id="SVGID_Fill4_" gradientUnits="objectBoundingBox" x1="0.220905" y1="0.978425" x2="1.17264" y2="0.978425" gradientTransform="rotate(268.837280 0.220905 0.978425)">
						<stop offset="0" stop-color="#979795" stop-opacity="1"/>
						<stop offset="0.502242" stop-color="#F8F8F6" stop-opacity="1"/>
						<stop offset="1" stop-color="#959593" stop-opacity="1"/>
					</linearGradient>
					<path fill="url(#SVGID_Fill4_)" stroke-width="0.2" stroke-linejoin="round" d="M 491.747,922.026C 487.588,921.431 483.985,920.745 480.936,919.969C 477.887,919.193 475.19,918.289 472.845,917.26L 476.601,901.734C 480.523,903.034 483.902,904.071 486.738,904.847C 489.574,905.622 491.988,906.152 493.979,906.437C 498.995,907.156 502.706,907.133 505.111,906.37C 507.516,905.606 508.887,904.044 509.225,901.685C 509.438,900.194 509.279,898.997 508.746,898.094C 508.212,897.19 507.278,896.384 505.943,895.676L 491.025,887.669C 486.93,885.457 484.022,882.811 482.302,879.729C 480.583,876.646 480.085,872.572 480.811,867.506C 481.926,859.719 485.145,854.327 490.469,851.33C 495.792,848.333 503.525,847.56 513.668,849.013C 516.143,849.367 518.577,849.83 520.971,850.401C 523.364,850.973 525.849,851.672 528.425,852.499L 524.913,867.506C 521.972,866.715 519.386,866.094 517.155,865.642C 514.924,865.189 512.913,864.835 511.119,864.578C 505.454,863.767 501.266,863.695 498.554,864.363C 495.843,865.031 494.322,866.523 493.99,868.839C 493.771,870.373 493.988,871.557 494.644,872.389C 495.299,873.222 496.374,874.026 497.869,874.801L 510.401,881.359C 515.28,883.815 518.726,886.779 520.738,890.25C 522.75,893.721 523.371,898.149 522.6,903.534C 521.5,911.22 518.445,916.561 513.435,919.559C 508.426,922.557 501.196,923.379 491.747,922.026 Z "/>
					<linearGradient id="SVGID_Fill5_" gradientUnits="objectBoundingBox" x1="2.73583" y1="1.90307" x2="4.65209" y2="1.90307" gradientTransform="rotate(268.202454 2.735825 1.903068)">
						<stop offset="0" stop-color="#979795" stop-opacity="1"/>
						<stop offset="0.502242" stop-color="#F8F8F6" stop-opacity="1"/>
						<stop offset="1" stop-color="#959593" stop-opacity="1"/>
					</linearGradient>
					<path fill="url(#SVGID_Fill5_)" stroke-width="0.2" stroke-linejoin="round" d="M 368.404,852.137L 368.724,850.805L 397.112,850.805C 397.112,850.805 403.797,850.433 404.995,856.864C 406.193,863.296 411.067,887.716 411.067,887.716C 411.067,887.716 402.988,860.859 368.404,852.137 Z "/>
				</g>
				<g>
					<path fill="#FFFFFF" fill-opacity="1" stroke-width="0.2" stroke-linejoin="round" d="M 218.651,755.905L 310.99,755.905C 312.973,755.905 314.581,757.512 314.581,759.495L 314.581,880.467C 314.581,882.45 312.973,884.057 310.99,884.057L 218.651,884.057C 216.668,884.057 215.061,882.45 215.061,880.467L 215.061,759.495C 215.061,757.512 216.668,755.905 218.651,755.905 Z "/>
					<path fill="#EAEAEA" fill-opacity="1" stroke-width="0.2" stroke-linejoin="round" d="M 226.228,755.903L 238.46,755.903C 240.443,755.903 242.05,757.511 242.05,759.494L 242.05,801.669C 242.05,803.652 240.443,805.26 238.46,805.26L 226.228,805.26C 224.245,805.26 222.637,803.652 222.637,801.669L 222.637,759.494C 222.637,757.511 224.245,755.903 226.228,755.903 Z "/>
					<path fill="#EAEAEA" fill-opacity="1" stroke-width="0.2" stroke-linejoin="round" d="M 257.801,755.904L 270.033,755.904C 272.016,755.904 273.624,757.512 273.624,759.495L 273.624,793.778C 273.624,795.761 272.016,797.369 270.033,797.369L 257.801,797.369C 255.818,797.369 254.21,795.761 254.21,793.778L 254.21,759.495C 254.21,757.512 255.818,755.904 257.801,755.904 Z "/>
					<path fill="#EAEAEA" fill-opacity="1" stroke-width="0.2" stroke-linejoin="round" d="M 290.442,755.906L 302.674,755.906C 304.657,755.906 306.265,757.514 306.265,759.497L 306.265,790.111C 306.265,792.094 304.657,793.701 302.674,793.701L 290.442,793.701C 288.459,793.701 286.852,792.094 286.852,790.111L 286.852,759.497C 286.852,757.514 288.459,755.906 290.442,755.906 Z "/>
					<path fill="#EAEAEA" fill-opacity="1" stroke-width="0.2" stroke-linejoin="round" d="M 296.024,809.066L 296.024,830.472C 296.024,832.454 294.417,834.062 292.434,834.062L 233.89,834.062C 231.908,834.062 230.3,832.454 230.3,830.472L 230.3,809.066C 230.3,807.083 231.908,805.475 233.89,805.475L 292.434,805.475C 294.417,805.475 296.024,807.083 296.024,809.066 Z "/>
					<path fill="#EAEAEA" fill-opacity="1" stroke-width="0.2" stroke-linejoin="round" d="M 226.656,844.926L 238.888,844.926C 240.871,844.926 242.478,846.534 242.478,848.516L 242.478,879.131C 242.478,881.114 240.871,882.721 238.888,882.721L 226.656,882.721C 224.673,882.721 223.065,881.114 223.065,879.131L 223.065,848.516C 223.065,846.534 224.673,844.926 226.656,844.926 Z "/>
					<path fill="#EAEAEA" fill-opacity="1" stroke-width="0.2" stroke-linejoin="round" d="M 287.054,850.392L 299.286,850.392C 301.269,850.392 302.876,852 302.876,853.983L 302.876,880.196C 302.876,882.179 301.269,883.786 299.286,883.786L 287.054,883.786C 285.071,883.786 283.463,882.179 283.463,880.196L 283.463,853.983C 283.463,852 285.071,850.392 287.054,850.392 Z "/>
					<path fill="#EAEAEA" fill-opacity="1" stroke-width="0.2" stroke-linejoin="round" d="M 258.655,841.81L 270.887,841.81C 272.87,841.81 274.477,843.417 274.477,845.4L 274.477,879.683C 274.477,881.666 272.87,883.274 270.887,883.274L 258.655,883.274C 256.671,883.274 255.064,881.666 255.064,879.683L 255.064,845.4C 255.064,843.417 256.671,841.81 258.655,841.81 Z "/>
				</g>
				<g>
					<g>
						<g>
							<linearGradient id="SVGID_Fill6_" gradientUnits="objectBoundingBox" x1="-0.75274" y1="15.1199" x2="17.5617" y2="15.1199" gradientTransform="rotate(-6.186184 -0.752740 15.119908)">
								<stop offset="0" stop-color="#FFFFFF" stop-opacity="1"/>
								<stop offset="0.488789" stop-color="#E09AD0" stop-opacity="1"/>
								<stop offset="1" stop-color="#F5BC40" stop-opacity="1"/>
							</linearGradient>
							<path fill="url(#SVGID_Fill6_)" stroke-width="0.2" stroke-linejoin="miter" d="M 89.6084,70.9236L 72.3203,70.9236C 72.3203,70.9236 73.749,75.21 77.3208,77.9246L 89.6084,77.9246L 101.896,77.9246C 105.468,75.21 106.896,70.9236 106.896,70.9236L 89.6084,70.9236 Z "/>
							<linearGradient id="SVGID_Fill7_" gradientUnits="objectBoundingBox" x1="-0.578603" y1="40.6242" x2="43.9464" y2="40.6242" gradientTransform="rotate(-2.065659 -0.578603 40.624172)">
								<stop offset="0" stop-color="#FFFFFF" stop-opacity="1"/>
								<stop offset="0.488789" stop-color="#E09AD0" stop-opacity="1"/>
								<stop offset="1" stop-color="#F5BC40" stop-opacity="1"/>
							</linearGradient>
							<rect x="69.606" y="66.4944" fill="url(#SVGID_Fill7_)" stroke-width="0.2" stroke-linejoin="miter" width="40.291" height="2.71472"/>
							<linearGradient id="SVGID_Fill8_" gradientUnits="objectBoundingBox" x1="-11.6415" y1="3.41998" x2="71.0026" y2="3.41998" gradientTransform="rotate(-79.834244 -11.641482 3.419977)">
								<stop offset="0" stop-color="#FFFFFF" stop-opacity="1"/>
								<stop offset="0.488789" stop-color="#E09AD0" stop-opacity="1"/>
								<stop offset="1" stop-color="#F5BC40" stop-opacity="1"/>
							</linearGradient>
							<rect x="77.8926" y="80.0677" fill="url(#SVGID_Fill8_)" stroke-width="0.2" stroke-linejoin="miter" width="2.71436" height="28.278"/>
							<linearGradient id="SVGID_Fill9_" gradientUnits="objectBoundingBox" x1="-13.5364" y1="3.41998" x2="69.1076" y2="3.41998" gradientTransform="rotate(-79.834244 -13.536427 3.419977)">
								<stop offset="0" stop-color="#FFFFFF" stop-opacity="1"/>
								<stop offset="0.488789" stop-color="#E09AD0" stop-opacity="1"/>
								<stop offset="1" stop-color="#F5BC40" stop-opacity="1"/>
							</linearGradient>
							<rect x="83.0361" y="80.0677" fill="url(#SVGID_Fill9_)" stroke-width="0.2" stroke-linejoin="miter" width="2.71436" height="28.278"/>
							<linearGradient id="SVGID_Fill10_" gradientUnits="objectBoundingBox" x1="-15.4314" y1="3.41998" x2="67.2127" y2="3.41998" gradientTransform="rotate(-79.834244 -15.431373 3.419977)">
								<stop offset="0" stop-color="#FFFFFF" stop-opacity="1"/>
								<stop offset="0.488789" stop-color="#E09AD0" stop-opacity="1"/>
								<stop offset="1" stop-color="#F5BC40" stop-opacity="1"/>
							</linearGradient>
							<rect x="88.1797" y="80.0677" fill="url(#SVGID_Fill10_)" stroke-width="0.2" stroke-linejoin="miter" width="2.71436" height="28.278"/>
							<linearGradient id="SVGID_Fill11_" gradientUnits="objectBoundingBox" x1="-17.3263" y1="3.41998" x2="65.3177" y2="3.41998" gradientTransform="rotate(-79.834244 -17.326317 3.419977)">
								<stop offset="0" stop-color="#FFFFFF" stop-opacity="1"/>
								<stop offset="0.488789" stop-color="#E09AD0" stop-opacity="1"/>
								<stop offset="1" stop-color="#F5BC40" stop-opacity="1"/>
							</linearGradient>
							<rect x="93.3232" y="80.0677" fill="url(#SVGID_Fill11_)" stroke-width="0.2" stroke-linejoin="miter" width="2.71436" height="28.278"/>
							<linearGradient id="SVGID_Fill12_" gradientUnits="objectBoundingBox" x1="-19.2178" y1="3.41998" x2="63.4114" y2="3.41998" gradientTransform="rotate(-79.832436 -19.217806 3.419977)">
								<stop offset="0" stop-color="#FFFFFF" stop-opacity="1"/>
								<stop offset="0.488789" stop-color="#E09AD0" stop-opacity="1"/>
								<stop offset="1" stop-color="#F5BC40" stop-opacity="1"/>
							</linearGradient>
							<rect x="98.4668" y="80.0677" fill="url(#SVGID_Fill12_)" stroke-width="0.2" stroke-linejoin="miter" width="2.71484" height="28.278"/>
						</g>
						<linearGradient id="SVGID_Fill13_" gradientUnits="objectBoundingBox" x1="-0.214706" y1="1.99207" x2="4.00066" y2="1.99207" gradientTransform="rotate(-28.160814 -0.214706 1.992074)">
							<stop offset="0" stop-color="#FFFFFF" stop-opacity="1"/>
							<stop offset="0.488789" stop-color="#E09AD0" stop-opacity="1"/>
							<stop offset="1" stop-color="#F5BC40" stop-opacity="1"/>
						</linearGradient>
						<path fill="url(#SVGID_Fill13_)" stroke-width="0.2" stroke-linejoin="miter" d="M 119.518,116.974L 59.2363,116.974L 59.2363,56.6918L 119.518,56.6918L 119.518,116.974 Z M 60.6216,115.589L 118.133,115.589L 118.133,58.0769L 60.6216,58.0769L 60.6216,115.589 Z "/>
					</g>
					<g>
						<linearGradient id="SVGID_Fill14_" gradientUnits="objectBoundingBox" x1="-2.03753" y1="2.58932" x2="4.04081" y2="2.58932" gradientTransform="rotate(-27.969225 -2.037526 2.589322)">
							<stop offset="0" stop-color="#FFFFFF" stop-opacity="1"/>
							<stop offset="0.488789" stop-color="#E09AD0" stop-opacity="1"/>
							<stop offset="1" stop-color="#F5BC40" stop-opacity="1"/>
						</linearGradient>
						<path fill="url(#SVGID_Fill14_)" stroke-width="0.2" stroke-linejoin="round" d="M 157.752,110.781C 155.36,110.781 154.164,109.694 154.164,107.519C 154.164,106.432 154.426,105.594 154.949,105.007C 155.472,104.419 156.125,104.036 156.906,103.86C 158.557,103.513 160.102,102.851 161.539,101.872C 162.976,100.894 164.258,99.6433 165.387,98.1212C 166.562,96.5106 167.464,94.8033 168.093,92.9991C 168.721,91.1949 169.036,89.3143 169.036,87.3573C 169.036,85.0945 168.635,82.8978 167.833,80.7675C 167.031,78.6372 165.934,76.8755 164.541,75.4824C 163.019,73.9196 161.355,72.6267 159.551,71.604C 157.747,70.5813 155.69,70.0699 153.379,70.0699C 150.77,70.0699 148.39,70.527 146.239,71.4409C 144.088,72.3549 142.252,73.6816 140.729,75.4213C 139.336,76.9843 138.227,78.7986 137.402,80.8644C 136.576,82.9302 136.163,85.1387 136.163,87.4899C 136.163,89.4469 136.445,91.3275 137.009,93.1317C 137.573,94.9359 138.487,96.599 139.751,98.1212C 140.791,99.4259 141.997,100.579 143.37,101.582C 144.742,102.584 146.19,103.323 147.712,103.799C 148.364,104.016 148.928,104.223 149.404,104.421C 149.879,104.618 150.27,104.845 150.576,105.103C 150.882,105.362 151.099,105.698 151.229,106.113C 151.358,106.527 151.422,107.04 151.422,107.652C 151.422,108.78 151.042,109.605 150.281,110.129C 149.52,110.652 148.619,110.913 147.58,110.913C 146.798,110.913 145.938,110.771 145,110.485C 144.063,110.2 143.104,109.819 142.126,109.344C 141.147,108.868 140.181,108.314 139.226,107.682C 138.271,107.05 137.379,106.364 136.55,105.623C 134.988,104.189 133.663,102.679 132.575,101.092C 131.488,99.5057 130.594,97.7101 129.895,95.7054C 128.943,93.0145 128.467,89.9497 128.467,86.5114C 128.467,84.5542 128.75,82.5972 129.313,80.6401C 129.877,78.683 130.615,76.8789 131.525,75.2277C 132.483,73.5763 133.615,72.0439 134.919,70.6305C 136.224,69.2172 137.702,67.9872 139.354,66.9407C 141.311,65.7242 143.453,64.7678 145.78,64.0713C 148.108,63.3748 150.382,63.0265 152.604,63.0265C 154.82,63.0265 156.993,63.3204 159.123,63.9082C 161.253,64.496 163.253,65.3336 165.122,66.4208C 166.95,67.5081 168.668,68.9215 170.279,70.6611C 171.89,72.4008 173.194,74.249 174.193,76.2062C 174.975,77.8574 175.595,79.6174 176.054,81.4861C 176.512,83.3549 176.742,85.2269 176.742,87.1025C 176.742,88.9237 176.512,90.8348 176.054,92.8361C 175.595,94.8373 174.975,96.6636 174.193,98.3148C 173.5,99.7079 172.719,100.992 171.849,102.168C 170.979,103.343 169.957,104.451 168.781,105.491C 167.259,106.884 165.529,108.114 163.593,109.181C 161.656,110.247 159.709,110.781 157.752,110.781 Z "/>
						<linearGradient id="SVGID_Fill15_" gradientUnits="objectBoundingBox" x1="-5.64453" y1="2.59483" x2="4.34865" y2="2.59483" gradientTransform="rotate(-43.390446 -5.644533 2.594834)">
							<stop offset="0" stop-color="#FFFFFF" stop-opacity="1"/>
							<stop offset="0.488789" stop-color="#E09AD0" stop-opacity="1"/>
							<stop offset="1" stop-color="#F5BC40" stop-opacity="1"/>
						</linearGradient>
						<path fill="url(#SVGID_Fill15_)" stroke-width="0.2" stroke-linejoin="round" d="M 181.96,110.975C 180.52,110.975 179.388,110.737 178.566,110.261C 178.002,109.955 177.557,109.563 177.231,109.084C 176.905,108.605 176.742,107.951 176.742,107.122C 176.742,106.823 176.774,106.53 176.838,106.245C 176.903,105.96 177.032,105.644 177.226,105.297C 177.419,104.951 177.679,104.55 178.005,104.094C 178.332,103.639 178.756,103.106 179.28,102.494C 180.061,101.583 180.704,100.79 181.207,100.114C 181.709,99.4377 182.102,98.7957 182.383,98.1874C 182.666,97.5792 182.871,96.9591 183,96.3273C 183.129,95.6952 183.194,94.924 183.194,94.0134L 183.194,70.4674L 181.756,70.4674C 180.758,70.4674 179.91,70.1191 179.213,69.4227C 178.517,68.7262 178.168,67.8784 178.168,66.8795C 178.168,65.8738 178.517,65.0244 179.213,64.3312C 179.91,63.6381 180.758,63.2915 181.756,63.2915L 186.068,63.2915C 186.979,63.2915 187.718,63.334 188.285,63.4189C 188.853,63.5039 189.395,63.808 189.911,64.3312C 190.394,64.8069 190.677,65.2843 190.762,65.7633C 190.847,66.2424 190.89,66.8523 190.89,67.593L 190.89,93.361C 190.89,94.6658 190.803,95.8175 190.629,96.8165C 190.457,97.8154 190.197,98.7396 189.85,99.589C 189.503,100.438 189.09,101.254 188.611,102.035C 188.132,102.817 187.587,103.622 186.976,104.451L 194.029,104.451C 194.375,104.451 194.678,104.342 194.936,104.125C 195.154,103.907 195.393,103.668 195.655,103.406C 195.917,103.145 196.156,102.861 196.374,102.555C 197.155,101.556 197.85,100.807 198.458,100.308C 199.066,99.8081 199.785,99.5585 200.614,99.5585C 201.395,99.5585 202.112,99.8624 202.765,100.471C 203.417,101.079 203.743,101.95 203.743,103.085C 203.743,103.69 203.612,104.232 203.351,104.711C 203.089,105.19 202.656,105.8 202.051,106.541L 200.288,108.691C 199.982,109.038 199.688,109.342 199.406,109.604C 199.124,109.865 198.83,110.084 198.524,110.261C 198.089,110.479 197.6,110.652 197.056,110.781C 196.513,110.91 195.83,110.975 195.007,110.975L 181.96,110.975 Z "/>
						<linearGradient id="SVGID_Fill16_" gradientUnits="objectBoundingBox" x1="-24.1601" y1="2.56425" x2="9.51543" y2="2.56425" gradientTransform="rotate(-73.459236 -24.160143 2.564255)">
							<stop offset="0" stop-color="#FFFFFF" stop-opacity="1"/>
							<stop offset="0.488789" stop-color="#E09AD0" stop-opacity="1"/>
							<stop offset="1" stop-color="#F5BC40" stop-opacity="1"/>
						</linearGradient>
						<path fill="url(#SVGID_Fill16_)" stroke-width="0.2" stroke-linejoin="round" d="M 210.919,111.301C 209.832,111.301 208.919,110.93 208.182,110.19C 207.445,109.449 207.076,108.535 207.076,107.448L 207.076,66.7469C 207.076,65.6598 207.445,64.7457 208.182,64.005C 208.919,63.2644 209.832,62.894 210.919,62.894C 212.006,62.894 212.92,63.2644 213.661,64.005C 214.402,64.7457 214.772,65.6598 214.772,66.7469L 214.772,107.448C 214.772,108.535 214.402,109.449 213.661,110.19C 212.92,110.93 212.006,111.301 210.919,111.301 Z "/>
						<linearGradient id="SVGID_Fill17_" gradientUnits="objectBoundingBox" x1="-5.51443" y1="2.57762" x2="2.04783" y2="2.57762" gradientTransform="rotate(-34.882671 -5.514429 2.577617)">
							<stop offset="0" stop-color="#FFFFFF" stop-opacity="1"/>
							<stop offset="0.488789" stop-color="#E09AD0" stop-opacity="1"/>
							<stop offset="1" stop-color="#F5BC40" stop-opacity="1"/>
						</linearGradient>
						<path fill="url(#SVGID_Fill17_)" stroke-width="0.2" stroke-linejoin="round" d="M 224.231,111.168C 223.185,111.168 222.293,110.8 221.556,110.062C 220.818,109.325 220.45,108.433 220.45,107.387L 220.45,70.5286C 220.45,69.6996 220.459,69.0031 220.48,68.4391C 220.5,67.875 220.521,67.4299 220.542,67.1038C 220.562,66.7776 220.583,66.5278 220.607,66.3546C 220.631,66.1813 220.643,66.0504 220.643,65.9622C 220.731,65.4388 221.014,64.829 221.489,64.1324C 221.965,63.4359 222.726,63.0876 223.772,63.0876C 224.771,63.0876 225.51,63.317 225.99,63.7758C 226.468,64.2344 226.99,64.8749 227.554,65.6971L 238.451,82.1385C 238.539,82.3152 238.615,82.468 238.68,82.5972C 238.745,82.7263 238.821,82.835 238.909,82.9233C 238.998,82.835 239.074,82.7263 239.139,82.5972C 239.203,82.468 239.28,82.3152 239.368,82.1385L 250.652,65.1161C 251.086,64.5045 251.521,64.0135 251.957,63.6432C 252.391,63.2728 253.087,63.0876 254.046,63.0876C 255.085,63.0876 255.845,63.4359 256.324,64.1324C 256.803,64.829 257.087,65.4388 257.175,65.9622C 257.175,66.0504 257.185,66.1813 257.206,66.3546C 257.226,66.5278 257.248,66.7776 257.272,67.1038C 257.296,67.4299 257.318,67.875 257.338,68.4391C 257.359,69.0031 257.369,69.6996 257.369,70.5286L 257.369,107.387C 257.369,108.433 256.999,109.325 256.258,110.062C 255.517,110.8 254.627,111.168 253.587,111.168C 252.541,111.168 251.649,110.8 250.912,110.062C 250.174,109.325 249.806,108.433 249.806,107.387L 249.806,78.8767L 241.906,90.9453C 241.559,91.5093 241.255,91.9543 240.994,92.2805C 240.732,92.6068 240.493,92.8582 240.275,93.0348C 240.058,93.2115 239.84,93.3322 239.623,93.3967C 239.405,93.4613 239.167,93.4935 238.909,93.4935C 238.386,93.4935 237.929,93.3525 237.538,93.0706C 237.147,92.7885 236.602,92.0801 235.902,90.9453L 228.013,78.8156L 228.013,107.387C 228.013,108.433 227.643,109.325 226.902,110.062C 226.161,110.8 225.271,111.168 224.231,111.168 Z "/>
						<linearGradient id="SVGID_Fill18_" gradientUnits="objectBoundingBox" x1="-7.98076" y1="2.5718" x2="0.767855" y2="2.5718" gradientTransform="rotate(-39.560699 -7.980761 2.571804)">
							<stop offset="0" stop-color="#FFFFFF" stop-opacity="1"/>
							<stop offset="0.488789" stop-color="#E09AD0" stop-opacity="1"/>
							<stop offset="1" stop-color="#F5BC40" stop-opacity="1"/>
						</linearGradient>
						<path fill="url(#SVGID_Fill18_)" stroke-width="0.2" stroke-linejoin="round" d="M 284.574,77.2458C 284.574,76.2469 284.399,75.2803 284.049,74.3459C 283.699,73.4115 283.198,72.6182 282.545,71.9658C 282.111,71.5717 281.676,71.2438 281.241,70.9822C 280.806,70.7206 280.317,70.515 279.773,70.3655C 279.229,70.2161 278.589,70.1073 277.852,70.0393C 277.115,69.9714 276.223,69.9374 275.176,69.9374L 272.964,69.9374L 272.964,88.9271C 273.352,88.8795 273.795,88.8014 274.294,88.6926C 274.794,88.5839 275.176,88.4888 275.441,88.4072C 278.356,87.4015 280.595,85.92 282.158,83.963C 282.94,83.0117 283.538,81.9482 283.952,80.7726C 284.367,79.597 284.574,78.4214 284.574,77.2458 Z M 269.244,111.24C 268.245,111.24 267.375,110.869 266.634,110.129C 265.894,109.388 265.523,108.518 265.523,107.519L 265.523,69.9374L 264.025,69.9374C 263.067,69.9374 262.251,69.6011 261.579,68.9283C 260.906,68.2555 260.569,67.4401 260.569,66.4819C 260.569,65.5238 260.906,64.7084 261.579,64.0356C 262.251,63.3629 263.067,63.0265 264.025,63.0265L 276.022,63.0265C 276.939,63.0265 277.67,63.0486 278.213,63.0928C 278.757,63.137 279.158,63.1794 279.417,63.2202C 281.591,63.526 283.461,64.1461 285.028,65.0804C 286.594,66.0148 288.05,67.396 289.396,69.2239C 290.265,70.3995 290.885,71.672 291.255,73.0411C 291.626,74.4105 291.811,75.9208 291.811,77.572C 291.811,79.4883 291.354,81.588 290.44,83.8713C 289.526,86.1545 288.2,88.166 286.459,89.9056C 284.679,91.6859 282.637,93.0773 280.333,94.0796C 278.03,95.0819 275.574,95.7123 272.964,95.9705L 272.964,107.519C 272.964,108.518 272.594,109.388 271.853,110.129C 271.112,110.869 270.243,111.24 269.244,111.24 Z "/>
						<linearGradient id="SVGID_Fill19_" gradientUnits="objectBoundingBox" x1="-5.93938" y1="2.58932" x2="0.138954" y2="2.58932" gradientTransform="rotate(-27.969131 -5.939383 2.589322)">
							<stop offset="0" stop-color="#FFFFFF" stop-opacity="1"/>
							<stop offset="0.488789" stop-color="#E09AD0" stop-opacity="1"/>
							<stop offset="1" stop-color="#F5BC40" stop-opacity="1"/>
						</linearGradient>
						<path fill="url(#SVGID_Fill19_)" stroke-width="0.2" stroke-linejoin="round" d="M 322.798,110.781C 320.406,110.781 319.21,109.694 319.21,107.519C 319.21,106.432 319.472,105.594 319.995,105.007C 320.518,104.419 321.17,104.036 321.952,103.86C 323.603,103.513 325.147,102.851 326.584,101.872C 328.022,100.894 329.304,99.6433 330.433,98.1212C 331.608,96.5106 332.51,94.8033 333.139,92.9991C 333.767,91.1949 334.082,89.3143 334.082,87.3573C 334.082,85.0945 333.681,82.8978 332.879,80.7675C 332.077,78.6372 330.979,76.8755 329.586,75.4824C 328.064,73.9196 326.401,72.6267 324.597,71.604C 322.793,70.5813 320.736,70.0699 318.425,70.0699C 315.816,70.0699 313.436,70.527 311.285,71.4409C 309.134,72.3549 307.298,73.6816 305.775,75.4213C 304.382,76.9843 303.273,78.7986 302.448,80.8644C 301.622,82.9302 301.209,85.1387 301.209,87.4899C 301.209,89.4469 301.491,91.3275 302.055,93.1317C 302.619,94.9359 303.533,96.599 304.797,98.1212C 305.836,99.4259 307.043,100.579 308.416,101.582C 309.788,102.584 311.236,103.323 312.758,103.799C 313.41,104.016 313.974,104.223 314.45,104.421C 314.925,104.618 315.316,104.845 315.622,105.103C 315.928,105.362 316.145,105.698 316.274,106.113C 316.404,106.527 316.468,107.04 316.468,107.652C 316.468,108.78 316.087,109.605 315.327,110.129C 314.565,110.652 313.665,110.913 312.625,110.913C 311.844,110.913 310.984,110.771 310.046,110.485C 309.109,110.2 308.15,109.819 307.172,109.344C 306.193,108.868 305.227,108.314 304.272,107.682C 303.317,107.05 302.425,106.364 301.596,105.623C 300.034,104.189 298.708,102.679 297.621,101.092C 296.534,99.5057 295.64,97.7101 294.94,95.7054C 293.989,93.0145 293.513,89.9497 293.513,86.5114C 293.513,84.5542 293.795,82.5972 294.359,80.6401C 294.923,78.683 295.661,76.8789 296.571,75.2277C 297.529,73.5763 298.661,72.0439 299.965,70.6305C 301.27,69.2172 302.748,67.9872 304.399,66.9407C 306.356,65.7242 308.499,64.7678 310.826,64.0713C 313.154,63.3748 315.428,63.0265 317.65,63.0265C 319.866,63.0265 322.039,63.3204 324.169,63.9082C 326.299,64.496 328.299,65.3336 330.167,66.4208C 331.996,67.5081 333.714,68.9215 335.325,70.6611C 336.936,72.4008 338.24,74.249 339.239,76.2062C 340.021,77.8574 340.641,79.6174 341.1,81.4861C 341.558,83.3549 341.788,85.2269 341.788,87.1025C 341.788,88.9237 341.558,90.8348 341.1,92.8361C 340.641,94.8373 340.021,96.6636 339.239,98.3148C 338.546,99.7079 337.765,100.992 336.895,102.168C 336.025,103.343 335.002,104.451 333.827,105.491C 332.305,106.884 330.575,108.114 328.639,109.181C 326.702,110.247 324.755,110.781 322.798,110.781 Z "/>
					</g>
				</g>
			</g>
		</g>
		<g>
			<g>
				<linearGradient id="SVGID_Fill20_" gradientUnits="objectBoundingBox" x1="-2.45452" y1="-29.845" x2="28.6099" y2="-29.845" gradientTransform="rotate(81.547333 -2.454523 -29.844980)">
					<stop offset="0" stop-color="#E3D187" stop-opacity="1"/>
					<stop offset="0.359223" stop-color="#C1B06D" stop-opacity="1"/>
					<stop offset="0.655342" stop-color="#EDE1BE" stop-opacity="1"/>
					<stop offset="1" stop-color="#CCBC79" stop-opacity="1"/>
				</linearGradient>
				<path fill="url(#SVGID_Fill20_)" stroke-width="0.2" stroke-linejoin="miter" d="M 395.234,691.081C 398.062,690.356 400.878,689.4 403.6,688.278C 406.357,687.227 408.864,685.703 411.264,684.204C 405.391,684.016 400.028,681.455 395.064,678.674C 393.453,677.758 391.871,676.852 390.29,675.962L 387.401,692.264C 390.012,692.176 392.658,691.812 395.234,691.081 Z "/>
				<linearGradient id="SVGID_Fill21_" gradientUnits="objectBoundingBox" x1="-3.36687" y1="-8.90407" x2="7.73769" y2="-8.90407" gradientTransform="rotate(87.549416 -3.366872 -8.904075)">
					<stop offset="0" stop-color="#E3D187" stop-opacity="1"/>
					<stop offset="0.359223" stop-color="#C1B06D" stop-opacity="1"/>
					<stop offset="0.655342" stop-color="#EDE1BE" stop-opacity="1"/>
					<stop offset="1" stop-color="#CCBC79" stop-opacity="1"/>
				</linearGradient>
				<path fill="url(#SVGID_Fill21_)" stroke-width="0.2" stroke-linejoin="miter" d="M 395.973,652.894C 399.747,651.488 403.402,649.544 406.092,646.46C 408.849,643.494 410.968,640.008 412.175,636.306C 413.705,631.275 413.602,625.877 413.591,620.816C 413.581,615.75 413.611,610.742 414.975,606.097C 413.127,607.152 411.392,608.495 409.562,609.667C 407.771,610.906 406.068,612.295 404.507,613.838C 403.017,615.256 401.731,616.953 400.464,618.52L 395.248,647.968C 395.459,649.609 395.695,651.253 395.973,652.894 Z "/>
				<linearGradient id="SVGID_Fill22_" gradientUnits="objectBoundingBox" x1="-1.22771" y1="-23.2978" x2="24.3424" y2="-23.2978" gradientTransform="rotate(74.008751 -1.227707 -23.297762)">
					<stop offset="0" stop-color="#E3D187" stop-opacity="1"/>
					<stop offset="0.359223" stop-color="#C1B06D" stop-opacity="1"/>
					<stop offset="0.655342" stop-color="#EDE1BE" stop-opacity="1"/>
					<stop offset="1" stop-color="#CCBC79" stop-opacity="1"/>
				</linearGradient>
				<path fill="url(#SVGID_Fill22_)" stroke-width="0.2" stroke-linejoin="miter" d="M 423.245,669.796C 425.853,669.793 428.542,669.434 431.25,668.791C 434.002,668.21 436.537,667.034 439.13,665.796C 441.698,664.526 444.211,663.043 446.607,661.429C 449.056,659.872 451.137,657.909 453.155,656.012C 447.566,657.057 442.003,655.806 436.745,654.253C 431.484,652.697 426.387,650.936 420.96,650.322C 416.803,649.771 412.596,649.999 408.627,650.983C 404.72,652.087 400.713,653.339 397.346,655.703C 404.058,662.927 412.872,669.974 423.245,669.796 Z "/>
				<linearGradient id="SVGID_Fill23_" gradientUnits="objectBoundingBox" x1="-5.65595" y1="-8.06371" x2="5.13712" y2="-8.06371" gradientTransform="rotate(87.884377 -5.655947 -8.063706)">
					<stop offset="0" stop-color="#E3D187" stop-opacity="1"/>
					<stop offset="0.359223" stop-color="#C1B06D" stop-opacity="1"/>
					<stop offset="0.655342" stop-color="#EDE1BE" stop-opacity="1"/>
					<stop offset="1" stop-color="#CCBC79" stop-opacity="1"/>
				</linearGradient>
				<path fill="url(#SVGID_Fill23_)" stroke-width="0.2" stroke-linejoin="miter" d="M 432.032,596.604C 431.006,598.553 430.195,600.61 429.652,602.761C 427.543,611.399 429.851,620.822 433.168,629.883C 436.601,627.765 439.711,625.028 441.926,621.674C 444.096,618.259 445.582,614.484 446.177,610.684C 447.025,605.713 446.152,600.582 445.402,595.666C 444.658,590.755 443.996,585.858 444.946,581.286C 441.492,584.004 438.24,587.273 435.63,590.989C 434.366,592.905 433.026,594.612 432.032,596.604 Z "/>
				<linearGradient id="SVGID_Fill24_" gradientUnits="objectBoundingBox" x1="-1.98873" y1="-22.5135" x2="24.3553" y2="-22.5135" gradientTransform="rotate(74.233849 -1.988728 -22.513514)">
					<stop offset="0" stop-color="#E3D187" stop-opacity="1"/>
					<stop offset="0.359223" stop-color="#C1B06D" stop-opacity="1"/>
					<stop offset="0.655342" stop-color="#EDE1BE" stop-opacity="1"/>
					<stop offset="1" stop-color="#CCBC79" stop-opacity="1"/>
				</linearGradient>
				<path fill="url(#SVGID_Fill24_)" stroke-width="0.2" stroke-linejoin="miter" d="M 476.534,633.252C 480.925,629.836 484.966,625.68 488.33,621.456C 482.991,623.287 477.61,623.196 472.441,622.791C 467.277,622.391 462.159,621.742 456.745,622.145C 452.707,622.496 448.729,623.614 445.088,625.405C 441.399,627.141 437.835,629.3 434.962,632.227C 442.621,637.546 452.274,642.312 462.088,640.084C 464.548,639.544 467.023,638.659 469.462,637.505C 471.86,636.32 474.396,635.004 476.534,633.252 Z "/>
				<linearGradient id="SVGID_Fill25_" gradientUnits="objectBoundingBox" x1="-7.61021" y1="-7.43192" x2="3.1822" y2="-7.43192" gradientTransform="rotate(87.966736 -7.610209 -7.431919)">
					<stop offset="0" stop-color="#E3D187" stop-opacity="1"/>
					<stop offset="0.359223" stop-color="#C1B06D" stop-opacity="1"/>
					<stop offset="0.655342" stop-color="#EDE1BE" stop-opacity="1"/>
					<stop offset="1" stop-color="#CCBC79" stop-opacity="1"/>
				</linearGradient>
				<path fill="url(#SVGID_Fill25_)" stroke-width="0.2" stroke-linejoin="miter" d="M 472.951,565.291C 471.773,560.86 470.336,556.266 470.361,551.682C 469.004,553.316 467.808,555.116 466.572,556.938C 465.238,558.709 464.021,560.579 462.973,562.531C 460.799,566.405 459.641,570.733 458.818,574.981C 457.493,583.536 461.295,592.524 465.619,600.427C 468.637,597.745 471.055,594.36 472.819,590.778C 474.589,587.2 475.665,583.377 475.592,579.5C 475.605,574.437 474.227,569.775 472.951,565.291 Z "/>
				<linearGradient id="SVGID_Fill26_" gradientUnits="objectBoundingBox" x1="-2.81098" y1="-15.6693" x2="17.4047" y2="-15.6693" gradientTransform="rotate(78.669884 -2.810984 -15.669295)">
					<stop offset="0" stop-color="#E3D187" stop-opacity="1"/>
					<stop offset="0.359223" stop-color="#C1B06D" stop-opacity="1"/>
					<stop offset="0.655342" stop-color="#EDE1BE" stop-opacity="1"/>
					<stop offset="1" stop-color="#CCBC79" stop-opacity="1"/>
				</linearGradient>
				<path fill="url(#SVGID_Fill26_)" stroke-width="0.2" stroke-linejoin="miter" d="M 487.097,588.552C 483.444,589.776 479.688,591.473 476.315,593.763C 472.949,596.057 470.021,598.977 467.656,602.314C 475.829,605.969 485.215,608.378 494.473,604.767C 499.172,603.115 503.35,599.45 507.292,595.428C 509.243,593.383 511.088,591.175 512.797,588.894C 514.422,586.538 515.778,583.987 517.043,581.526C 512.365,584.591 507.33,585.688 502.18,586.184C 497.113,586.751 492.034,587.021 487.097,588.552 Z "/>
				<linearGradient id="SVGID_Fill27_" gradientUnits="objectBoundingBox" x1="-9.14793" y1="-6.95197" x2="1.95247" y2="-6.95197" gradientTransform="rotate(87.940285 -9.147930 -6.951974)">
					<stop offset="0" stop-color="#E3D187" stop-opacity="1"/>
					<stop offset="0.359223" stop-color="#C1B06D" stop-opacity="1"/>
					<stop offset="0.655342" stop-color="#EDE1BE" stop-opacity="1"/>
					<stop offset="1" stop-color="#CCBC79" stop-opacity="1"/>
				</linearGradient>
				<path fill="url(#SVGID_Fill27_)" stroke-width="0.2" stroke-linejoin="miter" d="M 498.734,543.813C 498.116,539.08 495.846,534.882 493.707,530.864C 491.572,526.847 489.583,522.883 488.907,518.558C 486.911,522.286 485.125,526.349 484.104,530.597C 483.641,532.742 482.902,534.755 482.626,536.878C 482.292,538.98 482.175,541.098 482.313,543.203C 482.693,547.458 483.843,551.383 485.666,555.155C 487.508,558.935 490.004,562.549 492.606,565.903C 495.058,562.711 497.129,559.122 498.133,555.269C 499.054,551.365 499.282,547.416 498.734,543.813 Z "/>
				<linearGradient id="SVGID_Fill28_" gradientUnits="objectBoundingBox" x1="-3.87412" y1="-10.5723" x2="11.5928" y2="-10.5723" gradientTransform="rotate(82.437958 -3.874124 -10.572313)">
					<stop offset="0" stop-color="#E3D187" stop-opacity="1"/>
					<stop offset="0.359223" stop-color="#C1B06D" stop-opacity="1"/>
					<stop offset="0.655342" stop-color="#EDE1BE" stop-opacity="1"/>
					<stop offset="1" stop-color="#CCBC79" stop-opacity="1"/>
				</linearGradient>
				<path fill="url(#SVGID_Fill28_)" stroke-width="0.2" stroke-linejoin="miter" d="M 501.889,557.368C 499.165,560.359 496.546,563.601 494.798,567.305C 498.924,568.23 503.328,568.803 507.768,568.442C 512.226,568.093 516.74,566.819 520.604,563.789C 522.583,562.306 524.477,560.499 526.266,558.462C 528,556.395 529.861,554.223 531.168,551.688C 533.877,546.667 536.138,541.131 537.639,535.789C 533.75,539.838 529.097,542.068 524.623,543.912C 520.149,545.765 515.623,547.312 511.033,549.82C 507.648,551.753 504.528,554.33 501.889,557.368 Z "/>
				<linearGradient id="SVGID_Fill29_" gradientUnits="objectBoundingBox" x1="-9.31422" y1="-6.49176" x2="2.25949" y2="-6.49176" gradientTransform="rotate(87.669502 -9.314216 -6.491756)">
					<stop offset="0" stop-color="#E3D187" stop-opacity="1"/>
					<stop offset="0.359223" stop-color="#C1B06D" stop-opacity="1"/>
					<stop offset="0.655342" stop-color="#EDE1BE" stop-opacity="1"/>
					<stop offset="1" stop-color="#CCBC79" stop-opacity="1"/>
				</linearGradient>
				<path fill="url(#SVGID_Fill29_)" stroke-width="0.2" stroke-linejoin="miter" d="M 505.979,492.625C 503.188,489.234 500.464,485.832 498.993,481.738C 498.458,483.822 498.025,485.981 497.723,488.171C 497.374,490.351 497.36,492.612 497.137,494.78C 496.73,499.122 496.998,503.453 498.184,507.474C 499.925,515.305 505.958,521.552 512.128,526.768C 513.695,523.07 514.629,519.025 514.909,515.099C 515.335,511.21 514.355,507.244 513.15,503.912C 511.372,499.447 508.893,496.039 505.979,492.625 Z "/>
				<linearGradient id="SVGID_Fill30_" gradientUnits="objectBoundingBox" x1="-5.74708" y1="-7.26462" x2="6.70193" y2="-7.26462" gradientTransform="rotate(85.418953 -5.747078 -7.264618)">
					<stop offset="0" stop-color="#E3D187" stop-opacity="1"/>
					<stop offset="0.359223" stop-color="#C1B06D" stop-opacity="1"/>
					<stop offset="0.655342" stop-color="#EDE1BE" stop-opacity="1"/>
					<stop offset="1" stop-color="#CCBC79" stop-opacity="1"/>
				</linearGradient>
				<path fill="url(#SVGID_Fill30_)" stroke-width="0.2" stroke-linejoin="miter" d="M 514.417,527.578C 522.273,527.313 530.877,525.326 537.349,517.741C 540.258,513.884 542.571,508.859 544.301,503.44C 545.187,500.734 545.542,497.885 545.97,495.06C 546.349,492.229 546.591,489.399 546.709,486.661C 544.034,491.462 540.405,494.734 536.767,497.6C 533.248,500.487 529.005,503.027 525.591,506.637C 522.875,509.334 520.94,512.698 518.768,516.182C 516.743,519.709 515.236,523.559 514.417,527.578 Z "/>
				<linearGradient id="SVGID_Fill31_" gradientUnits="objectBoundingBox" x1="-7.96301" y1="-6.05751" x2="4.36828" y2="-6.05751" gradientTransform="rotate(86.995766 -7.963013 -6.057514)">
					<stop offset="0" stop-color="#E3D187" stop-opacity="1"/>
					<stop offset="0.359223" stop-color="#C1B06D" stop-opacity="1"/>
					<stop offset="0.655342" stop-color="#EDE1BE" stop-opacity="1"/>
					<stop offset="1" stop-color="#CCBC79" stop-opacity="1"/>
				</linearGradient>
				<path fill="url(#SVGID_Fill31_)" stroke-width="0.2" stroke-linejoin="miter" d="M 500.731,442.332C 500.664,444.558 500.7,446.846 500.86,449.138C 500.968,451.425 501.421,453.741 501.608,455.97C 502.113,460.441 503.344,464.756 505.105,468.478C 508.291,475.857 515.236,480.54 521.731,484.085C 522.544,480.134 522.361,475.967 521.807,472.08C 521.317,468.19 519.797,464.543 517.94,461.53C 515.405,457.532 512.452,454.702 509.191,451.899C 506.002,449.094 502.873,446.212 500.731,442.332 Z "/>
				<linearGradient id="SVGID_Fill32_" gradientUnits="objectBoundingBox" x1="-8.84267" y1="-5.36282" x2="2.30291" y2="-5.36282" gradientTransform="rotate(87.232430 -8.842666 -5.362822)">
					<stop offset="0" stop-color="#E3D187" stop-opacity="1"/>
					<stop offset="0.359223" stop-color="#C1B06D" stop-opacity="1"/>
					<stop offset="0.655342" stop-color="#EDE1BE" stop-opacity="1"/>
					<stop offset="1" stop-color="#CCBC79" stop-opacity="1"/>
				</linearGradient>
				<path fill="url(#SVGID_Fill32_)" stroke-width="0.2" stroke-linejoin="miter" d="M 529.724,461.447C 527.918,464.655 526.687,468.349 525.517,472.239C 524.415,476.129 524.041,480.242 523.972,484.316C 531.212,482.174 538.368,478.219 542.592,469.508C 544.537,465.173 545.459,459.907 545.912,454.387C 546.202,451.613 545.934,448.858 545.765,446.087C 545.543,443.327 545.201,440.593 544.768,437.968C 543.3,443.038 540.678,446.873 537.963,450.365C 535.322,453.851 532.044,457.207 529.724,461.447 Z "/>
				<linearGradient id="SVGID_Fill33_" gradientUnits="objectBoundingBox" x1="-6.31622" y1="-5.49933" x2="6.91786" y2="-5.49933" gradientTransform="rotate(86.032745 -6.316220 -5.499326)">
					<stop offset="0" stop-color="#E3D187" stop-opacity="1"/>
					<stop offset="0.359223" stop-color="#C1B06D" stop-opacity="1"/>
					<stop offset="0.655342" stop-color="#EDE1BE" stop-opacity="1"/>
					<stop offset="1" stop-color="#CCBC79" stop-opacity="1"/>
				</linearGradient>
				<path fill="url(#SVGID_Fill33_)" stroke-width="0.2" stroke-linejoin="miter" d="M 495.352,401.658C 495.656,403.945 496.062,406.284 496.579,408.612C 497.063,410.941 497.803,413.258 498.401,415.508C 499.656,420.008 501.5,424.229 503.773,427.709C 508.044,434.658 515.173,438.028 521.716,440.253C 521.705,436.213 520.773,432.157 519.547,428.422C 518.362,424.677 516.371,421.321 514.168,418.617C 511.19,415.04 507.992,412.654 504.583,410.277C 501.241,407.891 497.936,405.37 495.352,401.658 Z "/>
				<linearGradient id="SVGID_Fill34_" gradientUnits="objectBoundingBox" x1="-12.2741" y1="-4.19886" x2="-1.30366" y2="-4.19886" gradientTransform="rotate(88.093414 -12.274105 -4.198861)">
					<stop offset="0" stop-color="#E3D187" stop-opacity="1"/>
					<stop offset="0.359223" stop-color="#C1B06D" stop-opacity="1"/>
					<stop offset="0.655342" stop-color="#EDE1BE" stop-opacity="1"/>
					<stop offset="1" stop-color="#CCBC79" stop-opacity="1"/>
				</linearGradient>
				<path fill="url(#SVGID_Fill34_)" stroke-width="0.2" stroke-linejoin="miter" d="M 524.826,416.671C 523.739,420.087 523.246,423.917 522.933,427.93C 522.66,431.935 523.077,436.044 523.784,440.047C 529.916,436.551 535.652,431.398 537.869,422.354C 538.854,417.875 538.817,412.703 538.29,407.371C 538.052,404.692 537.428,402.084 536.833,399.464C 536.206,396.855 535.474,394.29 534.678,391.838C 534.123,396.869 532.339,400.909 530.425,404.674C 528.578,408.421 526.208,412.162 524.826,416.671 Z "/>
			</g>
			<g>
				<linearGradient id="SVGID_Fill35_" gradientUnits="objectBoundingBox" x1="-0.134124" y1="0.0504679" x2="1.63737" y2="0.0504679" gradientTransform="rotate(57.567837 -0.134124 0.050468)">
					<stop offset="0" stop-color="#E3D187" stop-opacity="1"/>
					<stop offset="0.359223" stop-color="#C1B06D" stop-opacity="1"/>
					<stop offset="0.655342" stop-color="#EDE1BE" stop-opacity="1"/>
					<stop offset="1" stop-color="#CCBC79" stop-opacity="1"/>
				</linearGradient>
				<path fill="url(#SVGID_Fill35_)" stroke-width="0.2" stroke-linejoin="miter" d="M 314.115,666.429L 377.023,666.429L 382.764,666.429L 382.764,660.689L 382.764,637.486C 382.764,634.318 381.729,631.898 380.198,630.115C 379.28,629.046 378.183,628.206 377.023,627.572L 377.023,609.498C 396.184,596.706 410.954,580.643 420.954,561.711C 429.49,545.551 434.191,527.396 434.191,510.592C 434.191,481.431 430.757,460.687 419.493,421.808C 411.909,395.631 403.976,367.755 399.748,352.853C 401.159,353.055 402.6,353.157 404.063,353.157C 411.549,353.157 419.082,350.439 424.742,345.124C 427.572,342.467 429.935,339.159 431.589,335.219C 432.831,332.263 433.674,328.95 434.018,325.287C 434.132,324.066 434.191,322.806 434.191,321.508C 434.191,320.271 434.136,319.061 434.028,317.873C 433.892,316.396 433.643,314.971 433.341,313.572C 432.581,310.04 431.289,306.773 429.502,303.811C 428.579,302.28 427.558,300.81 426.37,299.453C 425.637,298.616 424.855,297.813 424.024,297.047C 422.524,295.666 420.899,294.439 419.171,293.376C 413.988,290.189 407.883,288.477 401.478,288.477C 391.833,288.477 382.857,292.316 376.207,299.287C 371.987,303.71 368.899,309.211 367.015,315.569C 365.884,319.383 365.187,323.506 364.939,327.889L 263.292,327.889C 261.785,300.854 243.657,288.48 226.752,288.477L 226.747,288.477C 224.612,288.477 222.51,288.667 220.464,289.038C 219.442,289.224 218.434,289.456 217.442,289.731C 215.458,290.282 213.544,291.01 211.719,291.906C 208.983,293.251 206.451,294.974 204.202,297.047C 197.552,303.175 194.038,311.633 194.038,321.508C 194.038,322.806 194.097,324.066 194.212,325.287C 194.556,328.95 195.398,332.263 196.64,335.219C 198.294,339.159 200.657,342.467 203.487,345.124C 209.147,350.439 216.68,353.157 224.165,353.157C 225.629,353.157 227.07,353.055 228.481,352.853C 226.103,361.235 222.552,373.723 218.551,387.704C 217.662,390.811 216.75,393.992 215.824,397.218C 215.361,398.831 214.895,400.455 214.426,402.087C 213.488,405.35 212.539,408.645 211.588,411.941C 211.113,413.589 210.636,415.238 210.161,416.884C 209.685,418.529 209.209,420.172 208.736,421.808C 207.328,426.668 206.042,431.244 204.871,435.589C 204.284,437.762 203.727,439.876 203.197,441.94C 201.872,447.098 200.717,451.934 199.717,456.551C 199.517,457.475 199.323,458.39 199.135,459.296C 198.759,461.109 198.408,462.891 198.08,464.647C 195.124,480.449 194.038,494.189 194.038,510.592C 194.038,527.396 198.739,545.551 207.275,561.711C 213.525,573.544 221.638,584.255 231.522,593.748C 233.5,595.647 235.546,597.497 237.665,599.297C 241.9,602.898 246.416,606.3 251.206,609.498L 251.206,627.572C 250.433,627.994 249.688,628.509 249.005,629.122C 248.322,629.734 247.701,630.445 247.176,631.262C 246.127,632.895 245.465,634.952 245.465,637.486L 245.465,660.689L 245.465,666.429L 251.206,666.429L 314.115,666.429 Z M 209.193,552.54C 207.378,548.507 205.853,544.484 204.595,540.514C 203.755,537.867 203.035,535.242 202.426,532.652C 201.817,530.062 201.32,527.506 200.928,524.997C 200.144,519.979 199.778,515.146 199.778,510.592C 199.778,500.726 200.174,491.876 201.145,482.951C 201.322,481.329 201.517,479.703 201.733,478.069C 202.596,471.532 203.78,464.85 205.356,457.602C 205.947,454.885 206.592,452.087 207.296,449.188C 207.531,448.222 207.772,447.244 208.02,446.254C 209.755,439.325 211.817,431.803 214.25,423.405C 215.263,419.906 216.282,416.381 217.296,412.865C 219.325,405.832 221.336,398.831 223.254,392.133C 224.214,388.784 225.15,385.51 226.054,382.346C 229.218,371.271 231.985,361.535 233.958,354.583C 234.24,353.59 234.505,352.654 234.753,351.778C 235.331,351.524 236,351.17 236.831,350.659C 237.245,350.407 237.661,350.149 238.076,349.884C 238.908,349.356 239.738,348.797 240.555,348.19C 241.372,347.582 242.176,346.924 242.953,346.195C 243.73,345.466 244.48,344.667 245.19,343.775C 245.545,343.329 245.891,342.86 246.224,342.366C 247.513,340.366 248.703,338.167 249.515,335.732C 249.714,335.124 249.952,334.521 250.117,333.892C 250.267,333.259 250.417,332.621 250.568,331.979C 250.74,331.339 250.82,330.68 250.904,330.017L 251.032,329.019L 251.095,328.518L 251.126,328.267L 251.134,328.204L 251.148,327.957L 251.151,327.846C 251.167,327.255 251.183,326.659 251.199,326.059C 251.193,325.391 251.12,324.556 251.067,323.808C 250.895,322.306 250.655,320.927 250.219,319.51C 249.605,317.404 248.693,315.353 247.504,313.446C 247.107,312.81 246.68,312.191 246.223,311.59C 243.957,308.578 240.892,306.079 237.392,304.405C 235.292,303.4 233.037,302.692 230.705,302.348L 229.539,302.201L 228.956,302.13L 228.882,302.121L 228.655,302.108L 228.528,302.105L 228.273,302.099L 227.251,302.077C 226.95,302.056 226.412,302.111 226.004,302.132C 225.106,302.175 224.288,302.293 223.495,302.458C 222.702,302.623 221.935,302.837 221.138,303.072C 220.368,303.337 219.613,303.647 218.88,304C 217.414,304.707 216.034,305.588 214.785,306.623C 214.161,307.141 213.569,307.697 213.016,308.289C 210.833,310.674 209.156,313.562 208.4,316.688C 208.309,317.079 208.217,317.469 208.138,317.861C 208.059,318.252 207.995,318.645 207.96,319.043L 207.888,319.636L 207.854,319.932L 207.836,320.08L 207.823,320.348L 207.805,321.373C 207.829,322.105 207.864,323.168 208.028,323.909C 208.146,324.72 208.373,325.504 208.607,326.282C 208.867,327.052 209.185,327.799 209.554,328.514C 210.663,330.661 212.239,332.529 214.132,333.938C 215.404,334.886 216.78,335.624 218.231,336.142C 219.681,336.661 221.207,336.962 222.775,337.037C 225.801,337.206 228.966,336.131 231.252,334.273C 233.577,332.426 235.181,329.811 235.736,327.065C 235.901,326.364 235.962,325.74 236.007,324.961C 236.025,324.597 236.013,323.992 235.954,323.427C 235.934,323.239 235.909,323.055 235.878,322.886C 235.821,322.54 235.747,322.2 235.656,321.865C 235.383,320.86 234.961,319.913 234.421,319.061C 234.062,318.491 233.651,317.965 233.198,317.489C 231.839,316.058 230.109,315.068 228.316,314.622C 228.001,314.543 227.72,314.485 227.424,314.439C 227.128,314.393 226.819,314.359 226.446,314.327C 226.179,314.326 225.975,314.309 225.659,314.321C 225.332,314.346 224.968,314.354 224.677,314.413C 223.474,314.599 222.349,315.047 221.39,315.676C 219.942,316.618 218.885,317.966 218.283,319.417C 218.083,319.9 217.932,320.395 217.835,320.889C 217.641,321.86 217.605,322.823 217.808,323.816C 218.355,327.16 221.236,329.718 224.734,329.718C 228.622,329.718 231.774,326.566 231.774,322.677C 231.774,322.27 231.721,321.878 231.654,321.49C 231.929,322.101 232.143,322.744 232.221,323.419C 232.246,323.65 232.262,323.828 232.266,324.032C 232.271,324.237 232.263,324.47 232.238,324.809C 232.214,324.999 232.186,325.233 232.146,325.474C 232.107,325.716 232.056,325.965 231.986,326.186C 231.074,329.974 227.177,333.002 222.956,332.526C 220.944,332.332 218.769,331.485 217.123,330.101C 216.28,329.413 215.548,328.592 214.952,327.68C 214.653,327.225 214.389,326.747 214.162,326.252C 213.934,325.758 213.743,325.246 213.592,324.724C 213.53,324.459 213.464,324.194 213.409,323.929C 213.353,323.663 213.307,323.396 213.284,323.124C 213.237,322.826 213.22,322.599 213.214,322.369C 213.208,322.138 213.212,321.903 213.206,321.589L 213.27,320.567L 213.398,319.838C 213.466,319.267 213.638,318.721 213.788,318.171C 213.943,317.621 214.146,317.047 214.389,316.468C 215.117,314.732 216.198,312.964 217.39,311.76C 223.729,305.362 235.756,307.559 241.497,315.273C 241.817,315.704 242.14,316.181 242.452,316.687C 242.763,317.192 243.063,317.725 243.339,318.267C 243.615,318.808 243.867,319.357 244.081,319.895C 244.293,320.432 244.469,320.958 244.594,321.453C 244.867,322.42 244.995,323.486 245.07,324.395C 245.073,324.627 245.086,324.836 245.099,325.052C 245.112,325.269 245.125,325.493 245.123,325.758C 245.09,326.357 245.058,326.952 245.026,327.543C 244.955,327.987 244.882,328.428 244.811,328.867C 244.738,329.36 244.673,329.851 244.523,330.319C 244.398,330.793 244.275,331.263 244.152,331.729C 244.019,332.191 243.82,332.629 243.664,333.075C 243.502,333.526 243.32,333.965 243.125,334.392C 242.928,334.819 242.717,335.235 242.496,335.639C 242.707,335.119 242.884,334.601 243.039,334.094C 243.192,333.587 243.322,333.091 243.437,332.612C 243.701,331.404 243.839,330.288 243.875,329.301C 243.91,328.809 243.914,328.35 243.903,327.925C 243.893,327.501 243.868,327.113 243.844,326.765C 243.824,326.416 243.791,326.106 243.755,325.838C 243.72,325.569 243.682,325.341 243.654,325.157C 243.622,324.973 243.597,324.832 243.556,324.594C 243.556,324.594 243.504,324.786 243.408,325.146C 243.329,325.505 243.174,326.027 242.998,326.682C 242.812,327.335 242.573,328.12 242.264,328.992C 241.956,329.863 241.577,330.823 241.112,331.826C 240.612,332.814 240.046,333.852 239.345,334.86C 238.99,335.36 238.615,335.861 238.21,336.351C 237.806,336.842 237.372,337.32 236.897,337.773C 236.431,338.216 235.924,338.667 235.401,339.091C 234.877,339.514 234.334,339.911 233.796,340.249C 233.309,340.588 232.426,341.073 231.948,341.334L 230.028,342.245C 228.727,342.77 227.409,343.272 226.067,343.535C 225.403,343.724 224.733,343.809 224.066,343.881L 223.07,344.003C 222.738,344.009 222.408,344.014 222.082,344.019C 221.752,344.027 221.425,344.035 221.102,344.042C 220.779,344.015 220.458,343.988 220.142,343.961C 219.822,343.938 219.505,343.915 219.192,343.891C 218.882,343.837 218.576,343.784 218.274,343.731C 217.967,343.681 217.666,343.632 217.369,343.583C 217.076,343.509 216.787,343.435 216.503,343.363C 215.922,343.244 215.372,343.085 214.85,342.898C 214.315,342.741 213.821,342.544 213.347,342.352C 212.862,342.179 212.409,341.995 211.994,341.794C 211.152,341.415 210.419,341.049 209.827,340.725C 209.529,340.564 209.264,340.415 209.034,340.283C 208.344,339.887 207.968,339.638 207.968,339.638C 207.968,339.638 208.365,340.335 209.297,341.385C 209.768,341.905 210.351,342.542 211.114,343.163C 211.86,343.808 212.748,344.51 214.112,345.272C 212.117,344.389 210.223,343.232 208.505,341.8C 206.358,340.011 204.485,337.794 203.03,335.147C 202.449,334.089 201.934,332.961 201.495,331.765C 200.618,329.373 200.045,326.706 199.852,323.765C 199.803,323.03 199.778,322.277 199.778,321.508C 199.778,303.923 212.964,294.215 226.751,294.218C 229.582,294.218 232.438,294.628 235.21,295.463C 237.058,296.019 238.869,296.765 240.61,297.704C 241.481,298.173 242.334,298.691 243.166,299.258C 251.485,304.928 257.664,315.497 257.664,331.554C 257.664,356.893 250.622,382.128 243.138,406.667C 242.64,408.302 242.139,409.935 241.638,411.565C 240.636,414.824 239.634,418.07 238.649,421.301C 231.747,443.922 225.612,465.833 225.612,486.553C 225.612,533.914 263.405,567.88 314.115,567.88C 322.038,567.88 329.646,567.051 336.843,565.471C 339.723,564.839 342.537,564.087 345.278,563.219C 348.02,562.352 350.69,561.37 353.282,560.278C 359.763,557.547 365.757,554.127 371.171,550.099C 376.584,546.07 381.417,541.432 385.573,536.263C 387.236,534.196 388.791,532.043 390.23,529.81C 398.152,517.531 402.618,502.833 402.618,486.553C 402.618,439.192 370.565,385.612 370.565,331.554C 370.565,305.86 386.38,294.217 401.478,294.218C 406.571,294.218 411.58,295.546 415.87,298.106C 418.73,299.814 421.271,302.069 423.306,304.845C 424.833,306.927 426.075,309.301 426.952,311.956C 427.538,313.726 427.961,315.621 428.199,317.638C 428.318,318.646 428.391,319.684 428.415,320.753C 428.194,319.42 427.906,318.195 427.601,317.131C 427.262,315.932 426.876,314.918 426.545,314.093C 426.205,313.271 425.904,312.643 425.688,312.22C 425.472,311.797 425.341,311.58 425.341,311.58C 425.341,311.58 425.434,312.145 425.565,313.155C 425.608,313.491 425.656,313.878 425.706,314.309C 425.801,315.173 425.875,316.222 425.956,317.414C 426.011,318.61 426.027,319.95 426.006,321.396C 425.961,322.844 425.807,324.39 425.606,325.996C 425.455,326.79 425.304,327.604 425.117,328.42C 424.847,329.212 424.709,330.058 424.384,330.849C 424.214,331.24 424.074,331.648 423.92,332.05C 423.767,332.452 423.6,332.85 423.376,333.222L 422.779,334.378C 422.575,334.76 422.3,335.101 422.065,335.468C 421.813,335.823 421.598,336.207 421.319,336.543L 420.445,337.527C 420.172,337.888 419.867,338.186 419.554,338.464C 419.241,338.742 418.919,339.001 418.612,339.284C 418.102,339.859 417.091,340.394 416.314,340.944L 415.695,341.354L 415.625,341.401L 415.518,341.456L 415.216,341.608L 414.014,342.223C 412.412,343.029 410.751,343.59 409.106,343.969C 408.698,344.089 408.285,344.147 407.874,344.196C 407.462,344.245 407.052,344.285 406.648,344.367C 405.837,344.422 405.032,344.443 404.247,344.439C 403.465,344.38 402.697,344.308 401.954,344.205C 401.211,344.102 400.493,343.966 399.812,343.779C 399.468,343.689 399.132,343.601 398.804,343.515C 398.481,343.403 398.167,343.294 397.859,343.188C 397.229,343.003 396.659,342.753 396.113,342.528C 395.572,342.294 395.069,342.061 394.606,341.833C 394.143,341.605 393.721,341.384 393.342,341.175C 392.97,340.959 392.635,340.765 392.345,340.591C 392.054,340.418 391.808,340.265 391.613,340.134C 391.419,340.001 391.27,339.9 391.017,339.727C 391.017,339.727 391.151,339.943 391.444,340.319C 391.737,340.694 392.188,341.228 392.82,341.862C 393.458,342.484 394.256,343.24 395.286,343.968C 396.202,344.625 397.276,345.338 398.538,345.922C 397.346,345.509 396.088,344.97 394.806,344.233C 392.971,343.183 391.103,341.738 389.42,339.881C 388.859,339.263 388.318,338.598 387.807,337.886C 387.562,337.526 387.32,337.155 387.085,336.776C 386.379,335.637 385.734,334.411 385.254,333.075C 385.097,332.629 384.899,332.191 384.766,331.729C 384.643,331.263 384.52,330.793 384.396,330.319C 384.246,329.851 384.181,329.36 384.106,328.867C 384.036,328.428 383.963,327.987 383.892,327.543C 383.859,326.952 383.828,326.357 383.795,325.758C 383.794,325.493 383.806,325.269 383.819,325.052C 383.832,324.836 383.845,324.627 383.848,324.395C 383.923,323.486 384.051,322.42 384.324,321.453C 384.573,320.464 385.027,319.349 385.579,318.267C 386.13,317.184 386.781,316.134 387.421,315.273C 393.162,307.559 405.188,305.362 411.527,311.76C 412.323,312.563 413.068,313.616 413.692,314.743C 414.316,315.87 414.819,317.072 415.13,318.171C 415.28,318.721 415.453,319.267 415.52,319.838L 415.648,320.567L 415.712,321.589C 415.699,322.216 415.728,322.528 415.634,323.124C 415.611,323.396 415.565,323.663 415.509,323.929C 415.453,324.194 415.388,324.459 415.326,324.724C 415.174,325.246 414.984,325.758 414.756,326.252C 414.529,326.747 414.265,327.225 413.967,327.68C 413.371,328.592 412.638,329.413 411.795,330.101C 410.149,331.485 407.974,332.332 405.962,332.526C 401.741,333.002 397.844,329.974 396.932,326.186C 396.862,325.965 396.811,325.716 396.771,325.474C 396.732,325.233 396.704,324.999 396.68,324.809C 396.667,324.64 396.66,324.497 396.652,324.032C 396.656,323.828 396.672,323.65 396.697,323.419C 396.8,322.527 397.088,321.668 397.655,320.717C 397.473,321.343 397.344,321.992 397.344,322.677C 397.344,324.621 398.132,326.381 399.407,327.655C 400.681,328.93 402.441,329.718 404.385,329.718C 408.273,329.718 411.425,326.566 411.425,322.677C 411.425,321.57 411.147,320.536 410.692,319.604C 410.105,318.084 409.038,316.658 407.528,315.676C 406.569,315.047 405.444,314.599 404.241,314.413C 403.95,314.354 403.587,314.346 403.258,314.321C 402.943,314.309 402.739,314.326 402.472,314.327C 401.728,314.392 401.231,314.463 400.602,314.622C 398.211,315.216 395.932,316.779 394.497,319.061C 394.317,319.345 394.15,319.64 393.998,319.944C 393.692,320.551 393.444,321.195 393.262,321.865C 393.171,322.2 393.097,322.54 393.04,322.886C 392.916,323.561 392.887,324.476 392.911,324.961C 392.956,325.74 393.017,326.364 393.183,327.065C 393.737,329.811 395.342,332.426 397.666,334.273C 399.952,336.131 403.117,337.206 406.144,337.037C 409.28,336.888 412.244,335.834 414.786,333.938C 417.311,332.06 419.271,329.364 420.311,326.282C 420.545,325.504 420.772,324.72 420.89,323.909C 421.054,323.168 421.089,322.105 421.114,321.373L 421.095,320.348L 421.082,320.08L 421.064,319.932L 421.03,319.636L 420.958,319.043C 420.889,318.247 420.7,317.47 420.518,316.688C 420.329,315.906 420.083,315.14 419.785,314.393C 418.892,312.15 417.54,310.078 415.902,308.289C 414.243,306.512 412.237,305.061 410.038,304C 409.305,303.647 408.55,303.337 407.781,303.072C 407.381,302.955 406.991,302.842 406.6,302.739C 406.209,302.635 405.819,302.54 405.423,302.458C 404.63,302.293 403.812,302.175 402.914,302.132C 402.505,302.111 401.967,302.056 401.667,302.077L 400.645,302.099L 400.39,302.105L 400.263,302.108L 400.036,302.121L 399.962,302.13L 399.379,302.201L 398.214,302.348C 394.327,302.922 390.652,304.506 387.558,306.79C 385.702,308.16 384.055,309.783 382.696,311.59C 381.781,312.791 380.986,314.068 380.318,315.397C 379.65,316.726 379.108,318.106 378.699,319.51C 378.263,320.927 378.023,322.306 377.852,323.808C 377.798,324.556 377.725,325.391 377.719,326.059C 377.735,326.659 377.75,327.255 377.767,327.846L 377.769,327.957L 377.784,328.204L 377.792,328.267L 377.823,328.518L 377.886,329.019L 378.015,330.017C 378.099,330.68 378.178,331.339 378.35,331.979C 378.501,332.621 378.652,333.259 378.801,333.892C 378.884,334.206 378.984,334.514 379.089,334.82C 379.194,335.125 379.303,335.428 379.403,335.732C 379.809,336.95 380.31,338.108 380.87,339.212C 381.43,340.316 382.049,341.365 382.694,342.366C 383.591,343.696 384.574,344.839 385.608,345.848C 386.643,346.857 387.729,347.732 388.834,348.525C 396.678,386.505 423.667,446.829 423.667,496.839C 423.667,499.445 423.594,502.036 423.448,504.607C 423.375,505.892 423.283,507.173 423.173,508.448C 422.842,512.274 422.347,516.049 421.685,519.763C 421.243,522.238 420.726,524.685 420.135,527.101C 419.249,530.724 418.193,534.275 416.968,537.739C 414.927,543.513 412.413,549.047 409.42,554.276C 405.618,560.133 400.942,565.991 395.301,571.401C 393.707,572.948 392.02,574.438 390.265,575.887C 388.509,577.337 386.684,578.744 384.812,580.126C 381.937,582.11 378.974,584.067 375.862,585.867C 374.825,586.468 373.771,587.05 372.698,587.61C 364.14,592.125 354.667,595.568 344.752,597.84C 338.564,599.315 332.189,600.244 325.749,600.743C 323.173,600.943 320.587,601.075 317.999,601.145C 316.704,601.18 315.41,601.2 314.115,601.206C 312.865,601.163 311.538,601.16 310.21,601.142C 308.883,601.124 307.556,601.091 306.31,600.991L 302.477,600.769L 298.626,600.383C 297.341,600.275 296.064,600.111 294.794,599.913L 290.984,599.355C 289.727,599.11 288.467,598.888 287.212,598.648C 285.958,598.409 284.71,598.152 283.478,597.837C 282.239,597.552 281.006,597.248 279.782,596.927C 278.558,596.607 277.341,596.267 276.133,595.911C 273.718,595.198 271.337,594.413 268.999,593.559C 266.66,592.705 264.364,591.781 262.117,590.788C 259.871,589.795 257.674,588.734 255.535,587.604C 251.241,585.367 247.256,582.763 243.423,580.118C 241.55,578.737 239.726,577.33 237.97,575.881C 236.214,574.432 234.528,572.942 232.933,571.396C 232.136,570.624 231.355,569.846 230.592,569.061C 229.065,567.491 227.608,565.895 226.235,564.271C 225.548,563.46 224.883,562.641 224.24,561.816C 222.911,560.195 221.692,558.535 220.548,556.868C 219.405,555.2 218.335,553.524 217.303,551.873C 215.306,548.528 213.595,545.201 212.131,541.954C 211.399,540.331 210.729,538.728 210.115,537.154C 209.501,535.58 208.944,534.034 208.438,532.525C 207.422,529.503 206.622,526.625 205.982,523.934C 205.341,521.244 204.86,518.742 204.485,516.475C 204.304,515.337 204.133,514.261 203.973,513.248C 203.854,512.229 203.742,511.274 203.638,510.385C 203.528,509.495 203.434,508.671 203.36,507.914C 203.286,507.158 203.233,506.469 203.206,505.851C 203.125,504.614 203.063,503.667 203.021,503.028C 202.979,502.389 202.958,502.059 202.958,502.059C 202.958,502.059 202.946,502.803 202.922,504.221C 202.914,504.694 202.905,505.241 202.894,505.862C 202.847,507.104 202.88,508.634 202.954,510.435C 202.986,511.337 203.021,512.306 203.058,513.34C 203.15,514.37 203.249,515.466 203.353,516.623C 203.464,517.779 203.597,518.998 203.761,520.274C 204.088,522.827 204.539,525.609 205.192,528.577C 205.519,530.06 205.897,531.589 206.335,533.159C 207.189,536.298 208.25,539.612 209.581,543.028C 210.911,546.443 212.51,549.961 214.44,553.507C 214.925,554.39 215.428,555.276 215.951,556.163C 216.473,557.051 217.014,557.94 217.575,558.828C 218.698,560.605 219.899,562.381 221.184,564.143C 222.468,565.905 223.835,567.653 225.29,569.374C 226.744,571.094 228.285,572.788 229.917,574.441C 233.151,577.779 236.771,580.9 240.608,583.919C 241.584,584.65 242.578,585.371 243.587,586.079C 246.616,588.204 249.796,590.214 253.128,592.05C 255.404,593.296 257.744,594.478 260.137,595.591C 255.751,594.353 251.668,592.942 247.869,591.36C 245.969,590.569 244.14,589.735 242.379,588.859C 240.619,587.984 238.926,587.065 237.3,586.106C 234.86,584.666 232.568,583.132 230.417,581.507C 226.831,578.797 223.633,575.831 220.787,572.615C 216.047,566.015 212.218,559.262 209.193,552.54 Z M 280.79,556.4C 279.034,555.75 277.309,555.057 275.625,554.306L 275.625,343.35L 281.626,343.35L 281.626,556.718C 281.344,556.617 281.071,556.504 280.79,556.4 Z M 266.753,549.708L 266.753,343.35L 272.755,343.35L 272.755,552.967C 270.695,551.953 268.687,550.874 266.753,549.708 Z M 364.346,547.886L 364.346,343.35L 364.952,343.35L 365.303,343.35C 366.376,357.245 369.201,370.993 372.756,384.554C 373.238,386.389 373.736,388.22 374.242,390.049C 374.888,392.387 375.551,394.719 376.228,397.046C 376.424,397.721 376.622,398.396 376.82,399.071C 378.475,404.695 380.191,410.285 381.898,415.836C 382.38,417.401 382.86,418.96 383.336,420.514C 385.718,428.283 388.017,435.915 390.023,443.403C 391.627,449.394 393.045,455.293 394.168,461.096C 395.854,469.801 396.876,478.29 396.876,486.553C 396.876,506.137 389.915,523.317 377.931,536.329C 373.937,540.667 369.384,544.541 364.346,547.886 Z M 346.602,556.718L 346.602,343.35L 352.604,343.35L 352.604,554.306C 350.651,555.176 348.654,555.985 346.602,556.718 Z M 325.987,561.45C 324.014,561.677 322.013,561.846 319.985,561.958L 319.985,343.35L 325.987,343.35L 325.987,561.45 Z M 328.857,343.35L 334.859,343.35L 334.859,560.021C 332.893,560.435 330.889,560.781 328.857,561.075L 328.857,343.35 Z M 337.729,559.359L 337.729,343.35L 343.732,343.35L 343.732,557.694C 342.753,558.006 341.762,558.298 340.76,558.574C 339.759,558.851 338.748,559.111 337.729,559.359 Z M 355.474,343.35L 361.476,343.35L 361.476,549.708C 359.542,550.874 357.534,551.953 355.474,552.967L 355.474,343.35 Z M 364.952,333.526L 272.494,335.62L 364.952,337.713L 364.952,339.002L 267.092,339.002C 267.252,338.144 267.425,337.072 267.554,335.904C 267.683,334.737 267.766,333.475 267.747,332.237L 364.952,332.237L 364.952,333.526 Z M 284.497,343.35L 290.5,343.35L 290.5,559.359C 288.462,558.863 286.455,558.318 284.497,557.694L 284.497,343.35 Z M 293.371,343.35L 299.372,343.35L 299.372,561.075C 297.34,560.781 295.336,560.435 293.371,560.021L 293.371,343.35 Z M 302.242,343.35L 308.244,343.35L 308.244,561.958C 306.216,561.846 304.215,561.677 302.242,561.45L 302.242,343.35 Z M 311.114,343.35L 317.116,343.35L 317.116,562.077C 316.118,562.105 315.124,562.14 314.115,562.14C 313.105,562.14 312.111,562.105 311.114,562.077L 311.114,343.35 Z M 371.283,616.17L 259.937,619.666L 371.283,623.162L 371.283,626.076L 256.946,626.076L 256.946,612.073C 266.45,613.068 275.982,613.817 285.53,614.318C 290.304,614.568 295.082,614.756 299.861,614.882C 304.641,615.008 309.422,615.071 314.204,615.071C 333.271,615.071 352.336,614.069 371.283,612.091L 371.283,616.17 Z M 254.076,632.553C 254.937,632.105 255.797,631.905 256.347,631.816L 371.882,631.816C 372.691,631.946 374.166,632.323 375.327,633.373C 376.023,634.003 376.607,634.876 376.867,636.083L 254.08,639.579L 377.023,643.081C 377.023,645.377 377.023,647.96 377.023,650.43L 254.08,653.931L 377.023,657.432C 377.023,659.406 377.023,660.689 377.023,660.689L 314.115,660.689L 251.206,660.689C 251.206,660.689 251.206,642.988 251.206,637.486C 251.206,634.733 252.641,633.299 254.076,632.553 Z M 262.926,343.35L 263.277,343.35L 263.883,343.35L 263.883,547.886C 261.364,546.213 258.966,544.408 256.699,542.48C 253.298,539.586 250.191,536.414 247.408,532.99C 245.552,530.708 243.84,528.314 242.282,525.816C 235.268,514.577 231.352,501.241 231.352,486.553C 231.352,464.519 238.628,440.871 246.33,415.836C 247.688,411.421 249.054,406.982 250.388,402.52C 251.278,399.545 252.154,396.56 253.005,393.566C 253.856,390.571 254.683,387.567 255.473,384.554C 256.263,381.54 257.017,378.517 257.724,375.485C 258.43,372.454 259.09,369.414 259.691,366.365C 260.592,361.792 261.362,357.2 261.962,352.591C 262.362,349.519 262.687,346.438 262.926,343.35 Z "/>
				<linearGradient id="SVGID_Fill36_" gradientUnits="objectBoundingBox" x1="-0.328597" y1="-2.10423" x2="4.2629" y2="-2.10423" gradientTransform="rotate(25.183128 -0.328597 -2.104225)">
					<stop offset="0" stop-color="#E3D187" stop-opacity="1"/>
					<stop offset="0.359223" stop-color="#C1B06D" stop-opacity="1"/>
					<stop offset="0.655342" stop-color="#EDE1BE" stop-opacity="1"/>
					<stop offset="1" stop-color="#CCBC79" stop-opacity="1"/>
				</linearGradient>
				<path fill="url(#SVGID_Fill36_)" stroke-width="0.2" stroke-linejoin="miter" d="M 222.234,492.536C 222.199,493.563 222.232,494.826 222.299,496.314C 222.329,497.058 222.36,497.858 222.395,498.712C 222.477,499.562 222.564,500.465 222.656,501.42C 222.754,502.374 222.871,503.38 223.013,504.432C 223.439,507.589 224.094,511.171 225.172,515.057C 226.583,520.238 228.68,525.994 231.88,531.834C 232.683,533.289 233.546,534.754 234.476,536.217C 236.333,539.144 238.45,542.066 240.853,544.9C 242.054,546.316 243.327,547.71 244.674,549.072C 247.343,551.819 250.332,554.388 253.499,556.871C 256.723,559.276 260.162,561.548 263.826,563.562C 271.157,567.567 279.261,570.792 287.807,572.762C 289.93,573.316 292.101,573.675 294.264,574.109C 296.444,574.426 298.624,574.834 300.829,575.033L 304.136,575.383L 307.486,575.598C 309.765,575.78 311.827,575.738 314.115,575.813C 320.772,575.746 327.447,575.234 333.963,574.104C 336.136,573.727 338.291,573.281 340.421,572.76C 342.557,572.266 344.666,571.694 346.742,571.051C 347.78,570.73 348.809,570.391 349.83,570.036C 351.872,569.325 353.879,568.547 355.845,567.709C 358.794,566.452 361.651,565.06 364.4,563.558C 368.067,561.546 371.501,559.269 374.726,556.865C 377.101,555.003 379.375,553.093 381.491,551.096C 382.196,550.43 382.883,549.754 383.55,549.067C 386.246,546.345 388.641,543.491 390.764,540.59C 392.888,537.688 394.738,534.74 396.344,531.831C 397.144,530.372 397.875,528.917 398.543,527.475C 399.546,525.313 400.409,523.179 401.153,521.1C 401.648,519.715 402.092,518.354 402.489,517.025C 402.688,516.36 402.875,515.704 403.052,515.057C 403.412,513.761 403.725,512.499 403.997,511.276C 404.27,510.053 404.503,508.868 404.704,507.726C 405.104,505.441 405.374,503.328 405.571,501.42C 405.664,500.465 405.75,499.562 405.833,498.712C 405.867,497.857 405.899,497.056 405.929,496.31C 405.963,495.565 405.988,494.878 406,494.248C 406.012,493.619 406.012,493.047 405.995,492.535C 405.969,490.487 405.956,489.395 405.956,489.395C 405.956,489.395 405.889,490.485 405.764,492.529C 405.725,493.553 405.599,494.81 405.424,496.279C 405.341,497.013 405.253,497.803 405.158,498.644C 405.031,499.482 404.896,500.372 404.752,501.314C 404.156,505.066 403.229,509.602 401.542,514.601C 399.872,519.598 397.518,525.077 394.228,530.624C 390.887,536.133 386.623,541.714 381.32,546.815C 378.683,549.38 375.743,551.762 372.644,554.055C 369.474,556.252 366.171,558.406 362.619,560.265C 360.847,561.202 359.029,562.083 357.169,562.908C 351.59,565.382 345.639,567.346 339.481,568.757C 335.382,569.736 331.184,570.425 326.939,570.875C 322.694,571.324 318.402,571.534 314.115,571.553C 312.039,571.483 309.728,571.54 307.657,571.374L 304.48,571.188L 301.292,570.869C 299.163,570.69 297.066,570.307 294.964,570.015C 292.882,569.609 290.789,569.278 288.748,568.755C 280.54,566.866 272.697,564.008 265.613,560.261C 262.948,558.868 260.425,557.306 257.993,555.685C 257.182,555.145 256.381,554.598 255.589,554.049C 254.815,553.476 254.05,552.897 253.297,552.311C 251.04,550.554 248.892,548.734 246.914,546.81C 241.611,541.711 237.349,536.129 234.006,530.621C 232.361,527.848 230.951,525.091 229.742,522.403C 228.534,519.716 227.528,517.097 226.692,514.599C 225.848,512.1 225.194,509.717 224.676,507.489C 224.158,505.261 223.777,503.189 223.478,501.313C 223.335,500.372 223.2,499.482 223.072,498.644C 222.978,497.801 222.889,497.011 222.806,496.276C 222.631,494.805 222.505,493.55 222.465,492.529C 222.34,490.485 222.273,489.395 222.273,489.395C 222.273,489.395 222.26,490.487 222.234,492.536 Z "/>
				<linearGradient id="SVGID_Fill37_" gradientUnits="objectBoundingBox" x1="-6.61554" y1="-0.295892" x2="4.84482" y2="-0.295892" gradientTransform="rotate(74.326889 -6.615536 -0.295892)">
					<stop offset="0" stop-color="#E3D187" stop-opacity="1"/>
					<stop offset="0.359223" stop-color="#C1B06D" stop-opacity="1"/>
					<stop offset="0.655342" stop-color="#EDE1BE" stop-opacity="1"/>
					<stop offset="1" stop-color="#CCBC79" stop-opacity="1"/>
				</linearGradient>
				<path fill="url(#SVGID_Fill37_)" stroke-width="0.2" stroke-linejoin="miter" d="M 397.472,421.733C 398.644,425.045 399.657,428.277 400.727,431.32C 401.232,432.848 401.726,434.336 402.209,435.774C 402.692,437.213 403.165,438.602 403.629,439.935C 404.259,441.95 404.879,443.835 405.465,445.57C 405.661,446.149 405.852,446.711 406.039,447.255C 406.22,447.801 406.395,448.33 406.564,448.841C 406.733,449.352 406.896,449.844 407.053,450.317C 407.366,451.263 407.654,452.132 407.914,452.917C 408.308,454.096 408.651,455.084 408.926,455.859C 409.384,457.151 409.652,457.85 409.652,457.85C 409.652,457.85 409.582,455.947 409.312,452.629C 409.232,451.802 409.169,450.88 409.083,449.88C 408.998,448.879 408.89,447.8 408.719,446.657C 408.645,446.082 408.569,445.489 408.489,444.879C 408.25,443.048 407.979,441.06 407.63,438.95C 407.132,436.147 406.615,433.096 405.94,429.9C 405.212,426.719 404.508,423.338 403.568,419.906C 402.678,416.456 401.691,412.913 400.586,409.349C 399.521,405.771 398.314,402.18 397.123,398.595C 395.884,395.023 394.653,391.461 393.374,387.983C 392.099,384.513 390.845,381.098 389.631,377.793C 388.415,374.499 387.239,371.315 386.123,368.296C 385.58,366.782 385.052,365.311 384.542,363.887C 384.008,362.468 383.502,361.093 383.065,359.76C 382.623,358.428 382.175,357.156 381.753,355.945C 381.332,354.734 380.936,353.584 380.595,352.498C 380.423,351.954 380.25,351.429 380.08,350.921C 379.909,350.413 379.742,349.924 379.581,349.452C 379.261,348.509 378.969,347.638 378.74,346.838C 378.371,345.649 378.049,344.653 377.791,343.872C 377.362,342.571 377.11,341.869 377.11,341.869C 377.11,341.869 377.128,342.943 377.223,344.878C 377.254,345.524 377.293,346.265 377.344,347.094C 377.382,347.922 377.453,348.839 377.552,349.839C 377.651,350.838 377.777,351.919 377.925,353.075C 378.17,355.403 378.578,357.99 379.098,360.801C 379.571,363.627 380.243,366.646 380.968,369.841C 381.363,371.426 381.77,373.056 382.204,374.716C 382.638,376.376 383.099,378.065 383.602,379.769C 384.083,381.484 384.598,383.214 385.135,384.958C 385.671,386.702 386.229,388.461 386.797,390.232C 387.927,393.771 389.138,397.339 390.33,400.902C 392.761,407.993 395.192,415.085 397.472,421.733 Z "/>
				<linearGradient id="SVGID_Fill38_" gradientUnits="objectBoundingBox" x1="-1.74387" y1="-0.295892" x2="9.71632" y2="-0.295892" gradientTransform="rotate(74.326675 -1.743874 -0.295892)">
					<stop offset="0" stop-color="#E3D187" stop-opacity="1"/>
					<stop offset="0.359223" stop-color="#C1B06D" stop-opacity="1"/>
					<stop offset="0.655342" stop-color="#EDE1BE" stop-opacity="1"/>
					<stop offset="1" stop-color="#CCBC79" stop-opacity="1"/>
				</linearGradient>
				<path fill="url(#SVGID_Fill38_)" stroke-width="0.2" stroke-linejoin="miter" d="M 245.164,359.76C 244.727,361.093 244.221,362.468 243.688,363.887C 243.177,365.311 242.649,366.782 242.106,368.296C 240.991,371.315 239.815,374.499 238.598,377.793C 237.384,381.098 236.13,384.513 234.856,387.983C 233.577,391.461 232.345,395.023 231.106,398.595C 229.915,402.18 228.708,405.771 227.643,409.349C 226.538,412.913 225.551,416.456 224.661,419.906C 224.191,421.622 223.78,423.325 223.396,424.997C 223.011,426.669 222.653,428.309 222.289,429.9C 221.952,431.498 221.654,433.059 221.378,434.572C 221.102,436.085 220.848,437.548 220.599,438.95C 220.25,441.06 219.979,443.048 219.74,444.879C 219.66,445.489 219.584,446.082 219.51,446.657C 219.339,447.8 219.231,448.879 219.145,449.88C 219.059,450.88 218.997,451.802 218.917,452.629C 218.816,453.873 218.743,454.918 218.691,455.739C 218.639,456.559 218.609,457.155 218.592,457.501L 218.577,457.85C 218.577,457.85 219.263,456.06 220.315,452.917C 220.575,452.132 220.863,451.263 221.176,450.317C 221.489,449.371 221.828,448.348 222.19,447.255C 222.564,446.166 222.956,445.008 223.36,443.786C 223.764,442.564 224.18,441.279 224.6,439.935C 225.064,438.602 225.537,437.213 226.02,435.774C 226.503,434.336 226.997,432.848 227.502,431.32C 228.037,429.798 228.558,428.229 229.091,426.627C 229.625,425.025 230.172,423.389 230.757,421.733C 231.897,418.409 233.075,414.974 234.271,411.484C 235.468,407.993 236.684,404.448 237.899,400.902C 239.091,397.339 240.302,393.771 241.432,390.232C 242,388.461 242.557,386.702 243.094,384.958C 243.63,383.214 244.146,381.484 244.627,379.769C 245.13,378.065 245.591,376.376 246.025,374.716C 246.459,373.056 246.867,371.426 247.261,369.841C 247.624,368.243 247.973,366.69 248.291,365.182C 248.608,363.675 248.895,362.214 249.131,360.801C 249.651,357.99 250.059,355.403 250.304,353.075C 250.452,351.919 250.578,350.838 250.677,349.839C 250.775,348.839 250.847,347.922 250.885,347.094C 250.935,346.265 250.975,345.524 251.006,344.878C 251.101,342.943 251.12,341.869 251.12,341.869C 251.12,341.869 250.867,342.571 250.438,343.872C 250.18,344.653 249.858,345.649 249.488,346.838C 249.031,348.438 248.323,350.323 247.634,352.498C 246.953,354.671 246.049,357.096 245.164,359.76 Z "/>
				<linearGradient id="SVGID_Fill39_" gradientUnits="objectBoundingBox" x1="-0.624148" y1="-11.1854" x2="15.0411" y2="-11.1854" gradientTransform="rotate(9.680099 -0.624148 -11.185392)">
					<stop offset="0" stop-color="#E3D187" stop-opacity="1"/>
					<stop offset="0.359223" stop-color="#C1B06D" stop-opacity="1"/>
					<stop offset="0.655342" stop-color="#EDE1BE" stop-opacity="1"/>
					<stop offset="1" stop-color="#CCBC79" stop-opacity="1"/>
				</linearGradient>
				<path fill="url(#SVGID_Fill39_)" stroke-width="0.2" stroke-linejoin="miter" d="M 378.89,569.741C 378.496,569.935 378.079,570.142 377.638,570.362C 376.755,570.796 375.794,571.305 374.721,571.802C 374.176,572.033 373.609,572.274 373.02,572.523C 372.431,572.772 371.822,573.03 371.192,573.297C 370.566,573.564 369.92,573.841 369.254,574.125C 368.589,574.41 367.905,574.702 367.203,575.002C 366.5,575.296 365.764,575.565 365.009,575.833C 364.254,576.102 363.479,576.37 362.696,576.66C 361.119,577.212 359.499,577.837 357.791,578.39C 356.068,578.893 354.287,579.413 352.455,579.947C 351.542,580.216 350.618,580.488 349.681,580.764C 348.726,580.972 347.759,581.181 346.782,581.393C 345.803,581.594 344.822,581.823 343.832,582.056C 342.841,582.289 341.842,582.525 340.829,582.737C 339.805,582.893 338.774,583.059 337.736,583.225C 335.66,583.558 333.556,583.89 331.421,584.147C 330.354,584.276 329.279,584.385 328.196,584.467C 324.965,584.897 321.672,584.98 318.373,585.064C 317.272,585.091 316.171,585.12 315.072,585.16C 310.671,585.003 306.254,585.043 301.946,584.469C 297.612,584.155 293.411,583.367 289.312,582.744C 287.291,582.288 285.303,581.841 283.358,581.402C 282.381,581.19 281.415,580.98 280.459,580.773C 279.523,580.497 278.598,580.224 277.686,579.955C 275.854,579.421 274.072,578.901 272.349,578.399C 271.495,578.122 270.662,577.827 269.847,577.532C 269.031,577.238 268.232,576.943 267.444,576.666C 265.879,576.087 264.341,575.592 262.94,575.01C 262.241,574.711 261.559,574.42 260.897,574.137C 260.235,573.854 259.591,573.579 258.968,573.312C 257.71,572.78 256.533,572.282 255.445,571.822C 254.366,571.32 253.396,570.805 252.509,570.368C 250.747,569.47 249.329,568.819 248.377,568.35C 247.899,568.12 247.533,567.944 247.286,567.825L 246.911,567.644C 246.911,567.644 247.167,567.835 247.654,568.197C 247.816,568.318 248.004,568.457 248.217,568.616C 249.073,569.242 250.308,570.196 251.921,571.34C 252.729,571.911 253.604,572.571 254.593,573.239C 255.108,573.547 255.645,573.868 256.202,574.201C 256.758,574.534 257.335,574.88 257.93,575.236C 258.531,575.592 259.152,575.959 259.791,576.338C 260.429,576.716 261.086,577.105 261.761,577.504C 263.12,578.294 264.63,578.921 266.167,579.689C 266.942,580.054 267.729,580.44 268.535,580.828C 269.34,581.216 270.164,581.607 271.012,581.981C 272.744,582.639 274.535,583.32 276.376,584.019C 277.301,584.367 278.238,584.719 279.186,585.075C 280.156,585.364 281.138,585.656 282.131,585.951C 284.118,586.546 286.16,587.12 288.245,587.672C 290.36,588.074 292.503,588.56 294.684,588.991C 296.865,589.42 299.083,589.795 301.348,589.974C 305.846,590.635 310.463,590.674 315.072,590.897C 319.679,590.68 324.297,590.636 328.794,589.977C 329.928,589.89 331.048,589.753 332.159,589.584C 335.491,589.076 338.726,588.281 341.899,587.678C 343.983,587.122 346.028,586.556 348.014,585.96C 349.007,585.664 349.989,585.373 350.959,585.084C 351.908,584.727 352.844,584.375 353.768,584.026C 355.61,583.328 357.401,582.647 359.134,581.99C 359.981,581.615 360.805,581.224 361.611,580.836C 362.416,580.448 363.204,580.061 363.979,579.696C 365.514,578.929 367.028,578.297 368.381,577.513C 369.052,577.114 369.707,576.727 370.342,576.35C 370.979,575.973 371.596,575.606 372.195,575.251C 372.79,574.895 373.365,574.551 373.92,574.218C 374.476,573.886 375.012,573.565 375.526,573.257C 376.024,572.922 376.494,572.588 376.94,572.266C 377.387,571.943 377.811,571.633 378.217,571.346C 381.445,569.019 383.231,567.644 383.231,567.644C 383.231,567.644 382.94,567.78 382.39,568.041C 381.657,568.39 380.465,568.963 378.89,569.741 Z "/>
			</g>
			<g>
				<linearGradient id="SVGID_Fill40_" gradientUnits="objectBoundingBox" x1="3.45452" y1="-29.8447" x2="34.5187" y2="-29.8447" gradientTransform="rotate(98.452568 3.454523 -29.844748)">
					<stop offset="0" stop-color="#E3D187" stop-opacity="1"/>
					<stop offset="0.359223" stop-color="#C1B06D" stop-opacity="1"/>
					<stop offset="0.655342" stop-color="#EDE1BE" stop-opacity="1"/>
					<stop offset="1" stop-color="#CCBC79" stop-opacity="1"/>
				</linearGradient>
				<path fill="url(#SVGID_Fill40_)" stroke-width="0.2" stroke-linejoin="miter" d="M 228.386,693.017C 225.559,692.292 222.743,691.336 220.021,690.214C 217.263,689.163 214.756,687.639 212.356,686.14C 218.23,685.952 223.592,683.391 228.557,680.61C 230.168,679.694 231.75,678.788 233.331,677.898L 236.219,694.201C 233.609,694.112 230.962,693.748 228.386,693.017 Z "/>
				<linearGradient id="SVGID_Fill41_" gradientUnits="objectBoundingBox" x1="4.36687" y1="-8.90405" x2="15.4714" y2="-8.90405" gradientTransform="rotate(92.450592 4.366872 -8.904049)">
					<stop offset="0" stop-color="#E3D187" stop-opacity="1"/>
					<stop offset="0.359223" stop-color="#C1B06D" stop-opacity="1"/>
					<stop offset="0.655342" stop-color="#EDE1BE" stop-opacity="1"/>
					<stop offset="1" stop-color="#CCBC79" stop-opacity="1"/>
				</linearGradient>
				<path fill="url(#SVGID_Fill41_)" stroke-width="0.2" stroke-linejoin="miter" d="M 227.647,654.83C 223.874,653.425 220.218,651.48 217.529,648.396C 214.772,645.43 212.653,641.944 211.445,638.242C 209.916,633.211 210.019,627.814 210.029,622.752C 210.041,617.686 210.01,612.678 208.646,608.033C 210.494,609.088 212.228,610.431 214.059,611.603C 215.85,612.842 217.552,614.231 219.113,615.774C 220.604,617.193 221.89,618.89 223.156,620.456L 228.373,649.904C 228.161,651.546 227.925,653.189 227.647,654.83 Z "/>
				<linearGradient id="SVGID_Fill42_" gradientUnits="objectBoundingBox" x1="2.22771" y1="-23.2978" x2="27.7979" y2="-23.2978" gradientTransform="rotate(105.991280 2.227707 -23.297831)">
					<stop offset="0" stop-color="#E3D187" stop-opacity="1"/>
					<stop offset="0.359223" stop-color="#C1B06D" stop-opacity="1"/>
					<stop offset="0.655342" stop-color="#EDE1BE" stop-opacity="1"/>
					<stop offset="1" stop-color="#CCBC79" stop-opacity="1"/>
				</linearGradient>
				<path fill="url(#SVGID_Fill42_)" stroke-width="0.2" stroke-linejoin="miter" d="M 200.375,671.732C 197.767,671.729 195.078,671.37 192.371,670.727C 189.618,670.146 187.083,668.97 184.491,667.732C 181.922,666.462 179.409,664.979 177.014,663.365C 174.565,661.808 172.483,659.845 170.466,657.949C 176.054,658.994 181.617,657.742 186.875,656.189C 192.136,654.634 197.234,652.872 202.66,652.258C 206.817,651.707 211.024,651.935 214.994,652.919C 218.901,654.023 222.907,655.275 226.274,657.639C 219.563,664.863 210.749,671.911 200.375,671.732 Z "/>
				<linearGradient id="SVGID_Fill43_" gradientUnits="objectBoundingBox" x1="6.65588" y1="-8.06371" x2="17.4489" y2="-8.06371" gradientTransform="rotate(92.115631 6.655879 -8.063706)">
					<stop offset="0" stop-color="#E3D187" stop-opacity="1"/>
					<stop offset="0.359223" stop-color="#C1B06D" stop-opacity="1"/>
					<stop offset="0.655342" stop-color="#EDE1BE" stop-opacity="1"/>
					<stop offset="1" stop-color="#CCBC79" stop-opacity="1"/>
				</linearGradient>
				<path fill="url(#SVGID_Fill43_)" stroke-width="0.2" stroke-linejoin="miter" d="M 191.589,598.54C 192.615,600.489 193.426,602.546 193.968,604.697C 196.077,613.335 193.77,622.758 190.452,631.819C 187.02,629.701 183.91,626.964 181.694,623.61C 179.525,620.195 178.039,616.42 177.443,612.62C 176.595,607.649 177.469,602.518 178.218,597.602C 178.962,592.692 179.625,587.794 178.674,583.222C 182.129,585.94 185.38,589.209 187.99,592.925C 189.254,594.841 190.594,596.548 191.589,598.54 Z "/>
				<linearGradient id="SVGID_Fill44_" gradientUnits="objectBoundingBox" x1="2.98873" y1="-22.5134" x2="29.3327" y2="-22.5134" gradientTransform="rotate(105.766090 2.988728 -22.513435)">
					<stop offset="0" stop-color="#E3D187" stop-opacity="1"/>
					<stop offset="0.359223" stop-color="#C1B06D" stop-opacity="1"/>
					<stop offset="0.655342" stop-color="#EDE1BE" stop-opacity="1"/>
					<stop offset="1" stop-color="#CCBC79" stop-opacity="1"/>
				</linearGradient>
				<path fill="url(#SVGID_Fill44_)" stroke-width="0.2" stroke-linejoin="miter" d="M 147.086,635.188C 142.696,631.773 138.654,627.616 135.291,623.392C 140.629,625.224 146.011,625.132 151.179,624.727C 156.344,624.328 161.462,623.678 166.875,624.081C 170.914,624.432 174.892,625.55 178.533,627.341C 182.221,629.078 185.786,631.236 188.658,634.164C 181,639.482 171.346,644.249 161.533,642.02C 159.072,641.48 156.597,640.595 154.158,639.441C 151.76,638.256 149.224,636.94 147.086,635.188 Z "/>
				<linearGradient id="SVGID_Fill45_" gradientUnits="objectBoundingBox" x1="8.61038" y1="-7.43192" x2="19.4028" y2="-7.43192" gradientTransform="rotate(92.033211 8.610378 -7.431919)">
					<stop offset="0" stop-color="#E3D187" stop-opacity="1"/>
					<stop offset="0.359223" stop-color="#C1B06D" stop-opacity="1"/>
					<stop offset="0.655342" stop-color="#EDE1BE" stop-opacity="1"/>
					<stop offset="1" stop-color="#CCBC79" stop-opacity="1"/>
				</linearGradient>
				<path fill="url(#SVGID_Fill45_)" stroke-width="0.2" stroke-linejoin="miter" d="M 150.669,567.227C 151.847,562.796 153.285,558.202 153.259,553.619C 154.616,555.253 155.813,557.052 157.048,558.874C 158.383,560.645 159.599,562.515 160.647,564.467C 162.821,568.341 163.979,572.67 164.803,576.917C 166.128,585.473 162.325,594.46 158.001,602.363C 154.983,599.681 152.565,596.296 150.802,592.714C 149.031,589.136 147.956,585.313 148.029,581.436C 148.015,576.373 149.394,571.711 150.669,567.227 Z "/>
				<linearGradient id="SVGID_Fill46_" gradientUnits="objectBoundingBox" x1="3.81101" y1="-15.6692" x2="24.0266" y2="-15.6692" gradientTransform="rotate(101.329895 3.811012 -15.669214)">
					<stop offset="0" stop-color="#E3D187" stop-opacity="1"/>
					<stop offset="0.359223" stop-color="#C1B06D" stop-opacity="1"/>
					<stop offset="0.655342" stop-color="#EDE1BE" stop-opacity="1"/>
					<stop offset="1" stop-color="#CCBC79" stop-opacity="1"/>
				</linearGradient>
				<path fill="url(#SVGID_Fill46_)" stroke-width="0.2" stroke-linejoin="miter" d="M 136.523,590.488C 140.176,591.712 143.932,593.409 147.305,595.699C 150.671,597.993 153.599,600.913 155.964,604.25C 147.792,607.905 138.405,610.314 129.147,606.703C 124.448,605.051 120.27,601.386 116.329,597.364C 114.377,595.319 112.532,593.111 110.824,590.83C 109.199,588.474 107.842,585.923 106.578,583.463C 111.256,586.527 116.291,587.624 121.44,588.12C 126.507,588.687 131.587,588.957 136.523,590.488 Z "/>
				<linearGradient id="SVGID_Fill47_" gradientUnits="objectBoundingBox" x1="10.148" y1="-6.95195" x2="21.2484" y2="-6.95195" gradientTransform="rotate(92.059692 10.147980 -6.951953)">
					<stop offset="0" stop-color="#E3D187" stop-opacity="1"/>
					<stop offset="0.359223" stop-color="#C1B06D" stop-opacity="1"/>
					<stop offset="0.655342" stop-color="#EDE1BE" stop-opacity="1"/>
					<stop offset="1" stop-color="#CCBC79" stop-opacity="1"/>
				</linearGradient>
				<path fill="url(#SVGID_Fill47_)" stroke-width="0.2" stroke-linejoin="miter" d="M 124.886,545.749C 125.504,541.017 127.774,536.818 129.914,532.8C 132.048,528.783 134.037,524.819 134.713,520.494C 136.709,524.223 138.496,528.286 139.517,532.534C 139.979,534.678 140.718,536.691 140.995,538.814C 141.328,540.916 141.446,543.034 141.307,545.139C 140.927,549.395 139.777,553.319 137.955,557.091C 136.113,560.871 133.616,564.485 131.015,567.839C 128.563,564.647 126.492,561.058 125.487,557.205C 124.566,553.302 124.339,549.352 124.886,545.749 Z "/>
				<linearGradient id="SVGID_Fill48_" gradientUnits="objectBoundingBox" x1="4.87418" y1="-10.5723" x2="20.3411" y2="-10.5723" gradientTransform="rotate(97.561913 4.874179 -10.572290)">
					<stop offset="0" stop-color="#E3D187" stop-opacity="1"/>
					<stop offset="0.359223" stop-color="#C1B06D" stop-opacity="1"/>
					<stop offset="0.655342" stop-color="#EDE1BE" stop-opacity="1"/>
					<stop offset="1" stop-color="#CCBC79" stop-opacity="1"/>
				</linearGradient>
				<path fill="url(#SVGID_Fill48_)" stroke-width="0.2" stroke-linejoin="miter" d="M 121.731,559.304C 124.456,562.295 127.074,565.538 128.822,569.242C 124.696,570.166 120.293,570.739 115.853,570.378C 111.395,570.029 106.881,568.755 103.016,565.725C 101.038,564.242 99.1431,562.435 97.3545,560.398C 95.6206,558.331 93.7593,556.159 92.4517,553.624C 89.7432,548.603 87.4829,543.068 85.9819,537.725C 89.8706,541.774 94.5234,544.005 98.9976,545.848C 103.471,547.701 107.998,549.248 112.587,551.756C 115.973,553.689 119.092,556.266 121.731,559.304 Z "/>
				<linearGradient id="SVGID_Fill49_" gradientUnits="objectBoundingBox" x1="10.3144" y1="-6.49174" x2="21.8881" y2="-6.49174" gradientTransform="rotate(92.330460 10.314366 -6.491736)">
					<stop offset="0" stop-color="#E3D187" stop-opacity="1"/>
					<stop offset="0.359223" stop-color="#C1B06D" stop-opacity="1"/>
					<stop offset="0.655342" stop-color="#EDE1BE" stop-opacity="1"/>
					<stop offset="1" stop-color="#CCBC79" stop-opacity="1"/>
				</linearGradient>
				<path fill="url(#SVGID_Fill49_)" stroke-width="0.2" stroke-linejoin="miter" d="M 117.641,494.561C 120.433,491.17 123.156,487.768 124.627,483.674C 125.162,485.758 125.596,487.917 125.898,490.107C 126.247,492.287 126.26,494.548 126.483,496.716C 126.89,501.058 126.623,505.389 125.436,509.411C 123.695,517.241 117.663,523.488 111.492,528.705C 109.926,525.006 108.991,520.961 108.712,517.035C 108.286,513.146 109.265,509.18 110.47,505.848C 112.249,501.383 114.728,497.975 117.641,494.561 Z "/>
				<linearGradient id="SVGID_Fill50_" gradientUnits="objectBoundingBox" x1="6.74699" y1="-7.26459" x2="19.196" y2="-7.26459" gradientTransform="rotate(94.581100 6.746991 -7.264594)">
					<stop offset="0" stop-color="#E3D187" stop-opacity="1"/>
					<stop offset="0.359223" stop-color="#C1B06D" stop-opacity="1"/>
					<stop offset="0.655342" stop-color="#EDE1BE" stop-opacity="1"/>
					<stop offset="1" stop-color="#CCBC79" stop-opacity="1"/>
				</linearGradient>
				<path fill="url(#SVGID_Fill50_)" stroke-width="0.2" stroke-linejoin="miter" d="M 109.204,529.514C 101.347,529.249 92.7432,527.263 86.2715,519.677C 83.3618,515.82 81.0493,510.795 79.3188,505.376C 78.4341,502.67 78.0781,499.821 77.6504,496.996C 77.272,494.166 77.0293,491.335 76.9106,488.597C 79.5869,493.398 83.2153,496.67 86.854,499.536C 90.373,502.424 94.6147,504.963 98.0298,508.573C 100.746,511.27 102.681,514.634 104.853,518.118C 106.877,521.645 108.384,525.495 109.204,529.514 Z "/>
				<linearGradient id="SVGID_Fill51_" gradientUnits="objectBoundingBox" x1="8.96305" y1="-6.05749" x2="21.2943" y2="-6.05749" gradientTransform="rotate(93.004196 8.963054 -6.057493)">
					<stop offset="0" stop-color="#E3D187" stop-opacity="1"/>
					<stop offset="0.359223" stop-color="#C1B06D" stop-opacity="1"/>
					<stop offset="0.655342" stop-color="#EDE1BE" stop-opacity="1"/>
					<stop offset="1" stop-color="#CCBC79" stop-opacity="1"/>
				</linearGradient>
				<path fill="url(#SVGID_Fill51_)" stroke-width="0.2" stroke-linejoin="miter" d="M 122.889,444.268C 122.957,446.494 122.92,448.782 122.761,451.074C 122.653,453.361 122.199,455.677 122.012,457.906C 121.507,462.377 120.277,466.692 118.515,470.414C 115.33,477.793 108.384,482.476 101.89,486.021C 101.076,482.07 101.26,477.903 101.814,474.016C 102.304,470.126 103.823,466.479 105.68,463.466C 108.216,459.468 111.169,456.638 114.429,453.835C 117.619,451.03 120.748,448.149 122.889,444.268 Z "/>
				<linearGradient id="SVGID_Fill52_" gradientUnits="objectBoundingBox" x1="9.84262" y1="-5.36284" x2="20.9882" y2="-5.36284" gradientTransform="rotate(92.767593 9.842620 -5.362836)">
					<stop offset="0" stop-color="#E3D187" stop-opacity="1"/>
					<stop offset="0.359223" stop-color="#C1B06D" stop-opacity="1"/>
					<stop offset="0.655342" stop-color="#EDE1BE" stop-opacity="1"/>
					<stop offset="1" stop-color="#CCBC79" stop-opacity="1"/>
				</linearGradient>
				<path fill="url(#SVGID_Fill52_)" stroke-width="0.2" stroke-linejoin="miter" d="M 93.8965,463.383C 95.7026,466.591 96.9336,470.285 98.103,474.175C 99.2056,478.065 99.5801,482.178 99.6484,486.252C 92.4082,484.11 85.2524,480.155 81.0283,471.444C 79.0835,467.11 78.1611,461.843 77.709,456.323C 77.4185,453.549 77.686,450.794 77.8555,448.023C 78.0771,445.263 78.4199,442.53 78.853,439.904C 80.3203,444.974 82.9419,448.809 85.6567,452.301C 88.2993,455.787 91.5757,459.143 93.8965,463.383 Z "/>
				<linearGradient id="SVGID_Fill53_" gradientUnits="objectBoundingBox" x1="7.31636" y1="-5.49931" x2="20.5504" y2="-5.49931" gradientTransform="rotate(93.967140 7.316356 -5.499306)">
					<stop offset="0" stop-color="#E3D187" stop-opacity="1"/>
					<stop offset="0.359223" stop-color="#C1B06D" stop-opacity="1"/>
					<stop offset="0.655342" stop-color="#EDE1BE" stop-opacity="1"/>
					<stop offset="1" stop-color="#CCBC79" stop-opacity="1"/>
				</linearGradient>
				<path fill="url(#SVGID_Fill53_)" stroke-width="0.2" stroke-linejoin="miter" d="M 128.268,403.594C 127.964,405.881 127.558,408.22 127.042,410.548C 126.557,412.878 125.818,415.195 125.219,417.444C 123.964,421.944 122.12,426.165 119.848,429.645C 115.576,436.594 108.447,439.964 101.904,442.189C 101.916,438.149 102.847,434.093 104.073,430.358C 105.259,426.613 107.25,423.257 109.452,420.553C 112.43,416.976 115.628,414.59 119.038,412.213C 122.38,409.827 125.685,407.306 128.268,403.594 Z "/>
				<linearGradient id="SVGID_Fill54_" gradientUnits="objectBoundingBox" x1="13.2739" y1="-4.19884" x2="24.2443" y2="-4.19884" gradientTransform="rotate(91.906601 13.273895 -4.198837)">
					<stop offset="0" stop-color="#E3D187" stop-opacity="1"/>
					<stop offset="0.359223" stop-color="#C1B06D" stop-opacity="1"/>
					<stop offset="0.655342" stop-color="#EDE1BE" stop-opacity="1"/>
					<stop offset="1" stop-color="#CCBC79" stop-opacity="1"/>
				</linearGradient>
				<path fill="url(#SVGID_Fill54_)" stroke-width="0.2" stroke-linejoin="miter" d="M 98.7949,418.607C 99.8818,422.023 100.375,425.853 100.688,429.866C 100.96,433.871 100.544,437.98 99.8374,441.984C 93.7051,438.487 87.9683,433.335 85.7515,424.29C 84.7661,419.811 84.8032,414.639 85.3306,409.307C 85.5679,406.628 86.1919,404.02 86.7876,401.4C 87.415,398.791 88.147,396.226 88.9424,393.774C 89.4976,398.805 91.2808,402.845 93.1958,406.61C 95.043,410.357 97.4126,414.098 98.7949,418.607 Z "/>
			</g>
		</g>
	</g>
</svg>
