<?xml version="1.0" encoding="utf-8"?>
<!DOCTYPE svg PUBLIC "-//W3C//DTD SVG 1.1//EN" "http://www.w3.org/Graphics/SVG/1.1/DTD/svg11.dtd">
<svg xmlns="http://www.w3.org/2000/svg" xmlns:xlink="http://www.w3.org/1999/xlink" version="1.1" baseProfile="full" width="623.62" height="982.678" viewBox="0 0 623.62 982.68" enable-background="new 0 0 623.62 982.68" xml:space="preserve">
	<g>
		<g>
			<linearGradient id="SVGID_Fill1_" gradientUnits="objectBoundingBox" x1="0.0603324" y1="0.0393779" x2="1.34935" y2="0.0393779" gradientTransform="rotate(69.365883 0.060332 0.039378)">
				<stop offset="0" stop-color="#E3D187" stop-opacity="1"/>
				<stop offset="0.359223" stop-color="#C1B06D" stop-opacity="1"/>
				<stop offset="0.655342" stop-color="#EDE1BE" stop-opacity="1"/>
				<stop offset="1" stop-color="#CCBC79" stop-opacity="1"/>
			</linearGradient>
			<path fill="url(#SVGID_Fill1_)" stroke-width="0.2" stroke-linejoin="round" d="M 623.621,30.2363L 623.621,952.442C 623.621,969.14 610.083,982.677 593.384,982.677L 30.2358,982.677C 13.5371,982.677 0,969.14 0,952.442L 0,30.2363C 0,13.5374 13.5371,0.000244141 30.2358,0.000244141L 593.384,0.000244141C 610.083,0.000244141 623.621,13.5374 623.621,30.2363 Z "/>
			<g>
				<g>
					<path fill="#000000" fill-opacity="1" stroke-width="0.2" stroke-linejoin="round" d="M 403.011,918.972L 384.633,850.802C 391.002,850.802 397.372,850.802 402.134,858.546C 406.896,866.289 410.052,881.777 413.208,897.264L 430.385,850.802L 448.627,850.802L 421.126,918.972L 403.011,918.972 Z "/>
					<path fill="#000000" fill-opacity="1" stroke-width="0.2" stroke-linejoin="round" d="M 445.221,918.972L 456.094,850.802L 473.618,850.802L 462.565,918.955L 445.221,918.972 Z "/>
					<path fill="#000000" fill-opacity="1" stroke-width="0.2" stroke-linejoin="round" d="M 585.825,918.957L 570.094,918.955L 567.625,908.804L 545.116,908.802L 540.184,918.952L 523.297,918.952C 532.168,895.437 541.039,871.921 549.146,860.562C 557.252,849.204 564.594,850.003 571.936,850.802L 585.825,918.957 Z M 564.845,894.949L 559.432,869.204L 549.939,894.948L 564.845,894.949 Z "/>
					<path fill="#000000" fill-opacity="1" stroke-width="0.2" stroke-linejoin="round" d="M 491.747,922.027C 487.588,921.431 483.985,920.745 480.936,919.969C 477.887,919.193 475.19,918.289 472.845,917.26L 476.6,901.734C 480.523,903.034 483.902,904.072 486.738,904.847C 489.574,905.622 491.987,906.152 493.979,906.437C 498.995,907.156 502.706,907.133 505.11,906.369C 507.515,905.606 508.887,904.045 509.225,901.685C 509.438,900.194 509.278,898.997 508.746,898.094C 508.212,897.19 507.278,896.385 505.942,895.676L 491.024,887.669C 486.929,885.458 484.022,882.811 482.302,879.729C 480.583,876.646 480.085,872.573 480.811,867.506C 481.925,859.719 485.145,854.327 490.468,851.33C 495.792,848.333 503.525,847.561 513.667,849.013C 516.143,849.367 518.577,849.83 520.97,850.402C 523.364,850.973 525.849,851.672 528.424,852.499L 524.912,867.506C 521.972,866.716 519.386,866.094 517.155,865.642C 514.924,865.189 512.912,864.835 511.119,864.578C 505.454,863.767 501.265,863.696 498.554,864.364C 495.843,865.031 494.321,866.523 493.99,868.839C 493.77,870.374 493.988,871.557 494.644,872.389C 495.299,873.222 496.374,874.026 497.868,874.801L 510.4,881.359C 515.28,883.815 518.726,886.779 520.738,890.25C 522.75,893.721 523.371,898.149 522.6,903.534C 521.499,911.219 518.444,916.561 513.435,919.559C 508.425,922.557 501.196,923.379 491.747,922.027 Z "/>
					<path fill="#000000" fill-opacity="1" stroke-width="0.2" stroke-linejoin="round" d="M 368.404,852.137L 368.724,850.805L 397.112,850.805C 397.112,850.805 403.797,850.433 404.995,856.864C 406.193,863.296 411.067,887.716 411.067,887.716C 411.067,887.716 402.988,860.859 368.404,852.137 Z "/>
				</g>
				<g>
					<path fill="#FFFFFF" fill-opacity="1" stroke-width="0.2" stroke-linejoin="round" d="M 218.651,755.905L 310.99,755.905C 312.973,755.905 314.581,757.512 314.581,759.495L 314.581,880.467C 314.581,882.449 312.973,884.057 310.99,884.057L 218.651,884.057C 216.668,884.057 215.061,882.449 215.061,880.467L 215.061,759.495C 215.061,757.512 216.668,755.905 218.651,755.905 Z "/>
					<path fill="#EAEAEA" fill-opacity="1" stroke-width="0.2" stroke-linejoin="round" d="M 226.228,755.903L 238.459,755.903C 240.443,755.903 242.05,757.511 242.05,759.494L 242.05,801.669C 242.05,803.652 240.443,805.26 238.459,805.26L 226.228,805.26C 224.245,805.26 222.637,803.652 222.637,801.669L 222.637,759.494C 222.637,757.511 224.245,755.903 226.228,755.903 Z "/>
					<path fill="#EAEAEA" fill-opacity="1" stroke-width="0.2" stroke-linejoin="round" d="M 257.801,755.905L 270.033,755.905C 272.016,755.905 273.624,757.512 273.624,759.495L 273.624,793.778C 273.624,795.761 272.016,797.369 270.033,797.369L 257.801,797.369C 255.818,797.369 254.21,795.761 254.21,793.778L 254.21,759.495C 254.21,757.512 255.818,755.905 257.801,755.905 Z "/>
					<path fill="#EAEAEA" fill-opacity="1" stroke-width="0.2" stroke-linejoin="round" d="M 290.442,755.906L 302.673,755.906C 304.657,755.906 306.264,757.514 306.264,759.497L 306.264,790.111C 306.264,792.094 304.657,793.702 302.673,793.702L 290.442,793.702C 288.458,793.702 286.851,792.094 286.851,790.111L 286.851,759.497C 286.851,757.514 288.458,755.906 290.442,755.906 Z "/>
					<path fill="#EAEAEA" fill-opacity="1" stroke-width="0.2" stroke-linejoin="round" d="M 296.025,809.066L 296.025,830.471C 296.025,832.455 294.417,834.062 292.435,834.062L 233.891,834.062C 231.908,834.062 230.3,832.455 230.3,830.471L 230.3,809.066C 230.3,807.083 231.908,805.475 233.891,805.475L 292.435,805.475C 294.417,805.475 296.025,807.083 296.025,809.066 Z "/>
					<path fill="#EAEAEA" fill-opacity="1" stroke-width="0.2" stroke-linejoin="round" d="M 226.656,844.927L 238.887,844.927C 240.871,844.927 242.478,846.534 242.478,848.517L 242.478,879.131C 242.478,881.114 240.871,882.721 238.887,882.721L 226.656,882.721C 224.672,882.721 223.065,881.114 223.065,879.131L 223.065,848.517C 223.065,846.534 224.672,844.927 226.656,844.927 Z "/>
					<path fill="#EAEAEA" fill-opacity="1" stroke-width="0.2" stroke-linejoin="round" d="M 287.053,850.393L 299.286,850.393C 301.269,850.393 302.876,852 302.876,853.983L 302.876,880.196C 302.876,882.179 301.269,883.786 299.286,883.786L 287.053,883.786C 285.07,883.786 283.463,882.179 283.463,880.196L 283.463,853.983C 283.463,852 285.07,850.393 287.053,850.393 Z "/>
					<path fill="#EAEAEA" fill-opacity="1" stroke-width="0.2" stroke-linejoin="round" d="M 258.655,841.81L 270.887,841.81C 272.87,841.81 274.477,843.418 274.477,845.401L 274.477,879.683C 274.477,881.667 272.87,883.274 270.887,883.274L 258.655,883.274C 256.671,883.274 255.064,881.667 255.064,879.683L 255.064,845.401C 255.064,843.418 256.671,841.81 258.655,841.81 Z "/>
				</g>
				<g>
					<g>
						<g>
							<path fill="#000000" fill-opacity="1" stroke-width="0.2" stroke-linejoin="miter" d="M 89.6079,70.9238L 72.3198,70.9238C 72.3198,70.9238 73.7485,75.2102 77.3208,77.9246L 89.6079,77.9246L 101.896,77.9246C 105.467,75.2102 106.896,70.9238 106.896,70.9238L 89.6079,70.9238 Z "/>
							<rect x="69.6055" y="66.4946" fill="#000000" fill-opacity="1" stroke-width="0.2" stroke-linejoin="miter" width="40.291" height="2.7146"/>
							<rect x="77.8921" y="80.0679" fill="#000000" fill-opacity="1" stroke-width="0.2" stroke-linejoin="miter" width="2.71484" height="28.2781"/>
							<rect x="83.0356" y="80.0679" fill="#000000" fill-opacity="1" stroke-width="0.2" stroke-linejoin="miter" width="2.71484" height="28.2781"/>
							<rect x="88.1792" y="80.0679" fill="#000000" fill-opacity="1" stroke-width="0.2" stroke-linejoin="miter" width="2.71484" height="28.2781"/>
							<rect x="93.3228" y="80.0679" fill="#000000" fill-opacity="1" stroke-width="0.2" stroke-linejoin="miter" width="2.71484" height="28.2781"/>
							<rect x="98.4663" y="80.0679" fill="#000000" fill-opacity="1" stroke-width="0.2" stroke-linejoin="miter" width="2.71484" height="28.2781"/>
						</g>
						<path fill="#000000" fill-opacity="1" stroke-width="0.2" stroke-linejoin="miter" d="M 119.518,116.974L 59.2358,116.974L 59.2358,56.6921L 119.518,56.6921L 119.518,116.974 Z M 60.6211,115.589L 118.133,115.589L 118.133,58.0771L 60.6211,58.0771L 60.6211,115.589 Z "/>
					</g>
					<g>
						<path fill="#000000" fill-opacity="1" stroke-width="0.2" stroke-linejoin="round" d="M 157.75,110.781C 155.359,110.781 154.163,109.694 154.163,107.519C 154.163,106.432 154.424,105.594 154.948,105.007C 155.471,104.419 156.124,104.037 156.905,103.86C 158.556,103.513 160.1,102.851 161.538,101.872C 162.975,100.894 164.257,99.6436 165.385,98.1213C 166.561,96.511 167.463,94.8035 168.091,92.9993C 168.72,91.1953 169.035,89.3147 169.035,87.3577C 169.035,85.0947 168.633,82.8982 167.832,80.7678C 167.03,78.6375 165.932,76.8757 164.54,75.4827C 163.017,73.9197 161.354,72.627 159.55,71.6042C 157.746,70.5815 155.688,70.0701 153.378,70.0701C 150.769,70.0701 148.388,70.5271 146.238,71.4412C 144.087,72.3552 142.25,73.6819 140.728,75.4216C 139.335,76.9844 138.226,78.7988 137.4,80.8645C 136.575,82.9304 136.162,85.1389 136.162,87.49C 136.162,89.447 136.444,91.3279 137.008,93.1318C 137.572,94.936 138.486,96.5994 139.75,98.1213C 140.79,99.426 141.996,100.58 143.369,101.582C 144.741,102.584 146.188,103.323 147.71,103.799C 148.363,104.016 148.927,104.224 149.403,104.421C 149.878,104.618 150.269,104.845 150.575,105.104C 150.88,105.362 151.098,105.698 151.227,106.113C 151.356,106.527 151.421,107.04 151.421,107.652C 151.421,108.78 151.041,109.606 150.279,110.129C 149.518,110.652 148.618,110.914 147.578,110.914C 146.796,110.914 145.937,110.771 145,110.486C 144.062,110.2 143.103,109.82 142.125,109.344C 141.146,108.868 140.18,108.314 139.225,107.682C 138.27,107.051 137.378,106.364 136.549,105.624C 134.986,104.19 133.661,102.679 132.574,101.093C 131.487,99.5061 130.593,97.7102 129.893,95.7058C 128.942,93.0146 128.466,89.95 128.466,86.5115C 128.466,84.5544 128.748,82.5974 129.312,80.6404C 129.876,78.6833 130.613,76.8792 131.524,75.2278C 132.482,73.5764 133.614,72.0442 134.918,70.6306C 136.223,69.2173 137.701,67.9873 139.352,66.9409C 141.309,65.7244 143.452,64.7681 145.779,64.0715C 148.106,63.375 150.381,63.0266 152.603,63.0266C 154.819,63.0266 156.991,63.3206 159.122,63.9084C 161.252,64.4963 163.251,65.3337 165.121,66.4211C 166.948,67.5083 168.667,68.9216 170.278,70.6614C 171.888,72.4009 173.193,74.2493 174.192,76.2063C 174.974,77.8577 175.594,79.6177 176.052,81.4863C 176.511,83.3552 176.74,85.2273 176.74,87.1028C 176.74,88.9238 176.511,90.8352 176.052,92.8362C 175.594,94.8376 174.974,96.6638 174.192,98.3152C 173.499,99.7083 172.717,100.992 171.848,102.168C 170.978,103.344 169.955,104.451 168.78,105.491C 167.257,106.884 165.528,108.114 163.591,109.181C 161.655,110.248 159.708,110.781 157.75,110.781 Z "/>
						<path fill="#000000" fill-opacity="1" stroke-width="0.2" stroke-linejoin="round" d="M 181.959,110.975C 180.519,110.975 179.387,110.737 178.565,110.261C 178.001,109.956 177.556,109.563 177.229,109.084C 176.903,108.605 176.74,107.951 176.74,107.122C 176.74,106.823 176.773,106.531 176.837,106.245C 176.902,105.96 177.031,105.644 177.225,105.297C 177.418,104.951 177.678,104.55 178.004,104.094C 178.331,103.639 178.755,103.106 179.278,102.494C 180.06,101.584 180.702,100.79 181.205,100.114C 181.708,99.438 182.1,98.7959 182.382,98.1877C 182.665,97.5793 182.87,96.9595 182.999,96.3274C 183.128,95.6956 183.193,94.9241 183.193,94.0137L 183.193,70.4675L 181.755,70.4675C 180.756,70.4675 179.909,70.1194 179.212,69.4229C 178.516,68.7263 178.167,67.8787 178.167,66.8796C 178.167,65.874 178.516,65.0247 179.212,64.3315C 179.909,63.6384 180.756,63.2917 181.755,63.2917L 186.067,63.2917C 186.978,63.2917 187.716,63.3342 188.284,63.4192C 188.852,63.5042 189.393,63.8083 189.91,64.3315C 190.392,64.8071 190.676,65.2844 190.761,65.7634C 190.846,66.2427 190.888,66.8525 190.888,67.5933L 190.888,93.3613C 190.888,94.666 190.802,95.8176 190.628,96.8167C 190.455,97.8157 190.195,98.7397 189.849,99.5891C 189.502,100.439 189.089,101.254 188.61,102.035C 188.131,102.817 187.585,103.622 186.974,104.451L 194.028,104.451C 194.375,104.451 194.677,104.343 194.935,104.125C 195.152,103.908 195.392,103.668 195.654,103.406C 195.915,103.145 196.155,102.861 196.372,102.555C 197.154,101.556 197.848,100.807 198.457,100.308C 199.065,99.8083 199.784,99.5586 200.613,99.5586C 201.394,99.5586 202.111,99.8628 202.763,100.471C 203.416,101.079 203.742,101.95 203.742,103.085C 203.742,103.69 203.611,104.232 203.349,104.711C 203.087,105.19 202.655,105.8 202.05,106.541L 200.287,108.692C 199.98,109.038 199.687,109.342 199.405,109.604C 199.123,109.865 198.829,110.085 198.523,110.261C 198.088,110.479 197.599,110.652 197.055,110.781C 196.511,110.91 195.829,110.975 195.006,110.975L 181.959,110.975 Z "/>
						<path fill="#000000" fill-opacity="1" stroke-width="0.2" stroke-linejoin="round" d="M 210.917,111.301C 209.831,111.301 208.918,110.931 208.181,110.19C 207.443,109.449 207.075,108.535 207.075,107.448L 207.075,66.7473C 207.075,65.6599 207.443,64.7458 208.181,64.0051C 208.918,63.2646 209.831,62.8943 210.917,62.8943C 212.005,62.8943 212.919,63.2646 213.66,64.0051C 214.4,64.7458 214.771,65.6599 214.771,66.7473L 214.771,107.448C 214.771,108.535 214.4,109.449 213.66,110.19C 212.919,110.931 212.005,111.301 210.917,111.301 Z "/>
						<path fill="#000000" fill-opacity="1" stroke-width="0.2" stroke-linejoin="round" d="M 224.23,111.168C 223.183,111.168 222.292,110.8 221.554,110.063C 220.817,109.325 220.448,108.433 220.448,107.387L 220.448,70.5288C 220.448,69.7 220.458,69.0032 220.479,68.4392C 220.5,67.8752 220.52,67.4302 220.54,67.104C 220.561,66.7778 220.583,66.5281 220.606,66.3547C 220.63,66.1814 220.642,66.0505 220.642,65.9624C 220.73,65.4392 221.012,64.8293 221.488,64.1326C 221.963,63.4363 222.725,63.0879 223.771,63.0879C 224.77,63.0879 225.509,63.3171 225.988,63.7759C 226.467,64.2346 226.989,64.8752 227.553,65.6973L 238.449,82.1387C 238.538,82.3154 238.614,82.4683 238.679,82.5974C 238.743,82.7266 238.82,82.8352 238.908,82.9236C 238.996,82.8352 239.073,82.7266 239.137,82.5974C 239.202,82.4683 239.278,82.3154 239.367,82.1387L 250.65,65.1165C 251.085,64.5046 251.52,64.0139 251.955,63.6433C 252.39,63.2732 253.086,63.0879 254.044,63.0879C 255.084,63.0879 255.844,63.4363 256.323,64.1326C 256.802,64.8293 257.085,65.4392 257.174,65.9624C 257.174,66.0505 257.184,66.1814 257.205,66.3547C 257.225,66.5281 257.247,66.7778 257.271,67.104C 257.294,67.4302 257.316,67.8752 257.337,68.4392C 257.357,69.0032 257.368,69.7 257.368,70.5288L 257.368,107.387C 257.368,108.433 256.997,109.325 256.256,110.063C 255.516,110.8 254.625,111.168 253.586,111.168C 252.54,111.168 251.647,110.8 250.91,110.063C 250.173,109.325 249.804,108.433 249.804,107.387L 249.804,78.877L 241.905,90.9456C 241.558,91.5095 241.254,91.9546 240.993,92.2808C 240.731,92.6069 240.491,92.8584 240.274,93.0352C 240.056,93.2117 239.839,93.3323 239.622,93.397C 239.404,93.4614 239.166,93.4939 238.908,93.4939C 238.385,93.4939 237.928,93.3528 237.537,93.0708C 237.146,92.7888 236.601,92.0803 235.901,90.9456L 228.011,78.8157L 228.011,107.387C 228.011,108.433 227.641,109.325 226.9,110.063C 226.16,110.8 225.27,111.168 224.23,111.168 Z "/>
						<path fill="#000000" fill-opacity="1" stroke-width="0.2" stroke-linejoin="round" d="M 284.573,77.2461C 284.573,76.2471 284.398,75.2805 284.048,74.3462C 283.698,73.4119 283.197,72.6184 282.544,71.9661C 282.109,71.572 281.674,71.2439 281.24,70.9824C 280.805,70.7209 280.315,70.5154 279.772,70.3657C 279.228,70.2163 278.588,70.1077 277.851,70.0396C 277.113,69.9717 276.221,69.9377 275.175,69.9377L 272.963,69.9377L 272.963,88.9272C 273.35,88.8796 273.793,88.8015 274.293,88.6929C 274.792,88.5842 275.175,88.489 275.44,88.4075C 278.355,87.4016 280.594,85.9204 282.157,83.9631C 282.938,83.012 283.537,81.9485 283.951,80.7727C 284.366,79.5972 284.573,78.4216 284.573,77.2461 Z M 269.243,111.24C 268.244,111.24 267.374,110.869 266.633,110.129C 265.892,109.388 265.522,108.518 265.522,107.519L 265.522,69.9377L 264.023,69.9377C 263.065,69.9377 262.25,69.6013 261.577,68.9285C 260.905,68.2559 260.568,67.4402 260.568,66.4822C 260.568,65.5242 260.905,64.7087 261.577,64.0359C 262.25,63.363 263.065,63.0266 264.023,63.0266L 276.021,63.0266C 276.938,63.0266 277.668,63.0488 278.212,63.093C 278.756,63.1372 279.157,63.1797 279.415,63.2205C 281.589,63.5261 283.46,64.1462 285.026,65.0808C 286.593,66.0149 288.048,67.3962 289.394,69.2241C 290.264,70.3997 290.884,71.6721 291.254,73.0413C 291.625,74.4106 291.81,75.9209 291.81,77.5723C 291.81,79.4885 291.353,81.5881 290.439,83.8716C 289.525,86.1548 288.198,88.1663 286.458,89.9058C 284.678,91.6863 282.636,93.0774 280.333,94.0798C 278.029,95.0823 275.572,95.7124 272.963,95.9707L 272.963,107.519C 272.963,108.518 272.592,109.388 271.852,110.129C 271.111,110.869 270.241,111.24 269.243,111.24 Z "/>
						<path fill="#000000" fill-opacity="1" stroke-width="0.2" stroke-linejoin="round" d="M 322.796,110.781C 320.405,110.781 319.208,109.694 319.208,107.519C 319.208,106.432 319.47,105.594 319.994,105.007C 320.517,104.419 321.169,104.037 321.951,103.86C 323.602,103.513 325.146,102.851 326.583,101.872C 328.021,100.894 329.303,99.6436 330.431,98.1213C 331.607,96.511 332.509,94.8035 333.137,92.9993C 333.766,91.1953 334.081,89.3147 334.081,87.3577C 334.081,85.0947 333.679,82.8982 332.877,80.7678C 332.076,78.6375 330.978,76.8757 329.585,75.4827C 328.063,73.9197 326.4,72.627 324.596,71.6042C 322.792,70.5815 320.734,70.0701 318.424,70.0701C 315.814,70.0701 313.434,70.5271 311.284,71.4412C 309.133,72.3552 307.296,73.6819 305.774,75.4216C 304.381,76.9844 303.272,78.7988 302.446,80.8645C 301.621,82.9304 301.208,85.1389 301.208,87.49C 301.208,89.447 301.49,91.3279 302.054,93.1318C 302.618,94.936 303.532,96.5994 304.795,98.1213C 305.835,99.426 307.042,100.58 308.415,101.582C 309.787,102.584 311.234,103.323 312.756,103.799C 313.409,104.016 313.973,104.224 314.449,104.421C 314.924,104.618 315.315,104.845 315.621,105.104C 315.926,105.362 316.144,105.698 316.273,106.113C 316.402,106.527 316.467,107.04 316.467,107.652C 316.467,108.78 316.086,109.606 315.325,110.129C 314.564,110.652 313.664,110.914 312.624,110.914C 311.842,110.914 310.983,110.771 310.045,110.486C 309.107,110.2 308.149,109.82 307.17,109.344C 306.192,108.868 305.226,108.314 304.271,107.682C 303.316,107.051 302.424,106.364 301.595,105.624C 300.032,104.19 298.707,102.679 297.62,101.093C 296.533,99.5061 295.639,97.7102 294.939,95.7058C 293.988,93.0146 293.512,89.95 293.512,86.5115C 293.512,84.5544 293.794,82.5974 294.358,80.6404C 294.922,78.6833 295.659,76.8792 296.57,75.2278C 297.528,73.5764 298.66,72.0442 299.964,70.6306C 301.269,69.2173 302.747,67.9873 304.398,66.9409C 306.355,65.7244 308.498,64.7681 310.825,64.0715C 313.152,63.375 315.427,63.0266 317.649,63.0266C 319.865,63.0266 322.037,63.3206 324.167,63.9084C 326.298,64.4963 328.297,65.3337 330.167,66.4211C 331.994,67.5083 333.713,68.9216 335.324,70.6614C 336.934,72.4009 338.239,74.2493 339.238,76.2063C 340.02,77.8577 340.64,79.6177 341.098,81.4863C 341.557,83.3552 341.786,85.2273 341.786,87.1028C 341.786,88.9238 341.557,90.8352 341.098,92.8362C 340.64,94.8376 340.02,96.6638 339.238,98.3152C 338.545,99.7083 337.763,100.992 336.894,102.168C 336.024,103.344 335.001,104.451 333.826,105.491C 332.303,106.884 330.574,108.114 328.637,109.181C 326.701,110.248 324.753,110.781 322.796,110.781 Z "/>
					</g>
				</g>
			</g>
		</g>
		<g>
			<g>
				<path fill="#000000" fill-opacity="1" stroke-width="0.2" stroke-linejoin="miter" d="M 195.131,606.587C 194.139,606.462 193.175,606.367 192.211,606.284C 191.281,606.177 190.351,606.074 189.432,606.008C 187.61,605.86 185.816,605.798 184.078,605.812C 177.231,605.718 171.131,606.751 166.29,608.373C 156.512,611.665 151.371,618.339 154.106,624.487C 155.409,627.585 158.791,630.387 163.231,632.353C 165.415,633.375 168,634.004 170.652,634.423C 173.321,634.818 176.112,634.946 179.002,634.553C 181.861,634.199 184.741,633.47 187.499,632.314C 190.273,631.15 192.992,629.453 195.47,627.359C 200.462,623.139 204.568,617.044 207.565,608.924C 205.376,608.373 203.231,607.927 201.142,607.582C 199.081,607.175 197.086,606.821 195.131,606.587 Z "/>
				<path fill="#000000" fill-opacity="1" stroke-width="0.2" stroke-linejoin="miter" d="M 176.295,590.543C 175.303,590.064 174.312,589.626 173.343,589.197C 172.407,588.743 171.459,588.309 170.524,587.905C 168.658,587.091 166.792,586.42 165.003,585.776C 161.482,584.412 157.967,583.528 154.752,582.771C 151.533,582.033 148.401,581.642 145.494,581.47C 142.624,581.263 139.922,581.351 137.443,581.671C 132.479,582.334 128.474,583.919 125.861,586.18C 123.237,588.459 122.028,591.415 122.725,594.515C 123.956,600.785 132.992,607.888 144.022,608.868C 149.521,609.378 155.471,608.356 160.981,605.459C 166.579,602.464 171.76,597.564 176.295,590.543 Z "/>
				<path fill="#000000" fill-opacity="1" stroke-width="0.2" stroke-linejoin="miter" d="M 132.195,576.83C 138.045,575.17 143.911,571.613 149.632,565.894C 146.374,563.228 143.037,561.063 139.978,559.075C 138.423,558.103 136.858,557.236 135.315,556.445C 133.833,555.621 132.351,554.88 130.886,554.228C 129.416,553.573 127.956,553.005 126.519,552.507C 125.109,552.005 123.755,551.551 122.396,551.186C 119.716,550.453 117.126,550.025 114.708,549.86C 105.176,549.092 98.3291,552.941 98.29,559.164C 98.3574,562.186 100.023,565.849 103.053,569.094C 106.151,572.309 110.408,575.222 115.532,576.726C 118.084,577.479 120.725,577.977 123.555,578.005C 126.379,578.033 129.282,577.662 132.195,576.83 Z "/>
				<path fill="#000000" fill-opacity="1" stroke-width="0.2" stroke-linejoin="miter" d="M 110.073,543.059C 115.945,542.629 122.206,540.429 128.73,536.172C 118.274,523.738 107.928,516.766 98.8472,514.292C 90.0059,511.766 82.7969,514.122 81.5547,519.96C 80.937,522.841 81.9727,526.532 84.1177,530.189C 85.2041,532.014 86.7192,533.766 88.4243,535.407C 90.1616,537.027 92.0728,538.545 94.3735,539.727C 98.9302,542.125 104.145,543.537 110.073,543.059 Z "/>
				<path fill="#000000" fill-opacity="1" stroke-width="0.2" stroke-linejoin="miter" d="M 114.312,502.807C 106.83,489.017 98.4351,480.471 90.3511,476.452C 82.4517,472.423 75.1982,473.321 72.9424,478.554C 71.7612,481.153 72.0786,484.791 73.4155,488.618C 74.7412,492.448 77.5879,496.362 81.2153,499.51C 84.998,502.627 89.8228,504.91 95.3652,505.649C 100.948,506.387 107.349,505.527 114.312,502.807 Z "/>
				<path fill="#000000" fill-opacity="1" stroke-width="0.2" stroke-linejoin="miter" d="M 88.5684,466.214C 93.6606,467.98 99.8218,468.407 106.931,467.184C 105.922,463.544 104.669,460.248 103.343,457.242C 102.078,454.234 100.635,451.521 99.0752,449.089C 96.1724,444.231 92.647,440.479 89.2988,437.878C 82.5967,432.641 75.5654,432.167 72.4746,436.663C 69.4321,441.095 70.519,450.538 76.4019,457.786C 79.3101,461.418 83.5044,464.474 88.5684,466.214 Z "/>
				<path fill="#000000" fill-opacity="1" stroke-width="0.2" stroke-linejoin="miter" d="M 89.6885,426.404C 94.1675,429.023 99.8501,430.585 106.792,430.775C 106.558,427.162 105.922,423.808 105.282,420.727C 104.658,417.657 103.789,414.824 102.775,412.248C 100.97,407.131 98.3237,402.934 95.6719,399.858C 90.3018,393.683 83.772,391.939 80.0396,395.591C 76.3403,399.19 75.605,408.287 79.8057,416.203C 81.8394,420.156 85.2427,423.803 89.6885,426.404 Z "/>
				<path fill="#000000" fill-opacity="1" stroke-width="0.2" stroke-linejoin="miter" d="M 98.6577,387.638C 102.39,390.959 107.42,393.525 113.9,395.04C 115.471,381.232 113.248,370.725 109.326,363.867C 105.433,357.048 99.6162,354.179 95.4434,356.903C 94.4126,357.577 93.4429,358.583 92.6748,359.875C 91.9175,361.174 91.3154,362.728 90.9028,364.455C 90.5073,366.185 90.2397,368.065 90.3286,370.059C 90.4131,372.057 90.73,374.123 91.3262,376.174C 92.4634,380.265 94.9312,384.329 98.6577,387.638 Z "/>
				<path fill="#000000" fill-opacity="1" stroke-width="0.2" stroke-linejoin="miter" d="M 115.226,351.522C 118.095,355.374 122.323,358.772 128.095,361.443C 129.086,358.229 129.905,355.255 130.451,352.407C 130.725,350.987 130.897,349.577 131.059,348.243C 131.249,346.906 131.365,345.619 131.41,344.355C 131.588,339.284 131.008,334.909 129.805,331.346C 127.41,324.182 122.502,320.399 118.112,322.174C 113.7,323.859 109.85,331.215 110.591,339.391C 110.964,343.486 112.301,347.664 115.226,351.522 Z "/>
				<path fill="#000000" fill-opacity="1" stroke-width="0.2" stroke-linejoin="miter" d="M 148.864,331.416C 155.22,320.363 157.259,310.859 156.345,303.611C 155.888,300.004 154.78,297.154 153.142,295.218C 151.527,293.315 149.359,292.338 147.182,292.766C 144.997,293.166 142.635,294.87 140.669,297.416C 138.774,300.041 137.332,303.533 136.808,307.36C 136.379,311.274 136.908,315.514 138.803,319.633C 140.68,323.744 144.005,327.792 148.864,331.416 Z "/>
				<path fill="#000000" fill-opacity="1" stroke-width="0.2" stroke-linejoin="miter" d="M 175.498,306.4C 177.561,304.146 179.27,301.859 180.824,299.745C 182.357,297.611 183.538,295.397 184.596,293.374C 186.668,289.332 187.693,285.316 188.039,281.954C 188.697,275.168 185.973,270.221 181.655,270.023C 179.477,269.873 177.008,271.093 174.68,273.087C 172.34,275.054 170.317,278.076 169.103,281.583C 168.502,283.335 168.083,285.196 167.967,287.185C 167.861,289.182 168.028,291.271 168.491,293.385C 169.443,297.636 171.699,302.023 175.498,306.4 Z "/>
				<path fill="#000000" fill-opacity="1" stroke-width="0.2" stroke-linejoin="miter" d="M 218.044,277.425C 219.415,275.731 220.535,273.985 221.459,272.325C 222.39,270.686 223.086,269.076 223.582,267.522C 225.565,261.313 224.044,256.168 220.089,255.143C 216.144,254.023 209.777,257.249 206.094,263.255C 204.256,266.3 203.086,269.971 203.081,274.06C 203.086,278.201 204.278,282.779 206.886,287.609C 211.666,284.294 215.275,280.778 218.044,277.425 Z "/>
				<path fill="#000000" fill-opacity="1" stroke-width="0.2" stroke-linejoin="miter" d="M 203.226,587.501C 205.176,590.671 207.944,594.022 211.911,596.902L 212.696,597.498L 213.169,596.626C 213.671,595.67 214.134,594.729 214.557,593.802C 217.61,586.977 218.557,580.827 218.501,575.83C 218.451,573.35 218.184,571.063 217.732,569.069C 217.264,567.077 216.629,565.421 215.854,564.055C 214.072,560.621 211.404,559.036 208.712,559.46C 206.792,559.819 204.774,561.326 203.109,563.74C 200.936,566.896 199.226,571.91 199.927,578.013C 200.329,580.972 201.337,584.203 203.226,587.501 Z "/>
				<path fill="#000000" fill-opacity="1" stroke-width="0.2" stroke-linejoin="miter" d="M 177.593,572C 178.011,572.868 178.479,573.76 178.997,574.654C 180.067,576.42 181.259,578.364 182.88,580.105L 183.532,580.846L 184.178,580.089C 184.858,579.292 185.493,578.507 186.078,577.721C 190.429,571.885 192.523,566.387 193.538,561.553C 194.546,556.69 194.229,552.766 193.387,549.729C 192.246,546.18 190.117,543.917 187.37,543.83C 185.415,543.799 183.231,544.78 181.153,546.729C 178.452,549.309 175.849,553.743 175.365,559.621C 175.081,562.604 175.438,565.83 176.585,569.323C 176.88,570.195 177.204,571.091 177.593,572 Z "/>
				<path fill="#000000" fill-opacity="1" stroke-width="0.2" stroke-linejoin="miter" d="M 155.359,551.401C 156.006,553.298 156.875,555.279 157.967,557.337L 158.435,558.217L 159.231,557.621C 160.028,557.014 160.785,556.398 161.516,555.771C 166.786,551.167 169.983,546.281 171.855,541.936C 173.655,537.616 174.306,533.644 173.978,530.649C 173.738,528.852 173.314,527.229 172.519,526.055C 171.749,524.864 170.629,524.092 169.36,523.749C 167.554,523.264 165.243,523.769 162.908,525.22C 161.382,526.167 159.794,527.573 158.356,529.434C 156.919,531.314 155.644,533.626 154.886,536.348C 154.501,537.718 154.207,539.198 154.062,540.779C 153.995,541.582 153.95,542.403 153.95,543.253C 153.989,544.083 154.044,544.941 154.162,545.818C 154.379,547.581 154.768,549.443 155.359,551.401 Z "/>
				<path fill="#000000" fill-opacity="1" stroke-width="0.2" stroke-linejoin="miter" d="M 137.42,526.598C 137.661,527.615 137.928,528.657 138.273,529.729L 138.568,530.69L 139.459,530.27C 140.345,529.852 141.187,529.415 141.989,528.971C 147.895,525.674 151.85,521.705 154.435,517.96C 157.098,514.154 158.374,510.546 158.64,507.613C 159.086,503.975 157.838,501.228 155.594,500.03C 153.95,499.208 151.649,499.245 149.142,500.167C 145.906,501.376 142.023,504.27 139.393,509.209C 138.156,511.64 137.231,514.59 136.88,518.064C 136.758,519.78 136.786,521.61 136.981,523.565C 137.092,524.545 137.231,525.557 137.42,526.598 Z "/>
				<path fill="#000000" fill-opacity="1" stroke-width="0.2" stroke-linejoin="miter" d="M 124.664,499.554L 125.632,499.328C 126.546,499.106 127.421,498.866 128.279,498.599C 134.501,496.649 138.936,493.691 142.201,490.602C 145.482,487.501 147.22,484.345 148.167,481.552C 148.697,479.856 148.808,478.289 148.524,476.956C 148.273,475.599 147.7,474.462 146.697,473.685C 145.281,472.571 143.087,472.15 140.529,472.549C 137.231,473.078 133.037,475.097 129.616,479.287C 126.273,483.426 123.822,489.844 124.552,498.563L 124.664,499.554 Z "/>
				<path fill="#000000" fill-opacity="1" stroke-width="0.2" stroke-linejoin="miter" d="M 120.937,465.914C 127.147,465.279 132.028,463.318 135.649,461.014C 139.282,458.694 141.599,456 143.002,453.49C 143.816,451.976 144.223,450.482 144.195,449.131C 144.234,447.786 143.878,446.577 143.081,445.635C 141.945,444.287 139.944,443.471 137.443,443.387C 134.229,443.271 129.883,444.418 125.872,447.763C 121.945,451.086 118.413,456.707 117.426,465.115L 117.298,466.123L 118.301,466.084C 119.204,466.056 120.079,466 120.937,465.914 Z "/>
				<path fill="#000000" fill-opacity="1" stroke-width="0.2" stroke-linejoin="miter" d="M 117.076,430.767L 116.747,431.733L 117.722,431.892C 118.58,432.036 119.416,432.142 120.24,432.226C 126.24,432.808 131.209,431.872 135.053,430.368C 138.897,428.853 141.616,426.725 143.399,424.616C 144.462,423.315 145.109,421.964 145.349,420.682C 145.649,419.418 145.527,418.201 144.953,417.159C 144.123,415.658 142.379,414.513 140.044,413.953C 137.025,413.251 132.724,413.521 128.307,415.934C 126.045,417.14 124.006,418.914 122.011,421.346C 119.967,423.763 118.379,426.897 117.076,430.767 Z "/>
				<path fill="#000000" fill-opacity="1" stroke-width="0.2" stroke-linejoin="miter" d="M 130.028,389.023C 128.863,389.984 127.722,391.106 126.602,392.412C 125.549,393.744 124.535,395.265 123.572,396.961L 123.059,397.844L 123.995,398.204C 124.775,398.501 125.532,398.772 126.29,399C 131.822,400.705 136.663,400.78 140.557,400.084C 144.418,399.36 147.51,397.92 149.543,396.232C 151.945,394.131 153.153,391.663 152.446,389.438C 151.938,387.856 150.507,386.424 148.396,385.455C 145.694,384.218 141.593,383.666 136.997,385.12C 135.85,385.485 134.668,385.967 133.477,386.605C 132.329,387.26 131.17,388.057 130.028,389.023 Z "/>
				<path fill="#000000" fill-opacity="1" stroke-width="0.2" stroke-linejoin="miter" d="M 152.112,371.351C 155.95,371.455 159.131,370.68 161.326,369.441C 164.067,367.953 165.666,365.811 165.398,363.547C 165.22,361.945 164.211,360.363 162.407,359.028C 160.106,357.349 156.267,355.99 151.733,356.524C 147.148,357.009 141.727,359.388 136.786,365.084L 136.128,365.861L 136.97,366.399C 137.638,366.828 138.307,367.22 138.964,367.594C 143.833,370.276 148.34,371.271 152.112,371.351 Z "/>
				<path fill="#000000" fill-opacity="1" stroke-width="0.2" stroke-linejoin="miter" d="M 178.474,345.455C 181.404,344.638 183.192,342.77 183.493,340.686C 183.671,339.166 183.003,337.43 181.56,335.837C 179.744,333.812 176.44,331.839 172.011,331.38C 169.828,331.196 167.376,331.399 164.697,332.157C 161.983,332.889 159.259,334.385 156.307,336.494C 156.307,336.494 156.095,336.645 155.895,336.794C 155.694,336.956 155.487,337.112 155.487,337.112L 156.195,337.809C 156.747,338.349 157.292,338.85 157.833,339.33C 161.849,342.789 165.877,344.613 169.459,345.48C 173.064,346.346 176.067,346.101 178.474,345.455 Z "/>
				<path fill="#000000" fill-opacity="1" stroke-width="0.2" stroke-linejoin="miter" d="M 200.351,325.444C 203.198,325.14 205.376,323.942 206.039,321.953C 206.501,320.544 206.217,318.77 205.198,316.984C 203.889,314.723 201.226,312.255 197.17,310.959C 196.167,310.639 195.064,310.383 193.883,310.232C 192.719,310.118 191.482,310.104 190.172,310.213C 188.847,310.316 187.454,310.541 185.973,310.909C 184.501,311.274 183.036,311.881 181.465,312.6L 180.535,313.029L 181.064,313.862C 181.477,314.471 181.872,315.057 182.29,315.605C 188.479,323.683 195.682,325.717 200.351,325.444 Z "/>
				<path fill="#000000" fill-opacity="1" stroke-width="0.2" stroke-linejoin="miter" d="M 226.095,310.429C 228.879,310.862 231.142,310.093 232.172,308.346C 232.908,307.09 233.024,305.447 232.429,303.553C 231.683,301.182 229.682,298.255 226.195,296.302C 224.457,295.313 222.312,294.517 219.799,294.121C 217.326,293.823 214.423,293.873 211.187,294.552L 210.195,294.789L 210.545,295.722C 210.78,296.371 211.042,296.993 211.314,297.592C 213.326,302.017 215.933,304.961 218.596,307.068C 221.236,309.132 223.888,310.182 226.095,310.429 Z "/>
				<path fill="#000000" fill-opacity="1" stroke-width="0.2" stroke-linejoin="miter" d="M 354.834,619.23C 355.726,619.208 356.711,619.192 357.81,619.172C 358.907,619.085 360.088,619.002 361.38,618.907C 362.662,618.813 364.038,618.706 365.514,618.604C 366.996,618.479 368.55,618.233 370.188,618.038C 376.791,617.283 384.729,615.757 393.626,613.233C 402.528,610.704 412.36,607.041 422.506,601.826C 432.639,596.617 443.08,589.86 453.119,581.465C 463.141,573.039 472.645,562.888 481.119,551.364C 497.898,528.234 509.797,499.044 513.124,468.568C 514.928,453.371 514.549,437.945 512.594,423.006C 510.399,408.087 506.538,393.627 501.012,380.348C 495.475,367.082 488.656,354.839 480.817,344.215C 473.035,333.563 464.478,324.371 455.842,316.731C 438.527,301.388 421.09,292.519 408.65,287.478C 404.171,285.67 400.322,284.332 397.213,283.347C 395.213,280.625 393.046,278.151 390.712,276.174C 387.977,273.906 385.152,271.862 382.227,270.572C 376.456,267.745 370.617,266.82 365.631,267.101C 363.141,267.294 360.851,267.739 358.834,268.377C 356.824,269.065 355.085,270.018 353.67,271.034C 350.846,273.104 349.353,275.617 349.386,278.076C 349.437,280.53 351.013,283.001 353.581,285.015C 354.869,286.038 356.411,286.853 358.155,287.664C 359.893,288.48 361.848,289.127 363.977,289.553C 372.166,291.383 382.606,290.692 396.228,285.536C 396.985,285.772 397.765,286.017 398.606,286.302C 401.024,287.227 403.843,288.152 406.917,289.43C 419.152,294.466 436.366,303.19 453.358,318.371C 470.299,333.427 486.979,354.833 497.546,381.107C 498.26,382.728 498.873,384.387 499.474,386.062C 500.082,387.736 500.695,389.413 501.302,391.095C 501.831,392.811 502.36,394.527 502.895,396.251L 503.698,398.839L 504.377,401.474C 504.84,403.226 505.291,404.989 505.747,406.752C 506.115,408.538 506.494,410.324 506.862,412.126C 507.697,415.697 508.104,419.371 508.739,423.014C 510.633,437.669 510.845,452.797 509.04,467.668C 505.603,497.463 493.853,525.897 477.346,548.306C 469.04,559.487 459.72,569.276 449.948,577.409C 440.138,585.492 429.977,591.972 420.115,596.944C 410.261,601.921 400.734,605.392 392.116,607.771C 383.509,610.15 375.832,611.551 369.464,612.233C 367.871,612.403 366.372,612.632 364.946,612.74C 363.526,612.835 362.194,612.921 360.958,613.002C 359.714,613.086 358.567,613.156 357.514,613.23C 356.461,613.245 355.503,613.255 354.651,613.267C 351.22,613.314 349.386,613.333 349.386,613.333C 349.386,613.333 330.428,612.225 311.81,626.731C 293.186,612.225 274.233,613.333 274.233,613.333C 274.233,613.333 272.401,613.314 268.98,613.267C 268.127,613.255 267.164,613.245 266.105,613.23C 265.053,613.156 263.911,613.086 262.668,613.002C 261.426,612.921 260.083,612.835 258.673,612.74C 257.253,612.632 255.749,612.403 254.155,612.233C 247.793,611.551 240.117,610.15 231.498,607.771C 222.891,605.392 213.359,601.921 203.504,596.944C 193.649,591.972 183.482,585.492 173.677,577.409C 163.899,569.276 154.574,559.487 146.279,548.306C 129.766,525.897 118.018,497.463 114.58,467.668C 112.769,452.797 112.986,437.669 114.886,423.014C 115.516,419.371 115.917,415.697 116.747,412.126C 117.126,410.324 117.504,408.538 117.877,406.752C 118.334,404.989 118.792,403.226 119.243,401.474L 119.917,398.839L 120.725,396.251C 121.259,394.527 121.794,392.811 122.323,391.095C 122.937,389.413 123.543,387.736 124.145,386.062C 124.736,384.387 125.359,382.728 126.067,381.107C 136.641,354.833 153.32,333.427 170.267,318.371C 187.265,303.19 204.462,294.466 216.702,289.43C 219.777,288.152 222.602,287.227 225.019,286.302C 225.866,286.017 226.646,285.772 227.404,285.536C 241.013,290.692 251.454,291.383 259.643,289.553C 261.788,289.127 263.721,288.48 265.47,287.664C 267.214,286.853 268.751,286.038 270.044,285.015C 272.607,283.001 274.189,280.53 274.233,278.076C 274.272,275.617 272.768,273.104 269.95,271.034C 268.54,270.018 266.802,269.065 264.791,268.377C 262.774,267.739 260.49,267.294 257.982,267.101C 253.003,266.82 247.169,267.745 241.392,270.572C 238.473,271.862 235.649,273.906 232.913,276.174C 230.584,278.151 228.406,280.625 226.412,283.347C 223.303,284.332 219.448,285.67 214.969,287.478C 202.523,292.519 185.097,301.388 167.783,316.731C 159.147,324.371 150.596,333.563 142.809,344.215C 134.964,354.839 128.145,367.082 122.607,380.348C 117.087,393.627 113.226,408.087 111.031,423.006C 109.058,437.945 108.697,453.371 110.497,468.568C 113.822,499.044 125.722,528.234 142.507,551.364C 150.981,562.888 160.485,573.039 170.501,581.465C 180.546,589.86 190.975,596.617 201.115,601.826C 211.265,607.041 221.092,610.704 230,613.233C 238.896,615.757 246.835,617.283 253.431,618.038C 255.086,618.233 256.629,618.479 258.105,618.604C 259.576,618.706 260.958,618.813 262.239,618.907C 263.532,619.002 264.718,619.085 265.816,619.172C 266.902,619.192 267.899,619.208 268.78,619.23C 272.333,619.303 274.233,619.344 274.233,619.344C 286.01,620.506 295.425,625.378 302.963,632.428C 284.228,630.077 245.086,626.439 243.972,636.902C 242.596,649.62 245.637,663.233 298.635,640.247C 286.088,656.932 276.172,683.916 276.189,727.584L 290.634,727.584C 290.634,727.584 289.894,674.751 311.81,642.821C 333.738,674.751 332.985,727.584 332.985,727.584L 347.442,727.584C 347.453,682.776 337.007,655.528 324,638.955C 379.832,663.72 383.001,649.846 381.621,636.902C 380.439,626.005 337.982,630.411 320.35,632.723C 327.932,625.506 337.442,620.523 349.386,619.344C 349.386,619.344 351.287,619.303 354.834,619.23 Z "/>
				<path fill="#000000" fill-opacity="1" stroke-width="0.2" stroke-linejoin="miter" d="M 457.33,608.373C 452.505,606.751 446.394,605.718 439.542,605.812C 437.81,605.798 436.021,605.86 434.194,606.008C 433.28,606.074 432.344,606.177 431.403,606.284C 430.445,606.367 429.47,606.462 428.5,606.587C 426.54,606.821 424.544,607.175 422.478,607.582C 420.383,607.927 418.25,608.373 416.054,608.924C 419.057,617.044 423.163,623.139 428.149,627.359C 430.634,629.453 433.341,631.15 436.122,632.314C 438.884,633.47 441.759,634.199 444.623,634.553C 447.508,634.946 450.293,634.818 452.962,634.423C 455.619,634.004 458.205,633.375 460.389,632.353C 464.829,630.387 468.215,627.585 469.519,624.487C 472.26,618.339 467.107,611.665 457.33,608.373 Z "/>
				<path fill="#000000" fill-opacity="1" stroke-width="0.2" stroke-linejoin="miter" d="M 497.759,586.18C 495.157,583.919 491.14,582.334 486.171,581.671C 483.698,581.351 480.99,581.263 478.127,581.47C 475.219,581.642 472.093,582.033 468.868,582.771C 465.658,583.528 462.138,584.412 458.623,585.776C 456.833,586.42 454.974,587.091 453.096,587.905C 452.16,588.309 451.213,588.743 450.271,589.197C 449.308,589.626 448.321,590.064 447.33,590.543C 451.859,597.564 457.045,602.464 462.645,605.459C 468.155,608.356 474.093,609.378 479.597,608.868C 490.628,607.888 499.664,600.785 500.906,594.515C 501.591,591.415 500.382,588.459 497.759,586.18 Z "/>
				<path fill="#000000" fill-opacity="1" stroke-width="0.2" stroke-linejoin="miter" d="M 508.917,549.86C 506.494,550.025 503.909,550.453 501.218,551.186C 499.87,551.551 498.511,552.005 497.09,552.507C 495.669,553.005 494.209,553.573 492.745,554.228C 491.274,554.88 489.787,555.621 488.299,556.445C 486.761,557.236 485.202,558.103 483.642,559.075C 480.583,561.063 477.251,563.228 473.999,565.894C 479.708,571.613 485.575,575.17 491.424,576.83C 494.338,577.662 497.246,578.033 500.071,578.005C 502.895,577.977 505.542,577.479 508.093,576.726C 513.218,575.222 517.469,572.309 520.561,569.094C 523.608,565.849 525.274,562.186 525.33,559.164C 525.296,552.941 518.455,549.092 508.917,549.86 Z "/>
				<path fill="#000000" fill-opacity="1" stroke-width="0.2" stroke-linejoin="miter" d="M 524.767,514.292C 515.708,516.766 505.346,523.738 494.889,536.172C 501.414,540.429 507.675,542.629 513.558,543.059C 519.475,543.537 524.694,542.125 529.246,539.727C 531.547,538.545 533.452,537.027 535.196,535.407C 536.895,533.766 538.422,532.014 539.502,530.189C 541.653,526.532 542.695,522.841 542.06,519.96C 540.833,514.122 533.614,511.766 524.767,514.292 Z "/>
				<path fill="#000000" fill-opacity="1" stroke-width="0.2" stroke-linejoin="miter" d="M 533.269,476.452C 525.185,480.471 516.79,489.017 509.307,502.807C 516.277,505.527 522.672,506.387 528.259,505.649C 533.797,504.91 538.622,502.627 542.405,499.51C 546.037,496.362 548.878,492.448 550.204,488.618C 551.547,484.791 551.87,481.153 550.677,478.554C 548.433,473.321 541.168,472.423 533.269,476.452 Z "/>
				<path fill="#000000" fill-opacity="1" stroke-width="0.2" stroke-linejoin="miter" d="M 534.327,437.878C 530.962,440.479 527.452,444.231 524.555,449.089C 522.984,451.521 521.536,454.234 520.288,457.242C 518.962,460.248 517.692,463.544 516.683,467.184C 523.792,468.407 529.959,467.98 535.051,466.214C 540.126,464.474 544.321,461.418 547.218,457.786C 553.106,450.538 554.188,441.095 551.146,436.663C 548.048,432.167 541.029,432.641 534.327,437.878 Z "/>
				<path fill="#000000" fill-opacity="1" stroke-width="0.2" stroke-linejoin="miter" d="M 527.965,399.858C 525.308,402.934 522.661,407.131 520.856,412.248C 519.842,414.824 518.962,417.657 518.344,420.727C 517.697,423.808 517.062,427.162 516.839,430.775C 523.775,430.585 529.446,429.023 533.937,426.404C 538.383,423.803 541.792,420.156 543.82,416.203C 548.02,408.287 547.279,399.19 543.58,395.591C 539.842,391.939 533.307,393.683 527.965,399.858 Z "/>
				<path fill="#000000" fill-opacity="1" stroke-width="0.2" stroke-linejoin="miter" d="M 509.725,395.04C 516.199,393.525 521.241,390.959 524.962,387.638C 528.694,384.329 531.151,380.265 532.293,376.174C 532.884,374.123 533.207,372.057 533.296,370.059C 533.38,368.065 533.118,366.185 532.717,364.455C 532.298,362.728 531.703,361.174 530.951,359.875C 530.188,358.583 529.212,357.577 528.176,356.903C 524.003,354.179 518.193,357.048 514.293,363.867C 510.372,370.725 508.144,381.232 509.725,395.04 Z "/>
				<path fill="#000000" fill-opacity="1" stroke-width="0.2" stroke-linejoin="miter" d="M 492.555,348.243C 492.723,349.577 492.895,350.987 493.173,352.407C 493.708,355.255 494.544,358.229 495.53,361.443C 501.291,358.772 505.525,355.374 508.394,351.522C 511.313,347.664 512.65,343.486 513.034,339.391C 513.781,331.215 509.926,323.859 505.513,322.174C 501.118,320.399 496.21,324.182 493.815,331.346C 492.623,334.909 492.043,339.284 492.215,344.355C 492.266,345.619 492.377,346.906 492.555,348.243 Z "/>
				<path fill="#000000" fill-opacity="1" stroke-width="0.2" stroke-linejoin="miter" d="M 484.812,319.633C 486.706,315.514 487.246,311.274 486.811,307.36C 486.299,303.533 484.839,300.041 482.952,297.416C 480.984,294.87 478.627,293.166 476.427,292.766C 474.26,292.338 472.098,293.315 470.489,295.218C 468.834,297.154 467.742,300.004 467.274,303.611C 466.366,310.859 468.4,320.363 474.767,331.416C 479.614,327.792 482.94,323.744 484.812,319.633 Z "/>
				<path fill="#000000" fill-opacity="1" stroke-width="0.2" stroke-linejoin="miter" d="M 439.041,293.374C 440.076,295.397 441.269,297.611 442.801,299.745C 444.344,301.859 446.065,304.146 448.132,306.4C 451.92,302.023 454.171,297.636 455.129,293.385C 455.597,291.271 455.759,289.182 455.659,287.185C 455.547,285.196 455.124,283.335 454.511,281.583C 453.296,278.076 451.291,275.054 448.934,273.087C 446.617,271.093 444.149,269.873 441.965,270.023C 437.647,270.221 434.929,275.168 435.598,281.954C 435.926,285.316 436.957,289.332 439.041,293.374 Z "/>
				<path fill="#000000" fill-opacity="1" stroke-width="0.2" stroke-linejoin="miter" d="M 402.171,272.325C 403.08,273.985 404.21,275.731 405.576,277.425C 408.344,280.778 411.959,284.294 416.723,287.609C 419.342,282.779 420.533,278.201 420.544,274.06C 420.544,269.971 419.358,266.3 417.537,263.255C 413.848,257.249 407.475,254.023 403.537,255.143C 399.575,256.168 398.06,261.313 400.054,267.522C 400.534,269.076 401.236,270.686 402.171,272.325 Z "/>
				<path fill="#000000" fill-opacity="1" stroke-width="0.2" stroke-linejoin="miter" d="M 407.776,564.055C 407.001,565.421 406.349,567.077 405.888,569.069C 405.447,571.063 405.168,573.35 405.124,575.83C 405.063,580.827 406.015,586.977 409.069,593.802C 409.492,594.729 409.955,595.67 410.461,596.626L 410.929,597.498L 411.714,596.902C 415.67,594.022 418.444,590.671 420.389,587.501C 422.283,584.203 423.291,580.972 423.693,578.013C 424.388,571.91 422.684,566.896 420.522,563.74C 418.845,561.326 416.834,559.819 414.907,559.46C 412.222,559.036 409.548,560.621 407.776,564.055 Z "/>
				<path fill="#000000" fill-opacity="1" stroke-width="0.2" stroke-linejoin="miter" d="M 442.473,546.729C 440.394,544.78 438.21,543.799 436.244,543.83C 433.503,543.917 431.38,546.18 430.238,549.729C 429.397,552.766 429.08,556.69 430.088,561.553C 431.102,566.387 433.185,571.885 437.542,577.721C 438.126,578.507 438.762,579.292 439.447,580.089L 440.083,580.846L 440.751,580.105C 442.366,578.364 443.558,576.42 444.623,574.654C 445.146,573.76 445.614,572.868 446.032,572C 446.417,571.091 446.751,570.195 447.035,569.323C 448.182,565.83 448.544,562.604 448.266,559.621C 447.781,553.743 445.168,549.309 442.473,546.729 Z "/>
				<path fill="#000000" fill-opacity="1" stroke-width="0.2" stroke-linejoin="miter" d="M 465.263,529.434C 463.837,527.573 462.238,526.167 460.723,525.22C 458.372,523.769 456.065,523.264 454.261,523.749C 453.001,524.092 451.87,524.864 451.101,526.055C 450.305,527.229 449.881,528.852 449.642,530.649C 449.313,533.644 449.965,537.616 451.77,541.936C 453.636,546.281 456.833,551.167 462.115,555.771C 462.834,556.398 463.597,557.014 464.399,557.621L 465.191,558.217L 465.653,557.337C 466.739,555.279 467.62,553.298 468.266,551.401C 468.845,549.443 469.247,547.581 469.463,545.818C 469.575,544.941 469.637,544.083 469.669,543.253C 469.669,542.403 469.625,541.582 469.547,540.779C 469.403,539.198 469.124,537.718 468.739,536.348C 467.977,533.626 466.717,531.314 465.263,529.434 Z "/>
				<path fill="#000000" fill-opacity="1" stroke-width="0.2" stroke-linejoin="miter" d="M 481.631,528.971C 482.438,529.415 483.28,529.852 484.155,530.27L 485.063,530.69L 485.352,529.729C 485.686,528.657 485.965,527.615 486.187,526.598C 486.383,525.557 486.527,524.545 486.633,523.565C 486.833,521.61 486.867,519.78 486.745,518.064C 486.376,514.59 485.463,511.64 484.221,509.209C 481.592,504.27 477.714,501.376 474.472,500.167C 471.97,499.245 469.669,499.208 468.021,500.03C 465.781,501.228 464.533,503.975 464.99,507.613C 465.252,510.546 466.528,514.154 469.196,517.96C 471.77,521.705 475.731,525.674 481.631,528.971 Z "/>
				<path fill="#000000" fill-opacity="1" stroke-width="0.2" stroke-linejoin="miter" d="M 497.998,499.328L 498.957,499.554L 499.073,498.563C 499.804,489.844 497.341,483.426 494.004,479.287C 490.578,475.097 486.388,473.078 483.09,472.549C 480.539,472.15 478.343,472.571 476.917,473.685C 475.926,474.462 475.346,475.599 475.102,476.956C 474.812,478.289 474.929,479.856 475.458,481.552C 476.399,484.345 478.138,487.501 481.419,490.602C 484.694,493.691 489.112,496.649 495.346,498.599C 496.199,498.866 497.079,499.106 497.998,499.328 Z "/>
				<path fill="#000000" fill-opacity="1" stroke-width="0.2" stroke-linejoin="miter" d="M 505.324,466.084L 506.311,466.123L 506.204,465.115C 505.208,456.707 501.681,451.086 497.742,447.763C 493.725,444.418 489.391,443.271 486.176,443.387C 483.687,443.471 481.687,444.287 480.55,445.635C 479.742,446.577 479.391,447.786 479.425,449.131C 479.408,450.482 479.804,451.976 480.617,453.49C 482.021,456 484.338,458.694 487.97,461.014C 491.586,463.318 496.477,465.279 502.695,465.914C 503.542,466 504.421,466.056 505.324,466.084 Z "/>
				<path fill="#000000" fill-opacity="1" stroke-width="0.2" stroke-linejoin="miter" d="M 506.555,430.767C 505.247,426.897 503.653,423.763 501.608,421.346C 499.625,418.914 497.575,417.14 495.313,415.934C 490.895,413.521 486.6,413.251 483.581,413.953C 481.241,414.513 479.497,415.658 478.667,417.159C 478.087,418.201 477.959,419.418 478.277,420.682C 478.51,421.964 479.163,423.315 480.216,424.616C 482.003,426.725 484.723,428.853 488.562,430.368C 492.416,431.872 497.38,432.808 503.392,432.226C 504.205,432.142 505.045,432.036 505.898,431.892L 506.873,431.733L 506.555,430.767 Z "/>
				<path fill="#000000" fill-opacity="1" stroke-width="0.2" stroke-linejoin="miter" d="M 497.023,392.412C 495.909,391.106 494.756,389.984 493.608,389.023C 492.456,388.057 491.296,387.26 490.149,386.605C 488.957,385.967 487.771,385.485 486.622,385.12C 482.032,383.666 477.932,384.218 475.224,385.455C 473.118,386.424 471.686,387.856 471.18,389.438C 470.466,391.663 471.681,394.131 474.082,396.232C 476.115,397.92 479.208,399.36 483.057,400.084C 486.951,400.78 491.798,400.705 497.335,399C 498.087,398.772 498.851,398.501 499.63,398.204L 500.561,397.844L 500.054,396.961C 499.09,395.265 498.07,393.744 497.023,392.412 Z "/>
				<path fill="#000000" fill-opacity="1" stroke-width="0.2" stroke-linejoin="miter" d="M 471.893,356.524C 467.353,355.99 463.519,357.349 461.218,359.028C 459.414,360.363 458.394,361.945 458.227,363.547C 457.965,365.811 459.553,367.953 462.305,369.441C 464.495,370.68 467.675,371.455 471.514,371.351C 475.286,371.271 479.792,370.276 484.656,367.594C 485.319,367.22 485.993,366.828 486.667,366.399L 487.491,365.861L 486.833,365.084C 481.892,359.388 476.483,357.009 471.893,356.524 Z "/>
				<path fill="#000000" fill-opacity="1" stroke-width="0.2" stroke-linejoin="miter" d="M 467.313,336.494C 464.366,334.385 461.642,332.889 458.929,332.157C 456.25,331.399 453.792,331.196 451.614,331.38C 447.185,331.839 443.875,333.812 442.06,335.837C 440.617,337.43 439.943,339.166 440.126,340.686C 440.428,342.77 442.216,344.638 445.146,345.455C 447.547,346.101 450.567,346.346 454.16,345.48C 457.742,344.613 461.77,342.789 465.787,339.33C 466.337,338.85 466.89,338.349 467.431,337.809L 468.132,337.112C 468.132,337.112 467.932,336.956 467.731,336.794C 467.531,336.645 467.313,336.494 467.313,336.494 Z "/>
				<path fill="#000000" fill-opacity="1" stroke-width="0.2" stroke-linejoin="miter" d="M 437.647,310.909C 436.177,310.541 434.773,310.316 433.463,310.213C 432.138,310.104 430.901,310.118 429.737,310.232C 428.561,310.383 427.458,310.639 426.451,310.959C 422.4,312.255 419.731,314.723 418.428,316.984C 417.396,318.77 417.118,320.544 417.582,321.953C 418.25,323.942 420.428,325.14 423.274,325.444C 427.937,325.717 435.146,323.683 441.33,315.605C 441.742,315.057 442.149,314.471 442.55,313.862L 443.09,313.029L 442.155,312.6C 440.589,311.881 439.113,311.274 437.647,310.909 Z "/>
				<path fill="#000000" fill-opacity="1" stroke-width="0.2" stroke-linejoin="miter" d="M 403.826,294.121C 401.303,294.517 399.168,295.313 397.431,296.302C 393.943,298.255 391.938,301.182 391.186,303.553C 390.601,305.447 390.717,307.09 391.447,308.346C 392.478,310.093 394.751,310.862 397.52,310.429C 399.726,310.182 402.383,309.132 405.041,307.068C 407.697,304.961 410.288,302.017 412.316,297.592C 412.573,296.993 412.834,296.371 413.085,295.722L 413.436,294.789L 412.438,294.552C 409.196,293.873 406.305,293.823 403.826,294.121 Z "/>
			</g>
			<g>
				<path fill="#000000" fill-opacity="1" stroke-width="0.2" stroke-linejoin="miter" d="M 312.463,292.889C 274.466,292.889 248.556,305.551 231.314,321.715C 228.592,324.268 226.085,326.908 223.782,329.599C 222.246,331.393 220.8,333.209 219.441,335.039C 214.002,342.354 209.941,349.864 207.003,356.884L 207.003,356.884C 207.003,356.884 208.653,356.506 211.414,356.177C 213.562,355.92 216.381,355.692 219.621,355.692C 220.632,355.692 221.686,355.714 222.772,355.765C 223.858,355.815 224.978,355.894 226.123,356.008C 226.695,356.065 227.274,356.13 227.859,356.205C 229.027,356.354 230.217,356.541 231.421,356.771C 234.431,357.348 237.528,358.197 240.591,359.413C 241.817,359.9 243.037,360.445 244.243,361.055C 245.45,361.666 246.643,362.341 247.816,363.087C 247.816,363.087 255.726,343.78 290.394,337.759C 291.582,338.959 292.739,340.235 293.806,341.57C 294.607,342.571 295.357,343.604 296.032,344.664C 296.931,346.077 297.697,347.536 298.271,349.024C 298.701,350.14 299.022,351.272 299.211,352.414C 299.337,353.175 299.403,353.94 299.403,354.707C 299.403,355.639 299.385,356.504 299.35,357.31C 299.281,358.922 299.146,360.302 298.963,361.516C 298.917,361.821 298.869,362.115 298.818,362.399C 298.715,362.968 298.601,363.501 298.479,364.005C 298.418,364.257 298.354,364.503 298.289,364.742C 298.159,365.222 298.021,365.677 297.877,366.119C 297.59,367.001 297.281,367.825 296.968,368.661C 295.705,372.037 294.397,375.528 294.397,382.786C 294.397,386.063 294.661,389.641 295.068,393.214C 295.272,395.001 295.512,396.786 295.772,398.531C 296.033,400.277 296.314,401.982 296.602,403.61C 293.699,404.249 290.874,405.054 288.139,406.003C 284.493,407.269 281.007,408.79 277.713,410.51C 275.241,411.8 272.877,413.202 270.632,414.692C 269.135,415.686 267.692,416.719 266.305,417.784C 264.918,418.849 263.588,419.947 262.319,421.07C 251.529,430.613 245.106,441.979 245.315,450.862C 245.328,451.385 245.363,451.899 245.421,452.403C 245.625,454.158 245.711,456.308 245.698,458.766C 245.686,461.223 245.575,463.99 245.386,466.982C 245.323,467.98 245.251,469.001 245.172,470.045C 245.014,472.133 244.823,474.307 244.608,476.543C 242.126,502.261 236.279,536.151 236.279,539.906C 236.279,540.885 236.527,541.722 236.931,542.435C 237.199,542.91 237.537,543.331 237.916,543.701C 238.105,543.887 238.305,544.06 238.512,544.221C 238.925,544.545 239.367,544.821 239.807,545.057C 240.469,545.41 241.13,545.673 241.698,545.862C 242.078,545.987 242.415,546.081 242.684,546.148C 243.087,546.249 243.334,546.29 243.334,546.29C 243.334,546.29 241.286,558.843 241.286,569.291C 241.286,571.354 243.239,572.229 246.558,572.229C 247.822,572.229 249.285,572.102 250.915,571.866C 252,571.708 253.161,571.501 254.385,571.251C 255.61,571.001 256.898,570.708 258.241,570.375C 261.599,569.545 265.298,568.474 269.19,567.243C 269.968,566.996 270.754,566.744 271.547,566.486C 273.131,565.969 274.742,565.429 276.37,564.871C 277.997,564.313 279.64,563.738 281.29,563.149C 292.016,559.325 303.027,554.96 311.689,551.465C 313.022,550.927 314.298,550.41 315.511,549.919C 315.511,549.919 353.384,549.919 376.893,549.919L 376.893,549.919C 385.708,549.919 389.32,547.715 390.139,544.225C 390.208,543.935 390.256,543.635 390.287,543.327C 390.349,542.71 390.338,542.061 390.267,541.382C 389.662,535.609 384.661,527.717 382.117,520.316C 377.328,506.385 379.07,479.394 379.07,479.394C 379.07,479.394 379.282,478.937 379.609,478.086C 379.74,477.746 379.889,477.343 380.05,476.88C 380.131,476.649 380.215,476.403 380.301,476.143C 380.473,475.623 380.653,475.046 380.836,474.415C 381.111,473.47 381.393,472.405 381.659,471.235C 382.456,467.725 383.116,463.266 383.069,458.227C 383.017,452.626 382.09,446.309 379.505,439.779C 374.682,427.594 365.71,416.743 351.387,409.814C 347.48,407.924 343.176,406.326 338.449,405.072C 335.297,404.236 331.958,403.553 328.424,403.038C 329.534,396.648 330.529,389.15 330.529,382.786C 330.529,375.528 329.222,372.037 327.958,368.661C 327.645,367.825 327.336,367.001 327.049,366.119C 326.906,365.677 326.768,365.222 326.637,364.742C 326.572,364.503 326.509,364.257 326.448,364.005C 325.897,361.734 325.523,358.9 325.523,354.707C 325.523,351.705 326.546,348.73 328.15,345.911C 329.152,344.149 330.38,342.448 331.727,340.84C 332.266,340.196 332.824,339.568 333.394,338.955C 333.679,338.65 333.966,338.348 334.256,338.051C 363.17,343.784 383.285,361.313 392.313,387.314C 393.098,389.575 393.799,391.901 394.415,394.288C 394.723,395.481 395.009,396.69 395.274,397.914C 396.865,405.259 397.68,413.151 397.68,421.531C 397.68,434.591 397.272,447.304 397.058,459.431C 397.004,462.462 396.962,465.457 396.943,468.411C 396.933,469.888 396.928,471.356 396.93,472.813C 396.932,474.269 396.941,475.715 396.957,477.15C 397.282,505.85 400.7,530.133 416.618,546.254C 416.618,546.254 414.087,539.316 412.046,528.42C 411.409,525.014 410.819,521.222 410.369,517.135C 410.279,516.316 410.194,515.487 410.117,514.647C 409.804,511.285 409.593,507.746 409.531,504.075C 409.485,501.323 409.521,498.496 409.662,495.615C 409.755,493.695 409.896,491.75 410.086,489.788C 410.183,488.806 410.292,487.821 410.414,486.831C 414.332,455.16 442.294,292.889 312.463,292.889 Z M 408.073,463.483C 407.776,466.222 407.471,468.814 407.173,471.236C 406.874,473.658 406.582,475.911 406.31,477.972C 406.173,479.003 406.042,479.987 405.918,480.92C 405.758,482.116 405.612,483.212 405.48,484.224C 405.417,483.434 405.335,482.637 405.283,481.855C 405.128,479.981 405.039,478.136 404.951,476.347C 404.843,474.558 404.801,472.828 404.761,471.185C 404.707,469.542 404.677,467.987 404.692,466.552C 404.693,465.834 404.694,465.145 404.695,464.49C 404.696,463.836 404.697,463.214 404.698,462.63C 404.732,461.463 404.762,460.445 404.786,459.607C 404.835,457.927 404.863,456.967 404.863,456.967C 404.863,456.967 404.713,457.916 404.451,459.575C 404.32,460.406 404.16,461.416 403.978,462.573C 403.827,463.736 403.656,465.048 403.469,466.479C 403.271,467.911 403.102,469.467 402.944,471.115C 402.774,472.763 402.593,474.504 402.472,476.309C 402.385,477.424 402.3,478.568 402.224,479.724C 402.177,477.244 402.157,474.727 402.156,472.176C 402.154,464.521 402.33,456.558 402.512,448.365C 402.705,439.676 402.904,430.69 402.904,421.531C 402.904,420.362 402.883,419.205 402.848,418.057C 402.812,416.91 402.761,415.773 402.702,414.641C 402.977,415.613 403.22,416.474 403.417,417.167C 403.533,417.56 403.635,417.906 403.724,418.205C 403.989,419.101 404.128,419.572 404.128,419.572C 404.128,419.572 404.131,419.354 404.137,418.931C 404.14,418.72 404.143,418.458 404.147,418.147C 404.151,417.835 404.156,417.474 404.162,417.066C 404.157,415.841 404.187,414.179 404.118,412.139C 404.096,411.459 404.062,410.737 404.013,409.975C 403.957,408.444 403.839,406.754 403.683,404.911C 403.628,403.986 403.539,403.028 403.428,402.034C 403.317,401.042 403.186,400.014 403.047,398.951C 402.914,397.887 402.76,396.79 402.583,395.662C 402.228,393.407 401.783,391.028 401.236,388.542C 400.963,387.299 400.665,386.03 400.34,384.735C 399.042,379.559 397.232,374.001 394.697,368.307C 392.146,362.632 388.915,356.771 384.644,351.273C 383.579,349.9 382.466,348.536 381.294,347.205C 380.122,345.874 378.89,344.573 377.584,343.326C 376.955,342.678 376.294,342.059 375.619,341.451C 374.943,340.843 374.253,340.246 373.564,339.642C 372.175,338.452 370.68,337.374 369.211,336.252C 363.203,331.938 356.437,328.513 349.429,326.036C 347.668,325.439 345.895,324.896 344.115,324.405C 340.553,323.424 336.96,322.656 333.377,322.09C 331.585,321.807 329.796,321.575 328.014,321.392C 326.233,321.16 324.459,321.085 322.694,320.948C 320.931,320.832 319.114,320.83 317.347,320.771C 315.586,320.735 314.002,320.792 312.339,320.798L 311.724,320.804L 311.465,320.805L 311.307,320.813L 310.989,320.829L 309.722,320.891C 308.879,320.934 308.041,320.976 307.205,321.019C 300.516,321.436 294.05,322.296 288.005,323.631C 284.984,324.306 282.066,325.085 279.284,325.966C 276.508,326.888 273.853,327.855 271.366,328.943C 270.124,329.489 268.92,330.057 267.76,330.642C 264.281,332.396 261.186,334.305 258.537,336.269C 256.763,337.572 255.195,338.899 253.814,340.194C 252.434,341.488 251.241,342.75 250.22,343.924C 248.149,346.253 246.856,348.331 245.984,349.717C 245.131,351.128 244.756,351.912 244.756,351.912C 244.756,351.912 245.105,351.561 245.779,350.921C 246.004,350.708 246.265,350.463 246.561,350.188C 247.737,349.078 249.56,347.56 251.958,345.828C 253.159,344.964 254.533,344.08 256.063,343.195C 257.594,342.31 259.283,341.427 261.113,340.564C 264.782,338.849 269.067,337.29 273.854,336.038C 276.024,335.474 278.31,334.983 280.672,334.549C 271.775,336.926 264.856,340.181 259.521,343.599C 252.663,347.994 248.42,352.659 245.952,356.074C 238.91,352.653 231.596,351.21 225.396,350.702C 223.33,350.533 221.388,350.468 219.621,350.468C 218.945,350.468 218.285,350.477 217.645,350.494C 217.004,350.511 216.381,350.536 215.78,350.567C 219.492,343.604 224.721,335.788 232,328.35C 235.31,324.969 239.042,321.667 243.248,318.558C 261.602,304.992 284.889,298.113 312.463,298.113C 342.881,298.113 366.512,307.488 382.697,325.976C 387.743,331.739 392.108,338.405 395.786,345.951C 397.257,348.969 398.618,352.127 399.868,355.426C 401.744,360.373 403.372,365.633 404.748,371.201C 406.583,378.627 407.974,386.599 408.916,395.107C 409.386,399.361 409.745,403.75 409.991,408.27C 410.397,415.752 410.47,423.101 410.32,430.148C 410.246,433.672 410.115,437.121 409.942,440.473C 409.769,443.825 409.554,447.081 409.311,450.219C 408.946,454.928 408.518,459.372 408.073,463.483 Z M 384.771,540.753C 384.423,540.72 383.576,540.643 382.351,540.539C 381.936,540.525 381.483,540.496 380.991,540.469C 380.499,540.442 379.967,540.419 379.394,540.417C 378.257,540.381 376.97,540.396 375.571,540.395C 374.869,540.409 374.137,540.424 373.38,540.44C 371.867,540.472 370.25,540.506 368.56,540.541C 367.715,540.558 366.853,540.576 365.974,540.594C 364.213,540.615 362.393,540.693 360.537,540.689C 358.683,540.712 356.796,540.692 354.908,540.677C 353.018,540.621 351.129,540.565 349.27,540.51C 347.654,540.456 346.071,540.344 344.52,540.236C 344.003,540.219 343.488,540.2 342.979,540.18L 340.379,524.39L 339.711,540.04C 328.718,539.514 320.042,538.597 316.134,538.135L 311.562,516.038L 311.714,537.487L 305.636,507.926L 305.923,542.325C 299.792,545.648 290.685,550.327 280.617,554.648L 276.385,540.769L 276.801,556.25C 275.658,556.718 274.505,557.178 273.347,557.629C 267.557,559.884 261.625,561.893 255.899,563.365C 253.608,563.955 251.351,564.457 249.148,564.855C 249.23,564.145 249.327,563.317 249.436,562.399C 249.653,560.563 249.918,558.371 250.21,556.06C 250.356,554.904 250.509,553.718 250.667,552.532C 250.913,550.663 251.168,548.795 251.418,547.044C 251.668,545.294 251.913,543.661 252.135,542.264C 252.301,541.216 252.455,540.3 252.582,539.564C 252.793,538.339 252.931,537.613 252.931,537.613C 252.931,537.613 252.341,539.407 251.539,542.129C 250.733,544.85 249.719,548.495 248.745,552.151C 248.162,554.332 247.593,556.513 247.082,558.506C 247.481,554.22 247.991,550.488 248.275,548.548C 248.404,547.666 248.487,547.155 248.491,547.13L 249.097,543.609C 249.203,543.081 249.31,542.551 249.418,542.021C 249.635,540.96 249.857,539.899 250.078,538.856C 250.962,534.685 251.838,530.809 252.382,528.443C 252.518,527.852 252.633,527.355 252.722,526.971C 252.855,526.396 252.931,526.077 252.931,526.077L 245.891,541.416L 244.229,541.143C 243.802,541.064 243.354,540.925 242.945,540.761C 242.808,540.706 242.676,540.648 242.55,540.59C 242.299,540.472 242.075,540.348 241.895,540.23C 241.714,540.112 241.578,539.999 241.504,539.902C 241.544,538.536 242.592,531.423 243.607,524.542C 244.061,521.46 244.559,518.085 245.073,514.523C 246.103,507.398 247.202,499.521 248.166,491.721C 248.327,490.422 248.484,489.124 248.635,487.832C 249.245,482.666 249.777,477.595 250.175,472.866C 250.374,470.502 250.538,468.223 250.661,466.061C 251.636,466.967 252.717,467.851 253.8,468.83C 254.382,469.313 254.991,469.804 255.602,470.295L 253.802,489.726L 259.718,473.457C 261.004,474.401 262.31,475.356 263.684,476.257C 265.459,477.493 267.317,478.656 269.168,479.82C 271.027,480.973 272.913,482.076 274.774,483.145C 275.713,483.666 276.641,484.186 277.562,484.692C 278.483,485.198 279.397,485.689 280.307,486.151C 282.106,487.112 283.881,487.971 285.559,488.789C 287.236,489.611 288.857,490.314 290.332,490.997C 291.826,491.646 293.203,492.219 294.429,492.711C 295.042,492.957 295.617,493.182 296.15,493.388C 296.683,493.593 297.174,493.778 297.619,493.941C 298.513,494.25 299.215,494.493 299.695,494.659C 300.174,494.825 300.43,494.913 300.43,494.913C 300.43,494.913 300.186,494.797 299.73,494.578C 299.273,494.36 298.604,494.04 297.751,493.632C 296.063,492.784 293.684,491.519 290.888,489.906C 290.197,489.486 289.474,489.058 288.729,488.61C 287.983,488.163 287.216,487.696 286.437,487.198C 284.878,486.204 283.234,485.165 281.577,484.021C 279.897,482.914 278.215,481.69 276.5,480.466C 274.802,479.216 273.089,477.933 271.415,476.609C 269.746,475.275 268.079,473.948 266.507,472.564C 264.897,471.225 263.41,469.809 261.95,468.469C 260.519,467.103 259.176,465.748 257.93,464.452C 257.635,464.116 257.337,463.788 257.043,463.467C 256.159,462.505 255.301,461.601 254.603,460.679C 253.88,459.778 253.172,458.936 252.604,458.163C 252.415,457.906 252.241,457.656 252.086,457.415C 251.642,456.75 251.236,456.22 250.872,455.678C 250.826,454.255 250.744,452.946 250.611,451.8C 250.569,451.443 250.544,451.075 250.537,450.698C 250.515,449.569 250.645,448.358 250.917,447.088C 251.007,446.664 251.114,446.234 251.236,445.798C 252.578,441.001 255.79,435.494 260.397,430.32C 261.446,429.141 262.614,427.955 263.854,426.774C 264.033,427.03 264.225,427.302 264.428,427.588C 265.041,428.446 265.766,429.433 266.608,430.512C 266.953,430.961 267.317,431.427 267.697,431.904C 268.458,432.858 269.285,433.863 270.167,434.896C 270.607,435.413 271.062,435.937 271.529,436.466C 273.394,438.58 275.446,440.772 277.589,442.866C 278.635,443.937 279.757,444.933 280.827,445.942C 281.889,446.959 283.02,447.871 284.065,448.799C 284.584,449.266 285.117,449.702 285.643,450.122C 286.169,450.543 286.689,450.948 287.182,451.355C 288.167,452.17 289.144,452.887 290.045,453.546C 290.497,453.875 290.923,454.196 291.331,454.498C 291.739,454.8 292.128,455.084 292.503,455.338C 293.254,455.843 293.909,456.283 294.448,456.646C 294.716,456.827 294.957,456.989 295.166,457.129C 295.792,457.551 296.138,457.784 296.138,457.784C 296.138,457.784 295.573,457.304 294.583,456.466C 294.335,456.257 294.062,456.026 293.764,455.774C 293.467,455.522 293.145,455.25 292.801,454.958C 292.458,454.667 292.104,454.343 291.733,453.999C 291.363,453.655 290.975,453.291 290.566,452.918C 290.158,452.544 289.734,452.155 289.301,451.744C 288.868,451.335 288.427,450.904 287.986,450.448C 287.544,449.993 287.078,449.539 286.608,449.07C 286.138,448.601 285.664,448.117 285.204,447.601C 284.278,446.575 283.274,445.567 282.345,444.455C 281.408,443.353 280.425,442.265 279.521,441.107C 277.662,438.841 275.907,436.494 274.333,434.254C 272.756,432.014 271.366,429.875 270.238,428.012C 269.093,426.157 268.229,424.571 267.62,423.448C 270.841,420.804 274.516,418.271 278.576,416.022C 280.201,415.123 281.887,414.268 283.631,413.471C 284.502,413.073 285.389,412.688 286.29,412.32C 288.99,411.214 291.816,410.248 294.751,409.46C 299.645,408.148 304.846,407.331 310.288,407.185L 313.303,437.051L 316.317,407.209C 317.415,407.246 318.499,407.295 319.559,407.362C 332.223,409.847 343.867,416.853 352.394,426.396C 352.309,426.581 352.225,426.765 352.143,426.955C 351.892,427.521 351.592,428.08 351.312,428.655C 350.134,430.922 348.707,433.122 347.563,434.732C 346.991,435.537 346.49,436.195 346.132,436.651C 345.774,437.106 345.559,437.362 345.559,437.362C 345.559,437.362 346.728,436.725 348.411,435.615C 350.093,434.506 352.294,432.925 354.375,431.097C 354.732,430.768 355.092,430.439 355.45,430.107C 356.459,431.437 357.411,432.804 358.3,434.207C 360.522,437.712 362.352,441.433 363.713,445.302C 363.986,446.076 364.24,446.856 364.474,447.641C 363.968,448.308 363.332,449.008 362.71,449.763C 362.04,450.604 361.208,451.392 360.406,452.265C 359.612,453.146 358.678,453.954 357.784,454.837C 356.877,455.708 355.889,456.527 354.932,457.386C 353.947,458.213 352.948,459.029 351.948,459.817C 350.947,460.605 349.946,461.364 348.959,462.076C 348.469,462.438 347.982,462.788 347.502,463.126C 346.063,464.141 344.686,465.052 343.453,465.852C 341.393,467.179 339.713,468.16 338.744,468.709C 338.162,469.039 337.835,469.213 337.835,469.213C 337.835,469.213 340.344,468.429 344.015,466.94C 344.473,466.752 344.95,466.555 345.443,466.348C 346.428,465.934 347.478,465.481 348.566,464.985C 349.11,464.737 349.664,464.478 350.225,464.208C 352.479,463.151 354.838,461.91 357.177,460.597C 357.75,460.251 358.331,459.914 358.908,459.574C 359.485,459.233 360.057,458.888 360.614,458.525C 361.166,458.155 361.725,457.804 362.274,457.449C 362.824,457.094 363.362,456.735 363.872,456.35C 364.607,455.803 365.332,455.292 366.026,454.768C 366.176,455.832 366.294,456.901 366.375,457.975C 366.456,459.05 366.5,460.129 366.5,461.212C 366.5,467.345 365.837,472.394 364.795,476.543C 364.379,478.203 363.901,479.719 363.381,481.103C 363.122,481.794 362.851,482.453 362.572,483.08C 363.129,482.753 363.678,482.433 364.218,482.119C 365.836,481.179 367.365,480.306 368.744,479.524C 372.997,477.101 375.914,475.578 375.914,475.578C 375.914,475.578 375.574,475.893 374.942,476.444C 373.889,477.361 372.025,478.93 369.569,480.776C 368.593,481.524 367.521,482.313 366.375,483.13C 365.229,483.947 364.009,484.791 362.736,485.649C 362.093,486.068 361.446,486.504 360.788,486.942C 360.13,487.379 359.46,487.816 358.772,488.234C 357.398,489.078 356.004,489.935 354.608,490.792C 351.778,492.44 348.933,494.065 346.188,495.45C 344.835,496.176 343.494,496.816 342.22,497.418C 341.502,497.766 340.81,498.089 340.133,498.397C 339.905,498.517 339.67,498.638 339.444,498.758C 337.84,499.623 336.25,500.377 334.757,501.127C 334.011,501.505 333.281,501.863 332.571,502.201C 331.862,502.541 331.173,502.861 330.509,503.164C 329.191,503.791 327.973,504.346 326.889,504.828C 325.804,505.31 324.853,505.718 324.068,506.052C 322.501,506.727 321.605,507.114 321.605,507.114C 321.605,507.114 322.536,506.823 324.165,506.314C 324.982,506.064 325.973,505.757 327.104,505.39C 327.671,505.207 328.272,505.009 328.905,504.796C 329.538,504.582 330.201,504.354 330.892,504.11C 331.588,503.876 332.311,503.628 333.056,503.364C 333.801,503.099 334.569,502.819 335.354,502.519C 336.14,502.222 336.952,501.927 337.78,501.618C 338.607,501.31 339.451,500.987 340.299,500.639C 342,499.951 343.78,499.279 345.547,498.51C 347.323,497.754 349.137,497.004 350.92,496.188C 353.797,494.923 356.635,493.584 359.352,492.261C 359.289,493.011 359.218,493.902 359.147,494.91C 358.117,495.432 357.026,495.979 355.9,496.535C 354.775,497.091 353.616,497.656 352.453,498.216C 347.491,500.619 342.436,502.853 339.761,504.015C 338.546,504.543 337.822,504.85 337.822,504.85C 337.822,504.85 338.311,504.731 339.165,504.517C 339.592,504.41 340.111,504.28 340.705,504.128C 342.786,503.598 345.796,502.812 349.077,501.895C 350.482,501.502 351.937,501.086 353.389,500.654C 354.329,500.378 355.267,500.099 356.19,499.819C 357.114,499.539 358.023,499.26 358.905,498.986C 358.86,499.903 358.82,500.864 358.789,501.852C 358.564,508.776 358.724,517.136 360.296,522.594C 361.345,526.239 363.271,529.439 364.761,532.084C 364.926,532.378 365.086,532.665 365.24,532.944C 365.699,533.785 366.093,534.562 366.374,535.272C 366.467,535.509 366.548,535.738 366.615,535.96C 366.748,536.403 366.824,536.816 366.828,537.197C 368.319,537.286 369.776,537.413 371.16,537.554C 372.788,537.699 374.329,537.92 375.746,538.152C 376.454,538.276 377.131,538.395 377.776,538.507C 378.417,538.656 379.025,538.798 379.595,538.931C 380.737,539.164 381.709,539.537 382.507,539.775C 383.306,540.029 383.904,540.335 384.319,540.494C 384.729,540.674 384.946,540.769 384.771,540.753 Z M 300.291,375.476C 300.496,374.535 300.738,373.691 301.004,372.881C 301.271,372.071 301.561,371.296 301.861,370.494C 303.158,367.031 304.627,363.109 304.627,354.707C 304.627,349.437 302.301,344.417 299.099,339.984C 299.908,339.932 300.726,339.901 301.549,339.888C 301.664,340.064 301.783,340.249 301.907,340.446C 302.433,341.271 303.009,342.244 303.526,343.335C 303.788,343.879 304.037,344.452 304.267,345.048C 304.498,345.643 304.711,346.26 304.901,346.89C 305.642,349.413 306.043,352.1 306.285,354.115C 306.438,355.378 306.539,356.382 306.593,356.957C 306.625,357.302 306.641,357.493 306.641,357.493C 306.641,357.493 306.693,356.965 306.762,356.069C 306.804,355.532 306.852,354.863 306.897,354.096C 306.928,353.586 306.957,353.031 306.979,352.443C 307.044,350.678 307.043,348.609 306.822,346.507C 306.744,345.808 306.637,345.107 306.505,344.419C 306.374,343.731 306.217,343.056 306.039,342.408C 305.797,341.511 305.516,340.704 305.233,339.947C 308.801,340.107 312.33,340.544 315.464,341.057C 315.09,342.928 314.837,345.086 314.685,347.395C 314.481,350.472 314.456,353.815 314.56,357.101C 314.613,358.743 314.698,360.372 314.81,361.945C 314.921,363.517 315.06,365.035 315.219,366.456C 315.617,370.011 316.144,372.967 316.708,374.688C 316.941,375.401 317.111,376.197 317.226,377.067C 317.516,379.241 317.464,381.869 317.212,384.766C 316.757,389.982 315.646,396.068 314.681,401.941C 313.803,401.923 312.925,401.905 312.028,401.905C 310.166,401.905 308.331,402 306.511,402.142C 306.346,401.566 306.109,400.738 305.824,399.74C 305.277,397.755 304.587,395.093 303.979,392.411C 303.826,391.74 303.679,391.069 303.541,390.406C 303.125,388.418 302.782,386.513 302.574,384.978C 302.433,383.955 302.348,383.097 302.297,382.495C 302.248,381.892 302.233,381.545 302.233,381.545C 302.233,381.545 302.045,382.918 301.962,385.007C 301.918,386.051 301.904,387.271 301.917,388.578C 301.931,389.885 301.972,391.279 302.038,392.672C 302.101,394.065 302.187,395.457 302.28,396.762C 302.374,398.067 302.475,399.284 302.571,400.328C 302.615,400.766 302.657,401.171 302.694,401.538C 302.731,401.906 302.765,402.237 302.795,402.528C 302.447,402.573 302.096,402.609 301.75,402.659C 300.639,396.367 299.621,388.925 299.621,382.786C 299.621,379.631 299.881,377.36 300.291,375.476 Z "/>
				<path fill="#3F3F3F" fill-opacity="1" stroke-width="0.2" stroke-linejoin="miter" d="M 300.078,491.066C 301.179,491.525 302.257,491.975 303.306,492.412C 304.354,492.846 305.374,493.268 306.36,493.676C 307.366,494.036 308.356,494.338 309.294,494.652C 310.236,494.96 311.136,495.255 311.996,495.526C 312.854,495.797 313.671,496.044 314.444,496.257C 316.008,496.637 317.38,496.927 318.503,497.173C 319.066,497.293 319.569,497.398 320.005,497.488C 320.224,497.532 320.427,497.573 320.612,497.611C 321.538,497.797 322.041,497.888 322.041,497.888C 322.041,497.888 321.366,497.574 320.143,497.032C 319.735,496.852 319.266,496.645 318.742,496.418C 317.69,495.968 316.42,495.413 314.955,494.823C 313.526,494.141 311.914,493.373 310.155,492.535C 309.279,492.115 308.356,491.706 307.424,491.234C 306.5,490.745 305.544,490.24 304.562,489.72C 303.577,489.208 302.568,488.681 301.545,488.127C 300.523,487.573 299.486,486.992 298.447,486.372C 297.401,485.77 296.337,485.157 295.26,484.536C 294.184,483.917 293.148,483.196 292.06,482.548C 290.983,481.879 289.898,481.204 288.809,480.527C 287.751,479.802 286.689,479.073 285.626,478.345C 283.453,476.959 281.381,475.425 279.329,473.93C 278.297,473.192 277.291,472.435 276.3,471.681C 275.31,470.926 274.334,470.175 273.364,469.449C 272.435,468.676 271.498,467.939 270.582,467.216C 269.666,466.493 268.77,465.783 267.922,465.064C 266.225,463.627 264.586,462.299 263.126,461.011C 260.175,458.47 257.766,456.278 256.083,454.729C 255.664,454.339 255.29,453.99 254.964,453.688C 254.638,453.385 254.361,453.127 254.137,452.918C 253.915,452.704 253.745,452.541 253.456,452.263C 253.456,452.263 253.635,452.539 253.971,453.054C 254.312,453.568 254.809,454.328 255.494,455.251C 255.833,455.717 256.214,456.228 256.636,456.779C 257.058,457.33 257.521,457.921 258.026,458.544C 259.05,459.776 260.184,461.195 261.534,462.634C 262.84,464.119 264.32,465.666 265.934,467.256C 267.529,468.866 269.291,470.483 271.13,472.137C 272.075,472.937 273.035,473.75 274.006,474.573C 274.489,474.99 274.977,475.405 275.478,475.811C 275.978,476.217 276.489,476.614 277.017,476.994C 279.091,478.562 281.188,480.172 283.392,481.635C 284.495,482.364 285.597,483.093 286.696,483.82C 287.827,484.495 288.954,485.168 290.072,485.836C 291.17,486.535 292.3,487.161 293.431,487.753C 294.562,488.345 295.694,488.902 296.798,489.465C 297.357,489.735 297.899,490.024 298.44,490.301C 298.981,490.578 299.522,490.844 300.078,491.066 Z "/>
				<path fill="#3F3F3F" fill-opacity="1" stroke-width="0.2" stroke-linejoin="miter" d="M 255.317,491.715C 255.713,491.667 256.284,491.642 257.008,491.606C 257.821,491.585 258.845,491.602 259.986,491.703C 259.302,491.882 258.666,492.128 258.085,492.434C 256.925,493.047 255.991,493.903 255.366,494.951C 255.208,495.213 255.072,495.487 254.955,495.772C 254.837,496.057 254.742,496.354 254.667,496.661C 254.377,497.853 254.021,499.367 253.667,500.895C 252.886,504.257 252.113,507.685 252.067,507.892L 251.1,512.184L 255.475,512.649C 255.565,512.659 256.389,512.742 257.604,512.742C 257.758,512.742 257.905,512.732 258.058,512.73C 256.94,512.997 255.894,513.212 254.953,513.384C 254.013,513.556 253.178,513.687 252.484,513.787C 251.396,513.94 250.646,514.028 250.334,514.127C 250.631,514.216 251.365,514.417 252.47,514.606C 253.939,514.854 256.079,515.129 258.682,514.985C 259.987,514.934 261.404,514.763 262.895,514.419C 264.017,514.175 265.181,513.826 266.346,513.322C 266.734,513.153 267.122,512.968 267.508,512.763C 267.893,512.559 268.275,512.335 268.653,512.091C 269.785,511.358 270.87,510.445 271.792,509.331C 273.031,507.845 273.921,506.077 274.385,504.106C 274.704,502.807 274.873,501.347 274.781,499.882C 274.75,499.393 274.691,498.904 274.598,498.42C 274.222,496.479 273.244,494.603 271.871,493.31C 271.535,492.977 271.181,492.678 270.817,492.41C 269.726,491.606 268.539,491.072 267.414,490.694C 266.659,490.432 265.913,490.267 265.189,490.159C 264.465,490.052 263.765,490.002 263.103,489.969C 260.435,489.881 258.298,490.407 256.875,490.868C 256.518,490.989 256.204,491.107 255.933,491.214C 255.124,491.537 254.71,491.776 254.71,491.776C 254.71,491.776 254.922,491.755 255.317,491.715 Z M 268.917,502.136C 267.895,508.108 260.902,508.825 257.604,508.825C 256.562,508.825 255.889,508.753 255.889,508.753C 255.889,508.753 257.543,501.412 258.474,497.587C 258.835,496.101 260.694,495.27 262.753,495.27C 265.997,495.27 269.738,497.33 268.917,502.136 Z "/>
				<path fill="#3F3F3F" fill-opacity="1" stroke-width="0.2" stroke-linejoin="miter" d="M 402.909,385.891C 403.66,389.593 404.27,393.196 404.772,396.667C 405.502,401.879 406.002,406.796 406.341,411.336C 406.455,412.85 406.549,414.321 406.629,415.748C 406.95,421.457 406.982,426.449 406.937,430.56C 406.913,432.101 406.882,433.519 406.847,434.805C 406.788,436.95 406.716,438.729 406.644,440.105C 406.581,441.206 406.533,442.051 406.5,442.62C 406.468,443.189 406.451,443.483 406.451,443.483C 406.451,443.483 406.531,442.826 406.684,441.573C 406.735,441.155 406.794,440.671 406.862,440.124C 406.986,439.027 407.139,437.673 407.29,436.078C 407.441,434.484 407.591,432.648 407.71,430.589C 407.893,427.5 408.056,423.909 408.107,419.878C 408.125,418.534 408.128,417.142 408.117,415.702C 408.11,412.824 408.028,409.76 407.853,406.532C 407.678,403.305 407.409,399.915 407.027,396.384C 406.281,389.323 405.025,381.703 403.031,373.782C 401.047,365.864 398.289,357.635 394.37,349.569C 391.45,343.525 387.886,337.549 383.552,332.015C 382.108,330.171 380.578,328.375 378.958,326.643C 378.156,325.772 377.332,324.917 376.488,324.08C 374.798,322.405 373.027,320.799 371.18,319.273C 367.487,316.221 363.497,313.489 359.273,311.167C 358.217,310.586 357.147,310.032 356.063,309.504C 351.74,307.371 347.235,305.637 342.645,304.283C 338.054,302.929 333.376,301.955 328.708,301.34C 325.203,300.875 321.704,300.592 318.233,300.457C 317.076,300.412 315.921,300.384 314.772,300.37C 312.463,300.321 310.17,300.399 307.95,300.442C 305.681,300.56 303.411,300.63 301.196,300.851C 296.75,301.213 292.396,301.802 288.172,302.588C 283.949,303.375 279.856,304.36 275.932,305.514C 273.973,306.105 272.058,306.74 270.189,307.417C 264.582,309.445 259.399,311.835 254.748,314.474C 251.634,316.217 248.766,318.076 246.135,319.976C 243.504,321.876 241.109,323.816 238.942,325.719C 236.773,327.629 234.841,329.516 233.124,331.325C 231.406,333.134 229.902,334.865 228.59,336.46C 225.986,339.673 224.175,342.37 222.989,344.231C 222.395,345.162 221.95,345.882 221.654,346.37C 221.358,346.857 221.211,347.112 221.211,347.112C 221.211,347.112 221.855,346.125 223.14,344.334C 223.458,343.884 223.82,343.387 224.226,342.846C 225.04,341.762 226.031,340.504 227.204,339.102C 227.79,338.4 228.422,337.663 229.101,336.894C 231.83,333.833 235.335,330.277 239.76,326.685C 241.968,324.886 244.405,323.081 247.064,321.321C 249.724,319.561 252.605,317.846 255.704,316.23C 257.246,315.41 258.845,314.621 260.496,313.865C 263.799,312.354 267.312,310.977 271,309.76C 280.221,306.718 290.541,304.674 301.432,304.014C 303.613,303.85 305.792,303.795 307.998,303.71C 310.257,303.697 312.477,303.646 314.708,303.73C 316.946,303.791 319.195,303.91 321.447,304.098C 323.7,304.285 325.956,304.541 328.207,304.875C 337.208,306.196 346.178,308.744 354.395,312.871C 357.477,314.409 360.454,316.151 363.296,318.079C 368.033,321.291 372.396,325.017 376.248,329.167C 377.022,329.993 377.777,330.834 378.513,331.688C 379.986,333.397 381.38,335.159 382.702,336.964C 383.363,337.866 384.004,338.778 384.629,339.699C 385.878,341.542 387.056,343.42 388.166,345.321C 388.721,346.272 389.259,347.229 389.78,348.19C 390.302,349.15 390.807,350.115 391.296,351.083C 391.784,352.053 392.255,353.027 392.71,354.003C 395.896,360.838 398.298,367.791 400.195,374.533C 401.264,378.393 402.157,382.191 402.909,385.891 Z "/>
				<path fill="#3F3F3F" fill-opacity="1" stroke-width="0.2" stroke-linejoin="miter" d="M 329.406,308.065C 329.193,308.023 328.967,307.979 328.729,307.933C 327.77,307.762 326.605,307.556 325.27,307.318C 323.935,307.053 322.409,306.939 320.749,306.753C 320.333,306.715 319.909,306.669 319.476,306.621C 318.178,306.477 316.807,306.314 315.37,306.292C 313.456,306.221 311.433,306.09 309.341,306.091C 307.25,306.145 305.083,306.124 302.888,306.243C 300.696,306.425 298.462,306.541 296.242,306.785C 295.135,306.945 294.025,307.077 292.921,307.219C 291.818,307.363 290.72,307.519 289.64,307.729C 287.468,308.084 285.347,308.52 283.309,309.007C 281.258,309.43 279.316,310.022 277.469,310.536C 275.628,311.076 273.906,311.65 272.332,312.218C 271.544,312.501 270.793,312.782 270.083,313.06C 269.374,313.338 268.705,313.613 268.081,313.885C 266.821,314.391 265.762,314.932 264.879,315.34C 264.006,315.775 263.332,316.138 262.875,316.391C 262.419,316.645 262.182,316.789 262.182,316.789C 262.182,316.789 263.228,316.407 265.072,315.819C 266.002,315.543 267.117,315.181 268.415,314.823C 269.704,314.439 271.175,314.069 272.77,313.644C 274.371,313.239 276.116,312.841 277.955,312.417C 279.806,312.033 281.75,311.608 283.778,311.253C 284.792,311.073 285.815,310.86 286.862,310.699C 287.909,310.54 288.968,310.379 290.037,310.217C 291.099,310.025 292.179,309.887 293.265,309.761C 294.35,309.635 295.442,309.522 296.529,309.379C 297.618,309.247 298.71,309.145 299.798,309.049C 300.887,308.953 301.973,308.865 303.048,308.76C 305.206,308.635 307.33,308.51 309.385,308.391C 311.446,308.339 313.438,308.289 315.327,308.241C 317.219,308.158 319.005,308.265 320.661,308.25C 322.313,308.292 323.839,308.218 325.181,308.314C 326.528,308.366 327.703,308.412 328.671,308.449C 328.914,308.455 329.144,308.46 329.36,308.464C 330.227,308.484 330.875,308.499 331.272,308.508C 331.57,308.514 331.727,308.518 331.727,308.518C 331.727,308.518 331.301,308.435 330.516,308.281C 330.202,308.22 329.83,308.147 329.406,308.065 Z "/>
			</g>
		</g>
	</g>
</svg>
