<?xml version="1.0" encoding="utf-8"?>
<!DOCTYPE svg PUBLIC "-//W3C//DTD SVG 1.1//EN" "http://www.w3.org/Graphics/SVG/1.1/DTD/svg11.dtd">
<svg xmlns="http://www.w3.org/2000/svg" xmlns:xlink="http://www.w3.org/1999/xlink" version="1.1" baseProfile="full" width="623.621" height="982.677" viewBox="0 0 623.62 982.68" enable-background="new 0 0 623.62 982.68" xml:space="preserve">
	<g>
		<g>
			<linearGradient id="SVGID_Fill1_" gradientUnits="objectBoundingBox" x1="-0.394353" y1="-0.133661" x2="1.73658" y2="-0.133661" gradientTransform="rotate(64.187477 -0.394353 -0.133661)">
				<stop offset="0" stop-color="#4E4E4E" stop-opacity="1"/>
				<stop offset="0.378641" stop-color="#232321" stop-opacity="1"/>
				<stop offset="0.616505" stop-color="#232321" stop-opacity="1"/>
				<stop offset="1" stop-color="#4D4D4D" stop-opacity="1"/>
			</linearGradient>
			<path fill="url(#SVGID_Fill1_)" stroke-width="0.2" stroke-linejoin="round" d="M 623.621,30.2362L 623.621,952.44C 623.621,969.139 610.083,982.677 593.384,982.677L 30.2363,982.677C 13.5374,982.677 0,969.139 0,952.44L 0,30.2362C 0,13.5372 13.5374,3.05176e-005 30.2363,3.05176e-005L 593.384,3.05176e-005C 610.083,3.05176e-005 623.621,13.5372 623.621,30.2362 Z "/>
			<g>
				<g>
					<linearGradient id="SVGID_Fill2_" gradientUnits="objectBoundingBox" x1="1.57029" y1="1.03053" x2="2.60812" y2="1.03053" gradientTransform="rotate(268.539978 1.570288 1.030525)">
						<stop offset="0" stop-color="#979795" stop-opacity="1"/>
						<stop offset="0.502242" stop-color="#F8F8F6" stop-opacity="1"/>
						<stop offset="1" stop-color="#959593" stop-opacity="1"/>
					</linearGradient>
					<path fill="url(#SVGID_Fill2_)" stroke-width="0.2" stroke-linejoin="round" d="M 403.012,918.972L 384.633,850.802C 391.002,850.802 397.372,850.802 402.134,858.546C 406.897,866.289 410.053,881.777 413.208,897.265L 430.385,850.802L 448.628,850.802L 421.126,918.972L 403.012,918.972 Z "/>
					<linearGradient id="SVGID_Fill3_" gradientUnits="objectBoundingBox" x1="1.40517" y1="1.03053" x2="2.44477" y2="1.03053" gradientTransform="rotate(269.352051 1.405174 1.030525)">
						<stop offset="0" stop-color="#979795" stop-opacity="1"/>
						<stop offset="0.502242" stop-color="#F8F8F6" stop-opacity="1"/>
						<stop offset="1" stop-color="#959593" stop-opacity="1"/>
					</linearGradient>
					<path fill="url(#SVGID_Fill3_)" stroke-width="0.2" stroke-linejoin="round" d="M 445.221,918.972L 456.094,850.802L 473.618,850.802L 462.566,918.955L 445.221,918.972 Z "/>
					<linearGradient id="SVGID_Fill4_" gradientUnits="objectBoundingBox" x1="-0.610522" y1="1.03057" x2="0.421361" y2="1.03057" gradientTransform="rotate(268.581665 -0.610522 1.030569)">
						<stop offset="0" stop-color="#979795" stop-opacity="1"/>
						<stop offset="0.502242" stop-color="#F8F8F6" stop-opacity="1"/>
						<stop offset="1" stop-color="#959593" stop-opacity="1"/>
					</linearGradient>
					<path fill="url(#SVGID_Fill4_)" stroke-width="0.2" stroke-linejoin="round" d="M 585.825,918.958L 570.094,918.955L 567.624,908.804L 545.116,908.803L 540.184,918.953L 523.297,918.953C 532.168,895.437 541.039,871.921 549.146,860.563C 557.252,849.204 564.594,850.003 571.936,850.802L 585.825,918.958 Z M 564.845,894.949L 559.432,869.204L 549.939,894.948L 564.845,894.949 Z "/>
					<linearGradient id="SVGID_Fill5_" gradientUnits="objectBoundingBox" x1="0.220902" y1="0.978426" x2="1.17263" y2="0.978426" gradientTransform="rotate(268.837311 0.220902 0.978426)">
						<stop offset="0" stop-color="#979795" stop-opacity="1"/>
						<stop offset="0.502242" stop-color="#F8F8F6" stop-opacity="1"/>
						<stop offset="1" stop-color="#959593" stop-opacity="1"/>
					</linearGradient>
					<path fill="url(#SVGID_Fill5_)" stroke-width="0.2" stroke-linejoin="round" d="M 491.747,922.026C 487.589,921.431 483.985,920.745 480.936,919.969C 477.887,919.193 475.19,918.289 472.846,917.26L 476.601,901.734C 480.523,903.034 483.903,904.072 486.739,904.847C 489.574,905.622 491.988,906.152 493.979,906.437C 498.995,907.156 502.706,907.133 505.111,906.37C 507.516,905.606 508.887,904.044 509.225,901.685C 509.438,900.194 509.279,898.997 508.746,898.094C 508.213,897.19 507.279,896.384 505.943,895.676L 491.025,887.669C 486.93,885.458 484.022,882.811 482.302,879.729C 480.583,876.646 480.085,872.572 480.811,867.506C 481.926,859.719 485.145,854.327 490.469,851.33C 495.792,848.333 503.525,847.56 513.668,849.013C 516.143,849.367 518.577,849.83 520.971,850.401C 523.364,850.973 525.849,851.672 528.425,852.499L 524.912,867.506C 521.972,866.715 519.386,866.094 517.156,865.642C 514.924,865.189 512.912,864.835 511.119,864.578C 505.454,863.767 501.266,863.696 498.555,864.364C 495.843,865.031 494.322,866.523 493.99,868.839C 493.771,870.374 493.989,871.557 494.644,872.389C 495.299,873.222 496.374,874.026 497.868,874.801L 510.401,881.359C 515.281,883.815 518.726,886.779 520.738,890.25C 522.75,893.721 523.371,898.149 522.6,903.534C 521.5,911.22 518.445,916.561 513.435,919.559C 508.426,922.557 501.197,923.379 491.747,922.026 Z "/>
					<linearGradient id="SVGID_Fill6_" gradientUnits="objectBoundingBox" x1="2.73583" y1="1.90307" x2="4.6521" y2="1.90307" gradientTransform="rotate(268.202698 2.735825 1.903072)">
						<stop offset="0" stop-color="#979795" stop-opacity="1"/>
						<stop offset="0.502242" stop-color="#F8F8F6" stop-opacity="1"/>
						<stop offset="1" stop-color="#959593" stop-opacity="1"/>
					</linearGradient>
					<path fill="url(#SVGID_Fill6_)" stroke-width="0.2" stroke-linejoin="round" d="M 368.404,852.137L 368.724,850.805L 397.113,850.805C 397.113,850.805 403.797,850.433 404.995,856.864C 406.194,863.296 411.067,887.716 411.067,887.716C 411.067,887.716 402.989,860.859 368.404,852.137 Z "/>
				</g>
				<g>
					<path fill="#FFFFFF" fill-opacity="1" stroke-width="0.2" stroke-linejoin="round" d="M 218.651,755.905L 310.99,755.905C 312.973,755.905 314.581,757.512 314.581,759.495L 314.581,880.467C 314.581,882.45 312.973,884.057 310.99,884.057L 218.651,884.057C 216.668,884.057 215.061,882.45 215.061,880.467L 215.061,759.495C 215.061,757.512 216.668,755.905 218.651,755.905 Z "/>
					<path fill="#EAEAEA" fill-opacity="1" stroke-width="0.2" stroke-linejoin="round" d="M 226.228,755.904L 238.46,755.904C 240.443,755.904 242.051,757.512 242.051,759.495L 242.051,801.67C 242.051,803.653 240.443,805.261 238.46,805.261L 226.228,805.261C 224.245,805.261 222.638,803.653 222.638,801.67L 222.638,759.495C 222.638,757.512 224.245,755.904 226.228,755.904 Z "/>
					<path fill="#EAEAEA" fill-opacity="1" stroke-width="0.2" stroke-linejoin="round" d="M 257.801,755.905L 270.033,755.905C 272.017,755.905 273.624,757.512 273.624,759.495L 273.624,793.778C 273.624,795.761 272.017,797.369 270.033,797.369L 257.801,797.369C 255.818,797.369 254.21,795.761 254.21,793.778L 254.21,759.495C 254.21,757.512 255.818,755.905 257.801,755.905 Z "/>
					<path fill="#EAEAEA" fill-opacity="1" stroke-width="0.2" stroke-linejoin="round" d="M 290.442,755.905L 302.674,755.905C 304.657,755.905 306.264,757.513 306.264,759.496L 306.264,790.11C 306.264,792.093 304.657,793.701 302.674,793.701L 290.442,793.701C 288.458,793.701 286.851,792.093 286.851,790.11L 286.851,759.496C 286.851,757.513 288.458,755.905 290.442,755.905 Z "/>
					<path fill="#EAEAEA" fill-opacity="1" stroke-width="0.2" stroke-linejoin="round" d="M 296.024,809.066L 296.024,830.472C 296.024,832.455 294.416,834.062 292.434,834.062L 233.89,834.062C 231.907,834.062 230.299,832.455 230.299,830.472L 230.299,809.066C 230.299,807.083 231.907,805.475 233.89,805.475L 292.434,805.475C 294.416,805.475 296.024,807.083 296.024,809.066 Z "/>
					<path fill="#EAEAEA" fill-opacity="1" stroke-width="0.2" stroke-linejoin="round" d="M 226.655,844.925L 238.887,844.925C 240.87,844.925 242.478,846.533 242.478,848.516L 242.478,879.13C 242.478,881.113 240.87,882.72 238.887,882.72L 226.655,882.72C 224.672,882.72 223.065,881.113 223.065,879.13L 223.065,848.516C 223.065,846.533 224.672,844.925 226.655,844.925 Z "/>
					<path fill="#EAEAEA" fill-opacity="1" stroke-width="0.2" stroke-linejoin="round" d="M 287.053,850.393L 299.286,850.393C 301.269,850.393 302.876,852 302.876,853.983L 302.876,880.196C 302.876,882.179 301.269,883.786 299.286,883.786L 287.053,883.786C 285.071,883.786 283.463,882.179 283.463,880.196L 283.463,853.983C 283.463,852 285.071,850.393 287.053,850.393 Z "/>
					<path fill="#EAEAEA" fill-opacity="1" stroke-width="0.2" stroke-linejoin="round" d="M 258.655,841.81L 270.887,841.81C 272.87,841.81 274.478,843.418 274.478,845.401L 274.478,879.684C 274.478,881.667 272.87,883.274 270.887,883.274L 258.655,883.274C 256.672,883.274 255.064,881.667 255.064,879.684L 255.064,845.401C 255.064,843.418 256.672,841.81 258.655,841.81 Z "/>
				</g>
				<g>
					<g>
						<g>
							<linearGradient id="SVGID_Fill7_" gradientUnits="objectBoundingBox" x1="-0.752733" y1="15.12" x2="17.5618" y2="15.12" gradientTransform="rotate(-6.186142 -0.752733 15.120041)">
								<stop offset="0" stop-color="#FFFFFF" stop-opacity="1"/>
								<stop offset="0.488789" stop-color="#E09AD0" stop-opacity="1"/>
								<stop offset="1" stop-color="#F5BC40" stop-opacity="1"/>
							</linearGradient>
							<path fill="url(#SVGID_Fill7_)" stroke-width="0.2" stroke-linejoin="miter" d="M 89.6084,70.9237L 72.3203,70.9237C 72.3203,70.9237 73.749,75.21 77.321,77.9246L 89.6084,77.9246L 101.896,77.9246C 105.468,75.21 106.896,70.9237 106.896,70.9237L 89.6084,70.9237 Z "/>
							<linearGradient id="SVGID_Fill8_" gradientUnits="objectBoundingBox" x1="-0.578587" y1="40.6251" x2="43.9474" y2="40.6251" gradientTransform="rotate(-2.065598 -0.578587 40.625088)">
								<stop offset="0" stop-color="#FFFFFF" stop-opacity="1"/>
								<stop offset="0.488789" stop-color="#E09AD0" stop-opacity="1"/>
								<stop offset="1" stop-color="#F5BC40" stop-opacity="1"/>
							</linearGradient>
							<rect x="69.6057" y="66.4945" fill="url(#SVGID_Fill8_)" stroke-width="0.2" stroke-linejoin="miter" width="40.2913" height="2.71466"/>
							<linearGradient id="SVGID_Fill9_" gradientUnits="objectBoundingBox" x1="-11.6403" y1="3.41998" x2="70.9962" y2="3.41998" gradientTransform="rotate(-79.833351 -11.640346 3.419979)">
								<stop offset="0" stop-color="#FFFFFF" stop-opacity="1"/>
								<stop offset="0.488789" stop-color="#E09AD0" stop-opacity="1"/>
								<stop offset="1" stop-color="#F5BC40" stop-opacity="1"/>
							</linearGradient>
							<rect x="77.8926" y="80.0678" fill="url(#SVGID_Fill9_)" stroke-width="0.2" stroke-linejoin="miter" width="2.7146" height="28.278"/>
							<linearGradient id="SVGID_Fill10_" gradientUnits="objectBoundingBox" x1="-13.5339" y1="3.41998" x2="69.0952" y2="3.41998" gradientTransform="rotate(-79.832443 -13.533903 3.419979)">
								<stop offset="0" stop-color="#FFFFFF" stop-opacity="1"/>
								<stop offset="0.488789" stop-color="#E09AD0" stop-opacity="1"/>
								<stop offset="1" stop-color="#F5BC40" stop-opacity="1"/>
							</linearGradient>
							<rect x="83.0361" y="80.0678" fill="url(#SVGID_Fill10_)" stroke-width="0.2" stroke-linejoin="miter" width="2.71484" height="28.278"/>
							<linearGradient id="SVGID_Fill11_" gradientUnits="objectBoundingBox" x1="-15.4285" y1="3.41998" x2="67.2006" y2="3.41998" gradientTransform="rotate(-79.832443 -15.428507 3.419979)">
								<stop offset="0" stop-color="#FFFFFF" stop-opacity="1"/>
								<stop offset="0.488789" stop-color="#E09AD0" stop-opacity="1"/>
								<stop offset="1" stop-color="#F5BC40" stop-opacity="1"/>
							</linearGradient>
							<rect x="88.1797" y="80.0678" fill="url(#SVGID_Fill11_)" stroke-width="0.2" stroke-linejoin="miter" width="2.71484" height="28.278"/>
							<linearGradient id="SVGID_Fill12_" gradientUnits="objectBoundingBox" x1="-17.3231" y1="3.41998" x2="65.306" y2="3.41998" gradientTransform="rotate(-79.832443 -17.323111 3.419979)">
								<stop offset="0" stop-color="#FFFFFF" stop-opacity="1"/>
								<stop offset="0.488789" stop-color="#E09AD0" stop-opacity="1"/>
								<stop offset="1" stop-color="#F5BC40" stop-opacity="1"/>
							</linearGradient>
							<rect x="93.3232" y="80.0678" fill="url(#SVGID_Fill12_)" stroke-width="0.2" stroke-linejoin="miter" width="2.71484" height="28.278"/>
							<linearGradient id="SVGID_Fill13_" gradientUnits="objectBoundingBox" x1="-19.2177" y1="3.41998" x2="63.4114" y2="3.41998" gradientTransform="rotate(-79.832443 -19.217716 3.419979)">
								<stop offset="0" stop-color="#FFFFFF" stop-opacity="1"/>
								<stop offset="0.488789" stop-color="#E09AD0" stop-opacity="1"/>
								<stop offset="1" stop-color="#F5BC40" stop-opacity="1"/>
							</linearGradient>
							<rect x="98.4668" y="80.0678" fill="url(#SVGID_Fill13_)" stroke-width="0.2" stroke-linejoin="miter" width="2.71484" height="28.278"/>
						</g>
						<linearGradient id="SVGID_Fill14_" gradientUnits="objectBoundingBox" x1="-0.214705" y1="1.99208" x2="4.00065" y2="1.99208" gradientTransform="rotate(-28.160946 -0.214705 1.992075)">
							<stop offset="0" stop-color="#FFFFFF" stop-opacity="1"/>
							<stop offset="0.488789" stop-color="#E09AD0" stop-opacity="1"/>
							<stop offset="1" stop-color="#F5BC40" stop-opacity="1"/>
						</linearGradient>
						<path fill="url(#SVGID_Fill14_)" stroke-width="0.2" stroke-linejoin="miter" d="M 119.519,116.974L 59.2366,116.974L 59.2366,56.6919L 119.519,56.6919L 119.519,116.974 Z M 60.6216,115.589L 118.133,115.589L 118.133,58.077L 60.6216,58.077L 60.6216,115.589 Z "/>
					</g>
					<g>
						<linearGradient id="SVGID_Fill15_" gradientUnits="objectBoundingBox" x1="-2.03756" y1="2.58932" x2="4.04083" y2="2.58932" gradientTransform="rotate(-27.969387 -2.037556 2.589320)">
							<stop offset="0" stop-color="#FFFFFF" stop-opacity="1"/>
							<stop offset="0.488789" stop-color="#E09AD0" stop-opacity="1"/>
							<stop offset="1" stop-color="#F5BC40" stop-opacity="1"/>
						</linearGradient>
						<path fill="url(#SVGID_Fill15_)" stroke-width="0.2" stroke-linejoin="round" d="M 157.751,110.781C 155.359,110.781 154.163,109.694 154.163,107.519C 154.163,106.432 154.425,105.595 154.948,105.007C 155.471,104.419 156.124,104.037 156.905,103.86C 158.557,103.514 160.101,102.851 161.538,101.872C 162.975,100.894 164.258,99.6436 165.386,98.1214C 166.562,96.5109 167.463,94.8036 168.092,92.9994C 168.721,91.1952 169.035,89.3145 169.035,87.3575C 169.035,85.0946 168.634,82.898 167.832,80.7677C 167.031,78.6374 165.933,76.8756 164.54,75.4826C 163.018,73.9197 161.354,72.6269 159.55,71.6042C 157.746,70.5815 155.689,70.0701 153.378,70.0701C 150.769,70.0701 148.389,70.5271 146.238,71.4411C 144.087,72.3551 142.251,73.6818 140.729,75.4215C 139.336,76.9844 138.227,78.7987 137.401,80.8645C 136.575,82.9303 136.162,85.1388 136.162,87.49C 136.162,89.4471 136.444,91.3277 137.008,93.1319C 137.573,94.9361 138.486,96.5992 139.75,98.1214C 140.79,99.4261 141.996,100.58 143.369,101.582C 144.742,102.584 146.189,103.323 147.711,103.799C 148.364,104.016 148.927,104.224 149.403,104.421C 149.879,104.618 150.27,104.845 150.575,105.104C 150.881,105.362 151.099,105.698 151.228,106.113C 151.357,106.527 151.421,107.04 151.421,107.652C 151.421,108.78 151.041,109.605 150.28,110.129C 149.519,110.652 148.618,110.914 147.579,110.914C 146.797,110.914 145.938,110.771 145,110.486C 144.062,110.2 143.104,109.82 142.125,109.344C 141.147,108.868 140.18,108.314 139.226,107.682C 138.271,107.05 137.379,106.364 136.55,105.623C 134.987,104.19 133.662,102.679 132.574,101.093C 131.487,99.506 130.594,97.7103 129.894,95.7057C 128.942,93.0147 128.467,89.95 128.467,86.5115C 128.467,84.5545 128.749,82.5973 129.313,80.6403C 129.877,78.6833 130.614,76.8791 131.525,75.2278C 132.483,73.5765 133.614,72.0442 134.919,70.6307C 136.224,69.2173 137.702,67.9873 139.353,66.9408C 141.31,65.7245 143.452,64.7681 145.78,64.0716C 148.107,63.375 150.382,63.0267 152.604,63.0267C 154.819,63.0267 156.992,63.3206 159.122,63.9085C 161.252,64.4962 163.252,65.3338 165.121,66.421C 166.949,67.5082 168.668,68.9217 170.279,70.6613C 171.889,72.4009 173.194,74.2493 174.193,76.2063C 174.974,77.8576 175.594,79.6176 176.053,81.4864C 176.512,83.3551 176.741,85.2271 176.741,87.1027C 176.741,88.9239 176.512,90.8351 176.053,92.8363C 175.594,94.8375 174.974,96.6637 174.193,98.315C 173.5,99.7081 172.718,100.992 171.848,102.168C 170.979,103.344 169.956,104.451 168.78,105.491C 167.258,106.884 165.529,108.114 163.592,109.181C 161.655,110.248 159.708,110.781 157.751,110.781 Z "/>
						<linearGradient id="SVGID_Fill16_" gradientUnits="objectBoundingBox" x1="-5.64446" y1="2.59483" x2="4.34864" y2="2.59483" gradientTransform="rotate(-43.390259 -5.644464 2.594835)">
							<stop offset="0" stop-color="#FFFFFF" stop-opacity="1"/>
							<stop offset="0.488789" stop-color="#E09AD0" stop-opacity="1"/>
							<stop offset="1" stop-color="#F5BC40" stop-opacity="1"/>
						</linearGradient>
						<path fill="url(#SVGID_Fill16_)" stroke-width="0.2" stroke-linejoin="round" d="M 181.96,110.975C 180.519,110.975 179.388,110.737 178.565,110.261C 178.001,109.955 177.556,109.563 177.23,109.084C 176.904,108.605 176.741,107.951 176.741,107.122C 176.741,106.823 176.773,106.531 176.838,106.245C 176.902,105.96 177.031,105.644 177.225,105.297C 177.419,104.951 177.679,104.55 178.005,104.095C 178.331,103.639 178.756,103.106 179.279,102.494C 180.061,101.584 180.703,100.79 181.206,100.114C 181.708,99.438 182.101,98.7958 182.383,98.1876C 182.665,97.5794 182.87,96.9594 183,96.3274C 183.128,95.6954 183.193,94.9242 183.193,94.0136L 183.193,70.4676L 181.756,70.4676C 180.757,70.4676 179.909,70.1194 179.213,69.4229C 178.516,68.7263 178.168,67.8786 178.168,66.8797C 178.168,65.8739 178.516,65.0246 179.213,64.3314C 179.909,63.6383 180.757,63.2918 181.756,63.2918L 186.068,63.2918C 186.978,63.2918 187.717,63.3343 188.284,63.4191C 188.852,63.5041 189.394,63.8082 189.91,64.3314C 190.393,64.8072 190.677,65.2845 190.761,65.7635C 190.846,66.2426 190.889,66.8526 190.889,67.5932L 190.889,93.3612C 190.889,94.6659 190.802,95.8177 190.629,96.8167C 190.456,97.8156 190.196,98.7398 189.849,99.5892C 189.502,100.439 189.09,101.254 188.611,102.035C 188.132,102.817 187.586,103.622 186.975,104.451L 194.028,104.451C 194.375,104.451 194.677,104.343 194.936,104.125C 195.153,103.908 195.393,103.668 195.654,103.407C 195.916,103.145 196.155,102.861 196.373,102.555C 197.154,101.556 197.849,100.807 198.457,100.308C 199.065,99.8084 199.784,99.5586 200.613,99.5586C 201.395,99.5586 202.112,99.8627 202.764,100.471C 203.416,101.079 203.742,101.951 203.742,103.085C 203.742,103.69 203.612,104.232 203.35,104.711C 203.088,105.19 202.655,105.8 202.05,106.541L 200.287,108.692C 199.981,109.038 199.687,109.342 199.405,109.604C 199.123,109.865 198.829,110.085 198.523,110.261C 198.088,110.479 197.599,110.652 197.056,110.781C 196.512,110.91 195.829,110.975 195.007,110.975L 181.96,110.975 Z "/>
						<linearGradient id="SVGID_Fill17_" gradientUnits="objectBoundingBox" x1="-24.1609" y1="2.56425" x2="9.51576" y2="2.56425" gradientTransform="rotate(-73.459770 -24.160908 2.564251)">
							<stop offset="0" stop-color="#FFFFFF" stop-opacity="1"/>
							<stop offset="0.488789" stop-color="#E09AD0" stop-opacity="1"/>
							<stop offset="1" stop-color="#F5BC40" stop-opacity="1"/>
						</linearGradient>
						<path fill="url(#SVGID_Fill17_)" stroke-width="0.2" stroke-linejoin="round" d="M 210.918,111.301C 209.831,111.301 208.918,110.931 208.181,110.19C 207.444,109.449 207.075,108.535 207.075,107.448L 207.075,66.7472C 207.075,65.6599 207.444,64.7459 208.181,64.0052C 208.918,63.2646 209.831,62.8942 210.918,62.8942C 212.005,62.8942 212.919,63.2646 213.66,64.0052C 214.401,64.7459 214.771,65.6599 214.771,66.7472L 214.771,107.448C 214.771,108.535 214.401,109.449 213.66,110.19C 212.919,110.931 212.005,111.301 210.918,111.301 Z "/>
						<linearGradient id="SVGID_Fill18_" gradientUnits="objectBoundingBox" x1="-5.51439" y1="2.57762" x2="2.04784" y2="2.57762" gradientTransform="rotate(-34.882385 -5.514386 2.577621)">
							<stop offset="0" stop-color="#FFFFFF" stop-opacity="1"/>
							<stop offset="0.488789" stop-color="#E09AD0" stop-opacity="1"/>
							<stop offset="1" stop-color="#F5BC40" stop-opacity="1"/>
						</linearGradient>
						<path fill="url(#SVGID_Fill18_)" stroke-width="0.2" stroke-linejoin="round" d="M 224.23,111.168C 223.184,111.168 222.292,110.8 221.555,110.063C 220.817,109.325 220.448,108.433 220.448,107.387L 220.448,70.5288C 220.448,69.6998 220.458,69.0033 220.479,68.4392C 220.5,67.8752 220.52,67.4301 220.54,67.1039C 220.561,66.7777 220.583,66.528 220.606,66.3548C 220.63,66.1815 220.642,66.0506 220.642,65.9623C 220.73,65.4391 221.013,64.8292 221.488,64.1327C 221.964,63.4361 222.725,63.0879 223.771,63.0879C 224.771,63.0879 225.509,63.3172 225.989,63.7759C 226.467,64.2346 226.989,64.8751 227.553,65.6973L 238.449,82.1387C 238.538,82.3153 238.614,82.4683 238.679,82.5973C 238.743,82.7265 238.82,82.8352 238.908,82.9235C 238.996,82.8352 239.073,82.7265 239.138,82.5973C 239.202,82.4683 239.279,82.3153 239.367,82.1387L 250.651,65.1163C 251.085,64.5047 251.521,64.0138 251.955,63.6434C 252.39,63.273 253.086,63.0879 254.045,63.0879C 255.084,63.0879 255.844,63.4361 256.323,64.1327C 256.802,64.8292 257.086,65.4391 257.174,65.9623C 257.174,66.0506 257.184,66.1815 257.205,66.3548C 257.225,66.528 257.247,66.7777 257.271,67.1039C 257.295,67.4301 257.317,67.8752 257.337,68.4392C 257.358,69.0033 257.368,69.6998 257.368,70.5288L 257.368,107.387C 257.368,108.433 256.997,109.325 256.257,110.063C 255.516,110.8 254.626,111.168 253.586,111.168C 252.54,111.168 251.648,110.8 250.91,110.063C 250.173,109.325 249.805,108.433 249.805,107.387L 249.805,78.8769L 241.905,90.9455C 241.558,91.5094 241.254,91.9546 240.993,92.2808C 240.731,92.607 240.491,92.8583 240.274,93.0351C 240.057,93.2118 239.839,93.3324 239.622,93.3969C 239.404,93.4615 239.166,93.4937 238.908,93.4937C 238.385,93.4937 237.928,93.3527 237.537,93.0707C 237.146,92.7887 236.601,92.0804 235.901,90.9455L 228.012,78.8158L 228.012,107.387C 228.012,108.433 227.642,109.325 226.901,110.063C 226.16,110.8 225.27,111.168 224.23,111.168 Z "/>
						<linearGradient id="SVGID_Fill19_" gradientUnits="objectBoundingBox" x1="-7.98077" y1="2.5718" x2="0.767854" y2="2.5718" gradientTransform="rotate(-39.560661 -7.980768 2.571803)">
							<stop offset="0" stop-color="#FFFFFF" stop-opacity="1"/>
							<stop offset="0.488789" stop-color="#E09AD0" stop-opacity="1"/>
							<stop offset="1" stop-color="#F5BC40" stop-opacity="1"/>
						</linearGradient>
						<path fill="url(#SVGID_Fill19_)" stroke-width="0.2" stroke-linejoin="round" d="M 284.573,77.246C 284.573,76.2471 284.398,75.2804 284.048,74.3461C 283.698,73.4117 283.197,72.6183 282.544,71.966C 282.11,71.5719 281.675,71.244 281.24,70.9825C 280.805,70.7208 280.316,70.5152 279.772,70.3658C 279.229,70.2162 278.588,70.1075 277.851,70.0396C 277.114,69.9716 276.222,69.9376 275.175,69.9376L 272.963,69.9376L 272.963,88.9273C 273.351,88.8797 273.794,88.8015 274.293,88.6928C 274.793,88.5841 275.175,88.4889 275.44,88.4074C 278.355,87.4017 280.594,85.9203 282.157,83.9632C 282.939,83.0119 283.537,81.9484 283.951,80.7728C 284.366,79.5972 284.573,78.4217 284.573,77.246 Z M 269.243,111.24C 268.244,111.24 267.374,110.869 266.633,110.129C 265.893,109.388 265.522,108.518 265.522,107.519L 265.522,69.9376L 264.024,69.9376C 263.066,69.9376 262.25,69.6012 261.577,68.9285C 260.905,68.2558 260.568,67.4403 260.568,66.4822C 260.568,65.524 260.905,64.7086 261.577,64.0358C 262.25,63.3631 263.066,63.0267 264.024,63.0267L 276.021,63.0267C 276.938,63.0267 277.669,63.0489 278.212,63.0929C 278.756,63.1371 279.157,63.1796 279.415,63.2204C 281.59,63.5262 283.46,64.1463 285.027,65.0806C 286.593,66.015 288.049,67.3961 289.395,69.2242C 290.264,70.3997 290.884,71.6721 291.254,73.0414C 291.625,74.4107 291.81,75.9209 291.81,77.5722C 291.81,79.4884 291.353,81.5882 290.439,83.8715C 289.525,86.1547 288.198,88.1662 286.458,89.9058C 284.678,91.6861 282.636,93.0775 280.333,94.0799C 278.029,95.0821 275.573,95.7124 272.963,95.9706L 272.963,107.519C 272.963,108.518 272.593,109.388 271.852,110.129C 271.111,110.869 270.241,111.24 269.243,111.24 Z "/>
						<linearGradient id="SVGID_Fill20_" gradientUnits="objectBoundingBox" x1="-5.93941" y1="2.58932" x2="0.138948" y2="2.58932" gradientTransform="rotate(-27.969305 -5.939413 2.589320)">
							<stop offset="0" stop-color="#FFFFFF" stop-opacity="1"/>
							<stop offset="0.488789" stop-color="#E09AD0" stop-opacity="1"/>
							<stop offset="1" stop-color="#F5BC40" stop-opacity="1"/>
						</linearGradient>
						<path fill="url(#SVGID_Fill20_)" stroke-width="0.2" stroke-linejoin="round" d="M 322.797,110.781C 320.405,110.781 319.209,109.694 319.209,107.519C 319.209,106.432 319.471,105.595 319.994,105.007C 320.517,104.419 321.169,104.037 321.951,103.86C 323.602,103.514 325.146,102.851 326.583,101.872C 328.021,100.894 329.303,99.6436 330.432,98.1214C 331.607,96.5109 332.509,94.8036 333.138,92.9994C 333.766,91.1952 334.081,89.3145 334.081,87.3575C 334.081,85.0946 333.68,82.898 332.878,80.7677C 332.076,78.6374 330.979,76.8756 329.585,75.4826C 328.063,73.9197 326.4,72.6269 324.596,71.6042C 322.792,70.5815 320.735,70.0701 318.424,70.0701C 315.815,70.0701 313.435,70.5271 311.284,71.4411C 309.133,72.3551 307.297,73.6818 305.774,75.4215C 304.381,76.9844 303.272,78.7987 302.447,80.8645C 301.621,82.9303 301.208,85.1388 301.208,87.49C 301.208,89.4471 301.49,91.3277 302.054,93.1319C 302.618,94.9361 303.532,96.5992 304.796,98.1214C 305.835,99.4261 307.042,100.58 308.415,101.582C 309.787,102.584 311.235,103.323 312.757,103.799C 313.409,104.016 313.973,104.224 314.449,104.421C 314.924,104.618 315.315,104.845 315.621,105.104C 315.927,105.362 316.144,105.698 316.273,106.113C 316.403,106.527 316.467,107.04 316.467,107.652C 316.467,108.78 316.086,109.605 315.325,110.129C 314.564,110.652 313.664,110.914 312.624,110.914C 311.843,110.914 310.983,110.771 310.045,110.486C 309.108,110.2 308.149,109.82 307.171,109.344C 306.192,108.868 305.226,108.314 304.271,107.682C 303.316,107.05 302.424,106.364 301.595,105.623C 300.032,104.19 298.707,102.679 297.62,101.093C 296.533,99.506 295.639,97.7103 294.939,95.7057C 293.988,93.0147 293.512,89.95 293.512,86.5115C 293.512,84.5545 293.794,82.5973 294.358,80.6403C 294.922,78.6833 295.659,76.8791 296.57,75.2278C 297.528,73.5765 298.66,72.0442 299.964,70.6307C 301.269,69.2173 302.747,67.9873 304.398,66.9408C 306.355,65.7245 308.498,64.7681 310.825,64.0716C 313.153,63.375 315.427,63.0267 317.649,63.0267C 319.865,63.0267 322.037,63.3206 324.168,63.9085C 326.298,64.4962 328.298,65.3338 330.167,66.421C 331.994,67.5082 333.713,68.9217 335.324,70.6613C 336.935,72.4009 338.239,74.2493 339.238,76.2063C 340.02,77.8576 340.64,79.6176 341.099,81.4864C 341.557,83.3551 341.786,85.2271 341.786,87.1027C 341.786,88.9239 341.557,90.8351 341.099,92.8363C 340.64,94.8375 340.02,96.6637 339.238,98.315C 338.545,99.7081 337.764,100.992 336.894,102.168C 336.024,103.344 335.001,104.451 333.826,105.491C 332.304,106.884 330.574,108.114 328.638,109.181C 326.701,110.248 324.754,110.781 322.797,110.781 Z "/>
					</g>
				</g>
			</g>
		</g>
		<g>
			<linearGradient id="SVGID_Fill21_" gradientUnits="objectBoundingBox" x1="-0.201467" y1="-0.0829104" x2="1.24259" y2="-0.0829104" gradientTransform="rotate(64.452538 -0.201467 -0.082910)">
				<stop offset="0" stop-color="#6E6E6E" stop-opacity="1"/>
				<stop offset="1" stop-color="#0E0E0C" stop-opacity="1"/>
			</linearGradient>
			<path fill="url(#SVGID_Fill21_)" stroke-width="0.2" stroke-linejoin="miter" d="M 368.179,633.995C 368.179,633.995 452.579,544.11 452.579,460.624C 452.579,432.449 445.15,412.682 435.31,398.844C 448.307,355.505 449.833,324.757 439.8,307.397C 435.142,299.338 428.015,294.093 419.187,292.225C 405.049,289.239 392.922,292.705 383.059,302.502C 384.232,299.868 385.645,297.307 387.375,294.87C 387.375,294.87 406.57,283.139 406.57,268.971C 406.57,264.553 380.823,260.135 311.81,260.135C 242.797,260.135 217.05,264.553 217.05,268.971C 217.05,283.139 236.246,294.87 236.246,294.87C 237.977,297.308 239.39,299.869 240.563,302.503C 230.702,292.709 218.578,289.241 204.432,292.225C 195.606,294.093 188.479,299.338 183.821,307.397C 173.787,324.757 175.314,355.504 188.311,398.844C 178.472,412.682 171.041,432.449 171.041,460.624C 171.041,544.11 255.442,633.995 255.442,633.995C 255.442,633.995 227.715,641.917 227.715,661.417L 395.906,661.417C 395.906,641.917 368.179,633.995 368.179,633.995 Z M 438.841,416.656C 440.246,419.65 441.852,423.361 443.186,427.793C 444.547,432.212 445.758,437.306 446.634,442.938C 447.523,448.577 447.932,454.733 447.965,461.286C 447.948,467.768 447.444,474.72 446.352,481.736C 445.295,488.778 443.691,495.971 441.581,503.129C 439.487,510.293 436.943,517.437 434.09,524.446C 431.23,531.454 428.053,538.323 424.695,544.963C 421.336,551.603 417.781,558.007 414.121,564.068C 406.825,576.205 399.328,587.091 392.589,596.175C 385.798,605.224 379.792,612.489 375.493,617.489C 371.17,622.468 368.561,625.185 368.561,625.185C 368.561,625.185 371.044,622.351 375.15,617.202C 379.277,612.072 385.033,604.626 391.503,595.388C 398.021,586.187 405.284,575.205 412.291,562.992C 415.777,556.879 419.25,550.49 422.555,543.887C 425.843,537.278 428.947,530.448 431.732,523.494C 434.51,516.538 436.978,509.461 438.995,502.382C 440.989,495.3 442.656,488.243 443.733,481.328C 444.854,474.399 445.387,467.706 445.449,461.249C 445.54,454.86 445.092,448.781 444.481,443.228C 443.853,437.667 442.873,432.615 441.715,428.212C 440.537,423.816 439.306,420.029 438.091,416.981C 436.909,413.917 435.752,411.609 435.007,410.01C 434.202,408.437 433.774,407.598 433.774,407.598C 433.774,407.598 434.278,408.394 435.223,409.887C 436.135,411.401 437.437,413.658 438.841,416.656 Z M 385.203,310.998C 394.011,300.259 404.334,296.559 417.674,299.381C 424.417,300.806 429.879,304.844 433.469,311.057C 440.623,323.436 440.985,344.17 434.613,372.867C 434.642,372.618 434.677,372.381 434.704,372.129C 435.181,368.03 435.645,363.656 435.923,359.261C 436.234,354.873 436.392,350.472 436.371,346.352C 436.365,342.232 436.19,338.395 435.895,335.126C 435.606,331.856 435.26,329.154 434.976,327.271C 434.69,325.391 434.526,324.317 434.526,324.317C 434.526,324.317 434.518,325.403 434.506,327.302C 434.49,329.201 434.407,331.91 434.181,335.138C 433.962,338.367 433.537,342.113 432.91,346.092C 432.297,350.073 431.47,354.286 430.496,358.465C 429.897,361.134 429.222,363.779 428.531,366.355C 434.41,337.085 431.485,322.239 427.136,314.715C 424.539,310.221 420.948,307.547 416.164,306.536C 411.031,305.452 402.438,303.632 393.35,312.781C 390.272,315.879 387.356,320.048 384.58,325.28C 384.566,319.755 384.906,314.501 385.203,310.998 Z M 398.536,317.936C 404.819,311.614 410.039,312.714 414.652,313.692C 417.403,314.272 419.244,315.672 420.806,318.375C 423.766,323.497 428.594,339.208 417.593,380.895C 402.125,369.6 387.375,367.387 387.375,367.387C 387.375,367.387 384.487,361.033 381.993,351.607C 387.039,335.223 392.577,323.935 398.536,317.936 Z M 227.587,273.79C 232.836,272.675 243.829,271.095 265.985,270.13C 271.389,269.812 277.212,269.548 283.295,269.354C 288.095,269.229 293.056,269.032 298.096,268.997C 303.137,268.956 308.258,268.913 313.378,268.871C 318.498,268.918 323.617,268.966 328.656,269.013C 333.697,269.048 338.657,269.258 343.458,269.391C 353.058,269.714 362.018,270.215 369.688,270.845C 377.359,271.439 383.741,272.185 388.189,272.848C 390.415,273.16 392.153,273.502 393.336,273.72C 394.516,273.955 395.146,274.081 395.146,274.081C 395.146,274.081 392.58,273.964 388.104,273.936C 383.629,273.886 377.239,273.941 369.575,273.992C 361.911,274.059 352.971,274.137 343.391,274.22C 340.606,274.225 337.755,274.257 334.878,274.284C 328.29,274.496 321.503,274.699 314.709,274.888C 275.417,275.993 236.094,276.556 236.094,276.556C 236.094,276.556 275.379,278.278 314.704,279.458C 327.964,279.861 341.22,280.207 352.982,280.455C 352.068,282.536 350.919,284.677 349.483,286.799C 313.915,285.644 278.162,286.138 242.754,288.26L 242.608,288.056L 241.032,287.082C 237.301,284.776 230.509,279.279 227.587,273.79 Z M 247.237,295.337C 280.098,293.484 313.238,293.029 346.232,294.015C 345.503,299.217 344.237,309.453 343.655,321.341C 343.625,320.942 343.595,320.534 343.565,320.14C 343.381,318.059 343.204,316.047 343.036,314.14C 342.875,312.229 342.695,310.422 342.506,308.752C 342.176,305.412 341.801,302.621 341.533,300.663C 341.26,298.705 341.061,297.58 341.061,297.58C 341.061,297.58 340.784,298.689 340.448,300.643C 340.105,302.598 339.686,305.396 339.371,308.764C 339.034,312.132 338.802,316.068 338.718,320.29C 338.632,324.511 338.756,329.016 339.025,333.516C 339.335,338.013 339.821,342.504 340.485,346.689C 341.174,350.871 342.006,354.75 342.891,358.032C 343.343,359.674 343.815,361.163 344.235,362.479C 344.612,363.802 345.123,364.918 345.466,365.847C 345.788,366.666 346.051,367.294 346.255,367.775C 350.497,367.839 354.521,367.922 358.157,368.008C 361.24,368.102 364.066,368.187 366.572,368.263C 369.077,368.323 371.264,368.433 373.066,368.511C 376.668,368.684 378.732,368.835 378.732,368.835C 378.732,368.835 376.69,369.151 373.111,369.612C 369.531,370.066 364.412,370.692 358.256,371.188C 355.178,371.453 351.844,371.76 348.313,371.945C 344.781,372.157 341.058,372.422 337.202,372.551C 333.346,372.672 329.362,372.904 325.312,372.945C 321.262,372.996 317.146,373.049 313.031,373.101C 308.917,373.056 304.801,373.012 300.75,372.968C 296.699,372.928 292.714,372.738 288.858,372.599C 285.001,372.485 281.277,372.225 277.658,372.011C 266.83,371.56 255.976,370.9 245.067,370.021C 248.113,362.843 262.89,324.728 247.237,295.337 Z M 190.152,311.057C 193.742,304.844 199.203,300.806 205.944,299.381C 208.806,298.778 211.529,298.472 214.128,298.472C 223.712,298.472 231.609,302.614 238.56,311.164C 240.802,313.922 242.937,317.141 244.997,321.041C 244.71,320.724 244.433,320.405 244.142,320.09C 242.619,318.422 241.032,316.802 239.518,315.326C 237.993,313.854 236.517,312.541 235.216,311.467C 234.578,310.921 233.934,310.472 233.4,310.055C 232.87,309.633 232.37,309.304 231.958,309.039C 231.148,308.509 230.686,308.205 230.686,308.205C 230.686,308.205 231.009,308.653 231.576,309.435C 231.86,309.819 232.198,310.286 232.54,310.863C 232.885,311.436 233.301,312.045 233.693,312.764C 234.499,314.181 235.372,315.86 236.233,317.694C 237.086,319.535 237.948,321.511 238.741,323.522C 239.349,325.045 239.915,326.563 240.451,328.049C 237.259,321.488 233.875,316.409 230.273,312.784C 221.186,303.639 212.593,305.449 207.458,306.536C 202.672,307.547 199.081,310.221 196.484,314.715C 191.62,323.132 188.544,340.722 197.573,377.408C 196.975,375.964 196.37,374.476 195.776,372.979C 194.011,368.551 192.357,364.069 191.192,360.672C 190.019,357.278 189.323,354.976 189.323,354.976C 189.323,354.976 189.34,357.378 189.508,360.992C 189.668,364.605 189.992,369.43 190.442,374.252C 190.693,376.997 190.983,379.731 191.273,382.251C 182.652,348.663 182.242,324.744 190.152,311.057 Z M 241.628,351.605C 239.134,361.032 236.246,367.387 236.246,367.387C 236.246,367.387 221.496,369.6 206.028,380.895C 195.026,339.208 199.856,323.497 202.815,318.375C 204.377,315.672 206.218,314.272 208.971,313.692C 213.578,312.714 218.8,311.614 225.086,317.937C 231.047,323.937 236.584,335.224 241.628,351.605 Z M 180.183,460.624C 180.183,395.39 222.771,380.069 234.628,377.069C 260.581,379.453 286.197,380.658 311.81,380.658C 328.791,380.658 345.774,380.126 362.853,379.078C 375.161,384.38 391.331,396.055 396.24,421.318C 395.355,418.34 394.335,415.483 393.156,412.838C 390.497,406.826 387.18,401.762 383.777,397.738C 380.382,393.693 376.875,390.715 373.873,388.512C 370.858,386.307 368.245,384.98 366.472,384.127C 365.571,383.711 364.874,383.426 364.401,383.248C 363.928,383.065 363.685,382.97 363.685,382.97C 363.685,382.97 364.569,383.552 366.11,384.723C 367.664,385.89 369.809,387.766 372.281,390.336C 374.748,392.913 377.408,396.331 379.955,400.494C 382.479,404.673 384.797,409.665 386.507,415.331C 388.216,420.996 389.281,427.328 389.525,434.065C 389.598,435.747 389.593,437.459 389.538,439.189L 389.505,440.49L 389.497,440.816L 389.479,441.054L 389.435,441.747C 389.377,442.672 389.319,443.603 389.26,444.54C 389.152,446.423 389.03,448.315 388.76,450.614C 367.573,450.652 339.7,450.702 311.81,450.753C 297.593,450.739 283.376,450.725 270.046,450.712C 256.707,450.679 244.256,450.648 233.584,450.621C 222.895,450.653 213.987,450.679 207.752,450.697C 201.506,450.75 197.934,450.847 197.934,450.847C 197.934,450.847 201.47,451.364 207.667,452.149C 210.764,452.54 214.528,453.001 218.857,453.429C 223.185,453.894 228.069,454.402 233.403,454.818C 238.735,455.294 244.516,455.75 250.637,456.117C 256.756,456.526 263.214,456.894 269.898,457.166C 276.583,457.389 283.49,457.757 290.515,457.831C 297.539,457.919 304.675,458.009 311.81,458.098C 318.946,458.01 326.081,457.922 333.106,457.835C 340.13,457.774 347.038,457.395 353.723,457.174C 360.407,456.901 366.865,456.541 372.984,456.127C 378.39,455.801 383.511,455.411 388.312,454.993C 388.287,455.21 388.271,455.421 388.243,455.639C 387.355,463.18 386.058,470.96 384.555,478.84C 384.167,480.81 383.778,482.788 383.388,484.772C 382.956,486.75 382.523,488.735 382.089,490.723C 381.214,494.7 380.328,498.695 379.324,502.669C 377.438,510.642 375.271,518.564 373.151,526.377C 372.623,528.285 372.083,530.154 371.55,532.045C 354.619,532.076 333.222,532.115 311.81,532.153C 300.114,532.142 288.417,532.131 277.452,532.121C 266.476,532.093 256.234,532.068 247.453,532.045C 238.659,532.071 231.331,532.093 226.201,532.107C 221.063,532.151 218.123,532.23 218.123,532.23C 218.123,532.23 221.033,532.656 226.131,533.303C 228.679,533.624 231.776,534.003 235.337,534.355C 238.897,534.738 242.916,535.156 247.305,535.498C 251.691,535.89 256.447,536.265 261.483,536.567C 266.517,536.903 271.83,537.206 277.329,537.43C 282.829,537.614 288.512,537.916 294.291,537.977C 300.069,538.049 305.94,538.123 311.81,538.197C 317.681,538.124 323.551,538.051 329.331,537.98C 335.109,537.93 340.792,537.618 346.292,537.437C 351.791,537.211 357.104,536.916 362.138,536.575C 365.003,536.403 367.766,536.207 370.433,535.999C 369.55,539.083 368.664,542.116 367.773,545.131C 368,545.134 368.232,545.135 368.457,545.137C 374.016,545.171 379.271,545.202 384.121,545.232C 388.976,545.293 393.426,545.349 397.371,545.397C 401.318,545.462 404.759,545.518 407.593,545.565C 413.265,545.7 416.511,545.84 416.511,545.84C 416.511,545.84 413.293,546.262 407.653,546.892C 402.011,547.512 393.948,548.38 384.25,549.065C 379.403,549.429 374.151,549.865 368.589,550.12C 363.029,550.413 357.164,550.784 351.092,550.971C 347.465,551.073 343.751,551.212 340.002,551.333C 338.091,551.395 336.181,551.429 334.271,551.478C 333.632,551.489 333.009,551.519 332.134,551.529C 317.302,551.874 302.484,551.847 287.649,551.437C 283.355,551.331 279.103,551.193 274.967,551.055C 268.894,550.895 263.028,550.537 257.466,550.248C 251.904,549.964 246.649,549.581 241.8,549.212C 232.102,548.494 224.036,547.643 218.397,546.995C 212.758,546.324 209.547,545.84 209.626,545.838C 207.905,545.64 206.183,545.441 204.458,545.233C 190.836,518.941 180.183,489.236 180.183,460.624 Z M 208.065,551.995C 242.924,556.04 277.369,558.089 311.81,558.089C 329.319,558.089 346.829,557.548 364.392,556.502C 362.929,561.344 361.475,566.066 360.061,570.608C 357.933,577.398 355.922,583.819 354.066,589.744C 353.251,592.324 352.473,594.79 351.72,597.174C 340.656,597.193 326.249,597.219 311.81,597.245C 304.346,597.239 296.882,597.231 289.884,597.225C 282.881,597.207 276.345,597.191 270.742,597.176C 265.13,597.193 260.453,597.207 257.18,597.216C 253.901,597.243 252.025,597.295 252.025,597.295C 252.025,597.295 253.882,597.566 257.135,597.978C 258.761,598.184 260.737,598.426 263.01,598.65C 265.281,598.895 267.846,599.161 270.647,599.379C 273.445,599.629 276.481,599.869 279.694,600.062C 282.907,600.276 286.297,600.47 289.807,600.612C 293.316,600.73 296.943,600.923 300.63,600.962C 304.318,601.008 308.064,601.055 311.81,601.102C 315.557,601.056 319.303,601.009 322.991,600.964C 326.678,600.932 330.305,600.733 333.814,600.617C 337.324,600.473 340.714,600.285 343.927,600.067C 346.402,599.917 348.731,599.739 350.97,599.551C 348.582,607.113 346.549,613.556 344.995,618.478C 342.818,625.455 341.575,629.442 341.575,629.442C 341.575,629.442 342.121,628.548 343.144,626.872C 344.127,625.177 345.627,622.713 347.369,619.499C 348.576,617.337 349.939,614.822 351.405,612.035C 347.968,620.284 345.071,626.905 343.075,631.377C 342.497,631.374 341.935,631.37 341.325,631.367C 333.275,631.394 322.543,631.43 311.81,631.467C 306.447,631.457 301.082,631.447 296.053,631.438C 291.02,631.414 286.323,631.392 282.295,631.373C 278.263,631.396 274.902,631.414 272.549,631.427C 270.193,631.464 268.845,631.533 268.845,631.533C 268.845,631.533 270.179,631.897 272.517,632.452C 273.686,632.729 275.106,633.053 276.74,633.355C 277.007,633.409 277.313,633.465 277.592,633.52C 274.005,633.296 270.407,633.036 266.804,632.742L 262.106,627.738C 261.609,627.209 231.615,594.925 208.065,551.995 Z M 384.854,651.496C 384.607,651.509 384.253,651.564 383.79,651.574C 382.751,651.62 381.227,651.687 379.288,651.772C 375.41,651.885 369.87,652.16 363.222,652.283C 356.574,652.404 348.818,652.639 340.508,652.72C 332.198,652.836 323.334,652.853 314.471,652.88C 305.606,652.849 296.742,652.827 288.433,652.708C 280.311,652.622 272.726,652.401 266.18,652.277L 241.155,652.277C 247.285,646.071 257.821,642.823 257.953,642.784L 265.631,640.59C 281.13,641.87 296.475,642.55 311.81,642.55C 322.625,642.55 333.445,642.191 344.317,641.555C 345.838,643.51 347.37,646.38 348.2,650.421C 353.604,650.524 358.676,650.658 363.222,650.74C 369.87,650.861 375.41,651.13 379.288,651.239C 381.227,651.319 382.75,651.382 383.789,651.426C 384.236,651.431 384.57,651.49 384.992,651.485L 385.382,651.492L 384.958,651.503 Z "/>
			<linearGradient id="SVGID_Fill22_" gradientUnits="objectBoundingBox" x1="-1.45836" y1="-0.954777" x2="4.96781" y2="-0.954777" gradientTransform="rotate(78.505081 -1.458360 -0.954777)">
				<stop offset="0" stop-color="#6E6E6E" stop-opacity="1"/>
				<stop offset="1" stop-color="#0E0E0C" stop-opacity="1"/>
			</linearGradient>
			<path fill="url(#SVGID_Fill22_)" stroke-width="0.2" stroke-linejoin="miter" d="M 200.337,515.231C 199.088,511.202 197.947,506.784 196.742,502.134C 195.602,497.464 194.633,492.502 193.716,487.376C 192.847,482.238 192.326,476.894 191.937,471.48C 191.871,470.125 191.772,468.765 191.73,467.401C 191.712,466.038 191.694,464.671 191.676,463.3C 191.78,460.522 191.885,457.731 191.99,454.941C 192.095,452.125 192.46,449.508 192.672,446.788C 192.918,444.094 193.509,441.406 193.901,438.738C 194.071,437.392 194.49,436.116 194.774,434.811C 195.068,433.507 195.36,432.21 195.65,430.92C 196.39,428.394 197.141,425.893 197.962,423.467C 199.818,418.705 201.707,414.101 204.11,410.053C 204.705,409.04 205.249,408.009 205.863,407.044C 206.504,406.095 207.134,405.161 207.754,404.243C 208.915,402.335 210.349,400.733 211.583,399.065C 212.882,397.455 214.271,396.034 215.514,394.596C 216.865,393.275 218.104,391.952 219.363,390.812C 221.889,388.54 224.205,386.66 226.176,385.173C 228.19,383.757 229.76,382.587 230.902,381.906C 232.018,381.171 232.613,380.78 232.613,380.78C 232.613,380.78 231.95,381.042 230.707,381.533C 229.453,382.011 227.66,382.814 225.409,383.937C 224.293,384.512 223.094,385.218 221.76,385.954C 220.424,386.69 219.103,387.671 217.616,388.627C 216.162,389.626 214.705,390.813 213.109,392.008C 211.624,393.322 210.033,394.694 208.481,396.236C 205.427,399.359 202.19,402.91 199.475,407.17C 196.578,411.315 194.122,416.074 191.955,421.146C 190.953,423.707 190.022,426.353 189.108,429.036C 188.379,431.764 187.523,434.517 186.979,437.345C 186.509,440.191 185.852,443.009 185.534,445.936C 185.256,448.842 184.815,451.852 184.686,454.701C 184.622,457.579 184.558,460.458 184.495,463.324C 184.537,464.778 184.578,466.229 184.619,467.676C 184.685,469.12 184.809,470.556 184.902,471.987C 185.343,477.708 186.31,483.265 187.407,488.578C 188.537,493.887 189.991,498.921 191.512,503.629C 193.057,508.33 194.702,512.702 196.405,516.651C 198.037,520.629 199.754,524.174 201.304,527.293C 202.851,530.414 204.305,533.076 205.54,535.251C 206.734,537.445 207.797,539.091 208.482,540.237C 209.176,541.378 209.547,541.986 209.547,541.986C 209.547,541.986 208.567,539.315 206.851,534.64C 205.154,529.981 202.791,523.303 200.337,515.231 Z "/>
			<linearGradient id="SVGID_Fill23_" gradientUnits="objectBoundingBox" x1="-11.732" y1="-1.07732" x2="13.2943" y2="-1.07732" gradientTransform="rotate(83.261459 -11.732019 -1.077323)">
				<stop offset="0" stop-color="#6E6E6E" stop-opacity="1"/>
				<stop offset="1" stop-color="#0E0E0C" stop-opacity="1"/>
			</linearGradient>
			<path fill="url(#SVGID_Fill23_)" stroke-width="0.2" stroke-linejoin="miter" d="M 253.237,364.366C 253.775,363.566 254.484,362.604 255.135,361.422C 255.473,360.833 255.832,360.207 256.211,359.546C 256.561,358.872 256.892,358.147 257.259,357.395C 258.003,355.895 258.663,354.209 259.331,352.41C 259.906,350.586 260.645,348.681 261.074,346.629C 261.326,345.612 261.575,344.573 261.799,343.516C 261.97,342.45 262.143,341.371 262.318,340.283C 262.728,338.11 262.768,335.864 262.958,333.632C 263.067,331.396 262.964,329.154 262.922,326.954C 262.779,324.758 262.489,322.607 262.248,320.533C 261.922,318.466 261.421,316.5 261.02,314.636C 260.68,312.758 259.966,311.069 259.475,309.485C 258.942,307.911 258.496,306.464 257.881,305.249C 257.335,304.014 256.806,302.961 256.383,302.094C 255.529,300.363 254.985,299.408 254.985,299.408C 254.985,299.408 255.079,300.526 255.343,302.423C 255.479,303.371 255.628,304.52 255.86,305.813C 256.125,307.098 256.179,308.602 256.406,310.191C 256.501,310.988 256.599,311.818 256.702,312.676C 256.825,313.529 256.948,314.409 256.984,315.327C 257.12,317.143 257.263,319.059 257.41,321.04C 257.473,323.015 257.539,325.056 257.605,327.129C 257.52,329.199 257.613,331.302 257.48,333.397C 257.327,335.488 257.315,337.595 257.044,339.645C 256.944,340.675 256.844,341.697 256.746,342.707C 256.602,343.711 256.459,344.704 256.319,345.68C 256.084,347.646 255.69,349.516 255.4,351.32C 254.985,353.084 254.702,354.803 254.303,356.35C 253.92,357.904 253.576,359.34 253.215,360.601C 252.872,361.869 252.533,362.966 252.266,363.882C 251.699,365.696 251.328,366.745 251.328,366.745C 251.328,366.745 252.104,365.948 253.237,364.366 Z "/>
			<linearGradient id="SVGID_Fill24_" gradientUnits="objectBoundingBox" x1="-1.3752" y1="-28.5107" x2="73.1288" y2="-28.5107" gradientTransform="rotate(4.858536 -1.375203 -28.510675)">
				<stop offset="0" stop-color="#6E6E6E" stop-opacity="1"/>
				<stop offset="1" stop-color="#0E0E0C" stop-opacity="1"/>
			</linearGradient>
			<path fill="url(#SVGID_Fill24_)" stroke-width="0.2" stroke-linejoin="miter" d="M 255.788,387.786C 257.62,388.1 259.688,388.446 261.946,388.745C 264.204,389.078 266.652,389.406 269.243,389.686C 271.834,389.99 274.568,390.276 277.398,390.511C 280.228,390.717 283.153,391.007 286.127,391.133C 289.101,391.267 292.122,391.404 295.144,391.54C 298.165,391.575 301.186,391.612 304.159,391.647C 307.134,391.697 310.058,391.565 312.888,391.52C 315.719,391.446 318.452,391.32 321.044,391.159C 323.635,391.024 326.083,390.84 328.34,390.631C 330.599,390.459 332.666,390.232 334.497,390.019C 336.329,389.828 337.923,389.613 339.236,389.428C 341.861,389.058 343.357,388.807 343.357,388.807C 343.357,388.807 341.844,388.707 339.2,388.602C 336.561,388.516 332.789,388.393 328.263,388.246C 319.23,388.012 307.187,387.7 295.144,387.388C 289.124,387.209 283.104,387.031 277.461,386.864C 271.813,386.685 266.542,386.519 262.023,386.375C 257.497,386.265 253.727,386.173 251.086,386.108C 248.442,386.063 246.929,386.075 246.929,386.075C 246.929,386.075 248.427,386.41 251.05,386.928C 252.362,387.186 253.955,387.492 255.788,387.786 Z "/>
		</g>
	</g>
</svg>
