<?xml version="1.0" encoding="utf-8"?>
<!DOCTYPE svg PUBLIC "-//W3C//DTD SVG 1.1//EN" "http://www.w3.org/Graphics/SVG/1.1/DTD/svg11.dtd">
<svg xmlns="http://www.w3.org/2000/svg" xmlns:xlink="http://www.w3.org/1999/xlink" version="1.1" baseProfile="full" width="623.621" height="982.677" viewBox="0 0 623.62 982.68" enable-background="new 0 0 623.62 982.68" xml:space="preserve">
	<g>
		<g>
			<path fill="#575757" fill-opacity="1" stroke-width="0.2" stroke-linejoin="round" d="M 623.621,30.2362L 623.621,952.441C 623.621,969.14 610.083,982.677 593.384,982.677L 30.2361,982.677C 13.5374,982.677 0,969.14 0,952.441L 0,30.2362C 0,13.5372 13.5374,0 30.2361,0L 593.384,0C 610.083,0 623.621,13.5372 623.621,30.2362 Z "/>
			<g>
				<g>
					<linearGradient id="SVGID_Fill1_" gradientUnits="objectBoundingBox" x1="1.57029" y1="1.03053" x2="2.60813" y2="1.03053" gradientTransform="rotate(268.540161 1.570294 1.030527)">
						<stop offset="0" stop-color="#979795" stop-opacity="1"/>
						<stop offset="0.502242" stop-color="#F8F8F6" stop-opacity="1"/>
						<stop offset="1" stop-color="#959593" stop-opacity="1"/>
					</linearGradient>
					<path fill="url(#SVGID_Fill1_)" stroke-width="0.2" stroke-linejoin="round" d="M 403.011,918.972L 384.633,850.802C 391.002,850.802 397.372,850.802 402.134,858.546C 406.897,866.289 410.052,881.777 413.208,897.265L 430.385,850.802L 448.628,850.802L 421.126,918.972L 403.011,918.972 Z "/>
					<linearGradient id="SVGID_Fill2_" gradientUnits="objectBoundingBox" x1="1.40517" y1="1.03053" x2="2.44477" y2="1.03053" gradientTransform="rotate(269.352142 1.405174 1.030527)">
						<stop offset="0" stop-color="#979795" stop-opacity="1"/>
						<stop offset="0.502242" stop-color="#F8F8F6" stop-opacity="1"/>
						<stop offset="1" stop-color="#959593" stop-opacity="1"/>
					</linearGradient>
					<path fill="url(#SVGID_Fill2_)" stroke-width="0.2" stroke-linejoin="round" d="M 445.221,918.972L 456.094,850.802L 473.618,850.802L 462.566,918.955L 445.221,918.972 Z "/>
					<linearGradient id="SVGID_Fill3_" gradientUnits="objectBoundingBox" x1="-0.610526" y1="1.03057" x2="0.421351" y2="1.03057" gradientTransform="rotate(268.581482 -0.610526 1.030565)">
						<stop offset="0" stop-color="#979795" stop-opacity="1"/>
						<stop offset="0.502242" stop-color="#F8F8F6" stop-opacity="1"/>
						<stop offset="1" stop-color="#959593" stop-opacity="1"/>
					</linearGradient>
					<path fill="url(#SVGID_Fill3_)" stroke-width="0.2" stroke-linejoin="round" d="M 585.825,918.958L 570.094,918.955L 567.624,908.804L 545.116,908.802L 540.184,918.952L 523.297,918.952C 532.168,895.437 541.039,871.921 549.145,860.562C 557.252,849.204 564.594,850.003 571.936,850.802L 585.825,918.958 Z M 564.844,894.949L 559.432,869.204L 549.939,894.948L 564.844,894.949 Z "/>
					<linearGradient id="SVGID_Fill4_" gradientUnits="objectBoundingBox" x1="0.220911" y1="0.978426" x2="1.17264" y2="0.978426" gradientTransform="rotate(268.837402 0.220911 0.978426)">
						<stop offset="0" stop-color="#979795" stop-opacity="1"/>
						<stop offset="0.502242" stop-color="#F8F8F6" stop-opacity="1"/>
						<stop offset="1" stop-color="#959593" stop-opacity="1"/>
					</linearGradient>
					<path fill="url(#SVGID_Fill4_)" stroke-width="0.2" stroke-linejoin="round" d="M 491.747,922.026C 487.588,921.431 483.985,920.745 480.936,919.969C 477.887,919.193 475.19,918.289 472.845,917.26L 476.6,901.734C 480.523,903.034 483.903,904.071 486.738,904.847C 489.574,905.622 491.988,906.152 493.979,906.437C 498.995,907.156 502.706,907.133 505.111,906.37C 507.515,905.606 508.887,904.045 509.225,901.685C 509.438,900.194 509.279,898.997 508.746,898.094C 508.212,897.19 507.278,896.384 505.943,895.676L 491.025,887.669C 486.929,885.458 484.022,882.811 482.302,879.729C 480.583,876.646 480.085,872.572 480.811,867.506C 481.926,859.719 485.145,854.327 490.469,851.33C 495.792,848.333 503.525,847.56 513.668,849.013C 516.143,849.367 518.577,849.83 520.97,850.401C 523.364,850.973 525.849,851.672 528.425,852.499L 524.912,867.506C 521.972,866.715 519.386,866.094 517.155,865.642C 514.924,865.189 512.912,864.835 511.119,864.578C 505.454,863.767 501.265,863.695 498.554,864.363C 495.843,865.031 494.322,866.523 493.99,868.839C 493.77,870.374 493.988,871.557 494.644,872.389C 495.299,873.222 496.374,874.026 497.868,874.801L 510.401,881.359C 515.28,883.815 518.726,886.779 520.738,890.25C 522.75,893.721 523.371,898.149 522.6,903.534C 521.499,911.22 518.445,916.561 513.435,919.559C 508.426,922.557 501.196,923.379 491.747,922.026 Z "/>
					<linearGradient id="SVGID_Fill5_" gradientUnits="objectBoundingBox" x1="2.73583" y1="1.90307" x2="4.6521" y2="1.90307" gradientTransform="rotate(268.202911 2.735825 1.903067)">
						<stop offset="0" stop-color="#979795" stop-opacity="1"/>
						<stop offset="0.502242" stop-color="#F8F8F6" stop-opacity="1"/>
						<stop offset="1" stop-color="#959593" stop-opacity="1"/>
					</linearGradient>
					<path fill="url(#SVGID_Fill5_)" stroke-width="0.2" stroke-linejoin="round" d="M 368.404,852.137L 368.723,850.805L 397.112,850.805C 397.112,850.805 403.797,850.433 404.995,856.864C 406.193,863.296 411.067,887.716 411.067,887.716C 411.067,887.716 402.988,860.859 368.404,852.137 Z "/>
				</g>
				<g>
					<path fill="#FFFFFF" fill-opacity="1" stroke-width="0.2" stroke-linejoin="round" d="M 218.651,755.904L 310.99,755.904C 312.973,755.904 314.58,757.512 314.58,759.495L 314.58,880.466C 314.58,882.449 312.973,884.057 310.99,884.057L 218.651,884.057C 216.668,884.057 215.06,882.449 215.06,880.466L 215.06,759.495C 215.06,757.512 216.668,755.904 218.651,755.904 Z "/>
					<path fill="#EAEAEA" fill-opacity="1" stroke-width="0.2" stroke-linejoin="round" d="M 226.228,755.903L 238.46,755.903C 240.443,755.903 242.051,757.511 242.051,759.494L 242.051,801.67C 242.051,803.652 240.443,805.26 238.46,805.26L 226.228,805.26C 224.245,805.26 222.637,803.652 222.637,801.67L 222.637,759.494C 222.637,757.511 224.245,755.903 226.228,755.903 Z "/>
					<path fill="#EAEAEA" fill-opacity="1" stroke-width="0.2" stroke-linejoin="round" d="M 257.801,755.904L 270.033,755.904C 272.016,755.904 273.624,757.512 273.624,759.495L 273.624,793.778C 273.624,795.761 272.016,797.369 270.033,797.369L 257.801,797.369C 255.818,797.369 254.21,795.761 254.21,793.778L 254.21,759.495C 254.21,757.512 255.818,755.904 257.801,755.904 Z "/>
					<path fill="#EAEAEA" fill-opacity="1" stroke-width="0.2" stroke-linejoin="round" d="M 290.442,755.906L 302.674,755.906C 304.656,755.906 306.264,757.513 306.264,759.496L 306.264,790.11C 306.264,792.093 304.656,793.701 302.674,793.701L 290.442,793.701C 288.458,793.701 286.851,792.093 286.851,790.11L 286.851,759.496C 286.851,757.513 288.458,755.906 290.442,755.906 Z "/>
					<path fill="#EAEAEA" fill-opacity="1" stroke-width="0.2" stroke-linejoin="round" d="M 296.024,809.066L 296.024,830.471C 296.024,832.454 294.416,834.062 292.433,834.062L 233.89,834.062C 231.907,834.062 230.299,832.454 230.299,830.471L 230.299,809.066C 230.299,807.083 231.907,805.475 233.89,805.475L 292.433,805.475C 294.416,805.475 296.024,807.083 296.024,809.066 Z "/>
					<path fill="#EAEAEA" fill-opacity="1" stroke-width="0.2" stroke-linejoin="round" d="M 226.656,844.925L 238.887,844.925C 240.87,844.925 242.478,846.533 242.478,848.516L 242.478,879.13C 242.478,881.113 240.87,882.721 238.887,882.721L 226.656,882.721C 224.672,882.721 223.065,881.113 223.065,879.13L 223.065,848.516C 223.065,846.533 224.672,844.925 226.656,844.925 Z "/>
					<path fill="#EAEAEA" fill-opacity="1" stroke-width="0.2" stroke-linejoin="round" d="M 287.053,850.393L 299.285,850.393C 301.268,850.393 302.876,852 302.876,853.983L 302.876,880.196C 302.876,882.179 301.268,883.786 299.285,883.786L 287.053,883.786C 285.07,883.786 283.463,882.179 283.463,880.196L 283.463,853.983C 283.463,852 285.07,850.393 287.053,850.393 Z "/>
					<path fill="#EAEAEA" fill-opacity="1" stroke-width="0.2" stroke-linejoin="round" d="M 258.655,841.81L 270.886,841.81C 272.87,841.81 274.477,843.417 274.477,845.401L 274.477,879.683C 274.477,881.667 272.87,883.274 270.886,883.274L 258.655,883.274C 256.671,883.274 255.064,881.667 255.064,879.683L 255.064,845.401C 255.064,843.417 256.671,841.81 258.655,841.81 Z "/>
				</g>
				<g>
					<g>
						<g>
							<linearGradient id="SVGID_Fill6_" gradientUnits="objectBoundingBox" x1="-0.752733" y1="15.1202" x2="17.562" y2="15.1202" gradientTransform="rotate(-6.186073 -0.752733 15.120173)">
								<stop offset="0" stop-color="#FFFFFF" stop-opacity="1"/>
								<stop offset="0.488789" stop-color="#E09AD0" stop-opacity="1"/>
								<stop offset="1" stop-color="#F5BC40" stop-opacity="1"/>
							</linearGradient>
							<path fill="url(#SVGID_Fill6_)" stroke-width="0.2" stroke-linejoin="miter" d="M 89.6082,70.9237L 72.3201,70.9237C 72.3201,70.9237 73.7488,75.21 77.3208,77.9246L 89.6082,77.9246L 101.896,77.9246C 105.468,75.21 106.896,70.9237 106.896,70.9237L 89.6082,70.9237 Z "/>
							<linearGradient id="SVGID_Fill7_" gradientUnits="objectBoundingBox" x1="-0.578587" y1="40.626" x2="43.9484" y2="40.626" gradientTransform="rotate(-2.065552 -0.578587 40.625999)">
								<stop offset="0" stop-color="#FFFFFF" stop-opacity="1"/>
								<stop offset="0.488789" stop-color="#E09AD0" stop-opacity="1"/>
								<stop offset="1" stop-color="#F5BC40" stop-opacity="1"/>
							</linearGradient>
							<rect x="69.6055" y="66.4945" fill="url(#SVGID_Fill7_)" stroke-width="0.2" stroke-linejoin="miter" width="40.2913" height="2.7146"/>
							<linearGradient id="SVGID_Fill8_" gradientUnits="objectBoundingBox" x1="-11.6403" y1="3.41998" x2="70.9962" y2="3.41998" gradientTransform="rotate(-79.833351 -11.640346 3.419982)">
								<stop offset="0" stop-color="#FFFFFF" stop-opacity="1"/>
								<stop offset="0.488789" stop-color="#E09AD0" stop-opacity="1"/>
								<stop offset="1" stop-color="#F5BC40" stop-opacity="1"/>
							</linearGradient>
							<rect x="77.8923" y="80.0677" fill="url(#SVGID_Fill8_)" stroke-width="0.2" stroke-linejoin="miter" width="2.7146" height="28.278"/>
							<linearGradient id="SVGID_Fill9_" gradientUnits="objectBoundingBox" x1="-13.5339" y1="3.41998" x2="69.0952" y2="3.41998" gradientTransform="rotate(-79.832443 -13.533903 3.419982)">
								<stop offset="0" stop-color="#FFFFFF" stop-opacity="1"/>
								<stop offset="0.488789" stop-color="#E09AD0" stop-opacity="1"/>
								<stop offset="1" stop-color="#F5BC40" stop-opacity="1"/>
							</linearGradient>
							<rect x="83.0359" y="80.0677" fill="url(#SVGID_Fill9_)" stroke-width="0.2" stroke-linejoin="miter" width="2.71484" height="28.278"/>
							<linearGradient id="SVGID_Fill10_" gradientUnits="objectBoundingBox" x1="-15.4285" y1="3.41998" x2="67.2006" y2="3.41998" gradientTransform="rotate(-79.832443 -15.428507 3.419982)">
								<stop offset="0" stop-color="#FFFFFF" stop-opacity="1"/>
								<stop offset="0.488789" stop-color="#E09AD0" stop-opacity="1"/>
								<stop offset="1" stop-color="#F5BC40" stop-opacity="1"/>
							</linearGradient>
							<rect x="88.1794" y="80.0677" fill="url(#SVGID_Fill10_)" stroke-width="0.2" stroke-linejoin="miter" width="2.71484" height="28.278"/>
							<linearGradient id="SVGID_Fill11_" gradientUnits="objectBoundingBox" x1="-17.3231" y1="3.41998" x2="65.306" y2="3.41998" gradientTransform="rotate(-79.832443 -17.323111 3.419982)">
								<stop offset="0" stop-color="#FFFFFF" stop-opacity="1"/>
								<stop offset="0.488789" stop-color="#E09AD0" stop-opacity="1"/>
								<stop offset="1" stop-color="#F5BC40" stop-opacity="1"/>
							</linearGradient>
							<rect x="93.323" y="80.0677" fill="url(#SVGID_Fill11_)" stroke-width="0.2" stroke-linejoin="miter" width="2.71484" height="28.278"/>
							<linearGradient id="SVGID_Fill12_" gradientUnits="objectBoundingBox" x1="-19.2177" y1="3.41998" x2="63.4114" y2="3.41998" gradientTransform="rotate(-79.832443 -19.217716 3.419982)">
								<stop offset="0" stop-color="#FFFFFF" stop-opacity="1"/>
								<stop offset="0.488789" stop-color="#E09AD0" stop-opacity="1"/>
								<stop offset="1" stop-color="#F5BC40" stop-opacity="1"/>
							</linearGradient>
							<rect x="98.4666" y="80.0677" fill="url(#SVGID_Fill12_)" stroke-width="0.2" stroke-linejoin="miter" width="2.71484" height="28.278"/>
						</g>
						<linearGradient id="SVGID_Fill13_" gradientUnits="objectBoundingBox" x1="-0.214705" y1="1.99207" x2="4.00064" y2="1.99207" gradientTransform="rotate(-28.160934 -0.214705 1.992074)">
							<stop offset="0" stop-color="#FFFFFF" stop-opacity="1"/>
							<stop offset="0.488789" stop-color="#E09AD0" stop-opacity="1"/>
							<stop offset="1" stop-color="#F5BC40" stop-opacity="1"/>
						</linearGradient>
						<path fill="url(#SVGID_Fill13_)" stroke-width="0.2" stroke-linejoin="miter" d="M 119.518,116.974L 59.2363,116.974L 59.2363,56.6919L 119.518,56.6919L 119.518,116.974 Z M 60.6213,115.589L 118.133,115.589L 118.133,58.0769L 60.6213,58.0769L 60.6213,115.589 Z "/>
					</g>
					<g>
						<linearGradient id="SVGID_Fill14_" gradientUnits="objectBoundingBox" x1="-2.03755" y1="2.58932" x2="4.04081" y2="2.58932" gradientTransform="rotate(-27.969269 -2.037546 2.589319)">
							<stop offset="0" stop-color="#FFFFFF" stop-opacity="1"/>
							<stop offset="0.488789" stop-color="#E09AD0" stop-opacity="1"/>
							<stop offset="1" stop-color="#F5BC40" stop-opacity="1"/>
						</linearGradient>
						<path fill="url(#SVGID_Fill14_)" stroke-width="0.2" stroke-linejoin="round" d="M 157.751,110.781C 155.359,110.781 154.163,109.694 154.163,107.519C 154.163,106.432 154.425,105.594 154.948,105.007C 155.471,104.419 156.124,104.037 156.905,103.86C 158.556,103.513 160.101,102.851 161.538,101.872C 162.975,100.894 164.258,99.6434 165.385,98.1212C 166.561,96.5107 167.463,94.8035 168.092,92.9993C 168.72,91.1951 169.035,89.3145 169.035,87.3574C 169.035,85.0946 168.634,82.8979 167.832,80.7676C 167.03,78.6372 165.933,76.8756 164.54,75.4825C 163.017,73.9196 161.354,72.6267 159.55,71.6041C 157.746,70.5814 155.689,70.0699 153.378,70.0699C 150.769,70.0699 148.389,70.527 146.238,71.4409C 144.087,72.355 142.251,73.6818 140.729,75.4214C 139.336,76.9843 138.226,78.7987 137.401,80.8644C 136.575,82.9303 136.162,85.1387 136.162,87.4899C 136.162,89.447 136.444,91.3276 137.008,93.1317C 137.572,94.9359 138.486,96.5991 139.75,98.1212C 140.79,99.4259 141.996,100.579 143.369,101.582C 144.741,102.584 146.189,103.323 147.711,103.799C 148.363,104.016 148.927,104.224 149.403,104.421C 149.879,104.618 150.269,104.845 150.575,105.104C 150.881,105.362 151.098,105.698 151.228,106.113C 151.357,106.527 151.421,107.04 151.421,107.652C 151.421,108.78 151.041,109.605 150.28,110.129C 149.518,110.652 148.618,110.914 147.578,110.914C 146.797,110.914 145.937,110.771 145,110.485C 144.062,110.2 143.104,109.819 142.125,109.344C 141.147,108.868 140.18,108.314 139.225,107.682C 138.271,107.05 137.379,106.364 136.55,105.623C 134.987,104.19 133.661,102.679 132.574,101.093C 131.487,99.5059 130.594,97.7101 129.893,95.7054C 128.942,93.0145 128.467,89.9498 128.467,86.5114C 128.467,84.5543 128.748,82.5973 129.313,80.6403C 129.876,78.6831 130.614,76.8789 131.524,75.2277C 132.482,73.5764 133.614,72.0441 134.919,70.6306C 136.223,69.2172 137.701,67.9872 139.353,66.9408C 141.31,65.7244 143.452,64.7679 145.779,64.0714C 148.107,63.3749 150.382,63.0266 152.604,63.0266C 154.819,63.0266 156.992,63.3206 159.122,63.9083C 161.252,64.4961 163.252,65.3336 165.121,66.4209C 166.949,67.5082 168.668,68.9216 170.278,70.6613C 171.889,72.4008 173.194,74.2491 174.193,76.2062C 174.974,77.8575 175.594,79.6176 176.052,81.4862C 176.511,83.355 176.741,85.2271 176.741,87.1025C 176.741,88.9237 176.511,90.835 176.052,92.8362C 175.594,94.8374 174.974,96.6637 174.193,98.3149C 173.499,99.708 172.718,100.992 171.848,102.168C 170.978,103.344 169.956,104.451 168.78,105.491C 167.258,106.884 165.529,108.114 163.592,109.181C 161.655,110.248 159.708,110.781 157.751,110.781 Z "/>
						<linearGradient id="SVGID_Fill15_" gradientUnits="objectBoundingBox" x1="-5.64452" y1="2.59483" x2="4.34866" y2="2.59483" gradientTransform="rotate(-43.390511 -5.644524 2.594831)">
							<stop offset="0" stop-color="#FFFFFF" stop-opacity="1"/>
							<stop offset="0.488789" stop-color="#E09AD0" stop-opacity="1"/>
							<stop offset="1" stop-color="#F5BC40" stop-opacity="1"/>
						</linearGradient>
						<path fill="url(#SVGID_Fill15_)" stroke-width="0.2" stroke-linejoin="round" d="M 181.959,110.975C 180.519,110.975 179.387,110.737 178.565,110.261C 178.001,109.955 177.556,109.563 177.23,109.084C 176.904,108.605 176.74,107.951 176.74,107.122C 176.74,106.823 176.773,106.531 176.837,106.245C 176.902,105.96 177.031,105.644 177.225,105.297C 177.418,104.951 177.678,104.55 178.004,104.094C 178.331,103.639 178.755,103.106 179.279,102.494C 180.06,101.583 180.702,100.79 181.205,100.114C 181.708,99.4379 182.1,98.7957 182.382,98.1875C 182.665,97.5793 182.87,96.9592 182.999,96.3273C 183.128,95.6953 183.193,94.9241 183.193,94.0134L 183.193,70.4675L 181.755,70.4675C 180.757,70.4675 179.909,70.1193 179.212,69.4227C 178.516,68.7262 178.167,67.8785 178.167,66.8795C 178.167,65.8739 178.516,65.0244 179.212,64.3313C 179.909,63.6382 180.757,63.2916 181.755,63.2916L 186.067,63.2916C 186.978,63.2916 187.717,63.3341 188.284,63.4191C 188.852,63.504 189.393,63.8081 189.91,64.3313C 190.392,64.807 190.676,65.2844 190.761,65.7634C 190.846,66.2426 190.888,66.8524 190.888,67.5931L 190.888,93.3611C 190.888,94.6658 190.802,95.8176 190.628,96.8165C 190.455,97.8154 190.196,98.7396 189.849,99.5891C 189.502,100.438 189.089,101.254 188.61,102.035C 188.131,102.817 187.586,103.622 186.974,104.451L 194.028,104.451C 194.375,104.451 194.677,104.342 194.935,104.125C 195.153,103.907 195.392,103.668 195.654,103.406C 195.915,103.145 196.155,102.861 196.372,102.555C 197.154,101.556 197.848,100.807 198.457,100.308C 199.065,99.8082 199.784,99.5585 200.613,99.5585C 201.394,99.5585 202.111,99.8625 202.763,100.471C 203.416,101.079 203.742,101.95 203.742,103.085C 203.742,103.69 203.611,104.232 203.349,104.711C 203.088,105.19 202.655,105.8 202.05,106.541L 200.287,108.691C 199.981,109.038 199.687,109.342 199.405,109.604C 199.123,109.865 198.829,110.084 198.523,110.261C 198.088,110.479 197.599,110.652 197.055,110.781C 196.511,110.91 195.829,110.975 195.006,110.975L 181.959,110.975 Z "/>
						<linearGradient id="SVGID_Fill16_" gradientUnits="objectBoundingBox" x1="-24.1601" y1="2.56425" x2="9.51547" y2="2.56425" gradientTransform="rotate(-73.459236 -24.160143 2.564252)">
							<stop offset="0" stop-color="#FFFFFF" stop-opacity="1"/>
							<stop offset="0.488789" stop-color="#E09AD0" stop-opacity="1"/>
							<stop offset="1" stop-color="#F5BC40" stop-opacity="1"/>
						</linearGradient>
						<path fill="url(#SVGID_Fill16_)" stroke-width="0.2" stroke-linejoin="round" d="M 210.918,111.301C 209.831,111.301 208.918,110.931 208.181,110.19C 207.444,109.449 207.075,108.535 207.075,107.448L 207.075,66.7471C 207.075,65.6598 207.444,64.7458 208.181,64.0051C 208.918,63.2644 209.831,62.8942 210.918,62.8942C 212.005,62.8942 212.919,63.2644 213.66,64.0051C 214.401,64.7458 214.771,65.6598 214.771,66.7471L 214.771,107.448C 214.771,108.535 214.401,109.449 213.66,110.19C 212.919,110.931 212.005,111.301 210.918,111.301 Z "/>
						<linearGradient id="SVGID_Fill17_" gradientUnits="objectBoundingBox" x1="-5.51439" y1="2.57762" x2="2.04783" y2="2.57762" gradientTransform="rotate(-34.882339 -5.514393 2.577621)">
							<stop offset="0" stop-color="#FFFFFF" stop-opacity="1"/>
							<stop offset="0.488789" stop-color="#E09AD0" stop-opacity="1"/>
							<stop offset="1" stop-color="#F5BC40" stop-opacity="1"/>
						</linearGradient>
						<path fill="url(#SVGID_Fill17_)" stroke-width="0.2" stroke-linejoin="round" d="M 224.23,111.168C 223.183,111.168 222.292,110.8 221.554,110.062C 220.817,109.325 220.448,108.433 220.448,107.387L 220.448,70.5287C 220.448,69.6997 220.458,69.0032 220.479,68.4391C 220.5,67.8751 220.52,67.4301 220.54,67.1039C 220.561,66.7777 220.583,66.528 220.606,66.3546C 220.63,66.1814 220.642,66.0505 220.642,65.9622C 220.73,65.439 221.012,64.8291 221.488,64.1326C 221.964,63.436 222.725,63.0878 223.771,63.0878C 224.77,63.0878 225.509,63.3171 225.989,63.7758C 226.467,64.2345 226.989,64.875 227.553,65.6971L 238.449,82.1385C 238.538,82.3153 238.614,82.4681 238.679,82.5973C 238.743,82.7263 238.82,82.8351 238.908,82.9235C 238.996,82.8351 239.073,82.7263 239.137,82.5973C 239.202,82.4681 239.279,82.3153 239.367,82.1385L 250.651,65.1162C 251.085,64.5046 251.52,64.0137 251.955,63.6433C 252.39,63.2729 253.086,63.0878 254.045,63.0878C 255.084,63.0878 255.844,63.436 256.323,64.1326C 256.802,64.8291 257.086,65.439 257.174,65.9622C 257.174,66.0505 257.184,66.1814 257.205,66.3546C 257.225,66.528 257.247,66.7777 257.271,67.1039C 257.295,67.4301 257.317,67.8751 257.337,68.4391C 257.358,69.0032 257.368,69.6997 257.368,70.5287L 257.368,107.387C 257.368,108.433 256.997,109.325 256.257,110.062C 255.516,110.8 254.626,111.168 253.586,111.168C 252.54,111.168 251.648,110.8 250.91,110.062C 250.173,109.325 249.804,108.433 249.804,107.387L 249.804,78.8768L 241.905,90.9453C 241.558,91.5094 241.254,91.9545 240.993,92.2806C 240.731,92.6068 240.491,92.8583 240.274,93.0349C 240.056,93.2115 239.839,93.3323 239.622,93.3969C 239.404,93.4613 239.166,93.4937 238.908,93.4937C 238.385,93.4937 237.928,93.3527 237.537,93.0707C 237.146,92.7886 236.601,92.0802 235.901,90.9453L 228.011,78.8157L 228.011,107.387C 228.011,108.433 227.641,109.325 226.901,110.062C 226.16,110.8 225.27,111.168 224.23,111.168 Z "/>
						<linearGradient id="SVGID_Fill18_" gradientUnits="objectBoundingBox" x1="-7.9807" y1="2.5718" x2="0.767854" y2="2.5718" gradientTransform="rotate(-39.560452 -7.980698 2.571802)">
							<stop offset="0" stop-color="#FFFFFF" stop-opacity="1"/>
							<stop offset="0.488789" stop-color="#E09AD0" stop-opacity="1"/>
							<stop offset="1" stop-color="#F5BC40" stop-opacity="1"/>
						</linearGradient>
						<path fill="url(#SVGID_Fill18_)" stroke-width="0.2" stroke-linejoin="round" d="M 284.573,77.246C 284.573,76.2469 284.398,75.2804 284.048,74.3459C 283.698,73.4116 283.197,72.6183 282.544,71.9659C 282.11,71.5718 281.675,71.2439 281.24,70.9823C 280.805,70.7207 280.316,70.5151 279.772,70.3656C 279.228,70.2161 278.588,70.1074 277.851,70.0394C 277.114,69.9714 276.221,69.9375 275.175,69.9375L 272.963,69.9375L 272.963,88.9271C 273.35,88.8795 273.794,88.8014 274.293,88.6927C 274.793,88.584 275.175,88.4889 275.44,88.4073C 278.355,87.4016 280.594,85.9202 282.157,83.9631C 282.939,83.0118 283.537,81.9484 283.951,80.7727C 284.366,79.597 284.573,78.4215 284.573,77.246 Z M 269.243,111.24C 268.244,111.24 267.374,110.869 266.633,110.129C 265.892,109.388 265.522,108.518 265.522,107.519L 265.522,69.9375L 264.024,69.9375C 263.066,69.9375 262.25,69.6011 261.577,68.9283C 260.905,68.2556 260.568,67.4402 260.568,66.4821C 260.568,65.5239 260.905,64.7085 261.577,64.0358C 262.25,63.3629 263.066,63.0266 264.024,63.0266L 276.021,63.0266C 276.938,63.0266 277.669,63.0487 278.212,63.0929C 278.756,63.1371 279.157,63.1796 279.415,63.2203C 281.59,63.526 283.46,64.1461 285.027,65.0804C 286.593,66.0149 288.049,67.396 289.394,69.224C 290.264,70.3995 290.884,71.672 291.254,73.0413C 291.625,74.4105 291.81,75.9208 291.81,77.5721C 291.81,79.4884 291.353,81.5881 290.439,83.8713C 289.525,86.1547 288.198,88.166 286.458,89.9056C 284.678,91.686 282.636,93.0774 280.333,94.0797C 278.029,95.082 275.573,95.7123 272.963,95.9706L 272.963,107.519C 272.963,108.518 272.593,109.388 271.852,110.129C 271.111,110.869 270.241,111.24 269.243,111.24 Z "/>
						<linearGradient id="SVGID_Fill19_" gradientUnits="objectBoundingBox" x1="-5.93941" y1="2.58932" x2="0.138947" y2="2.58932" gradientTransform="rotate(-27.969303 -5.939413 2.589319)">
							<stop offset="0" stop-color="#FFFFFF" stop-opacity="1"/>
							<stop offset="0.488789" stop-color="#E09AD0" stop-opacity="1"/>
							<stop offset="1" stop-color="#F5BC40" stop-opacity="1"/>
						</linearGradient>
						<path fill="url(#SVGID_Fill19_)" stroke-width="0.2" stroke-linejoin="round" d="M 322.797,110.781C 320.405,110.781 319.209,109.694 319.209,107.519C 319.209,106.432 319.47,105.594 319.994,105.007C 320.517,104.419 321.169,104.037 321.951,103.86C 323.602,103.513 325.146,102.851 326.583,101.872C 328.021,100.894 329.303,99.6434 330.431,98.1212C 331.607,96.5107 332.509,94.8035 333.137,92.9993C 333.766,91.1951 334.081,89.3145 334.081,87.3574C 334.081,85.0946 333.679,82.8979 332.878,80.7676C 332.076,78.6372 330.978,76.8756 329.585,75.4825C 328.063,73.9196 326.4,72.6267 324.596,71.6041C 322.792,70.5814 320.735,70.0699 318.424,70.0699C 315.815,70.0699 313.434,70.527 311.284,71.4409C 309.133,72.355 307.297,73.6818 305.774,75.4214C 304.381,76.9843 303.272,78.7987 302.447,80.8644C 301.621,82.9303 301.208,85.1387 301.208,87.4899C 301.208,89.447 301.49,91.3276 302.054,93.1317C 302.618,94.9359 303.532,96.5991 304.796,98.1212C 305.835,99.4259 307.042,100.579 308.415,101.582C 309.787,102.584 311.235,103.323 312.757,103.799C 313.409,104.016 313.973,104.224 314.449,104.421C 314.924,104.618 315.315,104.845 315.621,105.104C 315.927,105.362 316.144,105.698 316.273,106.113C 316.403,106.527 316.467,107.04 316.467,107.652C 316.467,108.78 316.086,109.605 315.325,110.129C 314.564,110.652 313.664,110.914 312.624,110.914C 311.843,110.914 310.983,110.771 310.045,110.485C 309.108,110.2 308.149,109.819 307.171,109.344C 306.192,108.868 305.226,108.314 304.271,107.682C 303.316,107.05 302.424,106.364 301.595,105.623C 300.032,104.19 298.707,102.679 297.62,101.093C 296.533,99.5059 295.639,97.7101 294.939,95.7054C 293.988,93.0145 293.512,89.9498 293.512,86.5114C 293.512,84.5543 293.794,82.5973 294.358,80.6403C 294.922,78.6831 295.659,76.8789 296.57,75.2277C 297.528,73.5764 298.66,72.0441 299.964,70.6306C 301.269,69.2172 302.747,67.9872 304.398,66.9408C 306.355,65.7244 308.498,64.7679 310.825,64.0714C 313.153,63.3749 315.427,63.0266 317.649,63.0266C 319.865,63.0266 322.037,63.3206 324.168,63.9083C 326.298,64.4961 328.298,65.3336 330.167,66.4209C 331.994,67.5082 333.713,68.9216 335.324,70.6613C 336.934,72.4008 338.239,74.2491 339.238,76.2062C 340.02,77.8575 340.64,79.6176 341.098,81.4862C 341.557,83.355 341.786,85.2271 341.786,87.1025C 341.786,88.9237 341.557,90.835 341.098,92.8362C 340.64,94.8374 340.02,96.6637 339.238,98.3149C 338.545,99.708 337.763,100.992 336.894,102.168C 336.024,103.344 335.001,104.451 333.826,105.491C 332.303,106.884 330.574,108.114 328.637,109.181C 326.701,110.248 324.754,110.781 322.797,110.781 Z "/>
					</g>
				</g>
			</g>
		</g>
		<g>
			<g>
				<linearGradient id="SVGID_Fill20_" gradientUnits="objectBoundingBox" x1="-2.15031" y1="-32.3096" x2="30.7044" y2="-32.3096" gradientTransform="rotate(8.115387 -2.150306 -32.309566)">
					<stop offset="0" stop-color="#FFFFFF" stop-opacity="1"/>
					<stop offset="1" stop-color="#0E0E0C" stop-opacity="1"/>
				</linearGradient>
				<path fill="url(#SVGID_Fill20_)" stroke-width="0.2" stroke-linejoin="miter" d="M 393.555,656.004L 393.555,667.533L 501.486,661.768L 393.555,656.004 Z "/>
				<linearGradient id="SVGID_Fill21_" gradientUnits="objectBoundingBox" x1="-2.23168" y1="-30.6131" x2="30.8391" y2="-30.6131" gradientTransform="rotate(8.598625 -2.231679 -30.613079)">
					<stop offset="0" stop-color="#FFFFFF" stop-opacity="1"/>
					<stop offset="1" stop-color="#0E0E0C" stop-opacity="1"/>
				</linearGradient>
				<path fill="url(#SVGID_Fill21_)" stroke-width="0.2" stroke-linejoin="miter" d="M 393.458,645.735L 488.376,640.188L 387.219,634.276C 390.81,637.049 393.003,641.064 393.458,645.735 Z "/>
				<linearGradient id="SVGID_Fill22_" gradientUnits="objectBoundingBox" x1="-2.55755" y1="-30.0965" x2="32.0441" y2="-30.0965" gradientTransform="rotate(9.417412 -2.557552 -30.096531)">
					<stop offset="0" stop-color="#FFFFFF" stop-opacity="1"/>
					<stop offset="1" stop-color="#0E0E0C" stop-opacity="1"/>
				</linearGradient>
				<path fill="url(#SVGID_Fill22_)" stroke-width="0.2" stroke-linejoin="miter" d="M 387.06,618.066L 387.06,624.298L 475.265,618.607L 393.599,613.338C 391.469,614.951 389.297,616.533 387.06,618.066 Z "/>
				<linearGradient id="SVGID_Fill23_" gradientUnits="objectBoundingBox" x1="-4.56984" y1="-42.6969" x2="47.6731" y2="-42.6969" gradientTransform="rotate(10.183052 -4.569840 -42.696907)">
					<stop offset="0" stop-color="#FFFFFF" stop-opacity="1"/>
					<stop offset="1" stop-color="#0E0E0C" stop-opacity="1"/>
				</linearGradient>
				<path fill="url(#SVGID_Fill23_)" stroke-width="0.2" stroke-linejoin="miter" d="M 408.171,600.913L 462.156,597.026L 415.25,593.649C 412.988,596.136 410.623,598.554 408.171,600.913 Z "/>
				<linearGradient id="SVGID_Fill24_" gradientUnits="objectBoundingBox" x1="-12.8162" y1="-90.2272" x2="105.272" y2="-90.2272" gradientTransform="rotate(11.664162 -12.816234 -90.227188)">
					<stop offset="0" stop-color="#FFFFFF" stop-opacity="1"/>
					<stop offset="1" stop-color="#0E0E0C" stop-opacity="1"/>
				</linearGradient>
				<path fill="url(#SVGID_Fill24_)" stroke-width="0.2" stroke-linejoin="miter" d="M 428.231,577.141L 449.045,575.445L 430.347,573.922C 429.656,575.004 428.95,576.077 428.231,577.141 Z "/>
				<linearGradient id="SVGID_Fill25_" gradientUnits="objectBoundingBox" x1="0.364462" y1="-32.3096" x2="33.2191" y2="-32.3096" gradientTransform="rotate(8.115387 0.364462 -32.309566)">
					<stop offset="0" stop-color="#FFFFFF" stop-opacity="1"/>
					<stop offset="1" stop-color="#0E0E0C" stop-opacity="1"/>
				</linearGradient>
				<path fill="url(#SVGID_Fill25_)" stroke-width="0.2" stroke-linejoin="miter" d="M 122.135,661.768L 230.065,667.533L 230.065,656.004L 122.135,661.768 Z "/>
				<linearGradient id="SVGID_Fill26_" gradientUnits="objectBoundingBox" x1="0.259267" y1="-30.6131" x2="33.33" y2="-30.6131" gradientTransform="rotate(8.598679 0.259267 -30.613079)">
					<stop offset="0" stop-color="#FFFFFF" stop-opacity="1"/>
					<stop offset="1" stop-color="#0E0E0C" stop-opacity="1"/>
				</linearGradient>
				<path fill="url(#SVGID_Fill26_)" stroke-width="0.2" stroke-linejoin="miter" d="M 230.163,645.735C 230.617,641.064 232.811,637.049 236.401,634.276L 135.245,640.188L 230.163,645.735 Z "/>
				<linearGradient id="SVGID_Fill27_" gradientUnits="objectBoundingBox" x1="0.148701" y1="-30.0965" x2="34.7503" y2="-30.0965" gradientTransform="rotate(9.417412 0.148701 -30.096531)">
					<stop offset="0" stop-color="#FFFFFF" stop-opacity="1"/>
					<stop offset="1" stop-color="#0E0E0C" stop-opacity="1"/>
				</linearGradient>
				<path fill="url(#SVGID_Fill27_)" stroke-width="0.2" stroke-linejoin="miter" d="M 236.56,624.298L 236.56,618.066C 234.323,616.533 232.152,614.951 230.021,613.338L 148.355,618.607L 236.56,624.298 Z "/>
				<linearGradient id="SVGID_Fill28_" gradientUnits="objectBoundingBox" x1="0.00010854" y1="-42.6969" x2="52.243" y2="-42.6969" gradientTransform="rotate(10.183167 0.000109 -42.696907)">
					<stop offset="0" stop-color="#FFFFFF" stop-opacity="1"/>
					<stop offset="1" stop-color="#0E0E0C" stop-opacity="1"/>
				</linearGradient>
				<path fill="url(#SVGID_Fill28_)" stroke-width="0.2" stroke-linejoin="miter" d="M 215.449,600.913C 212.998,598.554 210.633,596.136 208.37,593.649L 161.465,597.026L 215.449,600.913 Z "/>
				<linearGradient id="SVGID_Fill29_" gradientUnits="objectBoundingBox" x1="-0.629597" y1="-90.2272" x2="117.459" y2="-90.2272" gradientTransform="rotate(11.664444 -0.629597 -90.227188)">
					<stop offset="0" stop-color="#FFFFFF" stop-opacity="1"/>
					<stop offset="1" stop-color="#0E0E0C" stop-opacity="1"/>
				</linearGradient>
				<path fill="url(#SVGID_Fill29_)" stroke-width="0.2" stroke-linejoin="miter" d="M 195.389,577.141C 194.67,576.077 193.964,575.004 193.273,573.922L 174.575,575.445L 195.389,577.141 Z "/>
			</g>
			<g>
				<linearGradient id="SVGID_Fill30_" gradientUnits="objectBoundingBox" x1="-0.0533094" y1="0.0719812" x2="1.31186" y2="0.0719812" gradientTransform="rotate(64.544769 -0.053309 0.071981)">
					<stop offset="0" stop-color="#FFFFFF" stop-opacity="1"/>
					<stop offset="1" stop-color="#0E0E0C" stop-opacity="1"/>
				</linearGradient>
				<path fill="url(#SVGID_Fill30_)" stroke-width="0.2" stroke-linejoin="miter" d="M 311.81,680.315L 382.985,680.315L 389.48,680.315L 389.48,673.82L 389.48,647.568C 389.48,643.983 388.309,641.245 386.577,639.229C 385.538,638.019 384.296,637.069 382.985,636.352L 382.985,615.903C 404.663,601.43 421.374,583.256 432.688,561.837C 442.346,543.553 447.665,523.013 447.665,504.001C 447.665,471.008 443.779,447.538 431.035,403.551C 422.455,373.935 413.479,342.396 408.695,325.536C 410.291,325.765 411.922,325.88 413.578,325.88C 422.048,325.88 430.569,322.805 436.973,316.792C 440.175,313.785 442.849,310.043 444.72,305.585C 446.125,302.24 447.079,298.492 447.468,294.348C 447.598,292.966 447.665,291.541 447.665,290.072C 447.665,288.673 447.602,287.304 447.479,285.959C 447.325,284.289 447.044,282.676 446.703,281.093C 445.842,277.098 444.381,273.402 442.36,270.05C 441.315,268.318 440.159,266.654 438.816,265.119C 437.987,264.172 437.101,263.265 436.161,262.398C 434.464,260.834 432.625,259.447 430.67,258.245C 424.806,254.638 417.899,252.701 410.653,252.701C 399.74,252.701 389.586,257.045 382.061,264.932C 377.287,269.936 373.793,276.16 371.662,283.353C 370.382,287.668 369.594,292.333 369.312,297.292L 254.31,297.292C 252.605,266.704 232.095,252.704 212.969,252.701L 212.963,252.701C 210.547,252.701 208.169,252.916 205.855,253.337C 204.698,253.547 203.557,253.808 202.435,254.12C 200.191,254.743 198.025,255.567 195.961,256.581C 192.865,258.102 190,260.052 187.456,262.397C 179.933,269.33 175.956,278.9 175.956,290.072C 175.956,291.541 176.023,292.966 176.153,294.348C 176.542,298.492 177.496,302.24 178.9,305.585C 180.772,310.043 183.445,313.785 186.647,316.792C 193.051,322.805 201.573,325.88 210.042,325.88C 211.698,325.88 213.329,325.765 214.925,325.536C 212.235,335.02 208.217,349.148 203.69,364.967C 202.684,368.481 201.653,372.08 200.605,375.73C 200.081,377.555 199.553,379.392 199.023,381.238C 197.961,384.931 196.888,388.658 195.813,392.388C 195.275,394.253 194.736,396.118 194.198,397.98C 193.659,399.842 193.121,401.7 192.585,403.551C 190.992,409.049 189.538,414.227 188.212,419.143C 187.549,421.601 186.918,423.994 186.318,426.328C 184.819,432.164 183.513,437.636 182.381,442.86C 182.155,443.905 181.936,444.939 181.723,445.965C 181.298,448.017 180.901,450.032 180.529,452.019C 177.185,469.898 175.956,485.443 175.956,504.001C 175.956,523.013 181.274,543.553 190.933,561.837C 198.004,575.224 207.183,587.343 218.366,598.084C 220.602,600.232 222.919,602.325 225.315,604.362C 230.107,608.435 235.216,612.285 240.635,615.903L 240.635,636.352C 239.761,636.829 238.918,637.411 238.145,638.105C 237.373,638.798 236.67,639.603 236.076,640.526C 234.89,642.374 234.14,644.701 234.14,647.568L 234.14,673.82L 234.14,680.315L 240.635,680.315L 311.81,680.315 Z M 386.474,586.23C 384.905,587.237 383.306,588.221 381.671,589.167C 380.498,589.846 379.305,590.505 378.091,591.139C 368.408,596.247 357.69,600.143 346.473,602.713C 339.472,604.381 332.259,605.432 324.973,605.998C 322.059,606.224 319.134,606.373 316.205,606.453C 314.74,606.492 313.275,606.515 311.81,606.521C 310.397,606.473 308.894,606.469 307.393,606.449C 305.891,606.428 304.39,606.391 302.98,606.278L 298.644,606.026L 294.287,605.59C 292.833,605.468 291.388,605.282 289.952,605.059L 285.641,604.428C 284.219,604.15 282.792,603.898 281.374,603.627C 279.954,603.357 278.542,603.066 277.148,602.71C 275.746,602.387 274.352,602.044 272.967,601.68C 271.582,601.318 270.205,600.934 268.839,600.53C 266.106,599.723 263.412,598.836 260.766,597.87C 258.12,596.903 255.522,595.857 252.98,594.734C 250.439,593.611 247.954,592.41 245.533,591.132C 240.675,588.601 236.167,585.655 231.831,582.663C 229.712,581.1 227.647,579.508 225.661,577.869C 223.674,576.23 221.766,574.544 219.962,572.794C 219.06,571.921 218.177,571.04 217.313,570.152C 215.586,568.376 213.938,566.57 212.384,564.734C 211.607,563.816 210.854,562.89 210.126,561.955C 208.623,560.122 207.244,558.244 205.95,556.357C 204.656,554.47 203.446,552.574 202.279,550.706C 200.019,546.922 198.083,543.157 196.427,539.484C 195.598,537.648 194.84,535.834 194.146,534.053C 193.451,532.272 192.821,530.523 192.248,528.816C 191.099,525.397 190.194,522.141 189.469,519.097C 188.745,516.053 188.201,513.222 187.776,510.657C 187.571,509.37 187.378,508.152 187.196,507.006C 187.061,505.853 186.935,504.773 186.818,503.767C 186.694,502.76 186.586,501.828 186.503,500.971C 186.419,500.116 186.359,499.337 186.329,498.637C 186.238,497.238 186.167,496.166 186.12,495.443C 186.073,494.72 186.048,494.347 186.048,494.347C 186.048,494.347 186.034,495.189 186.008,496.793C 185.999,497.328 185.989,497.947 185.976,498.649C 185.922,500.055 185.961,501.786 186.043,503.824C 186.08,504.844 186.119,505.94 186.161,507.11C 186.266,508.276 186.377,509.516 186.495,510.824C 186.621,512.132 186.772,513.511 186.957,514.955C 187.327,517.844 187.836,520.992 188.576,524.349C 188.946,526.027 189.373,527.757 189.869,529.533C 190.835,533.085 192.036,536.835 193.541,540.699C 195.046,544.563 196.856,548.543 199.039,552.555C 199.587,553.554 200.156,554.556 200.748,555.56C 201.339,556.565 201.951,557.57 202.586,558.575C 203.856,560.586 205.215,562.595 206.668,564.589C 208.121,566.582 209.668,568.559 211.314,570.506C 212.959,572.453 214.703,574.369 216.55,576.239C 220.208,580.016 224.303,583.547 228.645,586.962C 229.75,587.79 230.874,588.605 232.016,589.406C 235.443,591.81 239.041,594.084 242.81,596.162C 245.385,597.572 248.033,598.909 250.74,600.168C 245.779,598.768 241.159,597.172 236.861,595.381C 234.711,594.486 232.642,593.543 230.649,592.552C 228.658,591.561 226.743,590.523 224.903,589.437C 222.142,587.808 219.549,586.073 217.115,584.234C 213.058,581.168 209.44,577.812 206.219,574.174C 200.857,566.707 196.525,559.066 193.103,551.461C 191.05,546.897 189.324,542.347 187.9,537.854C 186.951,534.859 186.135,531.89 185.447,528.96C 184.758,526.029 184.196,523.138 183.751,520.299C 182.864,514.622 182.451,509.153 182.451,504.001C 182.451,492.838 182.898,482.826 183.997,472.729C 184.197,470.893 184.418,469.054 184.663,467.205C 185.638,459.809 186.978,452.249 188.761,444.049C 189.429,440.974 190.16,437.809 190.957,434.529C 191.222,433.436 191.495,432.329 191.776,431.209C 193.739,423.37 196.071,414.86 198.824,405.359C 199.97,401.399 201.123,397.411 202.271,393.433C 204.566,385.476 206.841,377.555 209.011,369.977C 210.097,366.188 211.156,362.484 212.179,358.904C 215.759,346.374 218.89,335.359 221.122,327.494C 221.44,326.37 221.74,325.31 222.021,324.32C 222.675,324.032 223.431,323.632 224.372,323.054C 224.84,322.768 225.311,322.477 225.781,322.177C 226.721,321.579 227.661,320.948 228.585,320.26C 229.51,319.573 230.419,318.828 231.299,318.003C 232.177,317.179 233.026,316.274 233.83,315.265C 234.231,314.761 234.622,314.23 235,313.671C 236.458,311.408 237.803,308.92 238.722,306.166C 238.948,305.478 239.216,304.795 239.404,304.084C 239.573,303.368 239.743,302.646 239.914,301.919C 240.109,301.196 240.199,300.45 240.294,299.699L 240.439,298.57L 240.51,298.004L 240.546,297.719L 240.555,297.648L 240.571,297.369L 240.574,297.243C 240.592,296.574 240.61,295.9 240.627,295.222C 240.621,294.466 240.538,293.52 240.478,292.674C 240.284,290.976 240.012,289.415 239.519,287.813C 238.825,285.429 237.793,283.108 236.447,280.951C 235.999,280.232 235.515,279.531 234.998,278.852C 232.434,275.444 228.966,272.616 225.007,270.722C 222.632,269.585 220.079,268.784 217.44,268.395L 216.121,268.228L 215.462,268.148L 215.379,268.138L 215.122,268.124L 214.978,268.12L 214.689,268.113L 213.534,268.088C 213.193,268.065 212.584,268.127 212.123,268.151C 211.107,268.199 210.18,268.332 209.284,268.519C 208.387,268.706 207.518,268.948 206.617,269.214C 205.746,269.513 204.892,269.864 204.063,270.264C 202.404,271.064 200.842,272.061 199.429,273.232C 198.722,273.818 198.053,274.447 197.427,275.117C 194.958,277.815 193.061,281.083 192.206,284.62C 192.103,285.062 191.998,285.502 191.909,285.946C 191.82,286.389 191.747,286.834 191.708,287.284L 191.626,287.955L 191.587,288.289L 191.568,288.457L 191.552,288.76L 191.532,289.92C 191.559,290.748 191.599,291.951 191.785,292.789C 191.918,293.707 192.175,294.594 192.44,295.474C 192.734,296.345 193.093,297.19 193.511,297.999C 194.765,300.428 196.548,302.542 198.691,304.135C 200.129,305.208 201.686,306.043 203.328,306.63C 204.969,307.217 206.695,307.557 208.469,307.641C 211.893,307.833 215.474,306.617 218.06,304.515C 220.69,302.425 222.505,299.466 223.133,296.359C 223.32,295.566 223.389,294.86 223.44,293.979C 223.46,293.567 223.447,292.882 223.38,292.244C 223.357,292.031 223.329,291.823 223.294,291.632C 223.23,291.24 223.145,290.855 223.042,290.476C 222.734,289.339 222.256,288.267 221.645,287.304C 221.24,286.659 220.774,286.064 220.261,285.525C 218.724,283.907 216.766,282.786 214.739,282.282C 214.382,282.192 214.064,282.127 213.729,282.075C 213.395,282.023 213.044,281.984 212.623,281.947C 212.32,281.946 212.09,281.927 211.732,281.942C 211.361,281.97 210.951,281.978 210.622,282.045C 209.26,282.255 207.987,282.763 206.903,283.474C 205.264,284.54 204.068,286.065 203.387,287.706C 203.16,288.253 202.99,288.813 202.88,289.372C 202.66,290.471 202.62,291.56 202.85,292.684C 203.469,296.467 206.728,299.361 210.685,299.361C 215.084,299.361 218.651,295.794 218.651,291.395C 218.651,290.934 218.59,290.491 218.515,290.052C 218.826,290.744 219.068,291.47 219.156,292.235C 219.184,292.495 219.203,292.697 219.208,292.928C 219.212,293.16 219.204,293.423 219.175,293.807C 219.149,294.022 219.117,294.287 219.072,294.559C 219.027,294.833 218.97,295.115 218.891,295.365C 217.859,299.651 213.45,303.076 208.673,302.538C 206.398,302.318 203.936,301.361 202.074,299.794C 201.12,299.016 200.292,298.087 199.618,297.056C 199.281,296.541 198.981,296 198.724,295.44C 198.467,294.881 198.25,294.302 198.08,293.711C 198.01,293.411 197.935,293.112 197.872,292.812C 197.809,292.511 197.757,292.209 197.731,291.901C 197.678,291.564 197.659,291.307 197.652,291.046C 197.645,290.785 197.65,290.519 197.642,290.165L 197.715,289.007L 197.861,288.183C 197.937,287.537 198.132,286.919 198.301,286.297C 198.477,285.675 198.707,285.025 198.982,284.37C 199.805,282.406 201.028,280.406 202.377,279.044C 209.549,271.804 223.156,274.291 229.651,283.018C 230.013,283.505 230.378,284.046 230.731,284.618C 231.083,285.19 231.423,285.793 231.736,286.405C 232.047,287.017 232.332,287.639 232.574,288.247C 232.815,288.855 233.014,289.451 233.156,290.01C 233.463,291.105 233.608,292.31 233.694,293.339C 233.697,293.601 233.712,293.837 233.727,294.082C 233.741,294.327 233.755,294.581 233.753,294.881C 233.717,295.558 233.68,296.231 233.644,296.9C 233.563,297.402 233.481,297.902 233.401,298.398C 233.318,298.956 233.244,299.512 233.074,300.041C 232.934,300.578 232.794,301.109 232.655,301.637C 232.504,302.16 232.28,302.654 232.103,303.159C 231.919,303.67 231.714,304.166 231.493,304.65C 231.27,305.133 231.032,305.603 230.781,306.061C 231.02,305.471 231.221,304.886 231.395,304.312C 231.569,303.738 231.716,303.177 231.846,302.635C 232.144,301.269 232.301,300.006 232.341,298.889C 232.381,298.333 232.385,297.813 232.374,297.333C 232.362,296.853 232.334,296.414 232.306,296.02C 232.284,295.626 232.246,295.275 232.207,294.971C 232.166,294.667 232.124,294.409 232.091,294.201C 232.055,293.993 232.028,293.834 231.981,293.563C 231.981,293.563 231.922,293.781 231.813,294.188C 231.724,294.595 231.548,295.186 231.349,295.926C 231.139,296.665 230.869,297.553 230.519,298.54C 230.17,299.526 229.742,300.611 229.215,301.746C 228.65,302.864 228.01,304.039 227.216,305.179C 226.814,305.744 226.39,306.312 225.933,306.866C 225.476,307.421 224.984,307.962 224.447,308.474C 223.919,308.976 223.346,309.486 222.754,309.965C 222.161,310.445 221.547,310.894 220.939,311.276C 220.387,311.66 219.388,312.208 218.847,312.504L 216.675,313.535C 215.203,314.128 213.711,314.696 212.194,314.993C 211.443,315.208 210.685,315.304 209.929,315.385L 208.803,315.524C 208.427,315.53 208.054,315.536 207.684,315.541C 207.312,315.55 206.942,315.559 206.576,315.567C 206.211,315.537 205.848,315.506 205.49,315.476C 205.127,315.45 204.77,315.423 204.416,315.397C 204.065,315.336 203.719,315.275 203.376,315.215C 203.03,315.159 202.689,315.103 202.353,315.048C 202.021,314.964 201.694,314.88 201.373,314.799C 200.716,314.664 200.093,314.484 199.503,314.272C 198.898,314.095 198.339,313.872 197.802,313.655C 197.254,313.459 196.74,313.251 196.271,313.024C 195.319,312.595 194.49,312.181 193.82,311.815C 193.483,311.632 193.183,311.464 192.922,311.314C 192.142,310.866 191.717,310.585 191.717,310.585C 191.717,310.585 192.165,311.374 193.221,312.562C 193.752,313.149 194.412,313.87 195.276,314.573C 196.12,315.303 197.124,316.096 198.668,316.958C 196.411,315.96 194.268,314.65 192.324,313.031C 189.895,311.007 187.776,308.498 186.13,305.504C 185.472,304.306 184.89,303.031 184.393,301.677C 183.401,298.971 182.753,295.954 182.534,292.626C 182.479,291.794 182.451,290.943 182.451,290.072C 182.451,270.177 197.369,259.193 212.968,259.196C 216.17,259.197 219.402,259.661 222.538,260.605C 224.629,261.234 226.677,262.078 228.648,263.14C 229.633,263.672 230.598,264.258 231.54,264.899C 240.952,271.313 247.943,283.272 247.943,301.438C 247.943,330.107 239.975,358.658 231.508,386.421C 230.944,388.271 230.377,390.118 229.811,391.963C 228.677,395.65 227.544,399.322 226.429,402.978C 218.62,428.571 211.678,453.361 211.678,476.804C 211.678,530.388 254.437,568.817 311.81,568.817C 320.775,568.817 329.382,567.879 337.526,566.091C 340.783,565.376 343.967,564.525 347.069,563.543C 350.171,562.563 353.191,561.451 356.125,560.215C 363.457,557.125 370.239,553.257 376.364,548.699C 382.489,544.141 387.956,538.894 392.658,533.046C 394.539,530.706 396.298,528.27 397.927,525.745C 406.889,511.852 411.942,495.223 411.942,476.804C 411.942,423.22 375.678,362.599 375.678,301.438C 375.678,272.369 393.571,259.196 410.653,259.196C 416.415,259.196 422.082,260.699 426.935,263.595C 430.172,265.527 433.047,268.079 435.349,271.22C 437.076,273.575 438.481,276.261 439.474,279.265C 440.136,281.268 440.615,283.412 440.885,285.694C 441.02,286.834 441.102,288.009 441.129,289.218C 440.879,287.71 440.553,286.324 440.208,285.12C 439.825,283.764 439.388,282.617 439.014,281.683C 438.629,280.753 438.288,280.042 438.043,279.564C 437.8,279.086 437.652,278.84 437.652,278.84C 437.652,278.84 437.757,279.479 437.904,280.622C 437.953,281.002 438.007,281.439 438.063,281.927C 438.172,282.905 438.256,284.092 438.347,285.44C 438.41,286.793 438.427,288.31 438.404,289.946C 438.352,291.584 438.179,293.333 437.951,295.15C 437.78,296.049 437.609,296.969 437.398,297.892C 437.092,298.788 436.936,299.746 436.569,300.641C 436.377,301.084 436.218,301.544 436.044,302C 435.87,302.455 435.681,302.905 435.428,303.325L 434.753,304.633C 434.522,305.066 434.21,305.452 433.945,305.867C 433.66,306.268 433.416,306.702 433.1,307.083L 432.112,308.196C 431.803,308.605 431.458,308.942 431.104,309.256C 430.75,309.571 430.385,309.864 430.038,310.184C 429.461,310.835 428.318,311.44 427.438,312.062L 426.738,312.526L 426.659,312.579L 426.538,312.641L 426.196,312.814L 424.835,313.509C 423.023,314.421 421.144,315.055 419.284,315.485C 418.821,315.62 418.354,315.686 417.888,315.742C 417.423,315.797 416.959,315.842 416.503,315.935C 415.585,315.997 414.674,316.02 413.785,316.017C 412.902,315.949 412.032,315.869 411.192,315.752C 410.351,315.635 409.539,315.482 408.767,315.269C 408.379,315.167 407.999,315.068 407.627,314.971C 407.262,314.844 406.906,314.721 406.558,314.601C 405.845,314.392 405.2,314.109 404.583,313.854C 403.971,313.59 403.402,313.326 402.878,313.068C 402.354,312.81 401.877,312.56 401.448,312.324C 401.027,312.079 400.648,311.859 400.32,311.663C 399.991,311.467 399.712,311.294 399.492,311.146C 399.272,310.996 399.103,310.88 398.817,310.685C 398.817,310.685 398.969,310.93 399.3,311.355C 399.632,311.78 400.141,312.383 400.857,313.1C 401.58,313.804 402.482,314.66 403.647,315.483C 404.683,316.227 405.898,317.033 407.327,317.694C 405.977,317.227 404.555,316.617 403.104,315.783C 401.028,314.595 398.914,312.961 397.01,310.86C 396.375,310.16 395.764,309.408 395.185,308.603C 394.909,308.194 394.635,307.776 394.369,307.347C 393.571,306.058 392.841,304.672 392.297,303.159C 392.12,302.654 391.896,302.16 391.744,301.637C 391.606,301.109 391.466,300.578 391.326,300.041C 391.156,299.512 391.083,298.956 390.999,298.398C 390.918,297.902 390.837,297.402 390.756,296.9C 390.719,296.231 390.683,295.558 390.647,294.881C 390.645,294.581 390.659,294.327 390.673,294.082C 390.688,293.837 390.703,293.601 390.706,293.339C 390.792,292.31 390.936,291.105 391.245,290.01C 391.527,288.891 392.04,287.63 392.665,286.405C 393.289,285.18 394.024,283.992 394.749,283.018C 401.244,274.291 414.851,271.804 422.022,279.044C 422.923,279.952 423.766,281.143 424.472,282.419C 425.178,283.694 425.747,285.053 426.098,286.297C 426.268,286.919 426.463,287.537 426.54,288.183L 426.685,289.007L 426.758,290.165C 426.743,290.874 426.775,291.227 426.669,291.901C 426.643,292.209 426.59,292.511 426.527,292.812C 426.464,293.112 426.39,293.411 426.32,293.711C 426.149,294.302 425.933,294.881 425.676,295.44C 425.418,296 425.12,296.541 424.782,297.056C 424.108,298.087 423.28,299.016 422.326,299.794C 420.463,301.361 418.002,302.318 415.726,302.538C 410.951,303.076 406.541,299.651 405.509,295.365C 405.43,295.115 405.373,294.833 405.328,294.559C 405.283,294.287 405.251,294.022 405.224,293.807C 405.21,293.615 405.201,293.454 405.192,292.928C 405.197,292.697 405.216,292.495 405.243,292.235C 405.361,291.226 405.686,290.253 406.328,289.178C 406.122,289.886 405.976,290.62 405.976,291.395C 405.976,293.595 406.868,295.586 408.309,297.028C 409.751,298.469 411.742,299.361 413.942,299.361C 418.341,299.361 421.907,295.794 421.907,291.395C 421.907,290.142 421.593,288.973 421.077,287.919C 420.413,286.199 419.206,284.585 417.498,283.474C 416.412,282.763 415.14,282.255 413.779,282.045C 413.449,281.978 413.039,281.97 412.667,281.942C 412.31,281.927 412.08,281.946 411.777,281.947C 410.935,282.022 410.374,282.102 409.661,282.282C 406.957,282.953 404.378,284.722 402.754,287.304C 402.551,287.625 402.362,287.958 402.189,288.302C 401.844,288.989 401.563,289.718 401.358,290.476C 401.255,290.855 401.17,291.24 401.106,291.632C 400.966,292.396 400.933,293.43 400.96,293.979C 401.011,294.86 401.08,295.566 401.267,296.359C 401.895,299.466 403.71,302.425 406.34,304.515C 408.926,306.617 412.507,307.833 415.931,307.641C 419.48,307.473 422.833,306.28 425.709,304.135C 428.566,302.011 430.784,298.961 431.96,295.474C 432.225,294.594 432.482,293.707 432.615,292.789C 432.801,291.951 432.841,290.748 432.868,289.92L 432.847,288.76L 432.832,288.457L 432.813,288.289L 432.774,287.955L 432.693,287.284C 432.614,286.383 432.4,285.504 432.194,284.62C 431.981,283.735 431.702,282.868 431.365,282.022C 430.355,279.485 428.825,277.141 426.972,275.117C 425.095,273.106 422.825,271.464 420.337,270.264C 419.508,269.864 418.655,269.513 417.783,269.214C 417.332,269.081 416.89,268.954 416.448,268.837C 416.006,268.72 415.565,268.613 415.116,268.519C 414.219,268.332 413.293,268.199 412.277,268.151C 411.815,268.127 411.207,268.065 410.866,268.088L 409.71,268.113L 409.422,268.12L 409.278,268.124L 409.021,268.138L 408.938,268.148L 408.279,268.228L 406.96,268.395C 402.562,269.044 398.405,270.836 394.904,273.421C 392.804,274.971 390.94,276.807 389.403,278.852C 388.368,280.21 387.468,281.655 386.713,283.159C 385.957,284.662 385.344,286.223 384.881,287.813C 384.387,289.415 384.116,290.976 383.922,292.674C 383.862,293.52 383.779,294.466 383.772,295.222C 383.79,295.9 383.808,296.574 383.826,297.243L 383.829,297.369L 383.845,297.648L 383.854,297.719L 383.889,298.004L 383.961,298.57L 384.106,299.699C 384.201,300.45 384.292,301.196 384.486,301.919C 384.657,302.646 384.827,303.368 384.996,304.084C 385.09,304.439 385.204,304.788 385.323,305.133C 385.441,305.479 385.565,305.822 385.677,306.166C 386.137,307.543 386.703,308.854 387.337,310.103C 387.97,311.352 388.671,312.539 389.401,313.671C 390.416,315.176 391.528,316.469 392.698,317.611C 393.868,318.752 395.097,319.742 396.348,320.639C 405.222,363.61 435.757,431.86 435.757,488.441C 435.757,491.39 435.674,494.32 435.509,497.229C 435.426,498.684 435.323,500.133 435.198,501.575C 434.825,505.903 434.264,510.175 433.514,514.377C 433.014,517.177 432.43,519.946 431.761,522.679C 430.758,526.778 429.564,530.795 428.178,534.715C 425.869,541.247 423.025,547.509 419.638,553.425C 415.336,560.051 410.047,566.679 403.665,572.801C 401.86,574.55 399.952,576.236 397.966,577.876C 395.98,579.516 393.915,581.108 391.796,582.672C 390.054,583.874 388.284,585.068 386.474,586.23M 274.107,555.828C 272.12,555.093 270.169,554.308 268.263,553.459L 268.263,314.785L 275.053,314.785L 275.053,556.188C 274.734,556.074 274.425,555.945 274.107,555.828 Z M 258.226,548.257L 258.226,314.785L 265.016,314.785L 265.016,551.944C 262.686,550.797 260.414,549.576 258.226,548.257 Z M 368.642,546.195L 368.642,314.785L 369.327,314.785L 369.725,314.785C 370.939,330.505 374.135,346.059 378.157,361.402C 378.702,363.479 379.266,365.55 379.838,367.619C 380.569,370.265 381.32,372.903 382.085,375.536C 382.307,376.3 382.53,377.063 382.755,377.826C 384.627,384.19 386.569,390.515 388.5,396.795C 389.045,398.565 389.588,400.329 390.127,402.087C 392.822,410.877 395.423,419.512 397.692,427.984C 399.508,434.762 401.112,441.436 402.383,448.001C 404.29,457.85 405.447,467.455 405.447,476.804C 405.447,498.961 397.571,518.398 384.012,533.12C 379.493,538.027 374.342,542.411 368.642,546.195 Z M 348.567,556.188L 348.567,314.785L 355.357,314.785L 355.357,553.459C 353.147,554.443 350.887,555.359 348.567,556.188 Z M 325.243,561.541C 323.01,561.798 320.746,561.989 318.453,562.116L 318.453,314.785L 325.243,314.785L 325.243,561.541 Z M 328.49,314.785L 335.281,314.785L 335.281,559.925C 333.056,560.393 330.789,560.784 328.49,561.117L 328.49,314.785 Z M 338.528,559.176L 338.528,314.785L 345.319,314.785L 345.319,557.292C 344.211,557.645 343.09,557.976 341.957,558.288C 340.824,558.601 339.68,558.895 338.528,559.176 Z M 358.604,314.785L 365.394,314.785L 365.394,548.257C 363.207,549.576 360.935,550.797 358.604,551.944L 358.604,314.785 Z M 369.327,303.67L 264.721,306.038L 369.327,308.407L 369.327,309.865L 258.609,309.865C 258.79,308.894 258.986,307.681 259.132,306.36C 259.277,305.04 259.372,303.612 259.35,302.212L 369.327,302.212L 369.327,303.67 Z M 278.301,314.785L 285.093,314.785L 285.093,559.176C 282.788,558.614 280.516,557.998 278.301,557.292L 278.301,314.785 Z M 288.34,314.785L 295.13,314.785L 295.13,561.117C 292.832,560.784 290.565,560.393 288.34,559.925L 288.34,314.785 Z M 298.377,314.785L 305.168,314.785L 305.168,562.116C 302.874,561.989 300.61,561.798 298.377,561.541L 298.377,314.785 Z M 308.415,314.785L 315.205,314.785L 315.205,562.251C 314.077,562.283 312.952,562.322 311.81,562.322C 310.668,562.322 309.543,562.283 308.415,562.251L 308.415,314.785 Z M 376.49,623.452L 250.513,627.407L 376.49,631.362L 376.49,634.659L 247.13,634.659L 247.13,618.816C 257.882,619.942 268.667,620.789 279.469,621.356C 284.871,621.639 290.276,621.852 295.684,621.994C 301.092,622.136 306.501,622.208 311.912,622.208C 333.484,622.208 355.054,621.074 376.49,618.837L 376.49,623.452 Z M 243.882,641.987C 244.856,641.48 245.831,641.254 246.453,641.153L 377.168,641.153C 378.083,641.301 379.752,641.727 381.065,642.915C 381.854,643.628 382.514,644.615 382.808,645.98L 243.887,649.937L 382.985,653.898C 382.985,656.496 382.985,659.419 382.985,662.213L 243.887,666.174L 382.985,670.135C 382.985,672.368 382.985,673.82 382.985,673.82L 311.81,673.82L 240.635,673.82C 240.635,673.82 240.635,653.794 240.635,647.568C 240.635,644.454 242.259,642.831 243.882,641.987 Z M 253.896,314.785L 254.292,314.785L 254.978,314.785L 254.978,546.195C 252.128,544.303 249.416,542.261 246.85,540.079C 243.003,536.805 239.487,533.216 236.338,529.342C 234.239,526.76 232.302,524.052 230.539,521.226C 222.604,508.51 218.173,493.422 218.173,476.804C 218.173,451.874 226.405,425.12 235.119,396.795C 236.656,391.8 238.201,386.777 239.711,381.729C 240.717,378.363 241.708,374.986 242.672,371.598C 243.635,368.21 244.569,364.811 245.463,361.402C 246.357,357.992 247.21,354.572 248.01,351.142C 248.809,347.713 249.555,344.273 250.236,340.823C 251.255,335.65 252.126,330.455 252.805,325.24C 253.258,321.764 253.625,318.278 253.896,314.785 Z "/>
				<linearGradient id="SVGID_Fill31_" gradientUnits="objectBoundingBox" x1="-0.222997" y1="-2.01014" x2="3.8716" y2="-2.01014" gradientTransform="rotate(32.114338 -0.222997 -2.010137)">
					<stop offset="0" stop-color="#FFFFFF" stop-opacity="1"/>
					<stop offset="1" stop-color="#0E0E0C" stop-opacity="1"/>
				</linearGradient>
				<path fill="url(#SVGID_Fill31_)" stroke-width="0.2" stroke-linejoin="miter" d="M 207.857,483.572C 207.817,484.734 207.855,486.163 207.93,487.847C 207.964,488.689 208,489.594 208.039,490.559C 208.132,491.522 208.23,492.544 208.334,493.624C 208.446,494.703 208.578,495.841 208.739,497.032C 209.221,500.604 209.961,504.656 211.182,509.053C 212.778,514.914 215.15,521.427 218.771,528.035C 219.678,529.681 220.656,531.338 221.707,532.993C 223.808,536.304 226.203,539.611 228.922,542.817C 230.281,544.419 231.721,545.997 233.246,547.537C 236.266,550.645 239.647,553.551 243.23,556.361C 246.878,559.082 250.768,561.652 254.914,563.931C 263.208,568.463 272.377,572.111 282.046,574.34C 284.448,574.967 286.904,575.373 289.352,575.863C 291.818,576.223 294.284,576.684 296.779,576.909L 300.52,577.306L 304.31,577.548C 306.889,577.754 309.222,577.707 311.81,577.792C 319.342,577.715 326.894,577.137 334.267,575.858C 336.725,575.431 339.163,574.927 341.574,574.338C 343.99,573.778 346.375,573.131 348.724,572.404C 349.899,572.041 351.064,571.658 352.219,571.256C 354.529,570.451 356.799,569.57 359.024,568.623C 362.36,567.2 365.593,565.626 368.704,563.926C 372.851,561.65 376.738,559.074 380.385,556.354C 383.073,554.248 385.646,552.087 388.039,549.827C 388.837,549.074 389.615,548.309 390.37,547.532C 393.419,544.452 396.129,541.223 398.531,537.941C 400.934,534.657 403.027,531.322 404.844,528.031C 405.75,526.38 406.577,524.734 407.333,523.102C 408.467,520.656 409.443,518.241 410.285,515.89C 410.846,514.323 411.347,512.782 411.797,511.279C 412.022,510.527 412.234,509.785 412.434,509.052C 412.841,507.586 413.195,506.159 413.503,504.775C 413.811,503.391 414.075,502.05 414.302,500.758C 414.755,498.173 415.061,495.782 415.284,493.624C 415.388,492.544 415.487,491.521 415.58,490.559C 415.618,489.592 415.655,488.686 415.689,487.843C 415.727,487 415.755,486.222 415.769,485.51C 415.783,484.797 415.782,484.151 415.763,483.571C 415.734,481.254 415.719,480.019 415.719,480.019C 415.719,480.019 415.644,481.252 415.502,483.565C 415.457,484.724 415.315,486.146 415.117,487.808C 415.024,488.638 414.924,489.531 414.817,490.483C 414.673,491.431 414.52,492.438 414.358,493.504C 413.683,497.748 412.634,502.881 410.724,508.536C 408.835,514.19 406.172,520.389 402.45,526.665C 398.67,532.898 393.845,539.213 387.845,544.984C 384.862,547.886 381.536,550.58 378.03,553.174C 374.444,555.661 370.707,558.097 366.687,560.201C 364.683,561.261 362.626,562.257 360.522,563.191C 354.209,565.99 347.477,568.213 340.51,569.809C 335.872,570.917 331.122,571.696 326.32,572.204C 321.517,572.713 316.661,572.95 311.81,572.972C 309.461,572.892 306.847,572.958 304.504,572.769L 300.91,572.56L 297.302,572.198C 294.894,571.995 292.522,571.562 290.143,571.232C 287.788,570.772 285.42,570.398 283.111,569.807C 273.824,567.669 264.951,564.435 256.936,560.196C 253.92,558.62 251.066,556.853 248.315,555.019C 247.397,554.408 246.491,553.789 245.595,553.168C 244.719,552.519 243.854,551.865 243.002,551.202C 240.448,549.214 238.017,547.155 235.779,544.978C 229.78,539.209 224.958,532.893 221.176,526.662C 219.315,523.524 217.719,520.405 216.352,517.364C 214.985,514.324 213.846,511.361 212.901,508.535C 211.946,505.708 211.206,503.011 210.62,500.49C 210.034,497.97 209.602,495.625 209.265,493.503C 209.103,492.438 208.949,491.431 208.805,490.483C 208.698,489.529 208.598,488.636 208.505,487.804C 208.307,486.14 208.164,484.72 208.119,483.564C 207.977,481.252 207.902,480.019 207.902,480.019C 207.902,480.019 207.886,481.255 207.857,483.572 Z "/>
				<linearGradient id="SVGID_Fill32_" gradientUnits="objectBoundingBox" x1="-6.01913" y1="-0.225785" x2="2.18529" y2="-0.225785" gradientTransform="rotate(78.129341 -6.019131 -0.225785)">
					<stop offset="0" stop-color="#FFFFFF" stop-opacity="1"/>
					<stop offset="1" stop-color="#0E0E0C" stop-opacity="1"/>
				</linearGradient>
				<path fill="url(#SVGID_Fill32_)" stroke-width="0.2" stroke-linejoin="miter" d="M 406.12,403.466C 407.446,407.214 408.593,410.87 409.803,414.313C 410.375,416.042 410.933,417.725 411.48,419.352C 412.027,420.98 412.561,422.552 413.087,424.06C 413.799,426.34 414.501,428.473 415.164,430.436C 415.385,431.09 415.602,431.726 415.813,432.342C 416.018,432.96 416.216,433.558 416.407,434.136C 416.599,434.714 416.783,435.271 416.96,435.806C 417.315,436.877 417.64,437.86 417.934,438.748C 418.38,440.082 418.768,441.2 419.079,442.077C 419.597,443.537 419.901,444.329 419.901,444.329C 419.901,444.329 419.822,442.176 419.516,438.422C 419.426,437.487 419.355,436.444 419.258,435.312C 419.161,434.179 419.038,432.958 418.845,431.665C 418.761,431.015 418.675,430.344 418.585,429.654C 418.315,427.583 418.007,425.333 417.613,422.946C 417.049,419.774 416.465,416.323 415.701,412.706C 414.877,409.108 414.082,405.282 413.017,401.399C 412.011,397.496 410.894,393.488 409.644,389.455C 408.438,385.407 407.074,381.345 405.725,377.288C 404.324,373.247 402.93,369.217 401.483,365.282C 400.041,361.356 398.622,357.492 397.25,353.753C 395.873,350.027 394.542,346.424 393.28,343.008C 392.666,341.296 392.069,339.631 391.491,338.02C 390.887,336.414 390.315,334.859 389.821,333.351C 389.32,331.844 388.814,330.404 388.337,329.034C 387.859,327.664 387.411,326.363 387.026,325.134C 386.832,324.519 386.635,323.925 386.443,323.35C 386.249,322.776 386.06,322.223 385.879,321.688C 385.516,320.622 385.187,319.636 384.927,318.731C 384.509,317.385 384.146,316.258 383.853,315.375C 383.367,313.903 383.083,313.109 383.083,313.109C 383.083,313.109 383.104,314.324 383.21,316.514C 383.246,317.244 383.291,318.082 383.348,319.02C 383.391,319.957 383.471,320.995 383.583,322.126C 383.695,323.257 383.838,324.48 384.005,325.787C 384.282,328.421 384.744,331.348 385.332,334.529C 385.868,337.725 386.627,341.141 387.448,344.756C 387.894,346.55 388.355,348.394 388.846,350.272C 389.337,352.149 389.859,354.061 390.427,355.989C 390.972,357.929 391.555,359.886 392.163,361.859C 392.769,363.833 393.401,365.823 394.043,367.827C 395.322,371.831 396.691,375.868 398.04,379.899C 400.791,387.921 403.541,395.945 406.12,403.466 Z "/>
				<linearGradient id="SVGID_Fill33_" gradientUnits="objectBoundingBox" x1="-1.14752" y1="-0.225785" x2="7.05696" y2="-0.225785" gradientTransform="rotate(78.129417 -1.147515 -0.225785)">
					<stop offset="0" stop-color="#FFFFFF" stop-opacity="1"/>
					<stop offset="1" stop-color="#0E0E0C" stop-opacity="1"/>
				</linearGradient>
				<path fill="url(#SVGID_Fill33_)" stroke-width="0.2" stroke-linejoin="miter" d="M 233.8,333.351C 233.306,334.859 232.733,336.414 232.129,338.02C 231.552,339.631 230.955,341.296 230.34,343.008C 229.078,346.424 227.748,350.027 226.371,353.753C 224.998,357.492 223.579,361.356 222.137,365.282C 220.69,369.217 219.296,373.247 217.895,377.288C 216.547,381.345 215.182,385.407 213.977,389.455C 212.726,393.488 211.61,397.496 210.603,401.399C 210.071,403.34 209.606,405.268 209.171,407.16C 208.736,409.051 208.331,410.907 207.919,412.706C 207.537,414.514 207.2,416.281 206.888,417.993C 206.576,419.704 206.289,421.36 206.007,422.946C 205.613,425.333 205.305,427.583 205.035,429.654C 204.945,430.344 204.859,431.015 204.776,431.665C 204.582,432.958 204.459,434.179 204.362,435.312C 204.265,436.444 204.194,437.487 204.105,438.422C 203.99,439.83 203.907,441.012 203.848,441.941C 203.79,442.869 203.755,443.543 203.737,443.934L 203.72,444.329C 203.72,444.329 204.496,442.304 205.686,438.748C 205.98,437.86 206.306,436.877 206.66,435.806C 207.014,434.736 207.398,433.578 207.807,432.342C 208.23,431.11 208.674,429.8 209.131,428.417C 209.588,427.035 210.059,425.58 210.534,424.06C 211.059,422.552 211.594,420.98 212.141,419.352C 212.688,417.725 213.246,416.042 213.817,414.313C 214.422,412.591 215.011,410.817 215.615,409.004C 216.219,407.191 216.838,405.34 217.5,403.466C 218.79,399.705 220.122,395.819 221.476,391.87C 222.83,387.921 224.205,383.91 225.581,379.899C 226.929,375.868 228.299,371.831 229.578,367.827C 230.219,365.823 230.851,363.833 231.458,361.859C 232.065,359.886 232.648,357.929 233.193,355.989C 233.761,354.061 234.284,352.149 234.775,350.272C 235.265,348.394 235.726,346.55 236.172,344.756C 236.583,342.948 236.978,341.191 237.337,339.485C 237.697,337.78 238.021,336.127 238.288,334.529C 238.877,331.348 239.338,328.421 239.616,325.787C 239.782,324.48 239.925,323.257 240.037,322.126C 240.149,320.995 240.23,319.957 240.273,319.02C 240.33,318.082 240.375,317.244 240.41,316.514C 240.517,314.324 240.538,313.109 240.538,313.109C 240.538,313.109 240.252,313.903 239.766,315.375C 239.475,316.258 239.111,317.385 238.693,318.731C 238.175,320.541 237.374,322.673 236.594,325.134C 235.824,327.592 234.801,330.337 233.8,333.351 Z "/>
				<linearGradient id="SVGID_Fill34_" gradientUnits="objectBoundingBox" x1="-0.481777" y1="-10.8358" x2="13.9879" y2="-10.8358" gradientTransform="rotate(12.827026 -0.481777 -10.835775)">
					<stop offset="0" stop-color="#FFFFFF" stop-opacity="1"/>
					<stop offset="1" stop-color="#0E0E0C" stop-opacity="1"/>
				</linearGradient>
				<path fill="url(#SVGID_Fill34_)" stroke-width="0.2" stroke-linejoin="miter" d="M 385.097,570.922C 384.651,571.141 384.178,571.376 383.68,571.624C 382.681,572.115 381.594,572.691 380.38,573.254C 379.763,573.515 379.122,573.787 378.456,574.069C 377.79,574.351 377.1,574.643 376.387,574.945C 375.679,575.247 374.948,575.56 374.195,575.882C 373.443,576.204 372.668,576.535 371.874,576.874C 371.078,577.206 370.246,577.511 369.392,577.815C 368.538,578.119 367.661,578.422 366.775,578.75C 364.991,579.374 363.158,580.082 361.226,580.708C 359.276,581.277 357.26,581.865 355.188,582.469C 354.156,582.773 353.109,583.081 352.049,583.393C 350.969,583.628 349.876,583.865 348.77,584.105C 347.663,584.332 346.552,584.591 345.431,584.855C 344.311,585.118 343.181,585.385 342.035,585.626C 340.876,585.803 339.709,585.99 338.535,586.178C 336.186,586.554 333.806,586.931 331.391,587.221C 330.184,587.367 328.967,587.49 327.742,587.582C 324.086,588.07 320.361,588.163 316.627,588.258C 315.383,588.289 314.137,588.321 312.893,588.367C 307.915,588.19 302.917,588.234 298.043,587.585C 293.139,587.23 288.386,586.339 283.749,585.633C 281.462,585.118 279.213,584.611 277.012,584.116C 275.907,583.875 274.813,583.638 273.733,583.403C 272.674,583.091 271.627,582.782 270.594,582.478C 268.522,581.873 266.506,581.286 264.556,580.718C 263.59,580.404 262.649,580.07 261.726,579.737C 260.803,579.403 259.899,579.07 259.007,578.757C 257.238,578.102 255.497,577.542 253.912,576.883C 253.121,576.545 252.349,576.216 251.6,575.895C 250.851,575.575 250.123,575.264 249.418,574.963C 247.994,574.36 246.663,573.797 245.432,573.276C 244.211,572.709 243.114,572.125 242.11,571.631C 240.117,570.615 238.512,569.879 237.436,569.349C 236.895,569.088 236.48,568.889 236.2,568.754L 235.777,568.55C 235.777,568.55 236.066,568.765 236.617,569.175C 236.801,569.311 237.013,569.47 237.254,569.649C 238.223,570.357 239.62,571.437 241.445,572.731C 242.359,573.377 243.348,574.124 244.468,574.879C 245.051,575.228 245.658,575.591 246.288,575.968C 246.917,576.345 247.57,576.736 248.244,577.139C 248.924,577.542 249.626,577.957 250.349,578.385C 251.071,578.813 251.815,579.253 252.578,579.705C 254.115,580.598 255.824,581.308 257.562,582.177C 258.44,582.59 259.33,583.027 260.242,583.465C 261.153,583.905 262.085,584.347 263.044,584.77C 265.004,585.515 267.03,586.285 269.114,587.076C 270.16,587.469 271.219,587.868 272.292,588.271C 273.389,588.597 274.501,588.928 275.624,589.262C 277.872,589.934 280.183,590.584 282.542,591.208C 284.935,591.664 287.36,592.214 289.827,592.701C 292.294,593.187 294.803,593.61 297.367,593.814C 302.455,594.561 307.679,594.605 312.893,594.858C 318.106,594.613 323.33,594.563 328.419,593.817C 329.701,593.719 330.969,593.563 332.226,593.372C 335.995,592.798 339.655,591.898 343.245,591.215C 345.603,590.587 347.917,589.946 350.164,589.272C 351.287,588.938 352.399,588.607 353.497,588.281C 354.569,587.877 355.629,587.478 356.674,587.084C 358.758,586.294 360.785,585.524 362.745,584.781C 363.704,584.356 364.635,583.914 365.547,583.475C 366.458,583.035 367.349,582.598 368.227,582.185C 369.963,581.317 371.677,580.602 373.207,579.715C 373.967,579.264 374.707,578.826 375.426,578.399C 376.146,577.973 376.844,577.558 377.522,577.156C 378.195,576.754 378.846,576.364 379.474,575.988C 380.103,575.612 380.709,575.249 381.291,574.901C 381.854,574.521 382.385,574.143 382.891,573.778C 383.397,573.414 383.876,573.063 384.335,572.738C 387.988,570.105 390.009,568.55 390.009,568.55C 390.009,568.55 389.679,568.703 389.057,568.999C 388.227,569.393 386.878,570.042 385.097,570.922 Z "/>
			</g>
		</g>
	</g>
</svg>
