<?xml version="1.0" encoding="utf-8"?>
<!DOCTYPE svg PUBLIC "-//W3C//DTD SVG 1.1//EN" "http://www.w3.org/Graphics/SVG/1.1/DTD/svg11.dtd">
<svg xmlns="http://www.w3.org/2000/svg" xmlns:xlink="http://www.w3.org/1999/xlink" version="1.1" baseProfile="full" width="145.074" height="165.829" viewBox="0 0 145.07 165.83" enable-background="new 0 0 145.07 165.83" xml:space="preserve">
	<g>
		<g>
			<g>
				<linearGradient id="SVGID_Fill1_" gradientUnits="objectBoundingBox" x1="-0.376323" y1="7.45833" x2="9.29193" y2="7.45833" gradientTransform="rotate(-12.109077 -0.376323 7.458326)">
					<stop offset="0" stop-color="#FFFFFF" stop-opacity="1"/>
					<stop offset="0.488789" stop-color="#E09AD0" stop-opacity="1"/>
					<stop offset="1" stop-color="#F5BC40" stop-opacity="1"/>
				</linearGradient>
				<path fill="url(#SVGID_Fill1_)" stroke-width="0.2" stroke-linejoin="miter" d="M 73.093,34.2502L 31.4875,34.2502C 31.4875,34.2502 34.926,44.5657 43.522,51.0987L 73.093,51.0987L 102.664,51.0987C 111.26,44.5657 114.698,34.2502 114.698,34.2502L 73.093,34.2502 Z "/>
				<linearGradient id="SVGID_Fill2_" gradientUnits="objectBoundingBox" x1="-0.255566" y1="20.8658" x2="24.2842" y2="20.8658" gradientTransform="rotate(-4.083557 -0.255566 20.865808)">
					<stop offset="0" stop-color="#FFFFFF" stop-opacity="1"/>
					<stop offset="0.488789" stop-color="#E09AD0" stop-opacity="1"/>
					<stop offset="1" stop-color="#F5BC40" stop-opacity="1"/>
				</linearGradient>
				<rect x="24.9543" y="23.5909" fill="url(#SVGID_Fill2_)" stroke-width="0.2" stroke-linejoin="miter" width="96.9651" height="6.5332"/>
				<linearGradient id="SVGID_Fill3_" gradientUnits="objectBoundingBox" x1="-6.84596" y1="1.52314" x2="16.3869" y2="1.52314" gradientTransform="rotate(-84.823273 -6.845958 1.523136)">
					<stop offset="0" stop-color="#FFFFFF" stop-opacity="1"/>
					<stop offset="0.488789" stop-color="#E09AD0" stop-opacity="1"/>
					<stop offset="1" stop-color="#F5BC40" stop-opacity="1"/>
				</linearGradient>
				<rect x="44.8977" y="56.2565" fill="url(#SVGID_Fill3_)" stroke-width="0.2" stroke-linejoin="miter" width="6.53296" height="68.0536"/>
				<linearGradient id="SVGID_Fill4_" gradientUnits="objectBoundingBox" x1="-8.74036" y1="1.52314" x2="14.4916" y2="1.52314" gradientTransform="rotate(-84.823143 -8.740358 1.523136)">
					<stop offset="0" stop-color="#FFFFFF" stop-opacity="1"/>
					<stop offset="0.488789" stop-color="#E09AD0" stop-opacity="1"/>
					<stop offset="1" stop-color="#F5BC40" stop-opacity="1"/>
				</linearGradient>
				<rect x="57.2759" y="56.2565" fill="url(#SVGID_Fill4_)" stroke-width="0.2" stroke-linejoin="miter" width="6.5332" height="68.0536"/>
				<linearGradient id="SVGID_Fill5_" gradientUnits="objectBoundingBox" x1="-10.6351" y1="1.52314" x2="12.5969" y2="1.52314" gradientTransform="rotate(-84.823112 -10.635090 1.523136)">
					<stop offset="0" stop-color="#FFFFFF" stop-opacity="1"/>
					<stop offset="0.488789" stop-color="#E09AD0" stop-opacity="1"/>
					<stop offset="1" stop-color="#F5BC40" stop-opacity="1"/>
				</linearGradient>
				<rect x="69.6545" y="56.2565" fill="url(#SVGID_Fill5_)" stroke-width="0.2" stroke-linejoin="miter" width="6.5332" height="68.0536"/>
				<linearGradient id="SVGID_Fill6_" gradientUnits="objectBoundingBox" x1="-12.5298" y1="1.52314" x2="10.7022" y2="1.52314" gradientTransform="rotate(-84.823112 -12.529820 1.523136)">
					<stop offset="0" stop-color="#FFFFFF" stop-opacity="1"/>
					<stop offset="0.488789" stop-color="#E09AD0" stop-opacity="1"/>
					<stop offset="1" stop-color="#F5BC40" stop-opacity="1"/>
				</linearGradient>
				<rect x="82.0332" y="56.2565" fill="url(#SVGID_Fill6_)" stroke-width="0.2" stroke-linejoin="miter" width="6.5332" height="68.0536"/>
				<linearGradient id="SVGID_Fill7_" gradientUnits="objectBoundingBox" x1="-14.4245" y1="1.52314" x2="8.8075" y2="1.52314" gradientTransform="rotate(-84.823112 -14.424477 1.523136)">
					<stop offset="0" stop-color="#FFFFFF" stop-opacity="1"/>
					<stop offset="0.488789" stop-color="#E09AD0" stop-opacity="1"/>
					<stop offset="1" stop-color="#F5BC40" stop-opacity="1"/>
				</linearGradient>
				<rect x="94.4114" y="56.2565" fill="url(#SVGID_Fill7_)" stroke-width="0.2" stroke-linejoin="miter" width="6.5332" height="68.0536"/>
			</g>
			<linearGradient id="SVGID_Fill8_" gradientUnits="objectBoundingBox" x1="0.00119484" y1="1.10227" x2="1.51768" y2="1.10227" gradientTransform="rotate(-46.657608 0.001195 1.102273)">
				<stop offset="0" stop-color="#FFFFFF" stop-opacity="1"/>
				<stop offset="0.488789" stop-color="#E09AD0" stop-opacity="1"/>
				<stop offset="1" stop-color="#F5BC40" stop-opacity="1"/>
			</linearGradient>
			<path fill="url(#SVGID_Fill8_)" stroke-width="0.2" stroke-linejoin="miter" d="M 145.074,145.074L 0,145.074L 0,2.28882e-005L 145.074,2.28882e-005L 145.074,145.074 Z M 3.33325,141.741L 141.741,141.741L 141.741,3.33334L 3.33325,3.33334L 3.33325,141.741 Z "/>
		</g>
		<g>
			<linearGradient id="SVGID_Fill9_" gradientUnits="objectBoundingBox" x1="-0.0292356" y1="0.647941" x2="15.5257" y2="0.647941" gradientTransform="rotate(-54.748634 -0.029236 0.647941)">
				<stop offset="0" stop-color="#FFFFFF" stop-opacity="1"/>
				<stop offset="0.488789" stop-color="#E09AD0" stop-opacity="1"/>
				<stop offset="1" stop-color="#F5BC40" stop-opacity="1"/>
			</linearGradient>
			<path fill="url(#SVGID_Fill9_)" stroke-width="0.2" stroke-linejoin="round" d="M 5.79785,163.324C 6.51978,163.324 7.17041,163.253 7.75024,163.109C 8.33008,162.966 8.83032,162.721 9.25122,162.376C 9.6416,162.058 9.94629,161.648 10.165,161.144C 10.3833,160.641 10.4927,160.171 10.4927,159.733C 10.4927,159.296 10.4175,158.893 10.2671,158.525C 10.1165,158.157 9.90625,157.838 9.63574,157.567C 9.41016,157.342 9.17993,157.165 8.9458,157.036C 8.71216,156.908 8.40674,156.798 8.03052,156.707C 7.98584,156.693 7.93701,156.682 7.88428,156.675C 7.8313,156.668 7.73779,156.649 7.60376,156.618C 7.36157,156.557 7.16162,156.504 7.00415,156.46C 6.84668,156.415 6.70801,156.333 6.58789,156.213C 6.46802,156.107 6.36621,155.956 6.28271,155.76C 6.19922,155.563 6.15747,155.398 6.15747,155.264C 6.15747,155.097 6.18384,154.957 6.23682,154.844C 6.28955,154.731 6.35376,154.615 6.42896,154.495L 8.61963,151.627C 8.54443,151.613 8.43164,151.606 8.28125,151.606C 8.13037,151.606 7.90479,151.606 7.60376,151.606L 4.94043,151.606L 4.94043,163.324L 5.79785,163.324 Z M 4.68994,165.737C 4.4502,165.737 4.21729,165.73 3.99146,165.716C 3.76587,165.702 3.55469,165.664 3.3584,165.603C 3.16211,165.542 2.98486,165.444 2.82739,165.309C 2.66992,165.173 2.54639,164.978 2.45703,164.721C 2.42627,164.663 2.40723,164.588 2.39868,164.497C 2.39063,164.407 2.38306,164.245 2.37598,164.012C 2.36865,163.78 2.36548,163.448 2.36548,163.019C 2.36548,162.59 2.36548,162.006 2.36548,161.268L 2.36548,151.606L 1.73389,151.606C 1.38818,151.606 1.10254,151.493 0.876465,151.267C 0.650879,151.041 0.538086,150.756 0.538086,150.41C 0.538086,150.064 0.650879,149.774 0.876465,149.54C 1.10254,149.306 1.38818,149.189 1.73389,149.189L 8.12231,149.189C 8.7998,149.189 9.32642,149.231 9.70264,149.315C 10.0791,149.398 10.3955,149.575 10.6516,149.846C 10.8469,150.055 11.001,150.284 11.1138,150.533C 11.2266,150.783 11.2832,151.05 11.2832,151.334C 11.2832,151.922 11.0571,152.502 10.6057,153.073L 9.38525,154.632C 9.83691,154.811 10.2813,155.059 10.7188,155.375C 11.1563,155.691 11.5479,156.091 11.8936,156.573C 12.1943,157.01 12.4424,157.507 12.6377,158.063C 12.833,158.619 12.9307,159.251 12.9307,159.959C 12.9307,161.403 12.4036,162.675 11.3501,163.776C 10.7786,164.378 10.1953,164.814 9.60059,165.085C 9.00537,165.355 8.27173,165.543 7.39941,165.649C 7.30981,165.663 7.11816,165.681 6.82422,165.704C 6.53027,165.726 6.21045,165.737 5.86475,165.737L 4.68994,165.737 Z "/>
			<linearGradient id="SVGID_Fill10_" gradientUnits="objectBoundingBox" x1="-1.27272" y1="0.648021" x2="15.4563" y2="0.648021" gradientTransform="rotate(-58.067085 -1.272715 0.648021)">
				<stop offset="0" stop-color="#FFFFFF" stop-opacity="1"/>
				<stop offset="0.488789" stop-color="#E09AD0" stop-opacity="1"/>
				<stop offset="1" stop-color="#F5BC40" stop-opacity="1"/>
			</linearGradient>
			<path fill="url(#SVGID_Fill10_)" stroke-width="0.2" stroke-linejoin="round" d="M 21.0579,158.583L 21.0579,158.245C 21.0579,158.078 21.0579,157.885 21.0579,157.668C 21.0579,157.45 21.051,157.191 21.0366,156.89C 21.0205,156.408 21.001,155.986 20.9788,155.625C 20.9563,155.264 20.9185,154.952 20.8657,154.689C 20.8127,154.426 20.7417,154.2 20.6523,154.012C 20.563,153.823 20.4502,153.646 20.3137,153.479C 19.968,153.886 19.678,154.236 19.4443,154.53C 19.2102,154.824 19.011,155.076 18.8462,155.287C 18.6816,155.497 18.5464,155.678 18.4407,155.828C 18.3345,155.979 18.2441,156.107 18.1689,156.213C 17.8677,156.634 17.6196,157.066 17.4248,157.509C 17.2295,157.953 17.1011,158.311 17.04,158.583L 21.0579,158.583 Z M 15.481,165.783C 15.1353,165.783 14.835,165.656 14.5796,165.4C 14.3245,165.145 14.1968,164.844 14.1968,164.496L 14.1968,160.502C 14.1968,159.825 14.291,159.144 14.479,158.458C 14.6672,157.773 14.9116,157.102 15.2129,156.447C 15.5139,155.792 15.8635,155.168 16.2622,154.574C 16.6606,153.98 17.0776,153.435 17.5127,152.939C 17.6938,152.728 17.8521,152.546 17.9873,152.396C 18.1223,152.245 18.2278,152.117 18.303,152.011C 18.1829,151.936 18.0557,151.869 17.9202,151.809C 17.7852,151.749 17.6116,151.681 17.3999,151.606C 16.8896,151.411 16.5549,151.227 16.3965,151.054C 16.2375,150.881 16.1582,150.62 16.1582,150.272C 16.1582,149.913 16.2864,149.627 16.5425,149.417C 16.7991,149.206 17.1309,149.101 17.5374,149.101C 17.8223,149.101 18.0959,149.142 18.3594,149.225C 18.6226,149.307 18.9048,149.408 19.2061,149.528C 19.855,149.829 20.4277,150.179 20.9241,150.577C 21.4202,150.976 21.8411,151.39 22.1868,151.819C 22.5325,152.248 22.8037,152.678 23,153.107C 23.1963,153.536 23.3323,153.939 23.4075,154.315C 23.4966,154.856 23.5566,155.379 23.5872,155.883C 23.6177,156.387 23.6331,156.978 23.6331,157.656L 23.6331,158.583L 24.0386,158.583C 24.3704,158.583 24.6489,158.696 24.875,158.922C 25.1006,159.148 25.2134,159.425 25.2134,159.755C 25.2134,160.086 25.1006,160.365 24.875,160.591C 24.6489,160.816 24.3704,160.929 24.0386,160.929L 23.6331,160.929L 23.6331,164.429C 23.6331,164.774 23.5051,165.075 23.2485,165.332C 22.9924,165.588 22.6914,165.716 22.3457,165.716C 22,165.716 21.6987,165.588 21.4426,165.332C 21.186,165.075 21.0579,164.774 21.0579,164.429L 21.0579,160.929L 16.7686,160.929L 16.7686,164.496C 16.7686,164.844 16.6409,165.145 16.3857,165.4C 16.1304,165.656 15.8291,165.783 15.481,165.783 Z "/>
			<linearGradient id="SVGID_Fill11_" gradientUnits="objectBoundingBox" x1="-2.76429" y1="0.647574" x2="15.8315" y2="0.647574" gradientTransform="rotate(-61.758362 -2.764289 0.647574)">
				<stop offset="0" stop-color="#FFFFFF" stop-opacity="1"/>
				<stop offset="0.488789" stop-color="#E09AD0" stop-opacity="1"/>
				<stop offset="1" stop-color="#F5BC40" stop-opacity="1"/>
			</linearGradient>
			<path fill="url(#SVGID_Fill11_)" stroke-width="0.2" stroke-linejoin="round" d="M 27.6721,165.783C 27.3264,165.783 27.0259,165.656 26.7708,165.4C 26.5156,165.145 26.3879,164.844 26.3879,164.496L 26.3879,150.682C 26.3879,150.395 26.4141,150.184 26.4658,150.048C 26.5176,149.913 26.5667,149.808 26.6138,149.733C 26.8677,149.356 27.1982,149.168 27.605,149.168C 27.8472,149.168 28.0435,149.221 28.1943,149.325C 28.3447,149.43 28.5093,149.588 28.688,149.8L 33.2952,155.31L 33.2952,150.41C 33.2952,150.064 33.4231,149.763 33.6797,149.507C 33.9358,149.251 34.2368,149.122 34.5825,149.122C 34.9282,149.122 35.2295,149.251 35.4856,149.507C 35.7422,149.763 35.8704,150.064 35.8704,150.41L 35.8704,164.496C 35.8704,164.844 35.7422,165.145 35.4856,165.4C 35.2295,165.656 34.9282,165.783 34.5825,165.783C 34.2368,165.783 33.9358,165.656 33.6797,165.4C 33.4231,165.145 33.2952,164.844 33.2952,164.496L 33.2952,160.703C 33.2952,160.282 33.2798,159.948 33.2493,159.7C 33.2188,159.452 33.1895,159.252 33.1611,159.102C 33.0999,158.907 33.0129,158.726 32.8999,158.56C 32.7871,158.395 32.5801,158.139 32.2793,157.793L 28.9595,153.863L 28.9595,164.496C 28.9595,164.844 28.832,165.145 28.5771,165.4C 28.3218,165.656 28.02,165.783 27.6721,165.783 Z "/>
			<linearGradient id="SVGID_Fill12_" gradientUnits="objectBoundingBox" x1="-3.35281" y1="0.64922" x2="13.4209" y2="0.64922" gradientTransform="rotate(-57.859238 -3.352806 0.649220)">
				<stop offset="0" stop-color="#FFFFFF" stop-opacity="1"/>
				<stop offset="0.488789" stop-color="#E09AD0" stop-opacity="1"/>
				<stop offset="1" stop-color="#F5BC40" stop-opacity="1"/>
			</linearGradient>
			<path fill="url(#SVGID_Fill12_)" stroke-width="0.2" stroke-linejoin="round" d="M 48.104,164.52C 48.104,164.852 47.9875,165.134 47.7549,165.367C 47.522,165.6 47.2397,165.716 46.9082,165.716L 45.2822,165.716C 44.4543,165.716 43.6719,165.614 42.9346,165.411C 42.1973,165.208 41.4827,164.865 40.7913,164.383C 40.1282,163.931 39.5562,163.427 39.0752,162.871C 38.5942,162.315 38.2104,161.721 37.9233,161.088C 37.3828,159.914 37.1123,158.628 37.1123,157.229C 37.1123,156.566 37.1909,155.914 37.3486,155.275C 37.5061,154.635 37.7354,154.029 38.0364,153.458C 38.6995,152.193 39.6096,151.177 40.7668,150.41C 41.3687,150.017 42.0127,149.712 42.6982,149.495C 43.3838,149.277 44.1096,149.168 44.8762,149.168C 45.1772,149.168 45.5159,149.209 45.8921,149.292C 46.2686,149.374 46.6226,149.506 46.9541,149.687C 47.2856,149.868 47.5645,150.094 47.7903,150.364C 48.0159,150.635 48.1289,150.958 48.1289,151.334C 48.1289,151.471 48.1177,151.595 48.0952,151.708C 48.0728,151.821 48.0313,151.937 47.97,152.057C 47.9087,152.177 47.8218,152.32 47.709,152.486C 47.5962,152.652 47.4504,152.855 47.2717,153.094C 46.9707,153.518 46.7031,153.831 46.469,154.033C 46.2349,154.235 45.9524,154.336 45.6206,154.336C 45.3362,154.336 45.092,154.227 44.8887,154.01C 44.6851,153.792 44.5835,153.533 44.5835,153.232C 44.5835,152.976 44.6436,152.753 44.7637,152.565C 44.8833,152.377 45.0269,152.193 45.1938,152.011C 45.269,151.922 45.3401,151.84 45.4072,151.765C 45.4741,151.689 45.5078,151.621 45.5078,151.56C 45.5078,151.529 45.3196,151.514 44.9434,151.514C 44.0403,151.514 43.2053,151.74 42.4387,152.191C 42.1074,152.389 41.7952,152.631 41.5022,152.916C 41.2095,153.202 40.9502,153.525 40.7246,153.885C 40.3762,154.397 40.1201,154.951 39.9553,155.546C 39.7905,156.141 39.7085,156.754 39.7085,157.384C 39.7085,157.927 39.7607,158.439 39.8655,158.92C 39.97,159.401 40.1436,159.86 40.3857,160.298C 40.6563,160.81 40.9907,161.274 41.3892,161.688C 41.7881,162.102 42.2354,162.435 42.7317,162.689C 43.5757,163.113 44.6294,163.324 45.8921,163.324L 46.9082,163.324C 47.2397,163.324 47.522,163.441 47.7549,163.674C 47.9875,163.906 48.104,164.189 48.104,164.52 Z "/>
			<linearGradient id="SVGID_Fill13_" gradientUnits="objectBoundingBox" x1="-2.83921" y1="0.651019" x2="10.3857" y2="0.651019" gradientTransform="rotate(-46.426971 -2.839210 0.651019)">
				<stop offset="0" stop-color="#FFFFFF" stop-opacity="1"/>
				<stop offset="0.488789" stop-color="#E09AD0" stop-opacity="1"/>
				<stop offset="1" stop-color="#F5BC40" stop-opacity="1"/>
			</linearGradient>
			<path fill="url(#SVGID_Fill13_)" stroke-width="0.2" stroke-linejoin="round" d="M 57.7446,165.649C 56.917,165.649 56.5032,165.273 56.5032,164.52C 56.5032,164.144 56.5938,163.854 56.7747,163.651C 56.9556,163.447 57.1816,163.315 57.4521,163.254C 58.0234,163.134 58.5579,162.905 59.0552,162.566C 59.5527,162.227 59.9966,161.795 60.387,161.268C 60.7939,160.711 61.106,160.12 61.3235,159.495C 61.541,158.871 61.6499,158.22 61.6499,157.543C 61.6499,156.76 61.511,155.999 61.2336,155.262C 60.9561,154.525 60.5764,153.915 60.0942,153.433C 59.5674,152.892 58.9917,152.445 58.3674,152.091C 57.7432,151.737 57.0313,151.56 56.2314,151.56C 55.3284,151.56 54.5049,151.718 53.7603,152.034C 53.0161,152.351 52.3804,152.81 51.8538,153.412C 51.3716,153.953 50.9878,154.581 50.7021,155.296C 50.4163,156.011 50.2734,156.775 50.2734,157.589C 50.2734,158.266 50.3711,158.917 50.5664,159.541C 50.7612,160.165 51.0776,160.741 51.5151,161.268C 51.875,161.719 52.2922,162.119 52.7676,162.465C 53.2424,162.812 53.7434,163.068 54.27,163.233C 54.4961,163.308 54.6909,163.38 54.8557,163.448C 55.0205,163.516 55.1555,163.595 55.2612,163.684C 55.3672,163.774 55.4426,163.89 55.4873,164.034C 55.5317,164.177 55.5542,164.354 55.5542,164.566C 55.5542,164.957 55.4224,165.242 55.1592,165.423C 54.8958,165.604 54.5842,165.695 54.2241,165.695C 53.9536,165.695 53.6565,165.646 53.332,165.547C 53.0073,165.448 52.6758,165.316 52.3372,165.152C 51.9983,164.987 51.6641,164.795 51.3335,164.577C 51.0029,164.358 50.6943,164.12 50.4075,163.864C 49.8665,163.368 49.4077,162.845 49.0317,162.296C 48.6555,161.747 48.3462,161.126 48.1038,160.432C 47.7747,159.501 47.6099,158.44 47.6099,157.25C 47.6099,156.573 47.7075,155.895 47.9028,155.218C 48.0979,154.541 48.353,153.916 48.6682,153.345C 49,152.773 49.3916,152.243 49.843,151.754C 50.2944,151.265 50.8059,150.839 51.3774,150.477C 52.0549,150.056 52.7961,149.725 53.6018,149.484C 54.4072,149.243 55.1943,149.122 55.9634,149.122C 56.73,149.122 57.4819,149.224 58.2192,149.427C 58.9565,149.631 59.6487,149.921 60.2952,150.297C 60.928,150.673 61.5227,151.162 62.0803,151.765C 62.6377,152.367 63.0891,153.006 63.4348,153.684C 63.7053,154.255 63.9199,154.864 64.0786,155.511C 64.2373,156.158 64.3167,156.805 64.3167,157.455C 64.3167,158.085 64.2373,158.746 64.0786,159.439C 63.9199,160.131 63.7053,160.763 63.4348,161.335C 63.1948,161.817 62.9243,162.261 62.6235,162.668C 62.3225,163.075 61.9688,163.458 61.5618,163.818C 61.0347,164.3 60.4365,164.726 59.7661,165.095C 59.0959,165.465 58.4221,165.649 57.7446,165.649 Z "/>
			<linearGradient id="SVGID_Fill14_" gradientUnits="objectBoundingBox" x1="-4.25819" y1="0.651019" x2="8.96683" y2="0.651019" gradientTransform="rotate(-46.427395 -4.258191 0.651019)">
				<stop offset="0" stop-color="#FFFFFF" stop-opacity="1"/>
				<stop offset="0.488789" stop-color="#E09AD0" stop-opacity="1"/>
				<stop offset="1" stop-color="#F5BC40" stop-opacity="1"/>
			</linearGradient>
			<path fill="url(#SVGID_Fill14_)" stroke-width="0.2" stroke-linejoin="round" d="M 81.4502,165.649C 80.6223,165.649 80.2085,165.273 80.2085,164.52C 80.2085,164.144 80.2991,163.854 80.48,163.651C 80.6611,163.447 80.887,163.315 81.1575,163.254C 81.7288,163.134 82.2632,162.905 82.7607,162.566C 83.2581,162.227 83.7021,161.795 84.0923,161.268C 84.4993,160.711 84.8115,160.12 85.0288,159.495C 85.2463,158.871 85.3555,158.22 85.3555,157.543C 85.3555,156.76 85.2163,155.999 84.939,155.262C 84.6614,154.525 84.2817,153.915 83.7998,153.433C 83.2727,152.892 82.6973,152.445 82.0728,152.091C 81.4485,151.737 80.7366,151.56 79.9368,151.56C 79.0337,151.56 78.2102,151.718 77.4658,152.034C 76.7217,152.351 76.0859,152.81 75.5591,153.412C 75.0771,153.953 74.6934,154.581 74.4075,155.296C 74.1216,156.011 73.9788,156.775 73.9788,157.589C 73.9788,158.266 74.0764,158.917 74.2717,159.541C 74.4668,160.165 74.7832,160.741 75.2207,161.268C 75.5803,161.719 75.9976,162.119 76.4729,162.465C 76.9478,162.812 77.4487,163.068 77.9756,163.233C 78.2014,163.308 78.3965,163.38 78.561,163.448C 78.7258,163.516 78.8608,163.595 78.9668,163.684C 79.0725,163.774 79.1479,163.89 79.1926,164.034C 79.2373,164.177 79.2598,164.354 79.2598,164.566C 79.2598,164.957 79.1279,165.242 78.8645,165.423C 78.6011,165.604 78.2896,165.695 77.9297,165.695C 77.6592,165.695 77.3618,165.646 77.0374,165.547C 76.7129,165.448 76.3811,165.316 76.0425,165.152C 75.7036,164.987 75.3694,164.795 75.0391,164.577C 74.7083,164.358 74.3997,164.12 74.1128,163.864C 73.5718,163.368 73.1133,162.845 72.7373,162.296C 72.3608,161.747 72.0518,161.126 71.8091,160.432C 71.48,159.501 71.3154,158.44 71.3154,157.25C 71.3154,156.573 71.4131,155.895 71.6084,155.218C 71.8032,154.541 72.0586,153.916 72.3735,153.345C 72.7053,152.773 73.0969,152.243 73.5483,151.754C 74,151.265 74.5112,150.839 75.083,150.477C 75.7603,150.056 76.5015,149.725 77.3071,149.484C 78.1125,149.243 78.8997,149.122 79.6689,149.122C 80.4355,149.122 81.1875,149.224 81.9248,149.427C 82.6621,149.631 83.354,149.921 84.0005,150.297C 84.6333,150.673 85.228,151.162 85.7856,151.765C 86.343,152.367 86.7944,153.006 87.1401,153.684C 87.4106,154.255 87.6252,154.864 87.7842,155.511C 87.9426,156.158 88.022,156.805 88.022,157.455C 88.022,158.085 87.9426,158.746 87.7842,159.439C 87.6252,160.131 87.4106,160.763 87.1401,161.335C 86.9004,161.817 86.6299,162.261 86.3291,162.668C 86.0278,163.075 85.6741,163.458 85.2671,163.818C 84.7402,164.3 84.1418,164.726 83.4717,165.095C 82.8013,165.465 82.1274,165.649 81.4502,165.649 Z "/>
			<linearGradient id="SVGID_Fill15_" gradientUnits="objectBoundingBox" x1="-9.40062" y1="0.648245" x2="9.4439" y2="0.648245" gradientTransform="rotate(-61.878937 -9.400617 0.648245)">
				<stop offset="0" stop-color="#FFFFFF" stop-opacity="1"/>
				<stop offset="0.488789" stop-color="#E09AD0" stop-opacity="1"/>
				<stop offset="1" stop-color="#F5BC40" stop-opacity="1"/>
			</linearGradient>
			<path fill="url(#SVGID_Fill15_)" stroke-width="0.2" stroke-linejoin="round" d="M 89.8284,165.716C 89.3296,165.716 88.938,165.634 88.6536,165.469C 88.4583,165.363 88.3042,165.228 88.1914,165.062C 88.0786,164.896 88.022,164.67 88.022,164.383C 88.022,164.279 88.0332,164.178 88.0557,164.079C 88.0781,163.981 88.1226,163.871 88.1897,163.751C 88.2568,163.631 88.3467,163.493 88.4595,163.335C 88.5725,163.177 88.7192,162.993 88.9006,162.781C 89.1709,162.466 89.3931,162.191 89.5674,161.957C 89.7412,161.724 89.877,161.501 89.9746,161.291C 90.0723,161.08 90.1436,160.866 90.188,160.647C 90.2327,160.428 90.2551,160.161 90.2551,159.846L 90.2551,151.698L 89.7578,151.698C 89.4121,151.698 89.1187,151.577 88.8774,151.336C 88.6367,151.095 88.5159,150.802 88.5159,150.456C 88.5159,150.108 88.6367,149.814 88.8774,149.574C 89.1187,149.334 89.4121,149.214 89.7578,149.214L 91.25,149.214C 91.5649,149.214 91.8208,149.229 92.0171,149.258C 92.2134,149.288 92.4009,149.393 92.5796,149.574C 92.7466,149.739 92.845,149.904 92.8743,150.07C 92.9036,150.235 92.9185,150.446 92.9185,150.703L 92.9185,159.62C 92.9185,160.072 92.8882,160.471 92.8284,160.816C 92.7686,161.162 92.6787,161.482 92.5586,161.776C 92.4387,162.07 92.2959,162.352 92.1301,162.622C 91.9641,162.893 91.7754,163.172 91.5637,163.458L 94.0049,163.458C 94.125,163.458 94.2295,163.421 94.3188,163.346C 94.394,163.27 94.4771,163.187 94.5676,163.097C 94.6582,163.006 94.7412,162.908 94.8164,162.802C 95.0869,162.457 95.3271,162.197 95.5376,162.025C 95.748,161.852 95.9966,161.765 96.2837,161.765C 96.5542,161.765 96.8022,161.87 97.0278,162.081C 97.2539,162.291 97.3667,162.593 97.3667,162.986C 97.3667,163.195 97.3215,163.383 97.231,163.548C 97.1401,163.714 96.9905,163.925 96.7813,164.182L 96.1709,164.926C 96.0649,165.046 95.9631,165.151 95.8657,165.242C 95.7681,165.332 95.6663,165.408 95.5605,165.469C 95.4102,165.544 95.2407,165.604 95.0527,165.649C 94.8645,165.694 94.6282,165.716 94.3438,165.716L 89.8284,165.716 Z "/>
			<linearGradient id="SVGID_Fill16_" gradientUnits="objectBoundingBox" x1="-36.9289" y1="0.646766" x2="20.571" y2="0.646766" gradientTransform="rotate(-81.467865 -36.928860 0.646766)">
				<stop offset="0" stop-color="#FFFFFF" stop-opacity="1"/>
				<stop offset="0.488789" stop-color="#E09AD0" stop-opacity="1"/>
				<stop offset="1" stop-color="#F5BC40" stop-opacity="1"/>
			</linearGradient>
			<path fill="url(#SVGID_Fill16_)" stroke-width="0.2" stroke-linejoin="round" d="M 99.8501,165.829C 99.4739,165.829 99.1582,165.701 98.9028,165.445C 98.6479,165.188 98.5205,164.872 98.5205,164.496L 98.5205,150.41C 98.5205,150.034 98.6479,149.717 98.9028,149.461C 99.1582,149.205 99.4739,149.077 99.8501,149.077C 100.227,149.077 100.543,149.205 100.799,149.461C 101.056,149.717 101.184,150.034 101.184,150.41L 101.184,164.496C 101.184,164.872 101.056,165.188 100.799,165.445C 100.543,165.701 100.227,165.829 99.8501,165.829 Z "/>
			<linearGradient id="SVGID_Fill17_" gradientUnits="objectBoundingBox" x1="-8.05948" y1="0.647126" x2="7.17652" y2="0.647126" gradientTransform="rotate(-54.071022 -8.059484 0.647126)">
				<stop offset="0" stop-color="#FFFFFF" stop-opacity="1"/>
				<stop offset="0.488789" stop-color="#E09AD0" stop-opacity="1"/>
				<stop offset="1" stop-color="#F5BC40" stop-opacity="1"/>
			</linearGradient>
			<path fill="url(#SVGID_Fill17_)" stroke-width="0.2" stroke-linejoin="round" d="M 104.457,165.783C 104.095,165.783 103.786,165.656 103.531,165.4C 103.276,165.145 103.149,164.837 103.149,164.474L 103.149,151.719C 103.149,151.432 103.152,151.191 103.159,150.996C 103.166,150.8 103.173,150.646 103.18,150.533C 103.188,150.421 103.195,150.334 103.203,150.274C 103.211,150.214 103.216,150.169 103.216,150.138C 103.246,149.957 103.344,149.746 103.508,149.505C 103.673,149.264 103.937,149.144 104.299,149.144C 104.645,149.144 104.9,149.223 105.066,149.382C 105.232,149.54 105.412,149.762 105.607,150.047L 109.378,155.737C 109.409,155.798 109.436,155.851 109.458,155.895L 109.537,156.008L 109.616,155.895C 109.639,155.851 109.665,155.798 109.696,155.737L 113.601,149.846C 113.751,149.634 113.902,149.464 114.052,149.336C 114.203,149.208 114.444,149.144 114.776,149.144C 115.135,149.144 115.398,149.264 115.564,149.505C 115.73,149.746 115.828,149.957 115.859,150.138C 115.859,150.169 115.862,150.214 115.869,150.274C 115.876,150.334 115.884,150.421 115.892,150.533C 115.9,150.646 115.908,150.8 115.915,150.996C 115.922,151.191 115.925,151.432 115.925,151.719L 115.925,164.474C 115.925,164.837 115.797,165.145 115.541,165.4C 115.285,165.656 114.977,165.783 114.617,165.783C 114.254,165.783 113.946,165.656 113.691,165.4C 113.436,165.145 113.308,164.837 113.308,164.474L 113.308,154.608L 110.574,158.784C 110.454,158.98 110.349,159.134 110.258,159.247C 110.168,159.359 110.085,159.446 110.01,159.508C 109.935,159.569 109.859,159.61 109.784,159.633C 109.708,159.655 109.626,159.666 109.537,159.666C 109.356,159.666 109.198,159.618 109.063,159.52C 108.927,159.422 108.739,159.177 108.496,158.784L 105.766,154.587L 105.766,164.474C 105.766,164.837 105.638,165.145 105.381,165.4C 105.125,165.656 104.817,165.783 104.457,165.783 Z "/>
			<linearGradient id="SVGID_Fill18_" gradientUnits="objectBoundingBox" x1="-10.8084" y1="0.646615" x2="6.13298" y2="0.646615" gradientTransform="rotate(-58.553131 -10.808355 0.646615)">
				<stop offset="0" stop-color="#FFFFFF" stop-opacity="1"/>
				<stop offset="0.488789" stop-color="#E09AD0" stop-opacity="1"/>
				<stop offset="1" stop-color="#F5BC40" stop-opacity="1"/>
			</linearGradient>
			<path fill="url(#SVGID_Fill18_)" stroke-width="0.2" stroke-linejoin="round" d="M 125.34,154.043C 125.34,153.698 125.28,153.363 125.159,153.04C 125.038,152.716 124.864,152.442 124.639,152.216C 124.488,152.08 124.337,151.966 124.187,151.876C 124.036,151.785 123.867,151.714 123.679,151.662C 123.491,151.61 123.269,151.573 123.014,151.549C 122.759,151.526 122.45,151.514 122.088,151.514L 121.323,151.514L 121.323,158.086C 121.457,158.07 121.61,158.042 121.783,158.005C 121.956,157.967 122.088,157.934 122.18,157.906C 123.189,157.558 123.963,157.045 124.504,156.368C 124.775,156.039 124.982,155.671 125.125,155.264C 125.269,154.857 125.34,154.45 125.34,154.043 Z M 120.035,165.808C 119.689,165.808 119.388,165.68 119.132,165.423C 118.875,165.167 118.747,164.866 118.747,164.52L 118.747,151.514L 118.229,151.514C 117.897,151.514 117.615,151.398 117.382,151.165C 117.149,150.932 117.033,150.65 117.033,150.318C 117.033,149.987 117.149,149.704 117.382,149.472C 117.615,149.239 117.897,149.122 118.229,149.122L 122.381,149.122C 122.698,149.122 122.951,149.13 123.139,149.145C 123.327,149.161 123.466,149.175 123.556,149.189C 124.308,149.295 124.955,149.51 125.497,149.833C 126.04,150.157 126.543,150.635 127.009,151.267C 127.31,151.674 127.525,152.114 127.653,152.588C 127.781,153.062 127.845,153.585 127.845,154.156C 127.845,154.819 127.687,155.546 127.371,156.336C 127.054,157.126 126.595,157.823 125.993,158.425C 125.377,159.041 124.67,159.522 123.873,159.869C 123.076,160.216 122.226,160.434 121.323,160.524L 121.323,164.52C 121.323,164.866 121.194,165.167 120.938,165.423C 120.682,165.68 120.381,165.808 120.035,165.808 Z "/>
			<linearGradient id="SVGID_Fill19_" gradientUnits="objectBoundingBox" x1="-7.64323" y1="0.651019" x2="5.5817" y2="0.651019" gradientTransform="rotate(-46.426971 -7.643232 0.651019)">
				<stop offset="0" stop-color="#FFFFFF" stop-opacity="1"/>
				<stop offset="0.488789" stop-color="#E09AD0" stop-opacity="1"/>
				<stop offset="1" stop-color="#F5BC40" stop-opacity="1"/>
			</linearGradient>
			<path fill="url(#SVGID_Fill19_)" stroke-width="0.2" stroke-linejoin="round" d="M 138.004,165.649C 137.177,165.649 136.763,165.273 136.763,164.52C 136.763,164.144 136.854,163.854 137.034,163.651C 137.215,163.447 137.441,163.315 137.712,163.254C 138.283,163.134 138.818,162.905 139.315,162.566C 139.813,162.227 140.256,161.795 140.647,161.268C 141.054,160.711 141.366,160.12 141.583,159.495C 141.801,158.871 141.91,158.22 141.91,157.543C 141.91,156.76 141.771,155.999 141.493,155.262C 141.216,154.525 140.836,153.915 140.354,153.433C 139.827,152.892 139.251,152.445 138.627,152.091C 138.003,151.737 137.291,151.56 136.491,151.56C 135.588,151.56 134.765,151.718 134.02,152.034C 133.276,152.351 132.64,152.81 132.114,153.412C 131.631,153.953 131.248,154.581 130.962,155.296C 130.676,156.011 130.533,156.775 130.533,157.589C 130.533,158.266 130.631,158.917 130.826,159.541C 131.021,160.165 131.337,160.741 131.775,161.268C 132.135,161.719 132.552,162.119 133.027,162.465C 133.502,162.812 134.003,163.068 134.53,163.233C 134.756,163.308 134.951,163.38 135.115,163.448C 135.28,163.516 135.415,163.595 135.521,163.684C 135.627,163.774 135.702,163.89 135.747,164.034C 135.792,164.177 135.814,164.354 135.814,164.566C 135.814,164.957 135.682,165.242 135.419,165.423C 135.156,165.604 134.844,165.695 134.484,165.695C 134.213,165.695 133.916,165.646 133.592,165.547C 133.267,165.448 132.936,165.316 132.597,165.152C 132.258,164.987 131.924,164.795 131.593,164.577C 131.263,164.358 130.954,164.12 130.667,163.864C 130.126,163.368 129.667,162.845 129.292,162.296C 128.915,161.747 128.606,161.126 128.364,160.432C 128.034,159.501 127.87,158.44 127.87,157.25C 127.87,156.573 127.967,155.895 128.163,155.218C 128.358,154.541 128.613,153.916 128.928,153.345C 129.26,152.773 129.651,152.243 130.103,151.754C 130.554,151.265 131.066,150.839 131.637,150.477C 132.315,150.056 133.056,149.725 133.862,149.484C 134.667,149.243 135.454,149.122 136.223,149.122C 136.99,149.122 137.742,149.224 138.479,149.427C 139.216,149.631 139.908,149.921 140.555,150.297C 141.188,150.673 141.782,151.162 142.34,151.765C 142.897,152.367 143.349,153.006 143.695,153.684C 143.965,154.255 144.18,154.864 144.338,155.511C 144.497,156.158 144.576,156.805 144.576,157.455C 144.576,158.085 144.497,158.746 144.338,159.439C 144.18,160.131 143.965,160.763 143.695,161.335C 143.455,161.817 143.184,162.261 142.883,162.668C 142.582,163.075 142.229,163.458 141.822,163.818C 141.294,164.3 140.696,164.726 140.026,165.095C 139.356,165.465 138.682,165.649 138.004,165.649 Z "/>
		</g>
	</g>
</svg>
