<?xml version="1.0" encoding="utf-8"?>
<!DOCTYPE svg PUBLIC "-//W3C//DTD SVG 1.1//EN" "http://www.w3.org/Graphics/SVG/1.1/DTD/svg11.dtd">
<svg xmlns="http://www.w3.org/2000/svg" xmlns:xlink="http://www.w3.org/1999/xlink" version="1.1" baseProfile="full" width="132.295" height="132.283" viewBox="0 0 132.29 132.28" enable-background="new 0 0 132.29 132.28" xml:space="preserve">
	<g>
		<linearGradient id="SVGID_Fill1_" gradientUnits="objectBoundingBox" x1="0.142755" y1="0.975924" x2="0.96868" y2="0.975924" gradientTransform="rotate(-45.928383 0.142755 0.975924)">
			<stop offset="0" stop-color="#000000" stop-opacity="1"/>
			<stop offset="0.488789" stop-color="#E09AD0" stop-opacity="1"/>
			<stop offset="1" stop-color="#F5BC40" stop-opacity="1"/>
		</linearGradient>
		<path fill="url(#SVGID_Fill1_)" stroke-width="1.33333" stroke-linejoin="miter" d="M 65.9297,-3.8147e-005C 29.5115,0.0988388 0.0458984,29.6213 0,66.1086C 0.00634766,102.684 29.6699,132.691 66.9663,132.283C 102.833,131.891 132.256,102.815 132.294,66.1959C 132.333,29.5417 102.706,-0.0998917 65.9297,-3.8147e-005 Z M 66.2534,130.043C 31.0767,130.095 2.63647,101.823 2.25684,66.8623C 1.86987,31.2156 30.5869,2.26412 66.1523,2.23971C 101.233,2.25106 129.721,30.469 130.051,65.5225C 130.386,101.123 101.711,129.99 66.2534,130.043 Z "/>
		<linearGradient id="SVGID_Fill2_" gradientUnits="objectBoundingBox" x1="0.113421" y1="1.01507" x2="1.00724" y2="1.01507" gradientTransform="rotate(-45.931721 0.113421 1.015071)">
			<stop offset="0" stop-color="#000000" stop-opacity="1"/>
			<stop offset="0.488789" stop-color="#E09AD0" stop-opacity="1"/>
			<stop offset="1" stop-color="#F5BC40" stop-opacity="1"/>
		</linearGradient>
		<path fill="url(#SVGID_Fill2_)" stroke-width="1.33333" stroke-linejoin="miter" d="M 105.552,34.5391C 103.08,31.4634 100.324,28.7455 97.2222,26.3269C 97.8469,25.5018 98.4255,24.7375 99.0156,23.9579C 99.5193,24.3233 99.9817,24.5936 100.366,24.9486C 101.874,26.3421 103.359,27.759 104.847,29.1739C 105.393,29.6929 106.101,29.7298 106.649,29.2188C 107.823,28.1259 108.992,27.0285 110.152,25.9207C 110.957,25.1511 110.983,24.6198 110.219,23.8149C 109.51,23.0673 108.756,22.3622 108.023,21.6369C 107.543,21.1612 107.1,20.6392 106.579,20.2143C 105.419,19.2697 104.239,18.3462 103.031,17.464C 101.549,16.3807 100.032,15.3437 98.5229,14.2963C 98.002,13.9347 97.4766,13.5742 96.9258,13.2617C 96.0713,12.7772 95.396,12.9834 94.9243,13.8327C 94.0425,15.42 93.165,17.0096 92.2859,18.5982C 91.6865,19.6814 91.0872,20.7647 90.4773,21.8671C 86.9846,20.0106 83.4058,18.4187 79.5166,17.4565C 79.7996,16.4872 80.0745,15.5459 80.3577,14.5764C 81.5776,14.9215 82.7334,15.1849 83.8428,15.5789C 85.0969,16.0245 86.3093,16.5879 87.5403,17.0991C 88.4722,17.4862 88.9541,17.3074 89.384,16.3947C 90.0417,14.9989 90.6904,13.5988 91.3408,12.1995C 91.8418,11.122 91.6509,10.5807 90.5547,10.0855C 89.6484,9.67617 88.7505,9.22225 87.8047,8.92953C 84.8157,8.00393 81.8232,7.07894 78.7969,6.28805C 77.3105,5.89974 75.75,5.7828 74.217,5.59097C 73.3262,5.47958 72.7207,5.86111 72.6506,6.50149C 72.4597,8.24911 72.2773,9.9977 72.1072,11.7475C 71.9746,13.1117 71.8652,14.4779 71.7397,15.9109C 67.7471,15.4796 63.8457,15.5072 59.8921,15.9946C 59.7622,14.9931 59.6392,14.0418 59.5127,13.0667C 59.7358,13.0341 59.8589,13.0051 59.9829,12.9995C 62.332,12.893 64.6809,12.7789 67.0308,12.6898C 68.0498,12.6511 68.5156,12.2337 68.5598,11.2397C 68.6326,9.60909 68.7004,7.97817 68.7859,6.34829C 68.8159,5.77596 68.5388,5.39809 68.0483,5.21481C 67.7021,5.08547 67.3081,5.04195 66.9341,5.03579C 63.5562,4.98049 60.1929,5.19149 56.8638,5.7662C 54.7002,6.13973 52.5483,6.5917 50.4067,7.07705C 49.4102,7.30282 49.1304,7.92501 49.4099,8.88546C 50.2075,11.6265 51.0037,14.3681 51.7979,17.1102C 51.8486,17.2857 51.8792,17.4671 51.9106,17.6092C 48.1726,18.8631 44.5542,20.259 41.1711,22.2758C 40.6575,21.4017 40.1599,20.5544 39.6184,19.6329C 40.8408,19.0023 42.0093,18.3667 43.2068,17.7911C 44.3877,17.2235 45.6094,16.7409 46.7908,16.174C 47.4551,15.8551 47.6099,15.3358 47.3567,14.6267C 46.8096,13.0946 46.2615,11.563 45.707,10.0336C 45.3936,9.16891 44.6765,8.81405 43.856,9.17825C 41.9844,10.0092 40.1206,10.859 38.271,11.7379C 37.5474,12.0819 36.8638,12.5131 36.1738,12.9243C 34.6704,13.8201 33.1521,14.6933 31.6841,15.6439C 30.675,16.2971 29.7375,17.0612 28.7732,17.7825C 28.249,18.1745 28.146,18.9398 28.5547,19.4759C 29.0137,20.0778 29.4873,20.6692 29.9666,21.2551C 31.2905,22.8737 32.6216,24.4865 33.947,26.1038C 34.0669,26.2502 34.2217,26.4011 34.2593,26.5721C 34.2957,26.7376 34.2649,26.9995 34.1548,27.1028C 33.324,27.8819 32.4333,28.5991 31.624,29.3989C 30.2324,30.7746 28.874,32.1847 27.5273,33.6047C 27.0679,34.0889 26.6851,34.6458 26.2344,35.2112C 25.4233,34.5991 24.6543,34.0186 23.8484,33.4104C 24.2842,32.8423 24.6465,32.2931 25.0847,31.8139C 26.3997,30.3768 27.7471,28.9694 29.0762,27.5454C 29.6782,26.9007 29.6873,26.4206 29.0833,25.7733C 27.9607,24.5708 26.8284,23.3772 25.686,22.1936C 25.0273,21.5111 24.5264,21.4738 23.8228,22.1062C 23.1506,22.7104 22.5327,23.3752 21.8945,24.0168C 21.3276,24.5868 20.7205,25.1241 20.2114,25.7421C 19.2607,26.8964 18.3411,28.0789 17.4585,29.2863C 16.3875,30.7516 15.3628,32.251 14.3291,33.7434C 13.9441,34.2992 13.562,34.8605 13.23,35.4485C 12.8223,36.1713 12.9067,37.0662 13.394,37.3584C 14.2651,37.8805 15.1472,38.3845 16.0381,38.8715C 17.3169,39.5704 18.606,40.2501 19.8933,40.9325C 20.5208,41.2652 21.1545,41.5856 21.8135,41.926C 19.9556,45.4764 18.3574,49.0701 17.4275,52.9509C 16.4243,52.6608 15.4939,52.3916 14.5276,52.1122C 14.894,50.8434 15.1924,49.6111 15.6099,48.4207C 16.0364,47.2045 16.5869,46.032 17.0698,44.8351C 17.407,43.9986 17.2236,43.5173 16.4053,43.1306C 14.9521,42.4438 13.4961,41.7633 12.0298,41.1056C 11.0073,40.647 10.5098,40.8804 10.0288,41.902C 8.51465,45.1172 7.5249,48.5138 6.67334,51.9424C 6.16479,53.9891 5.90039,56.0989 5.58228,58.1889C 5.41602,59.2814 5.89795,59.8176 6.95947,59.9078C 8.96509,60.0781 10.9717,60.2378 12.9756,60.426C 13.937,60.5163 14.8936,60.6616 15.8972,60.7876C 15.4995,64.6323 15.5259,68.4101 15.98,72.2404C 14.9761,72.3613 14.0269,72.4754 13.0488,72.5932C 13.0264,72.3903 13.0088,72.2875 13.0042,72.1843C 12.9011,69.9408 12.7896,67.6978 12.7017,65.4538C 12.6616,64.4311 12.2783,63.9957 11.2476,63.9435C 9.68066,63.8643 8.11353,63.7967 6.5459,63.7364C 5.58643,63.6996 5.09814,64.1423 5.05542,65.1229C 5.02246,65.8846 4.99316,66.6537 5.05908,67.4112C 5.33057,70.5331 5.56836,73.6606 5.96191,76.7679C 6.17603,78.4577 6.6333,80.1227 7.06714,81.7764C 7.31348,82.7155 7.89233,82.9509 8.81421,82.6929C 10.8103,82.1344 12.8096,81.5864 14.8032,81.0197C 15.7483,80.7512 16.6841,80.4498 17.572,80.179C 18.7832,83.9756 20.2141,87.5783 22.1907,90.9818C 21.3247,91.4899 20.4915,91.9785 19.6074,92.4971C 19.2124,91.8091 18.7664,91.1381 18.4258,90.4173C 17.6855,88.8504 16.9912,87.2613 16.293,85.6747C 15.8655,84.7029 15.3914,84.4805 14.4036,84.8299C 12.9485,85.3447 11.4932,85.8585 10.0369,86.3699C 9.05615,86.7144 8.72998,87.3966 9.15967,88.3632C 10.0173,90.292 10.8779,92.2207 11.7979,94.1199C 12.4048,95.3725 13.0413,96.6238 13.8013,97.7861C 15.0142,99.641 16.3379,101.423 17.6208,103.232C 18.1233,103.941 18.7739,104.033 19.4653,103.494C 20.3474,102.807 21.2241,102.112 22.0942,101.41C 22.4385,101.132 22.7476,100.81 23.0923,100.532C 23.699,100.043 24.3201,99.5713 24.936,99.0934C 25.5269,98.6351 26.1191,98.1782 26.7334,97.7031C 29.2332,100.856 32.0127,103.544 35.0869,105.966C 34.457,106.793 33.8774,107.555 33.1802,108.471C 31.238,106.657 29.3796,104.934 27.5381,103.194C 26.8862,102.578 26.251,102.519 25.5996,103.124C 24.4255,104.213 23.27,105.323 22.103,106.421C 21.3872,107.095 21.303,107.621 21.9756,108.329C 23.1948,109.612 24.4268,110.891 25.7449,112.07C 26.8733,113.079 28.1106,113.97 29.335,114.865C 30.7832,115.924 32.2656,116.937 33.7407,117.959C 34.2961,118.344 34.8562,118.727 35.4429,119.061C 36.2183,119.502 36.926,119.275 37.3589,118.515C 37.7561,117.817 38.1816,117.134 38.5676,116.429C 39.2266,115.225 39.8606,114.007 40.5127,112.799C 40.9404,112.006 41.3813,111.221 41.8301,110.408C 45.311,112.279 48.8994,113.846 52.7822,114.835C 52.5132,115.778 52.2478,116.708 51.959,117.721C 50.7205,117.364 49.5483,117.087 48.4209,116.684C 47.1272,116.223 45.8779,115.637 44.6001,115.129C 43.8547,114.833 43.3491,115.019 43.0168,115.714C 42.26,117.296 41.5159,118.885 40.7905,120.482C 40.5703,120.967 40.5967,121.482 41.1235,121.757C 42.1499,122.293 43.1621,122.91 44.2559,123.251C 47.605,124.295 50.978,125.268 54.3669,126.173C 55.5645,126.493 56.8325,126.559 58.0732,126.702C 58.9893,126.807 59.5938,126.425 59.6631,125.741C 59.8647,123.761 60.0498,121.778 60.2463,119.797C 60.3582,118.67 60.4795,117.543 60.6008,116.377C 64.5813,116.808 68.4653,116.782 72.4116,116.292C 72.5415,117.289 72.6658,118.244 72.7949,119.235C 72.4893,119.267 72.2605,119.304 72.0305,119.314C 69.7231,119.412 67.4158,119.504 65.1084,119.601C 64.2583,119.638 63.7917,120.11 63.7532,120.959C 63.679,122.589 63.6052,124.22 63.5313,125.851C 63.5012,126.516 63.7739,126.948 64.4072,127.141C 64.6851,127.225 64.9902,127.241 65.2837,127.247C 68.6624,127.319 72.0254,127.101 75.3547,126.534C 77.561,126.159 79.7527,125.687 81.9343,125.187C 82.9048,124.964 83.1765,124.341 82.9089,123.421C 82.0996,120.639 81.2947,117.856 80.4893,115.073C 80.4502,114.937 80.4236,114.797 80.395,114.676C 84.127,113.426 87.748,112.041 91.1355,110.012C 91.6504,110.887 92.1479,111.731 92.6848,112.642C 91.4868,113.274 90.3464,113.918 89.1689,114.484C 87.9893,115.051 86.7629,115.521 85.5759,116.073C 84.8813,116.397 84.697,116.93 84.9514,117.65C 85.4937,119.184 86.0388,120.717 86.5913,122.248C 86.9138,123.142 87.6421,123.476 88.5017,123.086C 90.5586,122.15 92.6082,121.198 94.6499,120.23C 95.1631,119.987 95.636,119.657 96.1252,119.364C 97.6431,118.454 99.1826,117.577 100.669,116.618C 101.662,115.978 102.58,115.222 103.527,114.512C 104.058,114.114 104.165,113.355 103.754,112.821C 103.202,112.103 102.642,111.39 102.067,110.689C 100.931,109.3 99.7813,107.922 98.6423,106.536C 98.428,106.275 98.2021,106.011 98.0549,105.712C 97.9897,105.58 98.0432,105.289 98.1521,105.187C 98.9829,104.408 99.8735,103.691 100.683,102.891C 102.075,101.513 103.434,100.101 104.782,98.679C 105.242,98.1941 105.626,97.6377 106.074,97.0781C 106.891,97.6937 107.66,98.2742 108.466,98.8818C 107.997,99.4767 107.597,100.05 107.13,100.561C 105.831,101.985 104.5,103.378 103.193,104.793C 102.639,105.393 102.635,105.89 103.18,106.472C 104.318,107.688 105.463,108.899 106.622,110.096C 107.288,110.785 107.805,110.805 108.535,110.141C 109.172,109.56 109.779,108.944 110.365,108.312C 111.498,107.09 112.686,105.907 113.706,104.595C 115.089,102.814 116.346,100.933 117.638,99.0822C 118.146,98.3545 118.631,97.6076 119.076,96.84C 119.61,95.9187 119.382,95.1885 118.474,94.6826C 116.351,93.5003 114.234,92.3071 112.105,91.136C 111.596,90.8555 111.047,90.6445 110.482,90.3857C 112.351,86.8227 113.937,83.2439 114.88,79.3391C 115.865,79.6221 116.81,79.8933 117.799,80.1772C 117.392,81.5223 117.05,82.8094 116.61,84.0626C 116.205,85.2192 115.685,86.3354 115.234,87.4766C 114.913,88.2885 115.101,88.7909 115.86,89.1464C 117.353,89.8461 118.873,90.4909 120.343,91.235C 121.187,91.6619 121.821,91.3503 122.233,90.4839C 122.66,89.5868 123.097,88.6808 123.389,87.7352C 124.313,84.7455 125.238,81.753 126.025,78.7259C 126.417,77.2187 126.538,75.637 126.724,74.0822C 126.86,72.9502 126.433,72.4753 125.329,72.3814C 123.745,72.2467 122.16,72.1327 120.578,71.9803C 119.196,71.8472 117.817,71.6733 116.49,71.5236C 116.559,69.5491 116.685,67.667 116.672,65.7859C 116.658,63.8892 116.506,61.9935 116.411,60.0432C 117.328,59.9291 118.265,59.8122 119.243,59.6905C 119.281,59.929 119.329,60.1114 119.337,60.2958C 119.433,62.4963 119.531,64.697 119.611,66.8981C 119.642,67.7555 120.057,68.2947 120.807,68.3317C 122.479,68.4146 124.152,68.4911 125.826,68.5552C 126.673,68.5875 127.165,68.136 127.248,67.2847C 127.266,67.0951 127.263,66.9035 127.266,66.7128C 127.342,62.2447 126.795,57.8334 126.014,53.4479C 125.833,52.4313 125.533,51.4303 125.219,50.4443C 124.977,49.6828 124.439,49.3335 123.854,49.4956C 121.55,50.1325 119.253,50.7916 116.955,51.4453C 116.194,51.6618 115.435,51.8867 114.721,52.0944C 113.532,48.2856 112.087,44.6888 110.115,41.3023C 110.992,40.7915 111.828,40.305 112.711,39.7909C 113.184,40.6307 113.699,41.4346 114.104,42.2904C 114.782,43.7228 115.393,45.1869 116.027,46.6401C 116.438,47.5821 116.917,47.8056 117.871,47.4717C 119.347,46.9548 120.822,46.433 122.297,45.9127C 123.212,45.5898 123.551,44.923 123.185,44.0191C 122.599,42.5697 122.021,41.1128 121.341,39.7067C 120.615,38.2059 119.861,36.7054 118.966,35.3034C 117.58,33.1333 116.07,31.0418 114.595,28.9287C 114.212,28.3789 113.507,28.2954 112.972,28.6968C 112.434,29.1003 111.905,29.5158 111.382,29.9395C 109.775,31.2438 108.176,32.5592 106.565,33.8589C 106.257,34.1072 105.907,34.303 105.552,34.5391 Z M 112.462,32.4897C 112.903,32.1697 113.373,31.8895 113.908,31.5396C 116.611,35.3207 118.879,39.2683 120.58,43.5124C 119.582,43.9282 118.613,44.3317 117.565,44.7681C 117.318,44.1442 117.128,43.5412 116.849,42.9822C 116.197,41.6756 115.504,40.3893 114.825,39.0965C 114.56,38.593 114.311,38.0791 114.012,37.5963C 113.494,36.7598 112.882,36.6748 112.055,37.2084C 110.777,38.033 109.472,38.816 108.182,39.6223C 107.431,40.0916 107.276,40.7283 107.714,41.5144C 108.342,42.6425 109.057,43.7306 109.586,44.9034C 110.505,46.9442 111.34,49.025 112.147,51.1134C 112.465,51.9362 112.606,52.8266 112.843,53.6819C 113.088,54.5673 113.636,54.8409 114.53,54.6224C 117.504,53.8954 120.484,53.1889 123.438,52.4802C 124.11,53.6914 125.368,63.5269 125.056,66.0983C 123.995,66.0983 122.928,66.0983 121.764,66.0983C 121.764,65.5977 121.789,65.1146 121.76,64.6347C 121.631,62.5228 121.503,60.4108 121.342,58.3011C 121.267,57.3229 120.596,56.8641 119.62,57.0319C 118.098,57.2936 116.574,57.5501 115.049,57.7978C 114.258,57.9264 113.929,58.4307 114.014,59.3208C 114.197,61.2386 114.475,63.1583 114.488,65.0786C 114.502,67.379 114.318,69.6835 114.146,71.9808C 114.059,73.1549 114.348,73.6165 115.516,73.7856C 118.365,74.1977 121.213,74.6211 124.061,75.0409C 124.142,75.053 124.222,75.0776 124.348,75.1067C 123.95,79.7588 122.329,84.0643 120.82,88.4752C 119.752,88.0099 118.772,87.5832 117.767,87.1454C 118.154,86.1154 118.57,85.145 118.883,84.1427C 119.363,82.6106 119.795,81.0625 120.203,79.5095C 120.417,78.6967 120.07,78.1293 119.255,77.9272C 117.694,77.5404 116.126,77.1763 114.552,76.8453C 113.725,76.6713 113.285,76.9889 113.043,77.8147C 112.609,79.2935 112.241,80.7953 111.727,82.2455C 111.241,83.6182 110.637,84.9529 110.021,86.2753C 109.399,87.6136 108.702,88.917 108.033,90.2339C 107.683,90.9246 107.799,91.431 108.477,91.8544C 109.371,92.4134 110.294,92.9249 111.191,93.4795C 112.271,94.1471 113.33,94.8496 114.412,95.5156C 115.109,95.9451 115.83,96.3364 116.585,96.7709C 114.087,100.703 111.347,104.35 108.089,107.596C 107.261,106.816 106.484,106.083 105.827,105.463C 107.584,103.323 109.299,101.27 110.97,99.182C 111.532,98.4802 111.388,97.9299 110.655,97.4048C 109.404,96.5082 108.158,95.6031 106.9,94.7139C 106.032,94.0999 105.614,94.2262 104.948,95.0308C 103.669,96.5765 102.403,98.1448 100.997,99.5703C 99.4587,101.13 97.7661,102.536 96.1445,104.014C 95.8794,104.255 95.5515,104.477 95.4019,104.782C 95.2515,105.088 95.1685,105.525 95.2695,105.835C 95.4226,106.305 95.7278,106.738 96.0254,107.145C 97.1499,108.683 98.2974,110.205 99.436,111.732C 99.9246,112.388 100.412,113.044 100.942,113.756C 97.1572,116.491 93.2275,118.763 88.929,120.514C 88.5293,119.509 88.1367,118.521 87.7188,117.47C 88.3003,117.239 88.865,117.063 89.3855,116.799C 90.7061,116.131 92.0063,115.422 93.3159,114.731C 93.8003,114.475 94.3008,114.246 94.77,113.965C 95.6873,113.416 95.7969,112.831 95.2271,111.935C 94.4224,110.669 93.6411,109.389 92.8442,108.119C 92.3577,107.343 91.7075,107.181 90.8994,107.636C 89.8293,108.237 88.8032,108.934 87.689,109.437C 85.5522,110.4 83.3784,111.283 81.1958,112.139C 80.3953,112.453 79.5205,112.573 78.6914,112.821C 77.8796,113.063 77.627,113.614 77.8291,114.444C 78.5298,117.321 79.2146,120.203 79.9033,123.083C 79.9321,123.203 79.9402,123.327 79.957,123.442C 78.1865,124.166 68.3052,125.4 66.3928,125.007C 66.3928,123.968 66.3928,122.918 66.3928,121.8C 66.6301,121.787 66.854,121.779 67.0771,121.764C 69.4839,121.599 71.8938,121.471 74.2949,121.248C 75.2808,121.157 75.614,120.576 75.439,119.588C 75.165,118.045 74.8789,116.504 74.5906,114.964C 74.4421,114.171 74.0845,113.901 73.249,113.984C 71.9424,114.114 70.6406,114.309 69.3318,114.402C 66.3047,114.618 63.2837,114.531 60.2683,114.159C 59.8154,114.103 59.2993,114.186 58.8813,114.366C 58.6455,114.467 58.4541,114.881 58.4072,115.18C 58.0847,117.229 57.8135,119.287 57.51,121.34C 57.3652,122.319 57.1855,123.293 57.0081,124.352C 55.832,124.168 54.6868,124.084 53.5945,123.798C 51.406,123.226 49.2419,122.556 47.0762,121.899C 46.0859,121.598 45.1165,121.229 44.135,120.898C 43.822,120.793 43.6685,120.643 43.8271,120.291C 44.2175,119.427 44.5918,118.555 44.9893,117.647C 45.5681,117.89 46.0974,118.162 46.6567,118.338C 48.6316,118.96 50.6121,119.563 52.5996,120.142C 53.4011,120.375 53.9807,120.034 54.1895,119.213C 54.5957,117.613 54.9731,116.006 55.335,114.396C 55.4866,113.72 55.0649,113.196 54.29,112.972C 52.7686,112.53 51.2148,112.172 49.7378,111.612C 47.1296,110.624 44.5527,109.547 42.1592,108.083C 41.2078,107.501 40.7444,107.629 40.1736,108.561C 38.6953,110.975 37.2214,113.392 35.7444,115.806C 35.6238,116.004 35.4941,116.195 35.3188,116.467C 34.8206,116.117 34.3369,115.794 33.8696,115.448C 31.8159,113.929 29.7402,112.438 27.7273,110.866C 26.7334,110.09 25.8633,109.155 24.9268,108.304C 24.5652,107.976 24.6631,107.742 24.9712,107.427C 25.5908,106.794 26.1636,106.114 26.7466,105.464C 28.7319,107.553 30.7827,109.233 32.9087,110.823C 33.667,111.39 34.1938,111.288 34.7373,110.539C 35.6421,109.292 36.5483,108.046 37.4456,106.794C 38.0527,105.947 37.9563,105.528 37.1689,104.874C 34.9106,102.999 32.6221,101.154 30.6782,98.9349C 29.6768,97.792 28.6992,96.628 27.689,95.4932C 27.1196,94.8532 26.6665,94.8274 25.9688,95.3257C 24.1465,96.6272 22.3237,97.9274 20.5071,99.2366C 19.8286,99.7256 19.167,100.238 18.429,100.792C 15.7036,96.9662 13.4243,93.0428 11.729,88.7754C 12.7197,88.3617 13.7004,87.9522 14.7407,87.5175C 15.0054,88.1746 15.217,88.8178 15.5156,89.4177C 16.1479,90.6869 16.8242,91.9343 17.4849,93.1891C 17.7495,93.6919 17.9976,94.2057 18.2947,94.689C 18.8096,95.5264 19.428,95.6119 20.2522,95.0787C 21.5291,94.2525 22.8337,93.4693 24.124,92.6638C 24.873,92.1964 25.033,91.5501 24.5938,90.7716C 24.0007,89.7208 23.3174,88.7113 22.8247,87.6155C 21.8809,85.5149 21.0142,83.3779 20.1782,81.2313C 19.8584,80.4097 19.7173,79.519 19.4824,78.6631C 19.2178,77.6976 18.7065,77.449 17.7117,77.6909C 14.7554,78.4102 11.7932,79.1043 8.84814,79.8047C 8.14404,78.2453 6.92334,68.4963 7.26343,66.1937C 8.30664,66.1937 9.35742,66.1937 10.4893,66.1937C 10.5024,66.4023 10.5176,66.624 10.5308,66.8459C 10.6694,69.1926 10.7847,71.5411 10.957,73.8854C 11.04,75.0149 11.6709,75.4232 12.7754,75.2283C 14.2346,74.9708 15.6973,74.731 17.1616,74.5037C 18.0291,74.3691 18.4309,73.8882 18.2861,73.0004C 17.8201,70.1451 17.7256,67.2694 17.8269,64.3877C 17.876,62.9922 18.0188,61.5981 18.1685,60.2087C 18.2805,59.1669 17.9287,58.6682 16.8833,58.5164C 14.0146,58.0998 11.1467,57.6763 8.27881,57.2539C 8.17749,57.239 8.0791,57.2068 7.98657,57.1843C 7.99854,54.7107 10.1882,46.5308 11.5657,43.8496C 12.5393,44.2707 13.5186,44.6942 14.543,45.1371C 14.1211,46.2452 13.6538,47.3077 13.312,48.409C 12.8486,49.9015 12.4536,51.4169 12.0864,52.9364C 11.9175,53.6359 12.2505,54.1458 12.9609,54.3245C 14.5815,54.732 16.21,55.1138 17.8457,55.4555C 18.6067,55.6146 19.0396,55.2613 19.2756,54.4522C 19.7312,52.891 20.0947,51.2952 20.666,49.7774C 21.6411,47.187 22.7139,44.6316 24.1548,42.2503C 24.7043,41.3422 24.5593,40.8695 23.6558,40.313C 21.7139,39.1176 19.7781,37.9129 17.8318,36.725C 17.1655,36.3183 16.4751,35.9509 15.7266,35.5263C 18.2036,31.5862 20.9695,27.9435 24.1743,24.7234C 25.0291,25.5029 25.8203,26.2247 26.5474,26.8878C 25.8831,27.6497 25.291,28.3332 24.6941,29.0124C 24.0808,29.7105 23.4453,30.3901 22.8521,31.1045C 22.3264,31.7375 21.8281,32.3951 21.3491,33.0644C 20.8013,33.8308 20.9058,34.3398 21.6733,34.8916C 22.9238,35.7905 24.1694,36.6965 25.427,37.5855C 26.2871,38.1935 26.7058,38.0542 27.373,37.235C 28.5596,35.7786 29.7424,34.3063 31.0615,32.974C 32.6636,31.3561 34.4055,29.8767 36.0854,28.336C 36.3345,28.1077 36.5854,27.8801 36.8203,27.6377C 37.2498,27.1941 37.2913,26.7087 36.9294,26.2028C 36.2048,25.1894 35.4854,24.1722 34.7468,23.1688C 33.8938,22.01 33.0132,20.8715 32.165,19.7091C 31.894,19.3375 31.6892,18.9177 31.425,18.471C 35.1599,15.8149 39.0715,13.5077 43.373,11.7819C 43.7725,12.7763 44.1621,13.7457 44.5745,14.7711C 44.251,14.9339 43.938,15.0911 43.625,15.2489C 42.061,16.0378 40.4971,16.827 38.9329,17.6158C 38.4426,17.8631 37.9316,18.0755 37.4663,18.3627C 36.6255,18.8819 36.5283,19.4871 37.0544,20.3109C 37.8506,21.5568 38.6199,22.8195 39.4082,24.0702C 40.0076,25.021 40.5972,25.134 41.5869,24.5539C 42.6277,23.9442 43.6489,23.2822 44.7446,22.7898C 46.8247,21.8546 48.9404,20.9946 51.0654,20.1652C 51.8672,19.8523 52.7417,19.7318 53.5715,19.4852C 54.4199,19.233 54.6836,18.6732 54.4756,17.8255C 53.7441,14.8477 53.0308,11.8657 52.313,8.89462C 53.6797,8.16695 63.2419,6.99831 65.8857,7.2336C 65.8857,8.29391 65.8857,9.36105 65.8857,10.5398C 65.4297,10.5398 64.9695,10.5164 64.5125,10.5439C 62.4832,10.6655 60.4521,10.7727 58.4265,10.9424C 57.0137,11.0608 56.6538,11.6394 56.9321,13.0292C 57.1982,14.3577 57.4209,15.6953 57.6509,17.0309C 57.8462,18.1655 58.2146,18.4437 59.3293,18.2758C 63.6321,17.6275 67.9399,17.61 72.2524,18.1729C 73.3025,18.31 73.7869,17.9456 73.9443,16.8955C 74.3577,14.1331 74.7686,11.3701 75.1829,8.60769C 75.2134,8.40328 75.2646,8.20205 75.304,8.01046C 77.7363,8.02444 86.1858,10.3158 88.6191,11.6353C 88.1968,12.6178 87.7698,13.6112 87.3264,14.643C 86.5955,14.3399 85.9312,14.0062 85.2314,13.786C 83.4185,13.2154 81.5942,12.6784 79.7649,12.1616C 78.8635,11.9071 78.3323,12.2258 78.1035,13.1367C 77.7117,14.6973 77.3459,16.2645 76.9888,17.8333C 76.8354,18.5074 77.158,19.0313 77.8455,19.2508C 78.6113,19.4953 79.376,19.7601 80.1599,19.9277C 82.3342,20.3927 84.3235,21.3264 86.3032,22.2849C 87.689,22.9559 89.0532,23.6724 90.4268,24.3689C 91.1013,24.7108 91.6089,24.5717 92.0344,23.8805C 93.5525,21.4151 95.0588,18.9426 96.5706,16.4734C 96.6902,16.2779 96.8179,16.0872 96.9922,15.8155C 97.5361,16.1991 98.0527,16.5506 98.5557,16.921C 100.494,18.348 102.452,19.7502 104.354,21.2246C 105.335,21.9853 106.225,22.8662 107.135,23.7156C 107.826,24.3617 107.797,24.379 107.125,25.0319C 106.564,25.5766 106.04,26.1602 105.551,26.6729C 104.061,25.3575 102.653,24.0942 101.22,22.8607C 100.628,22.3518 99.9949,21.8886 99.3572,21.4378C 98.6184,20.9156 98.1021,21.0116 97.5742,21.7367C 96.6553,22.9997 95.7383,24.2644 94.832,25.5365C 94.261,26.3379 94.377,26.7796 95.1235,27.4015C 96.5674,28.6046 98.0459,29.7802 99.377,31.1016C 100.976,32.6895 102.437,34.4171 103.956,36.0854C 104.042,36.1792 104.112,36.2869 104.198,36.3804C 105.246,37.5218 105.394,37.5894 106.673,36.7003C 108.632,35.3387 110.531,33.8911 112.462,32.4897 Z "/>
		<linearGradient id="SVGID_Fill3_" gradientUnits="objectBoundingBox" x1="-0.0217595" y1="1.19468" x2="1.18406" y2="1.19468" gradientTransform="rotate(-45.933563 -0.021760 1.194685)">
			<stop offset="0" stop-color="#000000" stop-opacity="1"/>
			<stop offset="0.488789" stop-color="#E09AD0" stop-opacity="1"/>
			<stop offset="1" stop-color="#F5BC40" stop-opacity="1"/>
		</linearGradient>
		<path fill="url(#SVGID_Fill3_)" stroke-width="1.33333" stroke-linejoin="miter" d="M 65.3953,20.8403C 41.4905,21.1117 19.6433,41.0508 20.9097,68.5298C 21.9639,91.4065 40.8325,111.357 66.2451,111.46C 91.0232,111.402 111.98,91.2211 111.449,65.0544C 110.966,41.2252 91.436,20.5448 65.3953,20.8403 Z M 65.9834,109.205C 42.1602,109.107 23.1914,89.9573 23.0591,66.102C 23.2998,41.9639 42.1975,24.1681 63.8403,23.1441C 90.0569,21.9036 109.204,42.8332 109.231,65.926C 109.259,90.0949 89.907,109.303 65.9834,109.205 Z "/>
	</g>
</svg>
